<?xml version="1.0" encoding="UTF-8" standalone="no"?>
<svg
   xmlns:dc="http://purl.org/dc/elements/1.1/"
   xmlns:cc="http://creativecommons.org/ns#"
   xmlns:rdf="http://www.w3.org/1999/02/22-rdf-syntax-ns#"
   xmlns:svg="http://www.w3.org/2000/svg"
   xmlns="http://www.w3.org/2000/svg"
   xmlns:sodipodi="http://sodipodi.sourceforge.net/DTD/sodipodi-0.dtd"
   xmlns:inkscape="http://www.inkscape.org/namespaces/inkscape"
   width="1e3"
   height="1e3"
   data-name="Layer 1"
   version="1.1"
   viewBox="0 0 1e3 1e3"
   id="svg333"
   sodipodi:docname="1.svg"
   inkscape:version="0.92.4 (5da689c313, 2019-01-14)">
  <metadata
     id="metadata337">
    <rdf:RDF>
      <cc:Work
         rdf:about="">
        <dc:format>image/svg+xml</dc:format>
        <dc:type
           rdf:resource="http://purl.org/dc/dcmitype/StillImage" />
      </cc:Work>
    </rdf:RDF>
  </metadata>
  <sodipodi:namedview
     pagecolor="#ffffff"
     bordercolor="#666666"
     borderopacity="1"
     objecttolerance="10"
     gridtolerance="10"
     guidetolerance="10"
     inkscape:pageopacity="0"
     inkscape:pageshadow="2"
     inkscape:window-width="1366"
     inkscape:window-height="705"
     id="namedview335"
     showgrid="false"
     inkscape:zoom="0.472"
     inkscape:cx="502.22586"
     inkscape:cy="586.1222"
     inkscape:window-x="-8"
     inkscape:window-y="-8"
     inkscape:window-maximized="1"
     inkscape:current-layer="svg333" />
  <defs
     id="defs9">
    <linearGradient
       id="a0337754-c09d-4430-960e-4dcfef50d642"
       x1="880.14"
       x2="880.14"
       y1="757.49"
       y2="274.88"
       gradientTransform="translate(-22.3 151.76)"
       gradientUnits="userSpaceOnUse">
      <stop
         stop-color="gray"
         stop-opacity=".25"
         offset="0"
         id="stop2" />
      <stop
         stop-color="gray"
         stop-opacity=".12"
         offset=".54"
         id="stop4" />
      <stop
         stop-color="gray"
         stop-opacity=".1"
         offset="1"
         id="stop6" />
    </linearGradient>
  </defs>
  <title
     id="title11">to do list</title>
  <g
     transform="matrix(.86547 0 0 .86547 .002641 -20.808)"
     id="g331">
    <g
       id="g81"
       fill="#ffc107">
      <path
         d="m356.76 243.76c39.2-35.31 100.74-42.5 156.75-39.69 175.93 8.83 334.74 94.59 472.11 191.6 49.73 35.12 98.69 73 131 121.33 65.72 98.45 46.22 234.84-45.15 315.94-31.09 27.6-68.78 48.75-107.47 67.51-68.79 33.34-143 60.1-221.09 67.72-55.68 5.43-112 1-167.4-6.56-154.65-21.18-306.45-68-433.69-148.14-55.83-35.14-108.43-78.83-131.43-135.71s-8.28-128.89 48.7-162.54c23.57-13.92 51.74-20.2 79.33-26.11 40.61-8.68 81.86-17.25 118.51-34.91 37.85-18.24 82.66-53.52 75.17-93.9-8.04-43.29-14.49-81.34 24.66-116.54z"
         id="path13"
         opacity=".1" />
      <path
         d="m256.7 651.33s10.37-7.43 21.1-2.84c0 0-3 6.38-16.37 6.3z"
         id="path15" />
      <path
         d="m255.41 651.76s-2.77 12.45 5.67 20.53c0 0 4.68-5.27-0.64-17.53z"
         id="path17"
         style="fill:#d37e01;fill-opacity:1" />
      <path
         d="m241.7 640.43s0.38-10.51 24.18-7.94c0 0 0.37 6.76-7.81 10.28s-12.1 0.99-16.37-2.34z"
         id="path19"
         style="fill:#d37e01;fill-opacity:1" />
      <path
         d="m240.23 640.41s-9.89 3.6-0.11 25.46c0 0 6.54-1.73 7.37-10.6s-2.79-11.8-7.26-14.86z"
         id="path21"
         style="fill:#d37e01;fill-opacity:1" />
      <path
         d="m226.26 626.06s-2-17.2 22.24-16.36c0 0 2.31 15.55-17.81 20.34z"
         id="path23"
         style="fill:#d37e01;fill-opacity:1" />
      <path
         d="m209.53 607.2s2.57-19.67 27-14.78c0 0 0.74 16.9-22.84 19.29z"
         id="path25"
         style="fill:#d37e01;fill-opacity:1" />
      <path
         d="m197.08 587.51s4.82-19.29 29-14.47c0 0-5 17.35-27.27 17.93z"
         id="path27"
         style="fill:#d37e01;fill-opacity:1" />
      <path
         d="m185.23 568.28s4.67-20 28-14.92c0 0-7 19.07-26.37 18.23z"
         id="path29"
         style="fill:#d37e01;fill-opacity:1" />
      <path
         d="m177.36 549.88s3.25-24.33 25-19.81c0 0-5.42 22.23-23.3 23.26z"
         id="path31"
         style="fill:#d37e01;fill-opacity:1" />
      <path
         d="m169.79 527.57s4.07-24.55 26.15-18.3c0 0-7.68 23.35-24.5 21.61z"
         id="path33"
         style="fill:#d37e01;fill-opacity:1" />
      <path
         d="m164.83 506.76s7-24.66 23.92-24.65c0 0-7.15 26-22.32 29.48z"
         id="path35"
         style="fill:#d37e01;fill-opacity:1" />
      <path
         d="m161.41 486.34s7.53-29.66 21.35-27.92c0 0-5.13 22.64-20.69 32.47z"
         id="path37"
         style="fill:#d37e01;fill-opacity:1" />
      <path
         d="m158.98 461.92s7.17-24.74 20.69-26.24c0 0-4.6 24.25-20.15 32.58z"
         id="path39"
         style="fill:#d37e01;fill-opacity:1" />
      <path
         d="m156.46 439.2s9.18-24.85 18.12-25.75c0 0-3.47 24.25-17.07 29.73z"
         id="path41"
         style="fill:#d37e01;fill-opacity:1" />
      <path
         d="m154.53 418.02s5.2-26.81 14.06-29.35c0 0-0.39 21.77-13.09 31.3z"
         id="path43"
         style="fill:#d37e01;fill-opacity:1" />
      <path
         d="m150.1 390.38s5.73-21.42 12.85-24.93c0 0-0.48 25-11 30z"
         id="path45"
         style="fill:#d37e01;fill-opacity:1" />
      <path
         d="m146.6 372.24-2.75-37.28s14.6 27.66 4 43.83z"
         id="path47"
         style="fill:#d37e01;fill-opacity:1" />
      <path
         d="m134.7 335.54s-10.79-26.89-13.19-28.32c0 0 19.8 17 18.8 39.78z"
         id="path49"
         style="fill:#d37e01;fill-opacity:1" />
      <path
         d="m225.6 625.96s-17.25-1.59-15.8 22.63c0 0 15.6 1.93 19.89-18.31z"
         id="path51"
         style="fill:#d37e01;fill-opacity:1" />
      <path
         d="m208.7 606.58s-19.82 0.69-17.26 25.44c0 0 16.75 2.34 21.36-20.91z"
         id="path53"
         style="fill:#d37e01;fill-opacity:1" />
      <path
         d="m196.95 589.13s-18.32-7.75-29 14.47c0 0 16.89 6.39 30.72-11z"
         id="path55"
         style="fill:#d37e01;fill-opacity:1" />
      <path
         d="m184.83 568.48s-18.76-8.28-28.77 13.42c0 0 19.45 5.87 30.42-10.12z"
         id="path57"
         style="fill:#d37e01;fill-opacity:1" />
      <path
         d="m177.61 550.39s-18.38-16.26-31.87 1.42c0 0 18.65 13.24 32.83 2.32z"
         id="path59"
         style="fill:#d37e01;fill-opacity:1" />
      <path
         d="m170.77 526.95s-18.5-16.64-31.85 2c0 0 20.57 13.45 32.63 1.59z"
         id="path61"
         style="fill:#d37e01;fill-opacity:1" />
      <path
         d="m166.63 505.97s-14.57-21.1-30.57-15.66c0 0 15.14 22.36 30.61 20.75z"
         id="path63"
         style="fill:#d37e01;fill-opacity:1" />
      <path
         d="m161.82 486.19s-14.91-26.72-27.81-21.49c0 0 10.78 20.56 28.33 26.05z"
         id="path65"
         style="fill:#d37e01;fill-opacity:1" />
      <path
         d="m159.87 460.49s-15.06-20.9-28.29-17.77c0 0 12.47 21.3 29.91 23.93z"
         id="path67"
         style="fill:#d37e01;fill-opacity:1" />
      <path
         d="m157.95 438.66s-11.95-23.64-20.93-23.51c0 0 6.21 23.7 20.34 27.58z"
         id="path69"
         style="fill:#d37e01;fill-opacity:1" />
      <path
         d="m154.95 417.48s-13.2-23.9-22.42-23.6c0 0 7.08 20.6 22.09 25.76z"
         id="path71"
         style="fill:#d37e01;fill-opacity:1" />
      <path
         d="m152.12 391.76s-9.95-19.82-17.63-21.81c0 0 5.53 24.4 16.82 27.2z"
         id="path73"
         style="fill:#d37e01;fill-opacity:1" />
      <path
         d="m145.48 371.58-21.69-30.44s6.43 30.62 24.91 36.28z"
         id="path75"
         style="fill:#d37e01;fill-opacity:1" />
      <path
         d="m130.11 338.23s-24.41-15.53-25.41-18.16c0 0 13 22.58 35.66 25.78z"
         id="path77"
         style="fill:#d37e01;fill-opacity:1" />
      <path
         d="m128.4 330.89s-28.36-25.25-35.34-24.95c0 0 22.6 0.16 36 23.53z"
         id="path79"
         style="fill:#d37e01;fill-opacity:1" />
    </g>
    <g
       id="g89"
       fill="#444053">
      <path
         d="m152 395.76-1 0.17c-6.68-40.05-15.09-63.54-23.67-66.16l0.29-1c9.08 2.76 17.54 25.91 24.38 66.99z"
         id="path83" />
      <path
         d="m163.25 491.64-1.5 0.18c-0.46-3.74-0.86-7.58-1.17-11.4-2.71-33.25-6.11-63.75-9.91-86.57l0.83-1.11c3.81 22.86 7.87 54.26 10.59 87.56 0.31 3.8 0.7 7.61 1.16 11.34z"
         id="path85" />
      <path
         d="m285.53 669.41c-0.27-0.11-27.23-10.93-55.83-38.11a218.64 218.64 0 0 1-41.84-54.7c-13.71-25.41-22.68-56.95-26.47-87.77l1.6 0.68c8.5 69.18 41.92 115.42 68 140.27 28.32 26.94 55 37.65 55.25 37.75z"
         id="path87" />
    </g>
    <g
       transform="translate(0 203.52)"
       id="g167"
       opacity=".7">
      <g
         id="g157"
         fill="#ffc107">
        <path
           transform="translate(-22.3,-51.76)"
           d="m320.84 436.21s12.11-4 21 3.57c0 0-4.77 5.2-17.51 1.14z"
           id="path91" />
        <path
           transform="translate(-22.3,-51.76)"
           d="m319.48 436.23s-6.34 11.07-0.69 21.28c0 0 6-3.63 4.61-16.92z"
           id="path93" />
        <path
           transform="translate(-22.3,-51.76)"
           d="m309.75 421.34s3.5-9.92 25.45-0.39c0 0-1.65 6.57-10.52 7.49s-11.83-2.67-14.93-7.1z"
           id="path95" />
        <path
           transform="translate(-22.3,-51.76)"
           d="m308.36 420.89s-10.5 0.5-7.68 24.27c0 0 6.77 0.3 10.2-7.93s0.84-12.1-2.52-16.34z"
           id="path97" />
        <path
           transform="translate(-22.3,-51.76)"
           d="m299.3 403s3.19-17 26.09-9c0 0-2.41 15.53-23.05 14.12z"
           id="path99" />
        <path
           transform="translate(-22.3,-51.76)"
           d="m288.94 380s8.3-18 30.14-6.08c0 0-4.32 16.35-27.55 11.62z"
           id="path101" />
        <path
           transform="translate(-22.3,-51.76)"
           d="m282.9 357.55s10.35-17 32-5.19c0 0-10 15.06-31.37 9z"
           id="path103" />
        <path
           transform="translate(-22.3,-51.76)"
           d="m277.31 335.66s10.4-17.68 31.19-5.91c0 0-12.35 16.12-30.59 9.56z"
           id="path105"
           style="fill:#d37e01;fill-opacity:1" />
        <path
           transform="translate(-22.3,-51.76)"
           d="m275.27 315.75s10.34-22.26 29.78-11.46c0 0-11.79 19.6-29.16 15.27z"
           id="path107"
           style="fill:#d37e01;fill-opacity:1" />
        <path
           transform="translate(-22.3,-51.76)"
           d="m274.69 292.2s11.19-22.23 30.4-9.69c0 0-14.27 20-29.81 13.34z"
           id="path109"
           style="fill:#d37e01;fill-opacity:1" />
        <path
           d="m276.16 270.83s14-21.46 30.16-16.42c0 0-14.57 22.73-30.08 21.51z"
           id="path111"
           transform="translate(-22.3,-51.76)"
           style="fill:#d37e01;fill-opacity:1" />
        <path
           transform="translate(-22.3,-51.76)"
           d="m279 250.34s16-26.07 28.69-20.3c0 0-11.64 20.09-29.41 24.84z"
           id="path113"
           style="fill:#d37e01;fill-opacity:1" />
        <path
           transform="translate(-22.3,-51.76)"
           d="m283.89 226.31s14.22-21.49 27.56-18.9c0 0-11.6 21.79-28.92 25.11z"
           id="path115"
           style="fill:#d37e01;fill-opacity:1" />
        <path
           transform="translate(-22.3,-51.76)"
           d="m288.26 203.86s16.15-21 24.95-19.18c0 0-10.53 22.12-25.14 23.29z"
           id="path117"
           style="fill:#d37e01;fill-opacity:1" />
        <path
           transform="translate(-22.3,-51.76)"
           d="m292.71 183.07s12.94-24 22.16-23.84c0 0-6.86 20.67-21.81 26z"
           id="path119"
           style="fill:#d37e01;fill-opacity:1" />
        <path
           transform="translate(-22.3,-51.76)"
           d="m296.7 155.36s11.85-18.74 19.69-20c0 0-7.9 23.74-19.42 25.41z"
           id="path121"
           style="fill:#d37e01;fill-opacity:1" />
        <path
           transform="translate(-22.3,-51.76)"
           d="m298.76 137 8.47-36.42s5.71 30.75-9.23 43z"
           id="path123"
           style="fill:#d37e01;fill-opacity:1" />
        <path
           transform="translate(-22.3,-51.76)"
           d="m298.34 98.43s-2.31-28.88-4.17-31c0 0 13.86 22.08 6.12 43.58z"
           id="path125"
           style="fill:#d37e01;fill-opacity:1" />
        <path
           transform="translate(-22.3,-51.76)"
           d="m298.69 402.73s-16-6.64-21.81 16.92c0 0 14.31 6.48 24.43-11.57z"
           id="path127" />
        <path
           transform="translate(-22.3,-51.76)"
           d="m288.32 379.2s-19.13-5.23-24.05 19.16c0 0 15.3 7.22 26.62-13.61z"
           id="path129" />
        <path
           transform="translate(-22.3,-51.76)"
           d="m282.3 359.05s-15.18-12.85-32 5.19c0 0 14.22 11.13 32.61-1.38z"
           id="path131" />
        <path
           transform="translate(-22.3,-51.76)"
           d="m276.88 335.73s-15.46-13.48-31.46 4.25c0 0 16.82 11.4 32.05-0.6z"
           id="path133"
           style="fill:#d37e01;fill-opacity:1" />
        <path
           transform="translate(-22.3,-51.76)"
           d="m275.37 316.32s-12.72-21-30.86-8.14c0 0 13.87 18.2 30.66 12z"
           id="path135"
           style="fill:#d37e01;fill-opacity:1" />
        <path
           transform="translate(-22.3,-51.76)"
           d="m275.81 291.9s-12.72-21.39-31-7.55c0 0 15.64 19 30.67 11.23z"
           id="path137"
           style="fill:#d37e01;fill-opacity:1" />
        <path
           transform="translate(-22.3,-51.76)"
           d="m278.09 270.63s-7.63-24.47-24.52-24c0 0 7.8 25.86 23.05 28.92z"
           id="path139"
           style="fill:#d37e01;fill-opacity:1" />
        <path
           transform="translate(-22.3,-51.76)"
           d="m279.38 250.32s-6.28-29.95-20.15-28.79c0 0 4.18 22.84 19.3 33.31z"
           id="path141"
           style="fill:#d37e01;fill-opacity:1" />
        <path
           transform="translate(-22.3,-51.76)"
           d="m285.18 225.21s-8.16-24.44-21.73-25.39c0 0 5.57 24.05 21.44 31.75z"
           id="path143"
           style="fill:#d37e01;fill-opacity:1" />
        <path
           transform="translate(-22.3,-51.76)"
           d="m289.84 203.79s-4.38-26.12-13-28.67c0 0-1.11 24.47 11.22 32.39z"
           id="path145"
           style="fill:#d37e01;fill-opacity:1" />
        <path
           transform="translate(-22.3,-51.76)"
           d="m293.27 182.68s-5.49-26.75-14.38-29.2c0 0 0.63 21.77 13.43 31.16z"
           id="path147"
           style="fill:#d37e01;fill-opacity:1" />
        <path
           transform="translate(-22.3,-51.76)"
           d="m298.21 157.32s-3.6-21.88-10.34-26.07c0 0-2 24.94 8 31z"
           id="path149"
           style="fill:#d37e01;fill-opacity:1" />
        <path
           transform="translate(-22.3,-51.76)"
           d="m297.89 136-11.66-35.52s-3 31.14 13 42.05z"
           id="path151"
           style="fill:#d37e01;fill-opacity:1" />
        <path
           transform="translate(-22.3,-51.76)"
           d="m293.14 99.63s-18.73-22.11-18.87-24.9c0 0 5.73 25.43 26.37 35.22z"
           id="path153"
           style="fill:#d37e01;fill-opacity:1" />
        <path
           transform="translate(-22.3,-51.76)"
           d="m293.69 92.12s-19.57-32.55-26.32-34.35c0 0 21.52 6.89 27.32 33.16z"
           id="path155"
           style="fill:#d37e01;fill-opacity:1" />
      </g>
      <g
         id="g165"
         fill="#444053">
        <path
           transform="translate(-22.3,-51.76)"
           d="m279.13 256-1.49-0.27c0.68-3.71 1.44-7.49 2.28-11.24 7.31-32.55 13.14-62.67 16.29-85.59l1.13-0.82c-3.16 23-8.63 54.15-15.94 86.75-0.84 3.67-1.6 7.43-2.27 11.17z"
           id="path161" />
        <path
           transform="translate(-22.3,-51.76)"
           d="m343 462.05c-0.22-0.18-22.74-18.53-42-53a218.47 218.47 0 0 1-23.66-64.67c-5.53-28.34-4.72-61.12 0.84-91.67l1.32 1.12c-12.45 68.58 5.7 122.68 23.24 154.17 19 34.14 41.28 52.3 41.51 52.48z"
           id="path163" />
        <path
           transform="translate(-22.3,-51.76)"
           d="m296.93 161-1-0.14c5.53-40.21 4.5-65.15-2.92-70.2l0.57-0.83c7.87 5.37 9.02 29.98 3.35 71.17z"
           id="path159" />
      </g>
    </g>
    <g
       id="g181"
       fill="#ffc107">
      <path
         d="m1014.4 957.63s-42.28-2.55-37.29 27.08c0 0-1 5.23 3.75 7.61 0 0 0.08-2.2 4.34-1.45a19.36 19.36 0 0 0 4.59 0.22 9.62 9.62 0 0 0 5.62-2.32s11.88-4.91 16.5-24.33c0 0 3.42-4.24 3.29-5.33l-7.14 3s2.44 5.15 0.52 9.42c0 0-0.23-9.23-1.6-9-0.28 0.05-3.71 1.79-3.71 1.79s4.2 9 1 15.48c0 0 1.2-11.05-2.34-14.84l-5 2.94s4.9 9.26 1.58 16.81c0 0 0.85-11.59-2.64-16.1l-4.55 3.55s4.61 9.13 1.8 15.39c0 0-0.37-13.49-2.78-14.51 0 0-4 3.51-4.59 5 0 0 3.15 6.62 1.2 10.12 0 0-1.2-9-2.19-9 0 0-4 5.95-4.38 10 0 0 0.17-6.07 3.42-10.6a11.89 11.89 0 0 0-6.07 3.14s0.62-4.21 7-4.58c0 0 3.28-4.51 4.16-4.79 0 0-6.41-0.53-10.29 1.19 0 0 3.42-4 11.46-2.17l4.49-3.67s-8.43-1.15-12 0.12c0 0 4.11-3.51 13.21-0.95l4.89-2.92s-7.18-1.55-11.46-1c0 0 4.52-2.44 12.9 0.2l3.5-1.57s-5.27-1-6.81-1.2-1.62-0.59-1.62-0.59a18.22 18.22 0 0 1 9.88 1.1s7.49-2.77 7.36-3.24z"
         id="path169"
         style="fill:#d37e01;fill-opacity:1" />
      <ellipse
         cx="985.23"
         cy="994.9"
         rx="29.92"
         ry="5.06"
         id="ellipse171"
         opacity=".1" />
      <path
         d="m1095.4 879.56s-23.83-1.43-21 15.27a4.07 4.07 0 0 0 2.11 4.29s0.05-1.24 2.45-0.82a10.62 10.62 0 0 0 2.59 0.13 5.35 5.35 0 0 0 3.16-1.31s6.7-2.77 9.31-13.72c0 0 1.93-2.39 1.85-3l-4 1.72s1.37 2.9 0.29 5.31c0 0-0.13-5.21-0.9-5.08-0.16 0-2.09 1-2.09 1s2.36 5.06 0.58 8.73c0 0 0.68-6.23-1.32-8.36l-2.83 1.65s2.76 5.22 0.89 9.48c0 0 0.48-6.53-1.49-9.08l-2.56 2s2.59 5.15 1 8.68c0 0-0.21-7.6-1.57-8.18a16 16 0 0 0-2.59 2.79s1.78 3.74 0.68 5.71c0 0-0.68-5.07-1.23-5.09 0 0-2.24 3.36-2.47 5.66a12.22 12.22 0 0 1 1.93-6 6.74 6.74 0 0 0-3.43 1.77s0.35-2.37 4-2.58c0 0 1.85-2.55 2.34-2.7 0 0-3.61-0.3-5.8 0.67 0 0 1.93-2.24 6.46-1.23l2.54-2.06s-4.76-0.65-6.77 0.07c0 0 2.32-2 7.45-0.54l2.76-1.65a25.22 25.22 0 0 0-6.47-0.56s2.55-1.37 7.27 0.12l2-0.89s-3-0.58-3.84-0.67-0.92-0.34-0.92-0.34a10.32 10.32 0 0 1 5.58 0.62s4.11-1.54 4.04-1.81z"
         id="path173"
         style="fill:#d37e01;fill-opacity:1" />
      <ellipse
         cx="1079"
         cy="900.58"
         rx="16.87"
         ry="2.85"
         id="ellipse175"
         opacity=".1" />
      <path
         d="m954.76 894.06s-28.78-1.74-25.38 18.43a4.91 4.91 0 0 0 2.55 5.18s0-1.49 2.95-1a13.73 13.73 0 0 0 3.13 0.16 6.58 6.58 0 0 0 3.82-1.58s8.09-3.34 11.24-16.57c0 0 2.33-2.88 2.23-3.62l-4.85 2.07s1.66 3.51 0.35 6.42c0 0-0.15-6.29-1.09-6.14-0.19 0-2.52 1.21-2.52 1.21s2.85 6.11 0.7 10.54c0 0 0.82-7.52-1.59-10.1l-3.42 2s3.33 6.3 1.07 11.45c0 0 0.58-7.89-1.79-11l-3.1 2.41s3.14 6.21 1.23 10.48c0 0-0.25-9.18-1.9-9.88 0 0-2.71 2.39-3.12 3.37 0 0 2.14 4.51 0.81 6.89 0 0-0.81-6.11-1.48-6.14 0 0-2.7 4.05-3 6.83a14.77 14.77 0 0 1 2.33-7.22 8.13 8.13 0 0 0-4.13 2.14s0.42-2.87 4.8-3.12c0 0 2.23-3.07 2.83-3.26 0 0-4.36-0.36-7 0.81 0 0 2.32-2.71 7.79-1.48l3.06-2.49s-5.73-0.79-8.17 0.08c0 0 2.8-2.39 9-0.65l3.33-2s-4.89-1.06-7.81-0.68c0 0 3.08-1.65 8.78 0.14l2.39-0.98s-3.58-0.7-4.63-0.81-1.1-0.4-1.1-0.4a12.43 12.43 0 0 1 6.73 0.75s5.05-1.92 4.96-2.24z"
         id="path177"
         style="fill:#d37e01;fill-opacity:1" />
      <ellipse
         cx="934.94"
         cy="919.43"
         rx="20.37"
         ry="3.44"
         id="ellipse179"
         opacity=".1" />
    </g>
    <path
       d="m716.07 897.52-100.31 38.81-146.62 56.67c-5.53-10.27-13.69-24.32-23.79-41-34.72-57.55-92.18-147.06-143.32-225.72-57.64-88.63-107.24-163.47-107.24-163.47l35.91-10.41 293.32-85.07z"
       id="path185"
       fill="#fff" />
    <path
       d="m716.07 897.52-100.31 38.81a754.4 754.4 0 0 1-170.41 15.67c-34.72-57.55-92.18-147.06-143.32-225.72l-71.33-173.88 293.32-85.07z"
       id="path187"
       opacity=".1" />
    <path
       d="m790.7 873.38s-155.84 92.18-388.5 71.38l-185.5-452.19 88.89-15.27 307.28-52.77 174.35 440.11z"
       id="path189"
       style="fill:#d37e01;fill-opacity:1"
       fill="#ffc107" />
    <path
       d="m787.22 864.64c-36.7 1.8-79.14 1.63-121.86-3.46-46.22-5.42-92.66-16.64-132.56-37.18-33.32-17.17-61.81-35.82-86.66-58.21-64.61-58.12-104.6-141.26-140.51-288.49l307.28-52.77z"
       id="path191"
       opacity=".1" />
    <path
       d="m901.53 839.36s-114.92 22.52-231.78 8.65c-46.22-5.45-92.71-16.64-132.56-37.18-33.32-17.17-61.81-35.82-86.66-58.21-80-72-122.21-182.22-165.75-404.91 0 0 191 46.09 379.71-54.87 0 0 63.65 397.27 237.04 546.52z"
       id="path193"
       fill="#fff" />
    <path
       d="m669.75 848.01c-46.22-5.45-92.71-16.64-132.56-37.18-33.32-17.17-61.81-35.82-86.66-58.21 68.09-5.53 77.88-42.76 77.88-42.76 50.48 80.12 141.34 138.15 141.34 138.15z"
       id="path195"
       opacity=".1" />
    <path
       d="m383.55 429.47s102.6 11.71 198.63-42.25l6.58 21.13s-91.87 45.81-205.21 45.81z"
       id="path197"
       fill="#ffc107"
       opacity=".3" />
    <path
       d="m383.55 533.76s102-8.23 215.55-63.11l3.84 8.78s-41.79 52.59-219.39 66.33z"
       id="path199"
       opacity=".3" />
    <path
       d="m395.64 574.44s102-8.23 215.55-63.1l3.84 8.78s-41.78 52.64-219.39 66.39z"
       id="path201"
       opacity=".3" />
    <path
       d="m406.7 618.29s102-8.23 215.55-63.1l3.84 8.78s-41.84 52.61-219.39 66.39z"
       id="path203"
       opacity=".3" />
    <path
       d="m419.83 655.87s102-8.23 215.55-63.1l3.84 8.78s-41.78 52.62-219.39 66.4z"
       id="path205"
       opacity=".3" />
    <path
       d="m431.93 696.59s102-8.23 215.55-63.1l3.84 8.78s-41.79 52.62-219.39 66.39z"
       id="path207"
       opacity=".1" />
    <g
       id="g219"
       fill="#ffc107">
      <rect
         transform="rotate(-18.8)"
         x="437.11"
         y="627.31"
         width="30.15"
         height="30.15"
         id="rect209"
         opacity=".3" />
      <rect
         transform="rotate(-18.8)"
         x="438.79"
         y="672.74"
         width="30.15"
         height="30.15"
         id="rect211"
         opacity=".3" />
      <rect
         transform="rotate(-18.8)"
         x="437.11"
         y="758.47"
         width="30.15"
         height="30.15"
         id="rect213"
         opacity=".3" />
      <rect
         transform="rotate(-18.8)"
         x="437.11"
         y="804.8"
         width="30.15"
         height="30.15"
         id="rect215"
         opacity=".3" />
      <rect
         transform="rotate(-18.8)"
         x="437.11"
         y="718.77"
         width="30.15"
         height="30.15"
         id="rect217"
         opacity=".3" />
    </g>
    <path
       d="m972.4 653.09-1.07-1c2.76-0.56 5.36-0.81 5.36-0.81s-9.47-34.26-25.44-45.69c-7.9-5.65-14.48-15.06-19.13-23.13a349.7 349.7 0 0 0-28.49-41.77l-2.88-3.63-1.24-1.58c1.73-2.62 3.85-5.11 3.61-8.15a0.13 0.13 0 0 1 0-0.06 3.84 3.84 0 0 0 0-0.48 5.59 5.59 0 0 0-0.2-1.11l-0.11 0.17c-1.35-3.92-6.54-5.65-10.39-7.81-9-5.07-12.85-16.15-14.77-26.45-1.5-8-2.74-17-9-22.15-4-3.31-9.44-4.4-13.47-7.69-3.82-3.12-5.95-7.85-8.35-12.2-4-7.25-9.28-14-16.25-18.33s-15.82-6-23.47-3.1c-2.93 1.12-5.59 2.86-8.49 4.07-7.2 3-15.45 2.6-22.58 5.77-8.78 3.9-14.49 12.52-19.71 20.7-2.7 4.23-6.94 10.42-9.35 16.65v-0.65a23.82 23.82 0 0 0-1.86 8.66 13 13 0 0 0 0.41 3.76c1.08 4 4.3 6.21 8.12 7.75a33.85 33.85 0 0 0 0.88 3.77 37 37 0 0 0 23.9 24.41c0.33 0.12 0.67 0.2 1 0.3a7.94 7.94 0 0 0 1.19 2.2c3.19 4 9.59 2.86 13.75-0.05 0.17-0.11 0.33-0.25 0.49-0.37a15 15 0 0 0 0.18 1.69c0.09 0.48 0.16 1 0.26 1.43 3.75 20.21 13.35 31.12 13.35 31.12s0.89 1.34 2.34 3.56c-0.76 11.15 4.33 21.31 10.21 29.16-5.07 2.93-16 8.67-22.76 8.19 0 0-24.84 3.21-27.72 1.6-0.4-0.22-0.78 0.08-1.14 0.76-6.84-4.17-28.71-16.19-30.58-0.76-1.69 14 18.24 15.79 27.73 15.86-0.43 4.1-0.67 7.38-0.67 7.38l40.81-2.79 21.25-3.13c-2.35 3.11-5 5.88-7.59 7.23 0 0-19.21 15.55-22.53 15.69-0.47 0-0.62 0.47-0.55 1.22-8.08 0-33.21 1.17-26.24 15.17 6.33 12.69 24.15 3.91 32.21-0.94 1.9 3.69 3.52 6.58 3.52 6.58l32.93-23.45 7.13-6a25.38 25.38 0 0 0 7.09-1.37c0 0.09 0.07 0.18 0.1 0.26a13.53 13.53 0 0 1 0.57 2.26c2 11.49-4.72 38.29-4.72 38.29s-14.78 37.69-7.68 42.83 1.85 26.83 1.85 26.83a40.1 40.1 0 0 0 4.26 5.88 17.86 17.86 0 0 0 2.49 2.37 23.15 23.15 0 0 0-0.82 2.75 22.42 22.42 0 0 0 1.17 13.84c4.88 11.84 1.91 29 1.91 29l-9.58 64.72c-4.6-0.7-10.54-1.28-12.75 0-3.39 1.91-2.28 11.54 5.59 15.68a20.26 20.26 0 0 1-8.1 3.73c-7 1.6-11.92 2.62-15.16 3.24-0.21 0-16.8-3.66-21.06-1.24s-2.21 15.84 9.91 19.13c11.86 3.21 56.09 7.92 68.83 6l0.81-0.14c10.83-2.14 1.32-16.37 0.12-18.1-0.08-0.58-0.15-1.19-0.23-1.85-0.17-1.48-0.32-3.18-0.43-5 12.08 1.11 24 1.65 29.47 0.83 0.26 0 0.5-0.08 0.72-0.13 9.59-1.9 1.19-14.48 0.11-16q-0.07-0.58-0.15-1.23v-0.11c0-0.29-0.07-0.6-0.1-0.9s0-0.51-0.08-0.78 0-0.48-0.07-0.73q-0.06-0.74-0.12-1.53v-0.65c0-0.4-0.05-0.8-0.07-1.21v-0.67c0-0.6 0-1.22-0.06-1.84v-0.51-1.52-0.73-1.6-0.53c0-0.67 0.06-1.36 0.1-2.05l0.06-0.74c0-0.51 0.08-1 0.13-1.52 0-0.25 0-0.5 0.08-0.75 0.08-0.7 0.17-1.4 0.27-2.11 0-0.21 0.07-0.42 0.1-0.63 0.09-0.53 0.18-1.07 0.28-1.61 0-0.26 0.1-0.53 0.16-0.8q0.18-0.87 0.39-1.74c0-0.16 0.07-0.32 0.11-0.48 0.18-0.7 0.38-1.39 0.59-2.08 0.07-0.24 0.15-0.48 0.23-0.72 0.17-0.52 0.35-1 0.54-1.54l0.24-0.64c0.27-0.68 0.56-1.35 0.86-2 0.08-0.17 0.17-0.34 0.26-0.51 0.25-0.52 0.52-1 0.8-1.54l0.34-0.59c0.38-0.64 0.77-1.28 1.2-1.89 11-15.68 13.9-45.92 13.63-52.5s1.31-20.23 3.28-22.25c1.32-1.35 9-12 13.59-20.1 0.83-1.48 1.55-2.87 2.12-4.11 3.26-1.13 5.42-2 5.42-2a46.37 46.37 0 0 1-1.64-12.89c0.08-8.51 2.42-19.72 12.08-28.82 14.26-13.44 16.25-26.76 16.44-31.88v-0.95c-0.03-0.94-0.08-1.4-0.08-1.4z"
       id="path221"
       fill="url(#a0337754-c09d-4430-960e-4dcfef50d642)" />
    <path
       d="m934.4 736.96a171.88 171.88 0 0 1-13 19.87c-1.88 2-3.39 15.51-3.13 22s-2.49 36.41-13 51.91-5.11 42.29-5.11 42.29l-16.77 5.88h-20.15l-13.88-4.15-3.66-10.1s4.88-0.75 17-3.63a15.73 15.73 0 0 0 12.55-14.27l8.51-59.43s2.51-15-1.63-25.38a20.66 20.66 0 0 1 1.36-18.1l0.27-0.42s13.13-10.37 26.51-16.86c11.85-5.72 23.87-8.44 27.28 1.71 0.44 1.31-1 4.68-3.15 8.68z"
       id="path223"
       fill="#a5636d" />
    <path
       d="m934.4 736.96a171.88 171.88 0 0 1-13 19.87c-1.88 2-3.39 15.51-3.13 22s-2.49 36.41-13 51.91c-7.4 10.93-6.91 27.45-6 36.26 0.39 3.69 0.87 6 0.87 6l-16.77 5.88h-20.13l-13.88-4.12-3.66-10.1s1.22-0.19 4-0.73 7-1.46 13.06-2.9a15.73 15.73 0 0 0 12.49-14.27l8.51-59.43s2.51-15-1.63-25.38a20.66 20.66 0 0 1 1.36-18.1l0.27-0.42s13.13-10.37 26.51-16.86c11.85-5.72 23.87-8.44 27.28 1.71 0.44 1.31-1 4.68-3.15 8.68z"
       id="path225"
       opacity=".05" />
    <path
       d="m900.16 873.04-16.77 5.88h-20.15l-13.88-4.16-3.66-10.1s1.22-0.19 4-0.73a7.55 7.55 0 0 0 5.81 8.16l7.88 0.27c1.11 0 2.23 0.06 3.33 0.06a100.48 100.48 0 0 0 32.58-5.41c0.4 3.69 0.86 6.03 0.86 6.03z"
       id="path227"
       opacity=".1" />
    <path
       d="m863.38 874.06-7.89-0.27s-7.36-1.56-5.56-9.91c0 0-14.2-3.22-17.83-1.09s-1.88 13.88 8.38 16.76c10 2.81 47.46 6.94 58.23 5.25l0.69-0.12c9.76-2 0-16 0-16a100.88 100.88 0 0 1-36.02 5.38z"
       id="path229"
       fill="#bebed0" />
    <path
       d="m911.97 739.26c-0.53 1.06-1.1 2.16-1.75 3.31-4.95 9-12.89 20.33-14.28 21.8-2.12 2.26-3.81 17.5-3.54 24.86s-2.81 41.08-14.67 58.58c-6.07 9-7.44 21.25-7.34 31.11a100.24 100.24 0 0 0 0.59 10c0.44 4.07 1 6.61 1 6.61l-18.92 6.63h-22.77l-15.67-4.66-4.1-11.44s1.37-0.22 4.45-0.83 7.88-1.63 14.74-3.25a17.78 17.78 0 0 0 14.13-16.1l9.59-67.07s2.83-16.95-1.83-28.65a23 23 0 0 1-1.12-13.69 21.84 21.84 0 0 1 3-7.22s3.66-2.88 9.18-6.69c2.44-1.68 5.27-3.54 8.31-5.42 13.36-8.27 30.93-16.71 39.35-10.56a10.89 10.89 0 0 1 3.88 5.59c0.34 1.16-0.61 3.79-2.23 7.09z"
       id="path231"
       fill="#a5636d" />
    <path
       d="m871.93 895.54-18.92 6.63h-22.72l-15.67-4.66-4.1-11.44s1.37-0.22 4.45-0.83a8.35 8.35 0 0 0 2.66 7.39 8.91 8.91 0 0 0 5.64 2.12l7.17 0.23c1.25 0 2.51 0.07 3.76 0.07a113.75 113.75 0 0 0 36.78-6.12c0.44 4.07 0.95 6.61 0.95 6.61z"
       id="path233"
       opacity=".1" />
    <path
       d="m830.43 896.68-7.16-0.24a9 9 0 0 1-5.65-2.12c-1.82-1.62-3.39-4.42-2.37-9.13 0 0-16-3.63-20.13-1.23s-2.11 15.67 9.46 18.92c11.33 3.17 53.57 7.83 65.73 5.93l0.77-0.14c11-2.26 0-18.08 0-18.08a113.46 113.46 0 0 1-40.65 6.09z"
       id="path235"
       fill="#bebed0" />
    <path
       d="m934.4 736.96c-6.85 2.39-16.91 5.56-22.43 5.69a10.06 10.06 0 0 1-1.71-0.08c-3.86-0.53-15.79 0.32-26.73 1.3-4.39 0.39-8.61 0.8-12.1 1.16-5.2 0.54-8.78 0.93-8.78 0.93v-3.39c2.44-1.68 5.27-3.54 8.31-5.42 13.36-8.27 30.93-16.71 39.35-10.56 11.85-5.72 23.87-8.44 27.28 1.71 0.4 1.29-1.04 4.66-3.19 8.66z"
       id="path237"
       opacity=".1" />
    <path
       d="m967.27 658.09c-0.19 5.07-2.09 18.23-15.71 31.53-17.36 16.95-10 41.29-10 41.29s-20.7 8.13-29.63 8.35a10.06 10.06 0 0 1-1.71-0.08c-5.36-0.75-26.64 1.22-38.87 2.46-5.2 0.54-8.78 0.93-8.78 0.93v-72l95.93-23.29 8.69 8.65a16 16 0 0 1 0.08 2.16z"
       id="path239"
       fill="#5c5c8e" />
    <path
       d="m933.2 728.65"
       id="path241"
       fill="none" />
    <g
       transform="translate(0 203.52)"
       id="g247"
       opacity=".1">
      <path
         transform="translate(-22.3,-51.76)"
         d="m886.49 589.92-1.58 0.17v0.76s3.58-0.39 8.78-0.93c8.78-0.89 22.19-2.14 31.06-2.51-6.14-0.56-26.42 1.31-38.26 2.51z"
         id="path243" />
      <path
         transform="translate(-22.3,-51.76)"
         d="m989.53 504.21-8.69-8.66-5.79 1.45 7.28 7.25a16 16 0 0 1 0 2.17c-0.19 5.06-2.09 18.23-15.71 31.53-17.36 16.94-10 41.29-10 41.29s-17.13 6.72-26.94 8.11a24.73 24.73 0 0 1 2.8 0.15 10 10 0 0 0 1.71 0.09c8.93-0.22 29.63-8.35 29.63-8.35s-7.4-24.35 10-41.29c13.62-13.3 15.52-26.47 15.71-31.53a16 16 0 0 0 0-2.21z"
         id="path245" />
    </g>
    <path
       d="m775.57 607.23s-29-20.12-31.13-2 31.13 15.53 31.13 15.53z"
       id="path249"
       fill="#a5636d" />
    <path
       d="m825.57 593.89s-15.69 10.38-24.37 9.74c0 0-23.72 3.18-26.48 1.59s-4.44 23-4.44 23l39-2.75 25-3.82s12.5-7.62 12.5-14.19-21.21-13.57-21.21-13.57z"
       id="path251"
       fill="#f7cddd" />
    <path
       d="m825.57 593.89s-15.69 10.38-24.37 9.74c0 0-23.72 3.18-26.48 1.59s-4.44 23-4.44 23l39-2.75 25-3.82s12.5-7.62 12.5-14.19-21.21-13.57-21.21-13.57z"
       id="path253"
       opacity=".05" />
    <path
       d="m802.56 646.25s-35.27-1.46-27.37 15 34.63-3.52 34.63-3.52z"
       id="path255"
       fill="#a5636d" />
    <path
       d="m838.04 611.26s-28.59-21.39-24.56-47.44 24.56 19.94 24.56 19.94z"
       id="path257"
       fill="#5c5c8e" />
    <path
       d="m830.14 493.16a36.18 36.18 0 0 1-10.17 25.11 34 34 0 0 1-5.22 4.45 37.29 37.29 0 0 1-11.86 5.48 37.68 37.68 0 0 1-5.13 0.91c-1.24 0.12-2.49 0.19-3.76 0.19a35.26 35.26 0 0 1-11.91-2 36.14 36.14 0 1 1 48.05-34.1z"
       id="path259"
       fill="#a5636d" />
    <path
       d="m967.27 658.09c-3.24 0.6-7.24 1.68-7.24 3.36 0 2.83-45.18 18.08-45.18 18.08s1.69 3.94-2.82 10.72-41.23 45.74-41.23 45.74l0.12 1.16 0.47 4.49 2.24 21.46s-14.12-5.08-18.64-4.52c-1.46 0.19-3-0.75-4.51-2.1a21.84 21.84 0 0 1 3-7.22s3.66-2.88 9.18-6.69v-72l95.93-23.29 8.69 8.65a16 16 0 0 1-0.01 2.16z"
       id="path261"
       opacity=".1" />
    <path
       d="m971.33 654.11s-11.3 1.12-11.3 3.95-45.18 18.08-45.18 18.08 1.69 3.94-2.82 10.72-41.23 45.75-41.23 45.75l2.83 27.1s-14.12-5.08-18.64-4.52c-2 0.25-4.25-1.61-6.1-3.78a39.34 39.34 0 0 1-4.07-5.81s5.09-21.47-1.69-26.55 7.34-42.35 7.34-42.35 6.38-26.5 4.5-37.87a13.64 13.64 0 0 0-0.54-2.24c0-0.08-0.05-0.17-0.08-0.25-4-10.86-47.36-102-47.36-102a65.48 65.48 0 0 1 0.54-7.73c0.09-0.71 0.21-1.45 0.34-2.2a37.28 37.28 0 0 1 0.88-4 25 25 0 0 1 0.82-2.49c1.34-3.44 3.39-6.09 6.45-6.15 0 0 3.39-3.75 11.34-4.77 5.82-0.76 14.13 0 25.38 4.77 26.53 11.28 32.75 11.86 32.75 11.86l13.33 17.5 2.74 3.59a345.89 345.89 0 0 1 27.21 41.3c4.44 8 10.73 17.29 18.27 22.88 15.25 11.33 24.29 45.21 24.29 45.21z"
       id="path263"
       fill="#f7cddd" />
    <path
       d="m872.35 588.81s37.7 9.32 52.31 32.82z"
       id="path265"
       opacity=".1" />
    <path
       d="m884 630.1s7.13 47.87 5.15 51.47-5.15-51.47-5.15-51.47z"
       id="path267"
       opacity=".1" />
    <path
       d="m881.45 654.67c-2.74 3.59-13.87 31.34-13.87 31.34l3.21 46.6 2.83 27.1s-14.11-5.08-18.63-4.52c-2 0.25-4.26-1.61-6.1-3.78 2.93-15.87 9.2-49.08 10.33-49.72 1.49-0.85 9.12-27.53 9.52-35s11-24.12 11-24.12 4.47 8.51 1.71 12.1z"
       id="path269"
       opacity=".1" />
    <path
       d="m870.8 608.93c-0.7 2.11-1.78 14.4-1.78 14.4-0.78 10.82-9 14.36-14.05 15.5a13.64 13.64 0 0 0-0.54-2.24c-3.39-9.59-47.44-102.21-47.44-102.21a60.85 60.85 0 0 1 1.76-13.94c9.59-2.82 24.77 1.52 24.77 1.52 4.39-0.58 18.71 27.89 18.71 27.89s9.54 21.8 10.59 24.77 0 7.84 0.42 9.54 4.88 3.16 5.51 5.5 0.22 7 0.64 7.83 2.12 9.32 1.41 11.44z"
       id="path271"
       opacity=".1" />
    <path
       d="m867.41 607.23c-0.7 2.12-1.78 14.4-1.78 14.4-0.64 9-6.44 13-11.28 14.71a23.64 23.64 0 0 1-6.78 1.35l-6.81 5.92-31.45 23.15s-11.72-21.67-8.54-21.79 21.52-15.52 21.52-15.52c5.61-3 11.23-13 13.84-18.14a15.85 15.85 0 0 1-0.34-1.86c-1.13-9.59-24.85-46.31-24.85-46.31s-9.17-10.79-12.74-30.78c-0.1-0.46-0.17-0.93-0.26-1.41a14.34 14.34 0 0 1-0.18-1.88c-0.43-7.69 5.17-10.49 11.81-11.15a47.4 47.4 0 0 1 10.4 0.32 75.29 75.29 0 0 1 10.17 2c2.84-0.38 9.84 11.43 14.43 19.8 2.47 4.54 4.25 8.08 4.25 8.08s9.54 21.81 10.59 24.77 0 7.85 0.42 9.54 4.88 3.17 5.51 5.51 0.22 7 0.64 7.83 2.14 9.34 1.43 11.46z"
       id="path273"
       fill="#f7cddd" />
    <path
       d="m903.89 558.37c-6 6.13-15.69 6.15-23.47 3s-14.37-8.79-21.58-13.18c-4.68-2.86-9.64-5.2-14.25-8.15-0.68-0.44-1.34-0.88-2-1.34-5.32-3.76-9.93-8.59-15.44-12a24 24 0 0 0-12.4-4 14.1 14.1 0 0 0-5.91 1.24 8 8 0 0 0-1 0.49 25.5 25.5 0 0 0-5 3.75c-1.56 1.4-3.05 2.89-4.69 4.2-0.1-0.46-0.17-0.93-0.26-1.41a14.34 14.34 0 0 1-0.18-1.88c-1.24 0.12-2.49 0.19-3.76 0.19a35.26 35.26 0 0 1-11.91-2c0-0.15 0-0.3-0.09-0.45-1.35-7.12-3.79-14.66-9.52-18.66-3.32-2.32-8.62-3.27-13.22-5a36.14 36.14 0 1 1 68.1 3.91c5.82-0.76 14.13 0 25.38 4.77 26.53 11.28 32.75 11.86 32.75 11.86l13.33 17.5c-1.44 2.2-3.07 4.37-3.22 6.94-0.25 4.71 4.34 8 8.34 10.22z"
       id="path275"
       opacity=".1" />
    <path
       d="m772.47 504.76c5.73 4 8.17 11.53 9.53 18.64 0.42 2.22 0.82 4.56 2.18 6.32 3 3.94 9.16 2.83 13.13 0s7.1-7.12 11.53-9.12c5.88-2.66 12.8-0.72 18.31 2.73s10.12 8.28 15.44 12c5.15 3.63 10.89 6.22 16.25 9.49 7.21 4.39 13.8 10.06 21.58 13.18s17.5 3.11 23.46-3c-4-2.22-8.59-5.5-8.28-10.26s5.85-8.31 5.48-13.19-6.11-6.79-10.23-9.19c-8.6-5-12.27-16-14.11-26.15-1.43-7.94-2.61-16.81-8.54-21.91-3.83-3.28-9-4.35-12.86-7.6-3.65-3.09-5.68-7.76-8-12.07-3.83-7.17-8.86-13.84-15.51-18.13s-15.11-6-22.41-3.06c-2.8 1.11-5.35 2.83-8.11 4-6.88 3-14.75 2.57-21.56 5.7-8.39 3.86-13.84 12.38-18.83 20.47-4.22 6.93-12.59 19.15-10.22 28.15 2.36 9.15 15.55 8.66 21.77 13z"
       id="path277"
       fill="#4c3e42" />
    <g
       transform="translate(0 203.52)"
       id="g283"
       opacity=".1">
      <path
         transform="translate(-22.3,-51.76)"
         d="m923.37 379.24a6.31 6.31 0 0 0-0.19-1.1c-1.52 2.39-3.41 4.71-3.59 7.51a6.81 6.81 0 0 0 0.16 1.93c1.69-2.69 3.86-5.22 3.62-8.34z"
         id="path279" />
      <path
         transform="translate(-22.3,-51.76)"
         d="m904.41 398.94c-7.78-3.12-14.36-8.79-21.57-13.18-5.37-3.27-11.11-5.86-16.26-9.49-5.32-3.76-9.93-8.59-15.44-12s-12.42-5.39-18.31-2.74c-4.43 2-7.55 6.25-11.53 9.13s-10.08 4-13.13 0c-1.36-1.76-1.76-4.1-2.18-6.32-1.35-7.11-3.8-14.64-9.52-18.64-6.23-4.35-19.42-3.86-21.81-13a14.2 14.2 0 0 1-0.31-5c-1.53 4.08-2.32 8.18-1.39 11.75 2.4 9.18 15.59 8.69 21.81 13 5.73 4 8.17 11.54 9.53 18.65 0.42 2.22 0.82 4.56 2.17 6.32 3 3.94 9.16 2.83 13.14-0.05s7.09-7.12 11.53-9.12c5.88-2.65 12.8-0.71 18.31 2.74s10.12 8.28 15.44 12c5.15 3.64 10.89 6.22 16.25 9.49 7.21 4.4 13.8 10.07 21.58 13.19s17.5 3.1 23.46-3a28.72 28.72 0 0 1-4.37-2.89c-5.42 1.99-11.89 1.37-17.4-0.84z"
         id="path281" />
    </g>
    <path
       d="m705.12 619.1 80-29.88a7.6 7.6 0 0 1 9.79 4.46 7.61 7.61 0 0 1-4.47 9.79l-80 29.89-17.14-1.72z"
       id="path285"
       fill="#5c5c8e" />
    <path
       d="m792.48 591.28a7.62 7.62 0 0 1-4.47 9.8l-80 29.88-12.88-1.29-1.85 2 17.14 1.72 80-29.89a7.61 7.61 0 0 0 4.47-9.79 7.58 7.58 0 0 0-3.11-3.8 8.28 8.28 0 0 1 0.7 1.37z"
       id="path287"
       fill="#fff"
       opacity=".1" />
    <polygon
       transform="translate(0 203.52)"
       points="705.12 415.58 710.45 429.84 696.38 428.43 693.3 428.12 697.51 423.66"
       id="polygon289"
       fill="#efc8c4" />
    <path
       d="m697.5 627.18a3.05 3.05 0 0 1 0.82 0.9 1.29 1.29 0 0 1 0 1.39 3.13 3.13 0 0 1-0.78 0.55 2.55 2.55 0 0 0-1.14 1.93l-3.08-0.31z"
       id="path291"
       fill="#727a9c" />
    <g
       id="g303"
       fill="#3acc6c">
      <path
         d="m635.29 464.59-13.49-6.58a1.63 1.63 0 0 1-0.75-2.18l1.43-2.94a1.62 1.62 0 0 1 2.18-0.75l9.09 4.43 9.49-19.46a1.64 1.64 0 0 1 2.18-0.76l2.94 1.44a1.62 1.62 0 0 1 0.75 2.18l-11.64 23.87a1.63 1.63 0 0 1-2.18 0.75z"
         id="path293" />
      <path
         d="m664.76 548.76-13.49-6.58a1.63 1.63 0 0 1-0.75-2.18l1.43-2.94a1.64 1.64 0 0 1 2.19-0.75l9.08 4.43 9.48-19.48a1.64 1.64 0 0 1 2.18-0.76l2.93 1.44a1.63 1.63 0 0 1 0.76 2.18l-11.64 23.87a1.65 1.65 0 0 1-2.19 0.75z"
         id="path295" />
      <path
         d="m651.53 507.27-13.49-6.58a1.64 1.64 0 0 1-0.76-2.18l1.44-2.94a1.62 1.62 0 0 1 2.18-0.75l9.09 4.43 9.49-19.49a1.63 1.63 0 0 1 2.18-0.75l2.94 1.43a1.65 1.65 0 0 1 0.75 2.19l-11.65 23.89a1.63 1.63 0 0 1-2.18 0.75z"
         id="path297" />
      <path
         d="m677.56 586.76-13.49-6.58a1.63 1.63 0 0 1-0.75-2.18l1.43-2.94a1.63 1.63 0 0 1 2.18-0.75l9.09 4.43 9.49-19.46a1.65 1.65 0 0 1 2.19-0.76l2.93 1.44a1.62 1.62 0 0 1 0.75 2.18l-11.63 23.87a1.65 1.65 0 0 1-2.19 0.75z"
         id="path299" />
      <path
         d="m173.22 845.12s5.95 7.78-2.74 19.52-15.87 21.66-13 29c0 0 13.12-21.81 23.79-22.11s3.69-13.29-8.05-26.41z"
         id="path301" />
    </g>
    <path
       d="m173.22 845.12a9.59 9.59 0 0 1 1.22 2.44c10.41 12.24 16 23.66 5.95 24-9.33 0.26-20.52 16.94-23.19 21.15a7.68 7.68 0 0 0 0.31 1s13.12-21.81 23.79-22.11 3.66-13.36-8.08-26.48z"
       id="path305"
       opacity=".1" />
    <path
       d="m184.28 855.04c0 2.73-0.31 5-0.69 5s-0.68-2.22-0.68-5 0.38-1.45 0.76-1.45 0.61-1.29 0.61 1.45z"
       id="path307"
       fill="#ffd037" />
    <path
       d="m188.07 858.3c-2.4 1.31-4.5 2.11-4.68 1.77s1.62-1.66 4-3 1.45-0.36 1.63 0 1.46-0.08-0.95 1.23z"
       id="path309"
       fill="#ffd037" />
    <path
       d="m141.8 845.12s-5.94 7.78 2.75 19.52 15.86 21.66 13 29c0 0-13.11-21.81-23.79-22.11s-3.7-13.29 8.04-26.41z"
       id="path311"
       fill="#3acc6c" />
    <path
       d="m141.8 845.12a9.81 9.81 0 0 0-1.21 2.44c-10.42 12.24-16 23.66-5.95 24 9.32 0.26 20.51 16.94 23.19 21.15a7.72 7.72 0 0 1-0.32 1s-13.11-21.9-23.81-22.2-3.64-13.27 8.1-26.39z"
       id="path313"
       opacity=".1" />
    <path
       d="m130.75 855.04c0 2.73 0.3 5 0.68 5s0.69-2.22 0.69-5-0.38-1.45-0.76-1.45-0.61-1.29-0.61 1.45z"
       id="path315"
       fill="#ffd037" />
    <path
       d="m126.95 858.3c2.41 1.31 4.5 2.11 4.68 1.77s-1.62-1.66-4-3-1.46-0.36-1.64 0-1.44-0.08 0.96 1.23z"
       id="path317"
       fill="#ffd037" />
    <ellipse
       cx="157.52"
       cy="943.58"
       rx="62.19"
       ry="9.54"
       id="ellipse319"
       fill="#ffc107"
       opacity=".1" />
    <path
       d="m189.52 883.14-0.3 2.43-0.41 3.43-0.18 1.43-0.41 3.43-0.19 1.43-0.41 3.43-4.76 39c-0.43 3.48-6.12 6.2-13 6.2h-24.71c-6.87 0-12.55-2.72-13-6.2l-4.76-39-0.42-3.43-0.17-1.43-0.43-3.43-0.17-1.43-0.42-3.43-0.3-2.43c-0.23-2 2.84-3.64 6.73-3.64h50.59c3.9 0 6.97 1.67 6.72 3.64z"
       id="path321"
       fill="#65617d" />
    <g
       id="g329"
       fill="#9d9cb5">
      <polygon
         transform="translate(0 203.52)"
         points="126.22 685.48 125.81 682.05 189.23 682.05 188.81 685.48"
         id="polygon323" />
      <polygon
         transform="translate(0 203.52)"
         points="126.82 690.34 126.4 686.91 188.64 686.91 188.22 690.34"
         id="polygon325" />
      <polygon
         transform="translate(0 203.52)"
         points="127.41 695.2 126.99 691.77 188.04 691.77 187.62 695.2"
         id="polygon327" />
    </g>
  </g>
</svg>
