<svg xmlns="http://www.w3.org/2000/svg" xmlns:xlink="http://www.w3.org/1999/xlink" width="1000" height="1000"><style><![CDATA[.B{opacity:.1}.C{fill:#d37e01}.D{opacity:.3}.E{fill:#ffc107}.F{fill:#a5636d}.G{fill:#5c5c8e}.H{fill:#f7cddd}]]></style><defs><linearGradient id="A" x1="857.84" x2="857.84" y1="909.25" y2="426.64" gradientUnits="userSpaceOnUse"><stop stop-color="gray" stop-opacity=".25" offset="0"/><stop stop-color="gray" stop-opacity=".12" offset=".54"/><stop stop-color="gray" stop-opacity=".1" offset="1"/></linearGradient><path id="B" d="M615.95 452.977l28.54-9.716 9.716 28.54-28.54 9.716z"/><path id="C" d="M825.57 593.9s-15.7 10.38-24.37 9.74c0 0-23.72 3.18-26.48 1.6s-4.44 23-4.44 23l39-2.75 25-3.82s12.5-7.62 12.5-14.2-21.2-13.57-21.2-13.57z"/></defs><g transform="matrix(.86547 0 0 .86547 .002641 -20.808)"><g class="E"><path d="M356.76 243.76c39.2-35.3 100.74-42.5 156.75-39.7 175.93 8.83 334.74 94.6 472.1 191.6 49.73 35.12 98.7 73 131 121.33 65.72 98.45 46.22 234.84-45.15 315.94-31.1 27.6-68.78 48.75-107.47 67.5-68.8 33.34-143 60.1-221.1 67.72-55.68 5.43-112 1-167.4-6.56-154.65-21.18-306.45-68-433.7-148.14C86 778.33 33.4 734.64 10.4 677.76S2.1 548.87 59.1 515.22c23.57-13.92 51.74-20.2 79.33-26.1 40.6-8.68 81.86-17.25 118.5-34.9 37.85-18.24 82.66-53.52 75.17-93.9-8.04-43.3-14.5-81.34 24.66-116.54z" class="B"/><path d="m256.7 651.33s10.37-7.43 21.1-2.84c0 0-3 6.38-16.37 6.3z"/><g class="C"><path d="M255.4 651.76s-2.77 12.45 5.67 20.53c0 0 4.68-5.27-.64-17.53zm-13.7-11.33s.38-10.5 24.18-7.94c0 0 .37 6.76-7.8 10.28s-12.1 1-16.37-2.34zm-1.47-.03s-9.9 3.6-.1 25.46c0 0 6.54-1.73 7.37-10.6s-2.8-11.8-7.26-14.86zm-13.97-14.34s-2-17.2 22.24-16.36c0 0 2.3 15.55-17.8 20.34zm-16.73-18.86s2.57-19.67 27-14.78c0 0 .74 16.9-22.84 19.3zm-12.45-19.7s4.82-19.3 29-14.47c0 0-5 17.35-27.27 17.93zm-11.85-19.22s4.67-20 28-14.92c0 0-7 19.07-26.37 18.23zm-7.87-18.4s3.25-24.33 25-19.8c0 0-5.42 22.23-23.3 23.26zm-7.56-22.3s4.07-24.55 26.15-18.3c0 0-7.68 23.35-24.5 21.6zm-4.97-20.8s7-24.66 23.92-24.65c0 0-7.15 26-22.32 29.48zm-3.43-20.42s7.53-29.66 21.35-27.92c0 0-5.13 22.64-20.7 32.47zm-2.42-24.42s7.17-24.74 20.7-26.24c0 0-4.6 24.25-20.15 32.58zm-2.52-22.72s9.18-24.85 18.12-25.75c0 0-3.47 24.25-17.07 29.73zm-1.93-21.18s5.2-26.8 14.06-29.35c0 0-.4 21.77-13.1 31.3zm-4.43-27.64s5.73-21.42 12.85-24.93c0 0-.48 25-11 30zm-3.5-18.14l-2.75-37.28s14.6 27.66 4 43.83z"/><path d="M134.7 335.54s-10.8-26.9-13.2-28.32c0 0 19.8 17 18.8 39.78zm90.9 290.42s-17.25-1.6-15.8 22.63c0 0 15.6 1.93 19.9-18.3zm-16.9-19.38s-19.82.7-17.26 25.44c0 0 16.75 2.34 21.36-20.9zm-11.75-17.45s-18.32-7.75-29 14.47c0 0 16.9 6.4 30.72-11zm-12.12-20.65s-18.76-8.28-28.77 13.42c0 0 19.45 5.87 30.42-10.12zm-7.23-18.08s-18.38-16.26-31.87 1.42c0 0 18.65 13.24 32.83 2.32zm-6.83-23.45s-18.5-16.64-31.85 2c0 0 20.57 13.45 32.63 1.6zm-4.14-20.98s-14.57-21.1-30.57-15.66c0 0 15.14 22.36 30.6 20.75z"/><path d="M161.82 486.2s-14.9-26.72-27.8-21.5c0 0 10.78 20.56 28.33 26.05zm-1.95-25.7s-15.06-20.9-28.3-17.77c0 0 12.47 21.3 29.9 23.93zm-1.92-21.84s-11.95-23.64-20.93-23.5c0 0 6.2 23.7 20.34 27.58zm-3-21.18s-13.2-23.9-22.42-23.6c0 0 7.08 20.6 22.1 25.76zm-2.83-25.72s-9.95-19.82-17.63-21.8c0 0 5.53 24.4 16.82 27.2zm-6.64-20.18l-21.7-30.44s6.43 30.62 24.9 36.28zm-15.38-33.35s-24.4-15.53-25.4-18.16c0 0 13 22.58 35.66 25.78zm-1.7-7.33s-28.36-25.25-35.34-24.95c0 0 22.6.16 36 23.53z"/></g></g><g fill="#444053"><path d="M152 395.76l-1 .17c-6.68-40.05-15.1-63.54-23.67-66.16l.3-1c9.08 2.76 17.54 25.9 24.38 67z"/><path d="M163.25 491.64l-1.5.18c-.46-3.74-.86-7.58-1.17-11.4-2.7-33.25-6.1-63.75-9.9-86.57l.83-1.1c3.8 22.86 7.87 54.26 10.6 87.56.3 3.8.7 7.6 1.16 11.34z"/><path d="M285.53 669.4c-.27-.1-27.23-10.93-55.83-38.1a218.64 218.64 0 0 1-41.84-54.7c-13.7-25.4-22.68-56.95-26.47-87.77l1.6.68c8.5 69.18 41.92 115.42 68 140.27 28.32 26.94 55 37.65 55.25 37.75z"/></g><g opacity=".7"><g class="E"><path d="M298.54 587.97s12.1-4 21 3.57c0 0-4.77 5.2-17.5 1.14zm-1.36.03s-6.34 11.07-.7 21.28c0 0 6-3.63 4.6-16.92zm-9.73-14.9s3.5-9.92 25.45-.4c0 0-1.65 6.57-10.52 7.5s-11.83-2.67-14.93-7.1zm-1.4-.45s-10.5.5-7.68 24.27c0 0 6.77.3 10.2-7.93s.84-12.1-2.52-16.34zm-9.06-17.9s3.2-17 26.1-9c0 0-2.4 15.53-23.05 14.12zm-10.36-23s8.3-18 30.14-6.08c0 0-4.32 16.35-27.55 11.62zm-6.04-22.46s10.35-17 32-5.2c0 0-10 15.06-31.37 9z"/><path d="M255 487.42s10.4-17.68 31.2-5.9c0 0-12.35 16.12-30.6 9.56zm-2.03-19.92s10.34-22.26 29.78-11.46c0 0-11.8 19.6-29.16 15.27zm-.57-23.54s11.2-22.23 30.4-9.7c0 0-14.27 20-29.8 13.34zm1.46-21.36s14-21.46 30.16-16.42c0 0-14.57 22.73-30.08 21.5zm2.84-20.5s16-26.07 28.7-20.3c0 0-11.64 20.1-29.4 24.84zm4.9-24.03s14.22-21.5 27.56-18.9c0 0-11.6 21.8-28.92 25.1zm4.36-22.45s16.15-21 24.95-19.18c0 0-10.53 22.12-25.14 23.3zm4.44-20.8s12.94-24 22.16-23.84c0 0-6.86 20.67-21.8 26zm4-27.7s11.85-18.74 19.7-20c0 0-7.9 23.74-19.42 25.4zm2.06-18.36l8.47-36.42s5.7 30.75-9.23 43zm-.42-38.56s-2.3-28.88-4.17-31c0 0 13.86 22.08 6.12 43.58z" class="C"/><path d="M276.4 554.5s-16-6.64-21.8 16.92c0 0 14.3 6.48 24.43-11.57zm-10.38-23.54s-19.13-5.23-24.05 19.16c0 0 15.3 7.22 26.62-13.6zM260 510.8s-15.18-12.85-32 5.2c0 0 14.22 11.13 32.6-1.38z"/><path d="M254.58 487.5s-15.46-13.48-31.46 4.25c0 0 16.82 11.4 32.05-.6zm-1.5-19.42s-12.72-21-30.86-8.14c0 0 13.87 18.2 30.66 12zm.43-24.42s-12.72-21.4-31-7.55c0 0 15.64 19 30.67 11.23zm2.3-21.26s-7.63-24.47-24.52-24c0 0 7.8 25.86 23.05 28.92zm1.28-20.32s-6.28-29.95-20.15-28.8c0 0 4.18 22.84 19.3 33.3zm5.8-25.1s-8.16-24.44-21.73-25.4c0 0 5.57 24.05 21.44 31.75zm4.66-21.42s-4.38-26.12-13-28.67c0 0-1.1 24.47 11.22 32.4zm3.43-21.1s-5.5-26.75-14.38-29.2c0 0 .63 21.77 13.43 31.16zm4.93-25.36s-3.6-21.88-10.34-26.07c0 0-2 24.94 8 31zm-.3-21.32l-11.66-35.52s-3 31.14 13 42.05zm-4.76-36.36s-18.73-22.1-18.87-24.9c0 0 5.73 25.43 26.37 35.22zm.56-7.52s-19.57-32.55-26.32-34.35c0 0 21.52 6.9 27.32 33.16z" class="C"/></g><g fill="#444053"><path d="M256.83 407.76l-1.5-.27c.68-3.7 1.44-7.5 2.28-11.24 7.3-32.55 13.14-62.67 16.3-85.6l1.13-.82c-3.16 23-8.63 54.15-15.94 86.75-.84 3.67-1.6 7.43-2.27 11.17z"/><path d="M320.7 613.8c-.22-.18-22.74-18.53-42-53a218.47 218.47 0 0 1-23.66-64.67c-5.53-28.34-4.72-61.12.84-91.67l1.32 1.12c-12.45 68.58 5.7 122.68 23.24 154.17 19 34.14 41.28 52.3 41.5 52.48zm-46.07-301.04l-1-.14c5.53-40.2 4.5-65.15-2.92-70.2l.57-.83c7.87 5.37 9.02 29.98 3.35 71.17z"/></g></g><g class="E"><path d="M1014.4 957.63s-42.28-2.55-37.3 27.08c0 0-1 5.23 3.75 7.6 0 0 .08-2.2 4.34-1.45a19.36 19.36 0 0 0 4.59.22 9.62 9.62 0 0 0 5.62-2.32s11.88-4.9 16.5-24.33c0 0 3.42-4.24 3.3-5.33l-7.14 3s2.44 5.15.52 9.42c0 0-.23-9.23-1.6-9-.28.05-3.7 1.8-3.7 1.8s4.2 9 1 15.48c0 0 1.2-11.05-2.34-14.84l-5 2.94s4.9 9.26 1.58 16.8c0 0 .85-11.6-2.64-16.1l-4.55 3.55s4.6 9.13 1.8 15.4c0 0-.37-13.5-2.78-14.5 0 0-4 3.5-4.6 5 0 0 3.15 6.62 1.2 10.12 0 0-1.2-9-2.2-9 0 0-4 5.95-4.38 10 0 0 .17-6.07 3.42-10.6a11.89 11.89 0 0 0-6.07 3.14s.62-4.2 7-4.58c0 0 3.28-4.5 4.16-4.8 0 0-6.4-.53-10.3 1.2 0 0 3.42-4 11.46-2.17l4.5-3.67s-8.43-1.15-12 .12c0 0 4.1-3.5 13.2-.95l4.9-2.92s-7.18-1.55-11.46-1c0 0 4.52-2.44 12.9.2l3.5-1.57-6.8-1.2c-1.54-.2-1.62-.6-1.62-.6a18.22 18.22 0 0 1 9.88 1.1s7.5-2.77 7.36-3.24z" class="C"/><ellipse cx="985.23" cy="994.9" rx="29.92" ry="5.06" class="B"/><path d="M1095.4 879.56s-23.83-1.43-21 15.27a4.07 4.07 0 0 0 2.11 4.29s.05-1.24 2.45-.82a10.62 10.62 0 0 0 2.59.13 5.35 5.35 0 0 0 3.16-1.31s6.7-2.77 9.3-13.72c0 0 1.93-2.4 1.85-3l-4 1.72s1.37 2.9.3 5.3c0 0-.13-5.2-.9-5.08-.16 0-2.1 1-2.1 1s2.36 5.06.58 8.73c0 0 .68-6.23-1.32-8.36l-2.83 1.65s2.76 5.22.9 9.48c0 0 .48-6.53-1.5-9.08l-2.56 2s2.6 5.15 1 8.68c0 0-.2-7.6-1.57-8.18a16 16 0 0 0-2.59 2.79s1.78 3.74.68 5.7c0 0-.68-5.07-1.23-5.1 0 0-2.24 3.36-2.47 5.66a12.22 12.22 0 0 1 1.93-6 6.74 6.74 0 0 0-3.43 1.77s.35-2.37 4-2.58c0 0 1.85-2.55 2.34-2.7 0 0-3.6-.3-5.8.67 0 0 1.93-2.24 6.46-1.23l2.54-2.06s-4.76-.65-6.77.07c0 0 2.32-2 7.45-.54l2.76-1.65a25.22 25.22 0 0 0-6.47-.56s2.55-1.37 7.27.12l2-.9s-3-.58-3.84-.67-.92-.34-.92-.34a10.32 10.32 0 0 1 5.58.62s4.1-1.54 4.04-1.8z" class="C"/><ellipse cx="1079" cy="900.58" rx="16.87" ry="2.85" class="B"/><path d="M954.76 894.06s-28.78-1.74-25.38 18.43a4.91 4.91 0 0 0 2.55 5.18s0-1.5 2.95-1a13.73 13.73 0 0 0 3.13.16 6.58 6.58 0 0 0 3.82-1.58s8.1-3.34 11.24-16.57c0 0 2.33-2.88 2.23-3.62l-4.85 2.07s1.66 3.5.35 6.42c0 0-.15-6.3-1.1-6.14-.2 0-2.52 1.2-2.52 1.2s2.85 6.1.7 10.54c0 0 .82-7.52-1.6-10.1l-3.42 2s3.33 6.3 1.07 11.45c0 0 .58-7.9-1.8-11l-3.1 2.4s3.14 6.2 1.23 10.48c0 0-.25-9.18-1.9-9.88 0 0-2.7 2.4-3.12 3.37 0 0 2.14 4.5.8 6.9 0 0-.8-6.1-1.48-6.14 0 0-2.7 4.05-3 6.83a14.77 14.77 0 0 1 2.33-7.22 8.13 8.13 0 0 0-4.13 2.14s.42-2.87 4.8-3.12c0 0 2.23-3.07 2.83-3.26 0 0-4.36-.36-7 .8 0 0 2.32-2.7 7.8-1.48l3.06-2.5s-5.73-.8-8.17.08c0 0 2.8-2.4 9-.65l3.33-2s-4.9-1.06-7.8-.68c0 0 3.08-1.65 8.78.14l2.4-.98s-3.58-.7-4.63-.8-1.1-.4-1.1-.4a12.43 12.43 0 0 1 6.73.75s5.05-1.92 4.96-2.24z" class="C"/><ellipse cx="934.94" cy="919.43" rx="20.37" ry="3.44" class="B"/></g><path d="M716.07 897.52l-100.3 38.8L469.14 993c-5.53-10.27-13.7-24.32-23.8-41-34.72-57.55-92.18-147.06-143.32-225.72L194.8 562.8l329.23-95.48z" fill="#fff"/><path d="M716.07 897.52l-100.3 38.8A754.4 754.4 0 0 1 445.35 952c-34.72-57.55-92.18-147.06-143.32-225.72L230.7 552.4l293.32-85.07z" class="B"/><path d="M790.7 873.38s-155.84 92.18-388.5 71.38l-185.5-452.2 396.17-68.04 174.35 440.1z" class="C"/><path d="M787.22 864.64c-36.7 1.8-79.14 1.63-121.86-3.46-46.22-5.42-92.66-16.64-132.56-37.18-33.32-17.17-61.8-35.82-86.66-58.2-64.6-58.12-104.6-141.26-140.5-288.5l307.28-52.77z" class="B"/><path d="M901.53 839.36S786.6 861.88 669.75 848c-46.22-5.45-92.7-16.64-132.56-37.18-33.32-17.17-61.8-35.82-86.66-58.2-80-72-122.2-182.22-165.75-404.9 0 0 191 46.1 379.7-54.87 0 0 63.65 397.27 237.04 546.52z" fill="#fff"/><path d="M669.75 848c-46.22-5.45-92.7-16.64-132.56-37.18-33.32-17.17-61.8-35.82-86.66-58.2 68.1-5.53 77.88-42.76 77.88-42.76C578.9 789.98 669.75 848 669.75 848z" class="B"/><path d="M383.55 429.47s102.6 11.7 198.63-42.25l6.58 21.13s-91.87 45.8-205.2 45.8z" class="D E"/><path d="M383.55 533.76s102-8.23 215.55-63.1l3.84 8.78s-41.8 52.6-219.4 66.33zm12.1 40.68s102-8.23 215.55-63.1l3.84 8.78s-41.78 52.64-219.4 66.4zm11.06 43.86s102-8.23 215.55-63.1l3.84 8.78s-41.84 52.6-219.4 66.4zm13.13 37.57s102-8.23 215.55-63.1l3.84 8.78s-41.78 52.62-219.4 66.4z" class="D"/><path d="M431.93 696.6s102-8.23 215.55-63.1l3.84 8.78s-41.8 52.62-219.4 66.4z" class="B"/><g class="E"><use xlink:href="#B" class="D"/><use xlink:href="#B" x="16.23" y="42.465" class="D"/><use xlink:href="#B" x="42.27" y="124.163" class="D"/><use xlink:href="#B" x="57.2" y="168.021" class="D"/><use xlink:href="#B" x="29.475" y="86.581" class="D"/></g><path d="M972.4 653.1l-1.07-1c2.76-.56 5.36-.8 5.36-.8s-9.47-34.26-25.44-45.7c-7.9-5.65-14.48-15.06-19.13-23.13a349.7 349.7 0 0 0-28.49-41.77l-2.88-3.63-1.24-1.58c1.73-2.62 3.85-5.1 3.6-8.15a.13.13 0 0 1 0-.06 3.84 3.84 0 0 0 0-.48 5.59 5.59 0 0 0-.2-1.11l-.1.17c-1.35-3.92-6.54-5.65-10.4-7.8-9-5.07-12.85-16.15-14.77-26.45-1.5-8-2.74-17-9-22.15-4-3.3-9.44-4.4-13.47-7.7-3.82-3.12-5.95-7.85-8.35-12.2-4-7.25-9.28-14-16.25-18.33s-15.82-6-23.47-3.1c-2.93 1.12-5.6 2.86-8.5 4.07-7.2 3-15.45 2.6-22.58 5.77-8.78 3.9-14.5 12.52-19.7 20.7-2.7 4.23-6.94 10.42-9.35 16.65v-.65a23.82 23.82 0 0 0-1.86 8.66 13 13 0 0 0 .41 3.76c1.08 4 4.3 6.2 8.12 7.75a33.85 33.85 0 0 0 .88 3.77 37 37 0 0 0 23.9 24.41c.33.12.67.2 1 .3a7.94 7.94 0 0 0 1.19 2.2c3.2 4 9.6 2.86 13.75-.05.17-.1.33-.25.5-.37a15 15 0 0 0 .18 1.69c.1.48.16 1 .26 1.43 3.75 20.2 13.35 31.12 13.35 31.12l2.34 3.56c-.76 11.15 4.33 21.3 10.2 29.16-5.07 2.93-16 8.67-22.76 8.2 0 0-24.84 3.2-27.72 1.6-.4-.22-.78.08-1.14.76-6.84-4.17-28.7-16.2-30.58-.76-1.7 14 18.24 15.8 27.73 15.86l-.67 7.38 40.8-2.8 21.25-3.13c-2.35 3.1-5 5.88-7.6 7.23 0 0-19.2 15.55-22.53 15.7-.47 0-.62.47-.55 1.22-8.08 0-33.2 1.17-26.24 15.17 6.33 12.7 24.15 3.9 32.2-.94l3.52 6.58 32.93-23.45 7.13-6a25.38 25.38 0 0 0 7.09-1.37c0 .1.07.18.1.26a13.53 13.53 0 0 1 .57 2.26c2 11.5-4.72 38.3-4.72 38.3s-14.78 37.7-7.68 42.83 1.85 26.83 1.85 26.83a40.1 40.1 0 0 0 4.26 5.88 17.86 17.86 0 0 0 2.49 2.37 23.15 23.15 0 0 0-.82 2.75 22.42 22.42 0 0 0 1.17 13.84c4.88 11.84 1.9 29 1.9 29l-9.58 64.72c-4.6-.7-10.54-1.28-12.75 0-3.4 1.9-2.28 11.54 5.6 15.68a20.26 20.26 0 0 1-8.1 3.73l-15.16 3.24c-.2 0-16.8-3.66-21.06-1.24s-2.2 15.84 9.9 19.13c11.86 3.2 56.1 7.92 68.83 6l.8-.14c10.83-2.14 1.32-16.37.12-18.1l-.23-1.85a94.2 94.2 0 0 1-.43-5c12.08 1.1 24 1.65 29.47.83.26 0 .5-.08.72-.13 9.6-1.9 1.2-14.48.1-16q-.07-.58-.15-1.23v-.1c0-.3-.07-.6-.1-.9s0-.5-.08-.78 0-.48-.07-.73q-.06-.74-.12-1.53v-.65c0-.4-.05-.8-.07-1.2v-.67c0-.6 0-1.22-.06-1.84v-4.9c0-.67.06-1.36.1-2.05l.06-.74c0-.5.08-1 .13-1.52 0-.25 0-.5.08-.75l.27-2.1c0-.2.07-.42.1-.63l.28-1.6c0-.26.1-.53.16-.8q.18-.87.4-1.74c0-.16.07-.32.1-.48a49.33 49.33 0 0 1 .59-2.08c.07-.24.15-.48.23-.72.17-.52.35-1 .54-1.54l.24-.64c.27-.68.56-1.35.86-2 .08-.17.17-.34.26-.5.25-.52.52-1 .8-1.54l.34-.6c.38-.64.77-1.28 1.2-1.9 11-15.68 13.9-45.92 13.63-52.5s1.3-20.23 3.28-22.25c1.32-1.35 9-12 13.6-20.1.83-1.48 1.55-2.87 2.12-4.1 3.26-1.13 5.42-2 5.42-2a46.37 46.37 0 0 1-1.64-12.89c.08-8.5 2.42-19.72 12.08-28.82 14.26-13.44 16.25-26.76 16.44-31.88v-.95c-.03-.94-.08-1.4-.08-1.4z" fill="url(#A)"/><path d="M934.4 736.96a171.88 171.88 0 0 1-13 19.87c-1.88 2-3.4 15.5-3.13 22s-2.5 36.4-13 51.9-5.1 42.3-5.1 42.3l-16.77 5.88h-20.15l-13.88-4.15-3.66-10.1s4.88-.75 17-3.63a15.73 15.73 0 0 0 12.55-14.27l8.5-59.43s2.5-15-1.63-25.38a20.66 20.66 0 0 1 1.36-18.1l.27-.42s13.13-10.37 26.5-16.86c11.85-5.72 23.87-8.44 27.28 1.7.44 1.3-1 4.68-3.15 8.68z" class="F"/><path d="M934.4 736.96a171.88 171.88 0 0 1-13 19.87c-1.88 2-3.4 15.5-3.13 22s-2.5 36.4-13 51.9c-7.4 10.93-6.9 27.45-6 36.26.4 3.7.87 6 .87 6l-16.77 5.88h-20.13l-13.88-4.12-3.66-10.1s1.22-.2 4-.73 7-1.46 13.06-2.9a15.73 15.73 0 0 0 12.49-14.27l8.5-59.43s2.5-15-1.63-25.38a20.66 20.66 0 0 1 1.36-18.1l.27-.42s13.13-10.37 26.5-16.86c11.85-5.72 23.87-8.44 27.28 1.7.44 1.3-1 4.68-3.15 8.68z" opacity=".05"/><path d="M900.16 873.04l-16.77 5.88h-20.15l-13.88-4.16-3.66-10.1 4-.73a7.55 7.55 0 0 0 5.81 8.16l7.88.27 3.33.06a100.48 100.48 0 0 0 32.58-5.41l.86 6.03z" class="B"/><path d="M863.38 874.06l-7.9-.27s-7.36-1.56-5.56-9.9c0 0-14.2-3.22-17.83-1.1s-1.88 13.88 8.38 16.76c10 2.8 47.46 6.94 58.23 5.25l.7-.12c9.76-2 0-16 0-16a100.88 100.88 0 0 1-36.02 5.38z" fill="#bebed0"/><path d="M911.97 739.26l-1.75 3.3c-4.95 9-12.9 20.33-14.28 21.8-2.12 2.26-3.8 17.5-3.54 24.86s-2.8 41.08-14.67 58.58c-6.07 9-7.44 21.25-7.34 31.1a100.24 100.24 0 0 0 .59 10c.44 4.07 1 6.6 1 6.6l-18.92 6.63H830.3l-15.67-4.66-4.1-11.44s1.37-.22 4.45-.83 7.88-1.63 14.74-3.25a17.78 17.78 0 0 0 14.13-16.1l9.6-67.07s2.83-16.95-1.83-28.65a23 23 0 0 1-1.12-13.69 21.84 21.84 0 0 1 3-7.22s3.66-2.88 9.18-6.7c2.44-1.68 5.27-3.54 8.3-5.42 13.36-8.27 30.93-16.7 39.35-10.56a10.89 10.89 0 0 1 3.88 5.59c.34 1.16-.6 3.8-2.23 7.1z" class="F"/><path d="M871.93 895.54L853 902.17H830.3l-15.67-4.66-4.1-11.44 4.45-.83a8.35 8.35 0 0 0 2.66 7.39 8.91 8.91 0 0 0 5.64 2.12l7.17.23 3.76.07a113.75 113.75 0 0 0 36.78-6.12l.95 6.6z" class="B"/><path d="M830.43 896.68l-7.16-.24a9 9 0 0 1-5.65-2.12c-1.82-1.62-3.4-4.42-2.37-9.13 0 0-16-3.63-20.13-1.23s-2.1 15.67 9.46 18.92c11.33 3.17 53.57 7.83 65.73 5.93l.77-.14c11-2.26 0-18.08 0-18.08a113.46 113.46 0 0 1-40.65 6.09z" fill="#bebed0"/><path d="M934.4 736.96c-6.85 2.4-16.9 5.56-22.43 5.7a10.06 10.06 0 0 1-1.71-.08c-3.86-.53-15.8.32-26.73 1.3l-12.1 1.16-8.78.93v-3.4c2.44-1.68 5.27-3.54 8.3-5.42 13.36-8.27 30.93-16.7 39.35-10.56 11.85-5.72 23.87-8.44 27.28 1.7.4 1.3-1.04 4.66-3.2 8.66z" class="B"/><path d="M967.27 658.1c-.2 5.07-2.1 18.23-15.7 31.53-17.36 16.95-10 41.3-10 41.3s-20.7 8.13-29.63 8.35a10.06 10.06 0 0 1-1.71-.08c-5.36-.75-26.64 1.22-38.87 2.46l-8.78.93v-72l95.93-23.3 8.7 8.65a16 16 0 0 1 .08 2.16z" class="G"/><path d="M864.2 741.68l-1.58.17v.76l8.78-.93c8.78-.9 22.2-2.14 31.06-2.5-6.14-.56-26.42 1.3-38.26 2.5zm103.03-85.7l-8.7-8.66-5.8 1.45L960 656a16 16 0 0 1 0 2.17c-.2 5.06-2.1 18.23-15.7 31.53-17.36 16.94-10 41.3-10 41.3s-17.13 6.72-26.94 8.1a24.73 24.73 0 0 1 2.8.15 10 10 0 0 0 1.71.09c8.93-.22 29.63-8.35 29.63-8.35s-7.4-24.35 10-41.3c13.62-13.3 15.52-26.47 15.7-31.53a16 16 0 0 0 0-2.21z" class="B"/><path d="m775.57 607.23s-29-20.12-31.13-2 31.13 15.53 31.13 15.53z" class="F"/><use xlink:href="#C" class="H"/><use xlink:href="#C" opacity=".05"/><path d="m802.56 646.25s-35.27-1.46-27.37 15 34.63-3.52 34.63-3.52z" class="F"/><path d="M838.04 611.26s-28.6-21.4-24.56-47.44 24.56 19.94 24.56 19.94z" class="G"/><path d="M830.14 493.16a36.18 36.18 0 0 1-10.17 25.11 34 34 0 0 1-5.22 4.45 37.29 37.29 0 0 1-11.86 5.48 37.68 37.68 0 0 1-5.13.91l-3.76.2a35.26 35.26 0 0 1-11.91-2 36.14 36.14 0 1 1 48.05-34.1z" class="F"/><path d="M967.27 658.1c-3.24.6-7.24 1.68-7.24 3.36 0 2.83-45.18 18.08-45.18 18.08s1.7 3.94-2.82 10.72S870.8 736 870.8 736l.12 1.16.47 4.5 2.24 21.46s-14.12-5.08-18.64-4.52c-1.46.2-3-.75-4.5-2.1a21.84 21.84 0 0 1 3-7.22s3.66-2.88 9.18-6.7v-72l95.93-23.3 8.7 8.65a16 16 0 0 1-.01 2.16z" class="B"/><path d="M971.33 654.1s-11.3 1.12-11.3 3.95-45.18 18.08-45.18 18.08 1.7 3.94-2.82 10.72-41.23 45.75-41.23 45.75l2.83 27.1s-14.12-5.08-18.64-4.52c-2 .25-4.25-1.6-6.1-3.78a39.34 39.34 0 0 1-4.07-5.81s5.1-21.47-1.7-26.55 7.34-42.35 7.34-42.35 6.38-26.5 4.5-37.87a13.64 13.64 0 0 0-.54-2.24c0-.08-.05-.17-.08-.25-4-10.86-47.36-102-47.36-102a65.48 65.48 0 0 1 .54-7.73 49.42 49.42 0 0 1 .34-2.2 37.28 37.28 0 0 1 .88-4 25 25 0 0 1 .82-2.49c1.34-3.44 3.4-6.1 6.45-6.15 0 0 3.4-3.75 11.34-4.77 5.82-.76 14.13 0 25.38 4.77 26.53 11.28 32.75 11.86 32.75 11.86l16.07 21.1a345.89 345.89 0 0 1 27.21 41.3c4.44 8 10.73 17.3 18.27 22.88 15.25 11.33 24.3 45.2 24.3 45.2z" class="H"/><path d="M872.35 588.8s37.7 9.32 52.3 32.82zM884 630.1s7.13 47.87 5.15 51.47S884 630.1 884 630.1zm-2.55 24.57c-2.74 3.6-13.87 31.34-13.87 31.34l3.2 46.6 2.83 27.1s-14.1-5.08-18.63-4.52c-2 .25-4.26-1.6-6.1-3.78 2.93-15.87 9.2-49.08 10.33-49.72 1.5-.85 9.12-27.53 9.52-35s11-24.12 11-24.12 4.47 8.5 1.7 12.1zm-10.65-45.74c-.7 2.1-1.78 14.4-1.78 14.4-.78 10.82-9 14.36-14.05 15.5a13.64 13.64 0 0 0-.54-2.24C851.03 627 807 534.4 807 534.4a60.85 60.85 0 0 1 1.76-13.94c9.6-2.82 24.77 1.52 24.77 1.52 4.4-.58 18.7 27.9 18.7 27.9l10.6 24.77c1.05 2.97 0 7.84.42 9.54s4.88 3.16 5.5 5.5.22 7 .64 7.83 2.12 9.32 1.4 11.44z" class="B"/><path d="M867.4 607.23c-.7 2.12-1.78 14.4-1.78 14.4-.64 9-6.44 13-11.28 14.7a23.64 23.64 0 0 1-6.78 1.35l-6.8 5.92-31.45 23.15s-11.72-21.67-8.54-21.8 21.52-15.52 21.52-15.52c5.6-3 11.23-13 13.84-18.14a15.85 15.85 0 0 1-.34-1.86c-1.13-9.6-24.85-46.3-24.85-46.3s-9.17-10.8-12.74-30.78c-.1-.46-.17-.93-.26-1.4a14.34 14.34 0 0 1-.18-1.88c-.43-7.7 5.17-10.5 11.8-11.15a47.4 47.4 0 0 1 10.4.32 75.29 75.29 0 0 1 10.17 2c2.84-.38 9.84 11.43 14.43 19.8l4.25 8.08 10.6 24.77c1.05 2.96 0 7.85.42 9.54s4.88 3.17 5.5 5.5.22 7 .64 7.83 2.14 9.34 1.43 11.46z" class="H"/><path d="M903.9 558.37c-6 6.13-15.7 6.15-23.47 3s-14.37-8.8-21.58-13.18c-4.68-2.86-9.64-5.2-14.25-8.15-.68-.44-1.34-.88-2-1.34-5.32-3.76-9.93-8.6-15.44-12a24 24 0 0 0-12.4-4 14.1 14.1 0 0 0-5.91 1.24 8 8 0 0 0-1 .49 25.5 25.5 0 0 0-5 3.75c-1.56 1.4-3.05 2.9-4.7 4.2-.1-.46-.17-.93-.26-1.4a14.34 14.34 0 0 1-.18-1.88 38.95 38.95 0 0 1-3.76.19 35.26 35.26 0 0 1-11.91-2c0-.15 0-.3-.1-.45-1.35-7.12-3.8-14.66-9.52-18.66-3.32-2.32-8.62-3.27-13.22-5a36.14 36.14 0 1 1 68.1 3.91c5.82-.76 14.13 0 25.38 4.77 26.53 11.28 32.75 11.86 32.75 11.86l13.33 17.5c-1.44 2.2-3.07 4.37-3.22 6.94-.25 4.7 4.34 8 8.34 10.22z" class="B"/><path d="M772.47 504.76c5.73 4 8.17 11.53 9.53 18.64.42 2.22.82 4.56 2.18 6.32 3 3.94 9.16 2.83 13.13 0s7.1-7.12 11.53-9.12c5.88-2.66 12.8-.72 18.3 2.73s10.12 8.28 15.44 12c5.15 3.63 10.9 6.22 16.25 9.5 7.2 4.4 13.8 10.06 21.58 13.18s17.5 3.1 23.46-3c-4-2.22-8.6-5.5-8.28-10.26s5.85-8.3 5.48-13.2-6.1-6.8-10.23-9.2c-8.6-5-12.27-16-14.1-26.15-1.43-7.94-2.6-16.8-8.54-21.9-3.83-3.28-9-4.35-12.86-7.6-3.65-3.1-5.68-7.76-8-12.07-3.83-7.17-8.86-13.84-15.5-18.13s-15.1-6-22.4-3.06c-2.8 1.1-5.35 2.83-8.1 4-6.88 3-14.75 2.57-21.56 5.7-8.4 3.86-13.84 12.38-18.83 20.47-4.22 6.93-12.6 19.15-10.22 28.15 2.36 9.15 15.55 8.66 21.77 13z" fill="#4c3e42"/><path d="M901.07 531a6.31 6.31 0 0 0-.19-1.1c-1.52 2.4-3.4 4.7-3.6 7.5a6.81 6.81 0 0 0 .16 1.93c1.7-2.7 3.86-5.22 3.62-8.34zm-18.97 19.7c-7.78-3.12-14.36-8.8-21.57-13.18-5.37-3.27-11.1-5.86-16.26-9.5-5.32-3.76-9.93-8.6-15.44-12s-12.42-5.4-18.3-2.74c-4.43 2-7.55 6.25-11.53 9.13s-10.08 4-13.13 0c-1.36-1.76-1.76-4.1-2.18-6.32-1.35-7.1-3.8-14.64-9.52-18.64-6.23-4.35-19.42-3.86-21.8-13a14.2 14.2 0 0 1-.31-5c-1.53 4.08-2.32 8.18-1.4 11.75 2.4 9.18 15.6 8.7 21.8 13 5.73 4 8.17 11.54 9.53 18.65.42 2.22.82 4.56 2.17 6.32 3 3.94 9.16 2.83 13.14-.05s7.1-7.12 11.53-9.12c5.88-2.65 12.8-.7 18.3 2.74s10.12 8.28 15.44 12c5.15 3.64 10.9 6.22 16.25 9.5 7.2 4.4 13.8 10.07 21.58 13.2s17.5 3.1 23.46-3a28.72 28.72 0 0 1-4.37-2.89c-5.42 2-11.9 1.37-17.4-.84z" class="B"/><path d="M705.12 619.1l80-29.88a7.6 7.6 0 0 1 9.79 4.46 7.61 7.61 0 0 1-4.47 9.79l-80 29.9-17.14-1.72z" class="G"/><path d="M792.48 591.28a7.62 7.62 0 0 1-4.47 9.8l-80 29.88-12.88-1.3-1.85 2 17.14 1.72 80-29.9a7.61 7.61 0 0 0 4.47-9.79 7.58 7.58 0 0 0-3.11-3.8 8.28 8.28 0 0 1 .7 1.37z" fill="#fff" class="B"/><path fill="#efc8c4" d="M705.12 619.1l5.33 14.26-17.15-1.72 4.2-4.46z"/><path d="M697.5 627.18a3.05 3.05 0 0 1 .82.9 1.29 1.29 0 0 1 0 1.39 3.13 3.13 0 0 1-.78.55 2.55 2.55 0 0 0-1.14 1.93l-3.08-.3z" fill="#727a9c"/><path d="M635.3 464.6l-13.5-6.6a1.63 1.63 0 0 1-.75-2.18l1.43-2.94a1.62 1.62 0 0 1 2.18-.75l9.1 4.43 9.5-19.46a1.64 1.64 0 0 1 2.18-.76l2.94 1.44a1.62 1.62 0 0 1 .75 2.18l-11.64 23.87a1.63 1.63 0 0 1-2.18.75zm29.46 84.16l-13.5-6.58a1.63 1.63 0 0 1-.75-2.18l1.43-2.94a1.64 1.64 0 0 1 2.19-.75l9.08 4.43 9.48-19.48a1.64 1.64 0 0 1 2.18-.76l2.93 1.44a1.63 1.63 0 0 1 .76 2.18L666.93 548a1.65 1.65 0 0 1-2.19.75zm-13.23-41.5l-13.5-6.58a1.64 1.64 0 0 1-.76-2.18l1.44-2.94a1.62 1.62 0 0 1 2.18-.75l9.1 4.43 9.5-19.5a1.63 1.63 0 0 1 2.18-.75l2.94 1.43a1.65 1.65 0 0 1 .75 2.19l-11.65 23.9a1.63 1.63 0 0 1-2.18.75zm26.03 79.5l-13.5-6.58a1.63 1.63 0 0 1-.75-2.18l1.43-2.94a1.63 1.63 0 0 1 2.18-.75l9.1 4.43 9.5-19.46a1.65 1.65 0 0 1 2.19-.76l2.93 1.44a1.62 1.62 0 0 1 .75 2.18L679.75 586a1.65 1.65 0 0 1-2.19.75zM173.22 845.12s5.95 7.78-2.74 19.52-15.87 21.66-13 29c0 0 13.12-21.8 23.8-22.1s3.7-13.3-8.05-26.4z" fill="#3acc6c"/><path d="M173.22 845.12a9.59 9.59 0 0 1 1.22 2.44c10.4 12.24 16 23.66 5.95 24-9.33.26-20.52 16.94-23.2 21.15a7.68 7.68 0 0 0 .31 1s13.12-21.8 23.8-22.1 3.66-13.36-8.08-26.48z" class="B"/><g fill="#ffd037"><path d="M184.28 855.04c0 2.73-.3 5-.7 5s-.68-2.22-.68-5 .38-1.45.76-1.45.6-1.3.6 1.45z"/><path d="M188.07 858.3c-2.4 1.3-4.5 2.1-4.68 1.77s1.62-1.66 4-3 1.45-.36 1.63 0 1.46-.08-.95 1.23z"/></g><path d="M141.8 845.12s-5.94 7.78 2.75 19.52 15.86 21.66 13 29c0 0-13.1-21.8-23.8-22.1s-3.7-13.3 8.04-26.4z" fill="#3acc6c"/><path d="M141.8 845.12a9.81 9.81 0 0 0-1.21 2.44c-10.42 12.24-16 23.66-5.95 24 9.32.26 20.5 16.94 23.2 21.15a7.72 7.72 0 0 1-.32 1s-13.1-21.9-23.8-22.2-3.64-13.27 8.1-26.4z" class="B"/><g fill="#ffd037"><path d="M130.75 855.04c0 2.73.3 5 .68 5s.7-2.22.7-5-.38-1.45-.76-1.45-.6-1.3-.6 1.45z"/><path d="M126.95 858.3c2.4 1.3 4.5 2.1 4.68 1.77s-1.62-1.66-4-3-1.46-.36-1.64 0-1.44-.08.96 1.23z"/></g><ellipse cx="157.52" cy="943.58" rx="62.19" ry="9.54" class="B E"/><path d="M189.52 883.14l-.3 2.43-.4 3.43-.18 1.43-.4 3.43-.2 1.43-.4 3.43-4.76 39c-.43 3.48-6.12 6.2-13 6.2h-24.7c-6.87 0-12.55-2.72-13-6.2l-6.67-54.58c-.23-2 2.84-3.64 6.73-3.64h50.6c3.9 0 6.97 1.67 6.72 3.64z" fill="#65617d"/><path d="M126.22 889l-.4-3.43h63.42l-.42 3.43zm.6 4.86l-.42-3.43h62.24l-.42 3.43zm.58 4.86l-.42-3.43h61.05l-.42 3.43z" fill="#9d9cb5"/></g></svg>