<svg id="1c51936f-ad83-4493-a1e8-5a7ca1846cda" width="1e3" height="1e3" data-name="Layer 1" version="1.1" viewBox="0 0 1e3 1e3" xmlns="http://www.w3.org/2000/svg" xmlns:xlink="http://www.w3.org/1999/xlink">
 <defs>
  <linearGradient id="07332201-7176-49c2-9908-6dc4a39c4716" x1="539.63" x2="539.63" y1="734.6" y2="151.19" gradientTransform="translate(-3.62 1.57)" gradientUnits="userSpaceOnUse">
   <stop stop-color="gray" stop-opacity=".25" offset="0"/>
   <stop stop-color="gray" stop-opacity=".12" offset=".54"/>
   <stop stop-color="gray" stop-opacity=".1" offset="1"/>
  </linearGradient>
  <linearGradient id="0ee1ab3f-7ba2-4205-9d4a-9606ad702253" x1="540.17" x2="540.17" y1="180.2" y2="130.75" gradientTransform="translate(-63.92,7.85)" xlink:href="#07332201-7176-49c2-9908-6dc4a39c4716"/>
  <linearGradient id="abca9755-bed1-4a97-b027-7f02ee3ffa09" x1="540.17" x2="540.17" y1="140.86" y2="82.43" gradientTransform="rotate(-12.11 545.07 460.65)" xlink:href="#07332201-7176-49c2-9908-6dc4a39c4716"/>
  <linearGradient id="2632d424-e666-4ee4-9508-a494957e14ab" x1="476.4" x2="476.4" y1="710.53" y2="127.12" xlink:href="#07332201-7176-49c2-9908-6dc4a39c4716"/>
  <linearGradient id="97571ef7-1c83-4e06-b701-c2e47e77dca3" x1="476.94" x2="476.94" y1="156.13" y2="106.68" xlink:href="#07332201-7176-49c2-9908-6dc4a39c4716"/>
  <linearGradient id="7d32e13e-a0c7-49c4-af0e-066a2f8cb76e" x1="666.86" x2="666.86" y1="176.39" y2="117.95" xlink:href="#07332201-7176-49c2-9908-6dc4a39c4716"/>
  <linearGradient id="linearGradient1341" x1="539.63" x2="539.63" y1="734.6" y2="151.19" gradientTransform="translate(-3.62,1.57)" gradientUnits="userSpaceOnUse" xlink:href="#07332201-7176-49c2-9908-6dc4a39c4716"/>
 </defs>
 <title>design tools</title>
 <g transform="matrix(.88457 0 0 .88457 61.052 58.707)">
  <g transform="translate(89.915 109.6)">
   <rect transform="rotate(-12.11 160.03 1309.8)" x="317.5" y="142.55" width="437.02" height="603.82" fill="#e0e0e0"/>
   <g opacity=".5">
    <rect transform="rotate(-12.11 160.03 1309.8)" x="324.89" y="152.76" width="422.25" height="583.41" fill="url(#linearGradient1341)"/>
   </g>
   <rect transform="rotate(-12.11 159.59 1307.7)" x="329.81" y="157.1" width="411.5" height="570.52" fill="#fafafa"/>
   <rect transform="rotate(-12.11 100.28 1028.7)" x="374.18" y="138.6" width="204.14" height="49.45" fill="url(#0ee1ab3f-7ba2-4205-9d4a-9606ad702253)"/>
   <path transform="translate(-189.92,-59.59)" d="m460.93 91.9c-15.41 3.31-25.16 18.78-21.77 34.55s18.62 25.89 34 22.58 25.16-18.78 21.77-34.55-18.59-25.89-34-22.58zm9.67 45.1a16.86 16.86 0 1 1 12.56-20 16.66 16.66 0 0 1-12.56 20z" fill="url(#abca9755-bed1-4a97-b027-7f02ee3ffa09)"/>
   <rect transform="rotate(-12.11 99.611 1025.6)" x="375.66" y="136.55" width="199.84" height="47.27" fill="#d37e01"/>
   <path transform="translate(-189.92,-59.59)" d="m460.93 91.9a27.93 27.93 0 1 0 33.17 21.45 27.93 27.93 0 0 0-33.17-21.45zm9.24 43.1a16.12 16.12 0 1 1 12.38-19.14 16.12 16.12 0 0 1-12.38 19.14z" fill="#d37e01"/>
   <rect x="257.89" y="116.91" width="437.02" height="603.82" fill="#e0e0e0"/>
   <g opacity=".5">
    <rect x="265.28" y="127.12" width="422.25" height="583.41" fill="url(#2632d424-e666-4ee4-9508-a494957e14ab)"/>
   </g>
   <rect x="270.65" y="131.42" width="411.5" height="570.52" fill="#fff"/>
   <rect x="374.87" y="106.68" width="204.14" height="49.45" fill="url(#97571ef7-1c83-4e06-b701-c2e47e77dca3)"/>
   <path transform="translate(-189.92,-59.59)" d="m666.86 118c-15.76 0-28.54 13.08-28.54 29.22s12.78 29.22 28.54 29.22 28.54-13.08 28.54-29.22-12.78-29.22-28.54-29.22zm0 46.08a16.86 16.86 0 1 1 16.46-16.86 16.66 16.66 0 0 1-16.46 16.78z" fill="url(#7d32e13e-a0c7-49c4-af0e-066a2f8cb76e)"/>
   <rect x="377.02" y="104.56" width="199.84" height="47.27" fill="#d37e01"/>
   <path transform="translate(-189.92,-59.59)" d="m666.86 118a27.93 27.93 0 1 0 27.93 27.93 27.93 27.93 0 0 0-27.93-27.93zm0 44.05a16.12 16.12 0 1 1 16.14-16.16 16.12 16.12 0 0 1-16.14 16.11z" fill="#d37e01"/>
   <g fill="#47e6b1" opacity=".5">
    <rect x="15.27" y="737.05" width="3.76" height="21.33"/>
    <rect transform="rotate(90,141.91,682.56)" x="205.19" y="796.65" width="3.76" height="21.33"/>
   </g>
   <g fill="#47e6b1" opacity=".5">
    <rect x="451.49" width="3.76" height="21.33"/>
    <rect transform="rotate(90 578.12 -54.495)" x="641.4" y="59.59" width="3.76" height="21.33"/>
   </g>
   <path transform="translate(-189.92,-59.59)" d="m961 832.15a4.61 4.61 0 0 1-2.57-5.57 2.22 2.22 0 0 0 0.1-0.51 2.31 2.31 0 0 0-4.15-1.53 2.22 2.22 0 0 0-0.26 0.45 4.61 4.61 0 0 1-5.57 2.57 2.22 2.22 0 0 0-0.51-0.1 2.31 2.31 0 0 0-1.53 4.15 2.22 2.22 0 0 0 0.45 0.26 4.61 4.61 0 0 1 2.57 5.57 2.22 2.22 0 0 0-0.1 0.51 2.31 2.31 0 0 0 4.15 1.53 2.22 2.22 0 0 0 0.26-0.45 4.61 4.61 0 0 1 5.57-2.57 2.22 2.22 0 0 0 0.51 0.1 2.31 2.31 0 0 0 1.53-4.15 2.22 2.22 0 0 0-0.45-0.26z" fill="#4d8af0" opacity=".5"/>
   <path transform="translate(-189.92,-59.59)" d="m326.59 627.09a4.61 4.61 0 0 1-2.57-5.57 2.22 2.22 0 0 0 0.1-0.51 2.31 2.31 0 0 0-4.15-1.53 2.22 2.22 0 0 0-0.26 0.45 4.61 4.61 0 0 1-5.57 2.57 2.22 2.22 0 0 0-0.51-0.1 2.31 2.31 0 0 0-1.53 4.15 2.22 2.22 0 0 0 0.45 0.26 4.61 4.61 0 0 1 2.57 5.57 2.22 2.22 0 0 0-0.1 0.51 2.31 2.31 0 0 0 4.15 1.53 2.22 2.22 0 0 0 0.26-0.45 4.61 4.61 0 0 1 5.57-2.57 2.22 2.22 0 0 0 0.51 0.1 2.31 2.31 0 0 0 1.53-4.15 2.22 2.22 0 0 0-0.45-0.26z" fill="#fdd835" opacity=".5"/>
   <path transform="translate(-189.92,-59.59)" d="m855 127.77a4.61 4.61 0 0 1-2.57-5.57 2.22 2.22 0 0 0 0.1-0.51 2.31 2.31 0 0 0-4.15-1.53 2.22 2.22 0 0 0-0.26 0.45 4.61 4.61 0 0 1-5.57 2.57 2.22 2.22 0 0 0-0.51-0.1 2.31 2.31 0 0 0-1.53 4.15 2.22 2.22 0 0 0 0.45 0.26 4.61 4.61 0 0 1 2.57 5.57 2.22 2.22 0 0 0-0.1 0.51 2.31 2.31 0 0 0 4.15 1.53 2.22 2.22 0 0 0 0.26-0.45 4.61 4.61 0 0 1 5.57-2.57 2.22 2.22 0 0 0 0.51 0.1 2.31 2.31 0 0 0 1.53-4.15 2.22 2.22 0 0 0-0.45-0.26z" fill="#fdd835" opacity=".5"/>
   <g fill="#f55f44">
    <circle cx="812.64" cy="314.47" r="7.53" opacity=".5"/>
    <circle cx="230.73" cy="746.65" r="7.53" opacity=".5"/>
    <circle cx="735.31" cy="477.23" r="7.53" opacity=".5"/>
   </g>
   <circle cx="87.14" cy="96.35" r="7.53" fill="#4d8af0" opacity=".5"/>
   <circle cx="7.53" cy="301.76" r="7.53" fill="#47e6b1" opacity=".5"/>
  </g>
 </g>
</svg>
