<svg xmlns="http://www.w3.org/2000/svg" xmlns:xlink="http://www.w3.org/1999/xlink" width="1000" height="1000"><defs><linearGradient id="A" x1="536.01" x2="536.01" y1="736.17" y2="152.76" gradientUnits="userSpaceOnUse"><stop stop-color="gray" stop-opacity=".25" offset="0"/><stop stop-color="gray" stop-opacity=".12" offset=".54"/><stop stop-color="gray" stop-opacity=".1" offset="1"/></linearGradient><linearGradient id="B" x1="476.25" x2="476.25" y1="188.05" y2="138.6" xlink:href="#A"/><linearGradient id="C" x1="473.191" x2="460.933" y1="149.004" y2="91.875" xlink:href="#A"/><linearGradient id="D" x1="472.78" x2="472.78" y1="712.1" y2="128.69" xlink:href="#A"/><linearGradient id="E" x1="473.32" x2="473.32" y1="157.7" y2="108.25" xlink:href="#A"/><linearGradient id="F" x1="663.24" x2="663.24" y1="177.96" y2="119.52" xlink:href="#A"/><linearGradient id="G" xlink:href="#A"/><path id="H" d="M771.08 772.56a4.61 4.61 0 0 1-2.57-5.57 2.22 2.22 0 0 0 .1-.51 2.31 2.31 0 0 0-4.15-1.53 2.22 2.22 0 0 0-.26.45 4.61 4.61 0 0 1-5.57 2.57 2.22 2.22 0 0 0-.51-.1 2.31 2.31 0 0 0-1.53 4.15 2.22 2.22 0 0 0 .45.26 4.61 4.61 0 0 1 2.57 5.57 2.22 2.22 0 0 0-.1.51 2.31 2.31 0 0 0 4.15 1.53 2.22 2.22 0 0 0 .26-.45 4.61 4.61 0 0 1 5.57-2.57 2.22 2.22 0 0 0 .51.1 2.31 2.31 0 0 0 1.53-4.15 2.22 2.22 0 0 0-.45-.26z"/></defs><g transform="matrix(.88457 0 0 .88457 140.588112 155.655872)"><path fill="#e0e0e0" d="M69.12 135.5l427.295-91.682L623.09 634.19l-427.295 91.682z"/><path transform="rotate(347.89 160.03 1309.8)" fill="url(#G)" d="M324.9 152.76h422.25v583.4H324.9z" opacity=".5"/><path fill="#fafafa" d="M84.64 146.994L486.98 60.666 606.67 618.5l-402.343 86.328z"/><path transform="rotate(347.89 100.28 1028.7)" fill="url(#B)" d="M374.18 138.6h204.14v49.45H374.18z"/><path transform="translate(-189.92 -59.59)" d="m460.93 91.9c-15.41 3.31-25.16 18.78-21.77 34.55s18.62 25.89 34 22.58 25.16-18.78 21.77-34.55-18.59-25.89-34-22.58zm9.67 45.1a16.86 16.86 0 1 1 12.56-20 16.66 16.66 0 0 1-12.56 20z" fill="url(#C)"/><g fill="#d37e01"><path d="M183.004 98.422l195.393-41.924 9.917 46.218L192.92 144.64z"/><path d="M271 32.3c-15.08 3.237-24.683 18.087-21.447 33.168s18.086 24.684 33.167 21.448 24.685-18.085 21.45-33.167a27.93 27.93 0 0 0-33.17-21.45zm9.24 43.1a16.12 16.12 0 0 1-16.917-24.516 16.12 16.12 0 0 1 29.297 5.376c1.866 8.704-3.677 17.272-12.38 19.14z"/></g><path fill="#e0e0e0" d="M257.9 116.9H694.9v603.82H257.9z"/><path fill="url(#D)" d="M265.28 127.12h422.25v583.4H265.28z" opacity=".5"/><path fill="#fff" d="M270.65 131.42h411.5v570.52h-411.5z"/><path fill="url(#E)" d="M374.87 106.68H579v49.45H374.87z"/><path transform="translate(-189.92 -59.59)" d="m666.86 118c-15.76 0-28.54 13.08-28.54 29.22s12.78 29.22 28.54 29.22 28.54-13.08 28.54-29.22-12.78-29.22-28.54-29.22zm0 46.08a16.86 16.86 0 1 1 16.46-16.86 16.66 16.66 0 0 1-16.46 16.78z" fill="url(#F)"/><g fill="#d37e01"><path d="M377.02 104.56h199.84v47.27H377.02z"/><path d="M476.94 58.4a27.93 27.93 0 0 0-19.749 47.679A27.93 27.93 0 0 0 504.87 86.34c0-15.425-12.505-27.93-27.93-27.93zm0 44.05c-8.895-.01-16.1-7.225-16.1-16.12s7.205-16.11 16.1-16.12 16.118 7.185 16.14 16.08a16.12 16.12 0 0 1-16.14 16.11z"/></g><g fill="#47e6b1"><g opacity=".5"><path d="M15.27 737.05h3.76v21.33h-3.76z"/><path d="M27.82 745.84v3.76H6.5v-3.76z"/></g><g opacity=".5"><path d="M451.5 0h3.76v21.33h-3.76z"/><path d="M464.035 8.785v3.76h-21.33v-3.76z"/></g></g><use xlink:href="#H" fill="#4d8af0" opacity=".5"/><g fill="#fdd835"><use xlink:href="#H" x="-634.41" y="-205.06" opacity=".5"/><use xlink:href="#H" x="-106" y="-704.38" opacity=".5"/></g><g fill="#f55f44"><circle cx="812.64" cy="314.47" r="7.53" opacity=".5"/><circle cx="230.73" cy="746.65" r="7.53" opacity=".5"/><circle cx="735.31" cy="477.23" r="7.53" opacity=".5"/></g><circle cx="87.14" cy="96.35" r="7.53" fill="#4d8af0" opacity=".5"/><circle cx="7.53" cy="301.76" r="7.53" fill="#47e6b1" opacity=".5"/></g></svg>