<?xml version="1.0" encoding="UTF-8" standalone="no"?>
<svg
   xmlns:dc="http://purl.org/dc/elements/1.1/"
   xmlns:cc="http://creativecommons.org/ns#"
   xmlns:rdf="http://www.w3.org/1999/02/22-rdf-syntax-ns#"
   xmlns:svg="http://www.w3.org/2000/svg"
   xmlns="http://www.w3.org/2000/svg"
   xmlns:xlink="http://www.w3.org/1999/xlink"
   xmlns:sodipodi="http://sodipodi.sourceforge.net/DTD/sodipodi-0.dtd"
   xmlns:inkscape="http://www.inkscape.org/namespaces/inkscape"
   id="a490d581-c356-41e2-b0f0-0de4275777d8"
   data-name="Layer 1"
   width="1000"
   height="1000"
   viewBox="0 0 1000 999.99997"
   version="1.1"
   sodipodi:docname="3.svg"
   inkscape:version="0.92.4 (5da689c313, 2019-01-14)">
  <metadata
     id="metadata219">
    <rdf:RDF>
      <cc:Work
         rdf:about="">
        <dc:format>image/svg+xml</dc:format>
        <dc:type
           rdf:resource="http://purl.org/dc/dcmitype/StillImage" />
        <dc:title>winners</dc:title>
      </cc:Work>
    </rdf:RDF>
  </metadata>
  <sodipodi:namedview
     pagecolor="#ffffff"
     bordercolor="#666666"
     borderopacity="1"
     objecttolerance="10"
     gridtolerance="10"
     guidetolerance="10"
     inkscape:pageopacity="0"
     inkscape:pageshadow="2"
     inkscape:window-width="743"
     inkscape:window-height="689"
     id="namedview217"
     showgrid="false"
     inkscape:zoom="0.22622472"
     inkscape:cx="198.66051"
     inkscape:cy="396.37991"
     inkscape:window-x="3"
     inkscape:window-y="0"
     inkscape:window-maximized="0"
     inkscape:current-layer="a490d581-c356-41e2-b0f0-0de4275777d8" />
  <defs
     id="defs10">
    <linearGradient
       id="e151d6ee-b0bf-4b5d-8ce9-000e8108dac8"
       x1="836.51001"
       y1="628.66998"
       x2="836.51001"
       y2="226.37"
       gradientUnits="userSpaceOnUse">
      <stop
         offset="0"
         stop-color="gray"
         stop-opacity="0.25"
         id="stop2" />
      <stop
         offset="0.54"
         stop-color="gray"
         stop-opacity="0.12"
         id="stop4" />
      <stop
         offset="1"
         stop-color="gray"
         stop-opacity="0.1"
         id="stop6" />
    </linearGradient>
    <linearGradient
       id="e2a6fc7a-3d7b-4d78-8350-c6ea621e07cc"
       x1="178.62"
       y1="535.34998"
       x2="400.84"
       y2="535.34998"
       xlink:href="#e151d6ee-b0bf-4b5d-8ce9-000e8108dac8"
       gradientTransform="translate(-28,223.73998)" />
    <linearGradient
       inkscape:collect="always"
       xlink:href="#e151d6ee-b0bf-4b5d-8ce9-000e8108dac8"
       id="linearGradient1026"
       gradientUnits="userSpaceOnUse"
       x1="836.51001"
       y1="628.66998"
       x2="836.51001"
       y2="226.37"
       gradientTransform="translate(-28,223.73998)" />
  </defs>
  <title
     id="title12">winners</title>
  <g
     id="g1129"
     transform="matrix(0.87410979,0,0,0.87410979,0.01778314,-88.89665)">
    <path
       style="opacity:0.1;fill:#d37e01"
       inkscape:connector-curvature="0"
       id="path14"
       d="m 687.72,817.78998 c 22.1,-1.26 49.52,-16.25 70.84,-22.88 q 37.85,-11.74 76,-22.59 132.81,-37.79 268.47,-64.4 12.66,-2.49 25.36,-4.86 a 179.51,179.51 0 0 0 -59.26,-71.17 182.06,182.06 0 0 0 1,-18.78 c 0,-99.14 -79.23,-179.51 -177,-179.51 a 174.18,174.18 0 0 0 -85.9,22.55 c -69.2,-45.52 -159.52,-73.07 -258.34,-73.07 -140.42,0 -263.69,55.63 -333.54,139.4 l 328.28,55.46 201.34,34 c -229.53,6.85 -459.77,13.66 -688.64,-2.42 a 181.42,181.42 0 0 0 -26.12,229 v 0 c 0,3.59 0.15,7.15 0.42,10.68 5.83,1.67 11.46,3.29 16.51,4.35 q 121.61,25.69 244.78,43 c -60.51,37.31 -134.2,42.59 -204,58.39 33.8,27.9 79.7,45 130.28,45 h 753.12 c 81.55,0 147.65,-56.77 147.65,-126.81 v 0 a 180.19,180.19 0 0 0 24,-65.89 c -150.9,14.57 -303.68,1.92 -455.25,10.55 z" />
    <path
       style="opacity:0.1;fill:#d37e01"
       inkscape:connector-curvature="0"
       id="path16"
       d="m 1144,777.40998 a 180,180 0 0 0 -76,-147.42 184.71,184.71 0 0 0 1,-18.77 c 0,-99.14 -79.27,-179.48 -177,-179.48 a 174.28,174.28 0 0 0 -85.91,22.54 c -69.2,-45.54 -159.53,-73.1 -258.35,-73.1 -160.74,0 -299.1,72.95 -360.46,177.56 -3.41,-0.2 -6.84,-0.31 -10.3,-0.31 -97.74,0 -177,80.37 -177,179.51 a 180.53,180.53 0 0 0 29.12,98.67 v 0 c 0,89.2 84.19,161.51 188,161.51 h 753.14 c 81.54,0 147.64,-56.78 147.64,-126.82 v 0 a 180.52,180.52 0 0 0 26.12,-93.89 z" />
    <path
       style="fill:url(#linearGradient1026)"
       inkscape:connector-curvature="0"
       id="path18"
       d="m 934.28,667.42998 a 11.14,11.14 0 0 0 -4.88,-2.14 c -1.87,-0.43 -3.78,-0.7 -5.68,-1 l -24.62,-3.55 a 29,29 0 0 0 -7.54,-0.4 9.57,9.57 0 0 0 -6.56,3.4 5.11,5.11 0 0 0 -1.14,3.2 8.44,8.44 0 0 0 1.12,3.32 11.1,11.1 0 0 1 0.61,1.47 33.6,33.6 0 0 0 0.88,3.35 2.84,2.84 0 0 0 0.42,0.66 1.09,1.09 0 0 1 0,0.17 c -0.27,1.38 0.6,2.82 0.21,4.15 -0.34,1.14 -1.45,1.83 -2.15,2.78 a 4.18,4.18 0 0 0 -0.1,4.61 c 0.75,1.16 2.11,1.95 2.5,3.28 0.51,1.75 -0.87,3.44 -2.1,4.79 a 74.23,74.23 0 0 0 -6.26,7.89 4.89,4.89 0 0 0 -1,2.35 c -0.11,1.74 1.56,3.27 1.27,5 -0.23,1.36 -1.56,2.19 -2.71,3 -4.25,2.8 -7.66,7.3 -8,12.39 a 43.4,43.4 0 0 0 -9.68,-22 c -1.43,-1.72 -3,-3.45 -3.59,-5.63 -0.22,-0.87 -0.26,-1.8 -0.56,-2.64 -1,-2.65 -4.18,-3.79 -5.57,-6.23 -1,-1.72 -1,-3.93 -2.24,-5.44 -1.24,-1.51 -3.19,-1.85 -4.26,-3.31 a 21.18,21.18 0 0 1 -1.36,-3.08 6.73,6.73 0 0 0 -1.85,-2.22 5.4,5.4 0 0 0 -0.46,-0.33 1.59,1.59 0 0 0 0.53,-1.18 c 0,-1.17 -1.16,-1.94 -2.17,-2.52 -1.3,-0.74 -2.57,-1.54 -3.81,-2.37 a 8.91,8.91 0 0 0 3.41,-2.79 9.17,9.17 0 0 0 1.3,-6 7.57,7.57 0 0 0 -1.79,-4.59 c -0.63,-0.67 -1.42,-1.15 -2.08,-1.78 -1.71,-1.67 -2.29,-4.14 -3,-6.42 -0.94,-3 -2.41,-6.15 -5.15,-7.74 -1.32,-0.77 -2.86,-1.13 -4.15,-1.94 -1.29,-0.81 -2.37,-2.34 -1.92,-3.81 0.3,-1 1.23,-1.69 1.86,-2.54 a 5.06,5.06 0 0 0 -1.27,-7 c -0.74,-0.47 -1.65,-0.88 -1.8,-1.74 a 3.18,3.18 0 0 1 -2.32,-2.46 9.48,9.48 0 0 1 0,-3.56 q 0.39,-2.79 0.77,-5.56 a 3.62,3.62 0 0 0 2.78,0 24.48,24.48 0 0 0 3,3.92 39.17,39.17 0 0 1 7,12.15 c 0.57,1.6 1.15,3.39 2.63,4.24 0.51,0.29 1.09,0.44 1.59,0.75 a 5.94,5.94 0 0 1 1.56,1.6 c 1.2,1.59 2.4,3.17 3.59,4.76 l 0.06,0.24 a 1.4,1.4 0 0 0 0.16,0.4 1.33,1.33 0 0 0 0.86,0.44 c 3.68,0.85 7.81,1.63 11,-0.38 2.88,-1.8 4.14,-5.36 6.58,-7.74 1.73,-1.69 4.18,-3 4.67,-5.38 a 17.7,17.7 0 0 1 -1.72,-0.63 c 0.5,-0.5 1,-1.08 1.68,-1.74 a 21.18,21.18 0 0 0 2.66,-3.17 20.43,20.43 0 0 0 2,-4.48 q 2.89,-8.24 5.8,-16.49 c 0.92,-2.6 1.84,-5.22 3,-7.75 1.2,-2.74 2.62,-5.37 3.93,-8.06 a 107,107 0 0 0 7.78,-21.9 8,8 0 0 0 0.31,-3.19 c -0.28,-1.73 -1.59,-3.09 -2.84,-4.32 a 20.84,20.84 0 0 0 -4.26,-3.53 7,7 0 0 0 -5.34,-0.86 c -2.56,0.75 -4.17,3.37 -4.76,6 -0.59,2.63 -0.37,5.34 -0.62,8 -0.36,3.85 -1.68,7.57 -2,11.43 -0.17,2.23 0,4.49 -0.27,6.72 a 24.52,24.52 0 0 1 -3,8.28 53.6,53.6 0 0 1 -12.93,15.94 c -0.61,0.51 -1.24,1 -1.84,1.55 0,-0.43 0.07,-0.87 0.13,-1.3 a 7.84,7.84 0 0 0 -1.27,0.45 3.81,3.81 0 0 0 -0.15,-1.5 c -0.8,-2.39 -4.36,-3 -5,-5.43 a 11.1,11.1 0 0 1 -0.17,-1.82 c -0.21,-2.13 -1.66,-3.93 -2.16,-6 -0.46,-1.91 -0.11,-4 -1,-5.77 a 16.13,16.13 0 0 0 -2.66,-3 11.77,11.77 0 0 1 -2.53,-4.77 c -0.13,-0.49 -0.25,-1 -0.39,-1.49 a 6.82,6.82 0 0 0 -0.36,-3.29 c -0.91,-2.26 -3.26,-3.71 -4.11,-6 -0.66,-1.78 -0.37,-4 -1.62,-5.38 a 5.85,5.85 0 0 0 -2.37,-1.43 52.73,52.73 0 0 0 -14.27,-3.37 c -2.74,-0.25 -5.76,-0.39 -7.72,-2.32 -2.29,-2.24 -2.4,-6.27 -5.08,-8 -2.36,-1.53 -5.7,-0.4 -7.53,1.75 a 9.53,9.53 0 0 0 -0.76,1 10.7,10.7 0 0 1 -0.21,-4.1 c 0,-0.34 0.07,-0.69 0.1,-1 a 20,20 0 0 0 10.84,-8.56 c 0,0 0,0 0,0.06 l 0.12,0.31 c 0.29,0.73 0.75,1.43 1.43,1.51 v 0 a 2,2 0 0 0 1.24,-0.45 10.27,10.27 0 0 0 1.66,-1.44 q 0.38,-0.42 0.72,-0.87 a 11.33,11.33 0 0 0 1.18,-2 11.88,11.88 0 0 0 1,-3.35 c 0.18,-1.16 0.2,-2.35 0.4,-3.51 a 21.61,21.61 0 0 1 0.73,-2.65 c 0.1,-0.29 0.2,-0.58 0.29,-0.87 0.09,-0.29 0.22,-0.68 0.32,-1 a 23.17,23.17 0 0 0 1,-6.34 q 0,-0.54 0,-1.08 a 10.55,10.55 0 0 0 -3.36,-7.45 c -1.72,-1.41 -4,-2 -5.26,-3.91 -0.82,-1.28 -1,-2.93 -1.48,-4.43 a 10,10 0 0 0 -7.86,-7.07 8.75,8.75 0 0 0 -6.22,1.71 v 0 l -0.14,0.11 v 0 a 10,10 0 0 0 -2.48,2.76 8.25,8.25 0 0 1 -3.52,-2 c -1,-0.93 -1.77,-2.1 -2.78,-3 a 7.15,7.15 0 0 0 -7.12,-1.5 8.51,8.51 0 0 0 -5.09,5.83 c -0.55,2.06 -0.45,4.43 -1.6,6.15 -0.89,1.34 -2.35,2 -3.37,3.22 a 6.06,6.06 0 0 0 -1.26,2.67 v 0 a 7.23,7.23 0 0 0 -0.17,1.67 v 0 c 0,0.25 0,0.5 0.06,0.74 0,0 0,0.08 0,0.12 a 5.29,5.29 0 0 0 0.17,0.81 v 0 a 7,7 0 0 0 1.49,2.74 6.58,6.58 0 0 0 2.41,1.74 9.76,9.76 0 0 0 1.16,0.37 l 1.19,0.27 0.42,0.1 a 19.94,19.94 0 0 0 -0.56,17.61 c 0,0.28 -0.07,0.56 -0.1,0.84 a 69.17,69.17 0 0 0 0.52,11.79 c 0.14,1.55 0.22,3.26 -0.73,4.49 a 8.52,8.52 0 0 1 -1.45,1.29 c 0.54,-0.7 1.09,-1.39 1.65,-2.08 -1.41,-1.42 -3.64,-1.6 -5.64,-1.46 a 26.13,26.13 0 0 0 -11,3.36 c -2.24,1.29 -4.54,3 -7.1,2.7 -1.51,-0.17 -3,-1 -4.47,-0.6 a 9.06,9.06 0 0 0 -2.29,1.36 3.1,3.1 0 0 1 -1.88,0.58 c -1.57,-1.93 -4,-3.24 -5.88,-4.81 a 46.33,46.33 0 0 1 -5.85,-6.27 c -3.24,-3.91 -6.47,-7.83 -9.65,-11.78 -2.68,-3.32 -5.43,-6.91 -5.9,-11.16 a 10.93,10.93 0 0 1 -0.07,-1.27 32.3,32.3 0 0 1 0.76,-6 3,3 0 0 0 0,-1.45 c -0.3,-1 -1.45,-1.37 -2.44,-1.59 v 0 c 0.13,-0.77 0.22,-1.56 0.27,-2.31 0.56,-8.6 -0.05,-17.34 1.77,-25.76 0.69,-3.24 1.82,-6.52 4.15,-8.87 3.65,-3.69 9.76,-4.58 12.56,-8.95 2.34,-3.64 1.41,-8.79 -1.53,-12 -2.94,-3.21 -7.47,-4.52 -11.78,-4.36 a 6.08,6.08 0 0 0 -3.43,0.92 7.29,7.29 0 0 0 -2.08,3.16 l -4.29,10.43 a 63.08,63.08 0 0 0 -3.14,8.38 c -1.2,4.38 -1.47,9 -2.42,13.42 0,3.4 -2.19,7.64 -3.39,10.77 -1.34,3.52 -2.79,7 -4,10.59 -0.3,0.9 -1.35,3.57 -2,6 a 3.66,3.66 0 0 0 -0.68,0.51 18.09,18.09 0 0 0 -1.42,2.11 c -0.91,1.2 -2.39,1.84 -3.39,3 -1,1.16 -1.21,3.29 0.18,3.87 a 4.08,4.08 0 0 0 0.87,0.19 3.38,3.38 0 0 1 0.54,0.09 c 1.5,0.42 2.09,2.31 1.87,3.87 -0.22,1.56 -1,3 -1.13,4.56 -0.27,2.76 1.35,5.33 2.91,7.65 a 65.94,65.94 0 0 0 5.34,7.19 c 1.41,1.58 3,3 4.42,4.52 5.41,5.56 9.71,12.06 14.57,18.1 a 40.13,40.13 0 0 0 5.93,6.22 44.65,44.65 0 0 0 4.49,3.09 l 8.36,5.3 a 9.16,9.16 0 0 0 3.16,1.49 4.2,4.2 0 0 0 1.12,0 c 0.05,0.25 0.09,0.49 0.15,0.74 0.65,2.62 2.08,5 2.24,7.67 0.16,2.67 -0.08,5.4 0.11,8.1 0.18,2.49 0.73,5 0.87,7.45 0.28,4.72 -0.88,9.38 -2,14 -1.69,6.76 -2.71,13.66 -6,19.79 -0.92,1.69 -2,3.41 -2,5.34 0,0.23 0,0.47 0.06,0.7 v 0 l -1.5,0.85 c -0.44,0.25 -0.88,0.5 -1.28,0.76 -1.9,1.24 -3.93,2.61 -4.71,4.75 -0.63,1.73 -0.34,3.71 -1.1,5.39 a 2.39,2.39 0 0 1 -0.12,0.22 c -0.8,1.56 -2.39,2.72 -2.75,4.43 v 0 c -0.27,1.31 0.25,2.7 0,4 0,0 0,0 0,0.05 a 14.47,14.47 0 0 0 -0.54,2 2.39,2.39 0 0 0 0.06,0.66 3.81,3.81 0 0 0 1.2,1.95 8,8 0 0 0 1.17,0.93 q 0.64,0.42 1.32,0.78 l 0.26,0.14 c 0.38,0.2 0.76,0.39 1.15,0.57 l 0.26,0.11 c 0.45,0.2 0.91,0.38 1.37,0.54 l 0.32,0.1 c 0.36,0.12 0.73,0.23 1.1,0.32 l 0.25,0.08 0.23,0.05 1,0.21 0.37,0.07 q 0.66,0.11 1.35,0.18 h 0.4 c 0.34,0 0.67,0.05 1,0.06 h 0.47 c 0.35,0 0.69,0 1,0 h 0.36 c 0.47,0 0.94,-0.07 1.41,-0.13 h 0.15 c 0.42,-0.06 0.84,-0.13 1.26,-0.22 l 0.32,-0.07 c 0.39,-0.09 0.78,-0.18 1.17,-0.3 l 0.21,-0.06 c 0.47,-0.14 0.94,-0.29 1.4,-0.47 a 36.74,36.74 0 0 0 4.62,-2.29 c 1,-0.55 2,-1.11 3,-1.62 a 23.29,23.29 0 0 1 2.28,-1 12.87,12.87 0 0 1 6,-1 23.5,23.5 0 0 1 3,0.61 c 0,0.11 0,0.22 0,0.33 q 1.22,7.2 2.41,14.4 a 29.32,29.32 0 0 1 4.14,-2.49 9.21,9.21 0 0 0 -0.53,2.25 8.92,8.92 0 0 0 0,1.79 c 0.09,0.95 0.29,2 -0.28,2.75 -0.35,0.46 -1,0.72 -1.19,1.24 a 4.23,4.23 0 0 0 -0.1,1.63 2.6,2.6 0 0 1 -2.38,2.42 3.8,3.8 0 0 1 -1.51,4.46 5.28,5.28 0 0 0 -1.16,0.76 3.46,3.46 0 0 0 -0.67,1.51 26.72,26.72 0 0 1 -7.83,12.87 25.17,25.17 0 0 0 -3.87,3.78 17.21,17.21 0 0 0 -1.75,3.45 q -4,9.78 -8.12,19.57 c -1.52,3.65 -3,7.36 -3.48,11.29 -1.2,10.78 -10.8,19.92 -9,30.62 a 15,15 0 0 0 3.12,7.31 c 2,2.41 5,3.79 8,4.91 7.71,3 15.84,4.64 23.94,6.29 l 12.72,2.61 a 55.6,55.6 0 0 0 7.58,1.2 c 3.07,0.21 6.22,-0.08 9.21,0.7 1.85,0.48 3.62,1.37 5.53,1.47 1.64,0.09 3.66,-0.26 4.63,1.08 0.97,1.34 0.22,3.11 1.14,4.3 1.48,1.89 5.09,0 6.7,1.78 a 8.29,8.29 0 0 1 1,2.21 4,4 0 0 0 1,1.26 8.45,8.45 0 0 1 0.12,1.71 29.49,29.49 0 0 1 -1.44,6.82 q -1.8,6.09 -3.59,12.19 a 27,27 0 0 0 -1,4.4 10.57,10.57 0 0 0 0,2.18 c 0.21,2.21 1.48,4.49 3.59,5.21 a 6.58,6.58 0 0 0 4.86,-0.6 21.48,21.48 0 0 0 4,-2.7 27.31,27.31 0 0 0 5.77,-5.94 c 5,-7.48 3.38,-17.6 6.89,-25.87 2.33,-5.52 6.87,-10 8.38,-15.82 a 6.33,6.33 0 0 0 0.12,-3.42 c -0.63,-2 -2.76,-3.14 -4.75,-3.86 h -0.09 a 41,41 0 0 0 -5,-1.43 c -0.42,-0.09 -0.85,-0.16 -1.28,-0.23 a 7.85,7.85 0 0 1 -2.21,-2.88 6.7,6.7 0 0 0 -0.47,-1.73 1.8,1.8 0 0 0 -1.44,-0.8 c -1,-0.1 -2.34,0.26 -3.43,0.18 -2.23,-0.16 -3.71,-2.35 -5.71,-3.36 -2,-1.01 -4.17,-0.76 -6.3,-0.61 a 5.83,5.83 0 0 1 -2.28,-0.14 8.57,8.57 0 0 1 -2.4,-1.65 10.06,10.06 0 0 0 -8.81,-1.77 9.6,9.6 0 0 1 -3,0.68 c -1.95,-0.11 -3.33,-1.85 -4.77,-3.17 -3.94,-3.61 -9.55,-4.56 -14.33,-6.93 a 3.27,3.27 0 0 1 -1.72,-1.48 c -0.55,-1.36 0.69,-2.72 1.81,-3.65 l 8.22,-6.83 c 9,-7.48 20.25,-13.11 24.43,-24.08 a 13.93,13.93 0 0 1 2,-4.11 5.58,5.58 0 0 1 1.11,-1 8.4,8.4 0 0 1 6.15,-1.2 20.77,20.77 0 0 1 7.24,3.16 q 5.37,3.25 10.45,7 a 92.45,92.45 0 0 1 9.55,7.84 c 5.25,5 9.62,10.93 14.51,16.32 4.89,5.39 10.48,10.42 17.27,13 6.79,2.58 15,2.47 20.83,-1.86 6.73,-5 8.89,-13.94 10.59,-22.14 3.75,-3.62 4.88,-9.13 6.71,-14 1.15,-3.09 2.62,-6 3.86,-9.08 1.48,-3.62 2.64,-7.36 3.8,-11.09 a 53.33,53.33 0 0 0 2.66,-11.57 c 0.48,-6.23 -1.19,-12.86 0.56,-18.71 2.31,-0.51 4.41,-1.81 6.68,-2.57 3.38,-1.11 7,-0.93 10.58,-0.91 h 0.23 a 5.46,5.46 0 0 0 3.52,-0.83 c 1.2,-1 1.39,-2.71 1.45,-4.26 0.14,-3.83 -0.1,-8.13 -2.97,-10.61 z m -144.89,-170.58 a 7.43,7.43 0 0 1 -2.53,0.18 z" />
    <path
       style="fill:#be6f72"
       inkscape:connector-curvature="0"
       id="path20"
       d="m 793.33,560.10998 a 11,11 0 0 1 -4.16,2.21 l -7.09,2.54 c -3.85,1.38 -7.87,2.77 -11.93,2.27 -2.27,-0.28 -12,-1.71 -13.47,-3.48 -2.24,-2.74 5.61,-6.77 8.29,-9.08 a 11.34,11.34 0 0 0 1.68,-1.48 c 1,-1.22 0.87,-2.93 0.73,-4.47 a 69,69 0 0 1 -0.52,-11.77 23.72,23.72 0 0 1 0.4,-2.79 c 1,-4.6 5.28,-2.92 8.66,-1.7 a 67.71,67.71 0 0 1 11.75,5.09 8.43,8.43 0 0 1 2.9,2.46 c 1.48,2.24 0.89,5.18 0.65,8 -0.21,2.19 -0.2,4.29 1.17,5.88 a 15.14,15.14 0 0 1 1.89,2 3.75,3.75 0 0 1 -0.95,4.32 z" />
    <path
       style="fill:#be6f72"
       inkscape:connector-curvature="0"
       id="path22"
       d="m 695.39,488.03998 c 1,-4.43 1.22,-9 2.42,-13.39 a 62.69,62.69 0 0 1 3.14,-8.35 l 4.41,-10.29 a 7.26,7.26 0 0 1 2.08,-3.15 6.16,6.16 0 0 1 3.43,-0.92 c 4.31,-0.16 8.84,1.18 11.78,4.35 2.94,3.17 3.87,8.3 1.53,11.93 -2.8,4.37 -8.91,5.25 -12.56,8.93 -2.33,2.35 -3.46,5.62 -4.15,8.85 -1.82,8.4 -1.21,17.11 -1.77,25.69 -0.18,2.67 -0.7,5.72 -3,7.1 a 8.75,8.75 0 0 1 -4.48,0.87 l -6.56,0.11 c -1.1,0 -5.09,0.69 -5.82,-0.14 -1.28,-1.45 1.64,-8.67 2.17,-10.28 1.18,-3.57 2.63,-7.05 4,-10.56 1.19,-3.13 3.38,-7.36 3.38,-10.75 z" />
    <path
       style="fill:#3f3d56"
       inkscape:connector-curvature="0"
       id="path24"
       d="m 830.84,802.19998 c -1.51,5.78 -6.05,10.28 -8.38,15.79 -3.51,8.25 -1.93,18.34 -6.89,25.8 a 27.26,27.26 0 0 1 -5.77,5.95 21.43,21.43 0 0 1 -4,2.69 6.58,6.58 0 0 1 -4.86,0.6 c -2.11,-0.72 -3.38,-3 -3.59,-5.2 a 10.49,10.49 0 0 1 0,-2.17 26.89,26.89 0 0 1 1,-4.39 q 1.8,-6.07 3.59,-12.16 a 29.44,29.44 0 0 0 1.44,-6.8 c 0.13,-2.52 -1.47,-5.8 -0.79,-8.15 0.31,-1.06 1.47,-2 2,-2.89 a 16.73,16.73 0 0 0 1.72,-4.09 c 0.82,-2.79 1.38,-5.77 3.1,-8.12 a 19.06,19.06 0 0 1 3.9,-3.65 10.34,10.34 0 0 1 3.72,-2.09 9.11,9.11 0 0 1 4,0.19 39.25,39.25 0 0 1 5,1.42 h 0.09 c 2,0.72 4.12,1.83 4.75,3.85 a 6.29,6.29 0 0 1 -0.03,3.42 z" />
    <path
       style="fill:#3f3d56"
       inkscape:connector-curvature="0"
       id="path26"
       d="m 937.24,679.25998 c -0.06,1.55 -0.25,3.28 -1.45,4.25 a 5.46,5.46 0 0 1 -3.52,0.83 H 932 c -3.57,0 -7.2,-0.2 -10.58,0.91 -2.57,0.85 -4.93,2.41 -7.61,2.72 -3.69,0.42 -7.16,-1.6 -10.43,-3.36 a 103.75,103.75 0 0 0 -9.47,-4.5 c -2.12,-0.87 -6.45,-1.43 -7.47,-3.75 a 34.14,34.14 0 0 1 -0.88,-3.34 11.1,11.1 0 0 0 -0.61,-1.47 8.45,8.45 0 0 1 -1.12,-3.31 5.11,5.11 0 0 1 1.14,-3.2 9.59,9.59 0 0 1 6.55,-3.37 29,29 0 0 1 7.54,0.4 l 24.62,3.54 c 1.9,0.27 3.81,0.54 5.68,1 a 11.14,11.14 0 0 1 4.88,2.14 c 2.91,2.44 3.15,6.73 3,10.51 z" />
    <path
       style="fill:#65617d"
       inkscape:connector-curvature="0"
       id="path28"
       d="m 915.6,685.65998 c -3,6.33 -0.84,13.82 -1.38,20.82 a 53.07,53.07 0 0 1 -2.66,11.54 c -1.16,3.72 -2.32,7.45 -3.8,11.06 -1.24,3 -2.71,6 -3.86,9.06 -1.83,4.88 -3,10.37 -6.71,14 -1.7,8.18 -3.86,17.12 -10.59,22.08 -5.85,4.32 -14,4.47 -20.83,1.86 -6.83,-2.61 -12.38,-7.61 -17.27,-13 -4.89,-5.39 -9.26,-11.26 -14.51,-16.28 a 91,91 0 0 0 -9.57,-7.83 q -5.08,-3.69 -10.45,-6.94 a 20.93,20.93 0 0 0 -7.24,-3.15 8.4,8.4 0 0 0 -6.15,1.2 5.58,5.58 0 0 0 -1.11,1 13.76,13.76 0 0 0 -2,4.1 c -4.2,10.94 -15.47,16.56 -24.47,24.02 l -8.22,6.81 c -1.12,0.93 -2.36,2.29 -1.81,3.64 a 3.27,3.27 0 0 0 1.72,1.48 c 4.78,2.36 10.39,3.31 14.33,6.91 1.44,1.32 2.82,3.06 4.77,3.16 a 9.58,9.58 0 0 0 3,-0.67 10.09,10.09 0 0 1 8.81,1.76 8.57,8.57 0 0 0 2.4,1.65 5.83,5.83 0 0 0 2.28,0.14 c 2.13,-0.15 4.39,-0.34 6.3,0.61 1.91,0.95 3.48,3.19 5.71,3.35 1.09,0.08 2.39,-0.28 3.43,-0.18 a 1.8,1.8 0 0 1 1.44,0.8 6.63,6.63 0 0 1 0.47,1.72 c 0.41,1.41 1.79,2.27 2.69,3.43 1.38,1.78 1.58,4.2 1.44,6.45 a 27.52,27.52 0 0 1 -8.76,18.42 10.84,10.84 0 0 1 -5.39,3 5,5 0 0 1 -5.34,-2.37 8.22,8.22 0 0 0 -1,-2.2 c -1.61,-1.77 -5.22,0.11 -6.7,-1.78 -0.92,-1.18 -0.26,-3.07 -1.14,-4.29 -0.88,-1.22 -3,-1 -4.63,-1.07 -1.91,-0.1 -3.68,-1 -5.53,-1.47 -3,-0.78 -6.14,-0.49 -9.21,-0.7 a 55.6,55.6 0 0 1 -7.58,-1.2 l -12.72,-2.6 c -8.1,-1.65 -16.23,-3.32 -23.94,-6.27 -2.95,-1.12 -5.92,-2.5 -8,-4.9 a 15,15 0 0 1 -3.12,-7.3 c -1.81,-10.67 7.79,-19.79 9,-30.54 0.43,-3.92 2,-7.62 3.48,-11.26 q 4.07,-9.76 8.12,-19.53 a 17.4,17.4 0 0 1 1.7,-3.46 25.11,25.11 0 0 1 3.87,-3.77 26.63,26.63 0 0 0 7.83,-12.84 3.46,3.46 0 0 1 0.67,-1.51 5.62,5.62 0 0 1 1.16,-0.75 3.8,3.8 0 0 0 1.51,-4.45 2.6,2.6 0 0 0 2.38,-2.42 4.18,4.18 0 0 1 0.1,-1.62 c 0.24,-0.52 0.84,-0.78 1.19,-1.24 0.57,-0.75 0.37,-1.8 0.28,-2.74 a 8.92,8.92 0 0 1 0,-1.79 9.19,9.19 0 0 1 2.68,-5.59 c 2.39,-2.35 5.79,-1.74 9.09,-2.3 a 52.07,52.07 0 0 0 9.6,-3.07 94.31,94.31 0 0 1 27.11,-6.27 59.19,59.19 0 0 1 27.38,4.36 15.57,15.57 0 0 1 3.53,2 6.69,6.69 0 0 1 1.85,2.21 20.6,20.6 0 0 0 1.36,3.07 c 1.07,1.46 3.09,1.93 4.26,3.31 1.17,1.38 1.27,3.71 2.24,5.42 1.39,2.44 4.61,3.57 5.57,6.22 0.3,0.84 0.34,1.76 0.56,2.63 0.54,2.18 2.16,3.9 3.59,5.62 a 43.21,43.21 0 0 1 9.68,22 c 0.32,-5.07 3.73,-9.56 8,-12.36 1.15,-0.75 2.48,-1.58 2.71,-2.94 0.29,-1.72 -1.38,-3.25 -1.27,-5 a 4.9,4.9 0 0 1 1,-2.34 74,74 0 0 1 6.26,-7.87 c 1.23,-1.35 2.61,-3 2.1,-4.78 -0.39,-1.33 -1.75,-2.11 -2.5,-3.27 a 4.16,4.16 0 0 1 0.1,-4.6 c 0.7,-0.95 1.81,-1.64 2.15,-2.77 0.39,-1.33 -0.48,-2.77 -0.21,-4.14 a 5.12,5.12 0 0 1 2.06,-2.67 17.13,17.13 0 0 1 4.47,-2.94 c 2.64,-1 5.58,-0.63 8.38,-0.24 4.68,0.65 9.93,1.65 12.57,5.57 1.69,2.45 2.55,6.17 1.29,8.79 z" />
    <path
       style="opacity:0.1"
       inkscape:connector-curvature="0"
       id="path30"
       d="m 937.24,679.25998 c -0.06,1.55 -0.25,3.28 -1.45,4.25 a 5.46,5.46 0 0 1 -3.52,0.83 H 932 c 0.41,-2.08 2.94,-3.27 3.38,-5.38 a 4.76,4.76 0 0 0 -1.1,-3.63 c -2.14,-2.89 -5.58,-4.49 -9,-5.66 a 59.62,59.62 0 0 0 -30.06,-2.25 30.27,30.27 0 0 0 -7.9,2.43 25.74,25.74 0 0 0 -2.4,1.7 8.45,8.45 0 0 1 -1.12,-3.31 5.11,5.11 0 0 1 1.14,-3.2 9.59,9.59 0 0 1 6.55,-3.37 29,29 0 0 1 7.54,0.4 l 24.62,3.54 c 1.9,0.27 3.81,0.54 5.68,1 a 11.14,11.14 0 0 1 4.88,2.14 c 2.94,2.44 3.18,6.73 3.03,10.51 z" />
    <path
       style="opacity:0.1"
       inkscape:connector-curvature="0"
       id="path32"
       d="m 830.84,802.19998 c -1.51,5.78 -6.05,10.28 -8.38,15.79 -3.51,8.25 -1.93,18.34 -6.89,25.8 a 27.26,27.26 0 0 1 -5.77,5.95 21.43,21.43 0 0 1 -4,2.69 6.58,6.58 0 0 1 -4.86,0.6 c -2.11,-0.72 -3.38,-3 -3.59,-5.2 a 10.49,10.49 0 0 1 0,-2.17 l 0.06,0.16 c 0.87,2.1 2.29,4.3 4.53,4.67 a 6.13,6.13 0 0 0 4.62,-1.63 c 3.3,-2.65 5.22,-6.6 7.05,-10.41 a 43.3,43.3 0 0 0 3.38,-8.63 c 0.4,-1.7 0.59,-3.44 1,-5.14 1.9,-8.26 8.37,-15 9.8,-23.37 a 5.72,5.72 0 0 0 0.08,-1.75 8.84,8.84 0 0 0 -0.86,-2.18 10.8,10.8 0 0 1 -0.76,-2.42 c 2,0.72 4.12,1.83 4.75,3.85 a 6.29,6.29 0 0 1 -0.16,3.39 z" />
    <path
       style="opacity:0.1"
       inkscape:connector-curvature="0"
       id="path34"
       d="m 815.74,787.85998 a 14.49,14.49 0 0 1 -4.51,6.16 22,22 0 0 1 -9.71,4.2 9.66,9.66 0 0 1 -5,-0.06 c -2.22,-0.77 -3.82,-2.85 -6.09,-3.45 -1.62,-0.44 -3.36,-0.05 -5,-0.29 -2.95,-0.41 -5.24,-2.66 -7.62,-4.46 -7.29,-5.48 -16.86,-7.25 -24.15,-12.73 a 2.24,2.24 0 0 1 -0.78,-0.81 2.41,2.41 0 0 1 -0.15,-1.13 23,23 0 0 1 2.19,-9.61 33.53,33.53 0 0 1 4.12,-5.87 c 6.53,-8 13.09,-16.06 20.91,-22.81 3.28,-2.83 6.86,-5.47 11,-6.75 2.3,-0.71 6.84,-1.38 9.64,-0.18 a 5.58,5.58 0 0 0 -1.11,1 13.76,13.76 0 0 0 -2,4.1 c -4.21,10.95 -15.48,16.57 -24.48,24.03 l -8.22,6.81 c -1.12,0.93 -2.36,2.29 -1.81,3.64 a 3.27,3.27 0 0 0 1.72,1.48 c 4.78,2.36 10.39,3.31 14.33,6.91 1.44,1.32 2.82,3.06 4.77,3.16 a 9.58,9.58 0 0 0 3,-0.67 10.09,10.09 0 0 1 8.81,1.76 8.57,8.57 0 0 0 2.4,1.65 5.83,5.83 0 0 0 2.28,0.14 c 2.13,-0.15 4.39,-0.34 6.3,0.61 1.91,0.95 3.48,3.19 5.71,3.35 1.11,0.08 2.41,-0.3 3.45,-0.18 z" />
    <path
       style="fill:#3f3d56"
       inkscape:connector-curvature="0"
       id="path36"
       d="m 723.77,652.13998 c -1.9,1.22 -3.92,2.6 -4.7,4.72 -0.64,1.73 -0.34,3.71 -1.11,5.39 -0.77,1.68 -2.5,2.85 -2.88,4.65 -0.27,1.31 0.26,2.69 0,4 a 17.24,17.24 0 0 0 -0.55,2.08 c -0.1,1.49 1.18,2.7 2.43,3.53 a 20.3,20.3 0 0 0 18.17,2 c 2.67,-1 5.08,-2.63 7.64,-3.91 a 15.11,15.11 0 0 1 8.23,-2 c 1.65,0.18 3.23,0.78 4.88,1 a 5.12,5.12 0 0 0 4.57,-1.36 5.7,5.7 0 0 0 1,-2.37 c 1.39,-5.49 0.76,-11.31 -0.56,-16.83 -1.32,-5.52 -3.32,-10.83 -4.73,-16.32 -1,-4.07 -1.77,-8.24 -3.44,-12.09 -1.67,-3.85 -4.48,-7.43 -8.41,-8.9 a 1.57,1.57 0 0 0 -1,-0.13 1.7,1.7 0 0 0 -0.65,0.48 30.75,30.75 0 0 0 -6.86,11.54 c -1.57,4.79 -2,9.87 -3.44,14.68 -0.62,2 -1.42,4.68 -3,6.21 -1.58,1.53 -3.8,2.48 -5.59,3.63 z" />
    <path
       style="opacity:0.1"
       inkscape:connector-curvature="0"
       id="path38"
       d="m 761.48,669.83998 a 5.83,5.83 0 0 1 -1.05,2.37 5.07,5.07 0 0 1 -4.57,1.35 c -1.64,-0.2 -3.22,-0.81 -4.87,-1 a 15.08,15.08 0 0 0 -8.23,2 c -2.56,1.28 -5,2.87 -7.65,3.9 a 20.19,20.19 0 0 1 -12.13,0.69 19.57,19.57 0 0 1 -6,-2.64 c -1.26,-0.82 -2.53,-2 -2.43,-3.53 a 17.09,17.09 0 0 1 0.55,-2.07 c 0.26,-1.31 -0.26,-2.69 0,-4 0.38,-1.8 2.12,-3 2.88,-4.66 0.76,-1.66 0.47,-3.65 1.1,-5.38 0.78,-2.13 2.81,-3.5 4.71,-4.73 1.9,-1.23 4.16,-2.17 5.68,-3.66 a 5.64,5.64 0 0 0 0.53,-0.74 18,18 0 0 0 2.38,-5.51 c 1.47,-4.82 1.87,-9.89 3.43,-14.69 a 30.81,30.81 0 0 1 6.87,-11.53 1.51,1.51 0 0 1 0.64,-0.48 1.6,1.6 0 0 1 1,0.12 c 3.92,1.48 6.73,5.06 8.41,8.91 1.68,3.85 2.39,8 3.44,12.08 1.4,5.49 3.41,10.82 4.73,16.33 1.32,5.51 1.97,11.37 0.58,16.87 z" />
    <path
       style="opacity:0.1"
       inkscape:connector-curvature="0"
       id="path40"
       d="m 791.22,547.87998 a 20,20 0 0 1 -24.36,-11 23.72,23.72 0 0 1 0.4,-2.79 c 1,-4.6 5.28,-2.92 8.66,-1.7 a 67.71,67.71 0 0 1 11.75,5.09 8.43,8.43 0 0 1 2.9,2.46 c 1.48,2.21 0.89,5.15 0.65,7.94 z" />
    <circle
       style="fill:#be6f72"
       id="circle42"
       r="20"
       cy="527.81995"
       cx="785.17999" />
    <path
       style="opacity:0.1"
       inkscape:connector-curvature="0"
       id="path44"
       d="m 839.45,677.27998 c 0,1.66 -2.25,2.19 -3.92,2.1 -6,-0.35 -11.87,-2 -17.81,-1.5 -7.51,0.68 -14.41,4.83 -21.94,5.21 -2.9,0.15 -5.85,-0.28 -8.71,0.25 -3.7,0.69 -7,2.94 -10.77,3.26 -3.27,0.28 -6.5,-0.95 -9.77,-0.82 a 15.7,15.7 0 0 0 -6.53,1.86 9.19,9.19 0 0 1 2.68,-5.59 c 2.39,-2.35 5.79,-1.74 9.09,-2.3 a 52.07,52.07 0 0 0 9.6,-3.07 94.31,94.31 0 0 1 27.11,-6.27 59.19,59.19 0 0 1 27.37,4.33 15.57,15.57 0 0 1 3.53,2 1.57,1.57 0 0 1 0.07,0.54 z" />
    <path
       style="fill:#e3e8f4"
       inkscape:connector-curvature="0"
       id="path46"
       d="m 775.93,564.33998 -8.1,-3 -3.42,-1.26 a 16.54,16.54 0 0 0 -4.36,-1.16 c -3.92,-0.3 -7.61,2.31 -9.7,5.64 -2.09,3.33 -2.88,7.3 -3.55,11.17 q -1.38,7.94 -2.34,15.94 a 104.13,104.13 0 0 0 -1.05,14.54 c 0.23,12.38 2.85,24.59 5.73,36.64 a 128.88,128.88 0 0 1 3.19,16.25 c 0.24,2.26 0.35,4.53 0.59,6.8 0.26,2.55 0.68,5.07 1.1,7.6 l 2.41,14.37 c 3,-2.13 6.41,-4 10.1,-4.11 3.27,-0.12 6.51,1.1 9.77,0.82 3.75,-0.31 7.07,-2.56 10.77,-3.25 2.86,-0.53 5.81,-0.11 8.72,-0.25 7.52,-0.38 14.43,-4.54 21.93,-5.21 5.95,-0.54 11.86,1.14 17.82,1.49 1.66,0.1 3.91,-0.43 3.91,-2.1 0,-1.16 -1.16,-1.93 -2.17,-2.51 a 107,107 0 0 1 -13.55,-9.67 c -3.94,-3.12 -7.94,-6.32 -10.65,-10.54 -6.53,-10.15 -4.29,-23.88 -9.86,-34.59 -4.53,-8.7 0,-20.1 0,-29.91 0,-4.89 0,-9.84 -1.15,-14.59 a 61.89,61.89 0 0 0 -2.68,-7.8 l -3.89,-9.85 a 1.61,1.61 0 0 0 -0.46,-0.75 1.53,1.53 0 0 0 -0.89,-0.27 9.38,9.38 0 0 0 -6.46,2.07 c -1.83,1.49 -3,3.63 -4.8,5.18 -1.97,1.71 -4.51,3.21 -6.96,2.31 z" />
    <path
       style="fill:#3f3d56"
       inkscape:connector-curvature="0"
       id="path48"
       d="m 789,558.65998 c 0.64,-2.74 1.33,-5.59 3.16,-7.73 1.83,-2.14 5.17,-3.27 7.53,-1.74 2.68,1.74 2.79,5.76 5.08,8 2,1.92 5,2.07 7.72,2.32 a 52.35,52.35 0 0 1 14.27,3.36 5.83,5.83 0 0 1 2.37,1.42 c 1.25,1.42 1,3.6 1.62,5.37 0.85,2.28 3.2,3.73 4.11,6 1,2.52 0,5.34 -0.84,7.93 -1.51,4.65 -2.46,9.48 -3.93,14.15 -1.47,4.67 -3.56,9.27 -7,12.79 -1.52,1.56 -3.78,3 -5.78,2.07 l -0.77,5.55 a 9.43,9.43 0 0 0 0,3.55 3.18,3.18 0 0 0 2.32,2.46 c 0.15,0.86 1.06,1.27 1.8,1.74 a 5,5 0 0 1 1.27,7 c -0.63,0.85 -1.56,1.52 -1.86,2.53 -0.45,1.46 0.62,3 1.92,3.8 1.3,0.8 2.83,1.17 4.15,1.94 2.74,1.58 4.21,4.69 5.15,7.71 0.7,2.28 1.28,4.75 3,6.41 0.66,0.63 1.45,1.11 2.08,1.77 a 7.59,7.59 0 0 1 1.79,4.59 9.11,9.11 0 0 1 -1.3,6 c -2,2.86 -5.73,3.71 -9,5 -5.31,2.18 -9.68,6.08 -14.36,9.4 a 15.32,15.32 0 0 1 -6.55,3.08 c -3.24,0.43 -6.43,-1 -9.69,-1.13 a 24.06,24.06 0 0 0 -5.78,0.76 l -6,1.3 c 0.32,-4.65 -2.24,-9.31 -3.67,-13.74 -2.7,-8.34 -3.2,-17.26 -2.56,-26 0.64,-8.74 2.42,-17.36 4.18,-25.94 1.23,-6 1.11,-12.27 3,-18.1 1.77,-5.61 4.3,-11 5.23,-16.84 1.52,-9.45 -4.8,-17.46 -2.66,-26.78 z" />
    <path
       style="fill:#3f3d56"
       inkscape:connector-curvature="0"
       id="path50"
       d="m 834.49,577.14998 a 11,11 0 0 1 1.15,3.25 11.73,11.73 0 0 0 2.53,4.76 16.39,16.39 0 0 1 2.66,3 c 0.92,1.74 0.57,3.86 1,5.76 0.5,2.07 1.95,3.87 2.16,6 a 11,11 0 0 0 0.17,1.82 c 0.65,2.42 4.21,3 5,5.42 0.53,1.57 -0.38,3.28 -0.21,4.93 a 4.34,4.34 0 0 1 0.09,1.56 3.17,3.17 0 0 1 -1.14,1.46 23,23 0 0 0 -6.58,11.71 66.69,66.69 0 0 0 -1.51,13.53 l -3.91,-5.17 a 5.94,5.94 0 0 0 -1.56,-1.6 c -0.5,-0.3 -1.08,-0.45 -1.59,-0.75 -1.48,-0.84 -2.06,-2.62 -2.63,-4.22 a 39,39 0 0 0 -7,-12.12 c -1.59,-1.87 -3.44,-3.75 -3.79,-6.18 a 11.38,11.38 0 0 1 0.18,-3.34 c 1,-6.55 2.07,-13.26 5.26,-19.07 1.49,-2.72 3.42,-5.18 4.85,-7.94 0.96,-1.83 2.31,-6.59 4.87,-2.81 z" />
    <path
       style="fill:#3f3d56"
       inkscape:connector-curvature="0"
       id="path52"
       d="m 735.84,583.43998 a 4.57,4.57 0 0 1 -0.62,2.4 3.16,3.16 0 0 1 -3.16,1 9.14,9.14 0 0 1 -3.16,-1.48 q -4.18,-2.64 -8.36,-5.29 a 46.28,46.28 0 0 1 -4.49,-3.08 40.07,40.07 0 0 1 -5.93,-6.21 c -4.86,-6 -9.16,-12.51 -14.57,-18 -1.47,-1.5 -3,-2.94 -4.42,-4.51 a 65.82,65.82 0 0 1 -5.34,-7.18 c -1.56,-2.31 -3.18,-4.87 -2.91,-7.63 0.16,-1.56 0.91,-3 1.13,-4.55 0.22,-1.55 -0.37,-3.44 -1.87,-3.86 a 3.38,3.38 0 0 0 -0.54,-0.09 4.08,4.08 0 0 1 -0.87,-0.19 c -1.39,-0.58 -1.18,-2.73 -0.18,-3.86 1,-1.13 2.48,-1.76 3.39,-3 a 18.09,18.09 0 0 1 1.42,-2.11 5.41,5.41 0 0 1 2.33,-1.17 36.06,36.06 0 0 1 17.75,-0.67 c 1,0.22 2.14,0.62 2.44,1.59 a 2.93,2.93 0 0 1 0,1.44 32.2,32.2 0 0 0 -0.76,6 10.64,10.64 0 0 0 0.07,1.26 c 0.47,4.24 3.22,7.83 5.9,11.14 3.18,3.94 6.41,7.85 9.65,11.75 a 46.17,46.17 0 0 0 5.85,6.25 c 2,1.66 4.59,3 6.15,5.13 1.27,1.72 0.86,4.07 1,6.14 a 136.28,136.28 0 0 1 0.1,18.78 z" />
    <path
       style="fill:#be6f72"
       inkscape:connector-curvature="0"
       id="path54"
       d="m 862.84,625.15998 a 21,21 0 0 0 2.66,-3.15 20.78,20.78 0 0 0 2,-4.47 l 5.8,-16.45 c 0.92,-2.6 1.84,-5.21 3,-7.74 1.2,-2.73 2.62,-5.36 3.93,-8 a 106.7,106.7 0 0 0 7.77,-21.75 8.06,8.06 0 0 0 0.31,-3.19 c -0.28,-1.73 -1.59,-3.08 -2.84,-4.31 a 20.79,20.79 0 0 0 -4.26,-3.52 7,7 0 0 0 -5.34,-0.86 c -2.56,0.75 -4.17,3.37 -4.76,6 -0.59,2.63 -0.37,5.32 -0.62,8 -0.36,3.84 -1.68,7.55 -2,11.4 -0.17,2.23 0,4.48 -0.27,6.7 a 24.47,24.47 0 0 1 -3,8.27 53.69,53.69 0 0 1 -12.93,15.9 20.79,20.79 0 0 0 -3.88,3.73 12.17,12.17 0 0 0 -1.87,4.66 10.73,10.73 0 0 0 0.81,7.57 c 1.63,2.78 4.76,4 7.75,4.62 4.04,0.84 4.97,-0.54 7.74,-3.41 z" />
    <path
       style="fill:#3f3d56"
       inkscape:connector-curvature="0"
       id="path56"
       d="m 785.3,498.83998 a 9.33,9.33 0 0 1 9.06,-4.91 10,10 0 0 1 7.86,7.06 c 0.47,1.49 0.66,3.14 1.48,4.42 1.24,1.93 3.54,2.49 5.26,3.89 a 10.53,10.53 0 0 1 3.36,7.44 22.51,22.51 0 0 1 -1.33,8.41 26.74,26.74 0 0 0 -1,3.52 c -0.2,1.16 -0.22,2.34 -0.4,3.5 a 11.4,11.4 0 0 1 -4.59,7.57 2,2 0 0 1 -1.24,0.45 c -0.78,-0.09 -1.26,-1 -1.55,-1.82 -1.59,-4.59 -1.21,-10.2 -4.14,-13.86 a 15.15,15.15 0 0 0 -4.74,-3.53 6.11,6.11 0 0 0 -2.42,-0.91 6.37,6.37 0 0 0 -3.5,1.28 21.79,21.79 0 0 1 -6.92,3.06 8.5,8.5 0 0 1 -7.15,-1.54 c -1.38,-1.14 -2.39,-2.85 -3.92,-3.74 -1.53,-0.89 -3.13,-0.84 -4.64,-1.45 a 6.87,6.87 0 0 1 -2.78,-10.48 c 1,-1.2 2.48,-1.88 3.37,-3.21 1.15,-1.72 1.05,-4.08 1.6,-6.14 a 8.45,8.45 0 0 1 5.09,-5.81 7.15,7.15 0 0 1 7.12,1.49 c 1,0.9 1.8,2.06 2.78,3 a 8,8 0 0 0 7.4,2" />
    <path
       style="opacity:0.1"
       inkscape:connector-curvature="0"
       id="path58"
       d="m 801.74,646.02998 a 3.88,3.88 0 0 0 -1.06,4.24 c 0.22,0.47 10.54,-1.52 11.63,-1.67 2.72,-0.39 7.49,-0.2 9.32,-2.69 3.26,-4.41 -6.84,-3.43 -8.69,-3.27 -3.52,0.3 -8.52,0.78 -11.2,3.39 z" />
    <path
       style="fill:#3f3d56"
       inkscape:connector-curvature="0"
       id="path60"
       d="m 707.86,517.02998 a 32.2,32.2 0 0 0 -0.76,6 c -3,0.61 -6.12,-0.39 -9,-1.39 l -8.27,-2.82 a 2.35,2.35 0 0 0 -3.16,0.59 c -1.33,1.38 -3.16,4 -5,5.55 a 4.08,4.08 0 0 1 -0.87,-0.19 c -1.39,-0.58 -1.18,-2.73 -0.18,-3.86 1,-1.13 2.48,-1.76 3.39,-3 a 18.09,18.09 0 0 1 1.42,-2.11 5.41,5.41 0 0 1 2.33,-1.17 36.06,36.06 0 0 1 17.75,-0.67 c 1,0.22 2.14,0.62 2.44,1.59 a 2.93,2.93 0 0 1 -0.09,1.48 z" />
    <path
       style="opacity:0.1"
       inkscape:connector-curvature="0"
       id="path62"
       d="m 707.86,517.02998 a 32.2,32.2 0 0 0 -0.76,6 c -3,0.61 -6.12,-0.39 -9,-1.39 l -8.27,-2.82 a 2.35,2.35 0 0 0 -3.16,0.59 c -1.33,1.38 -3.16,4 -5,5.55 a 4.08,4.08 0 0 1 -0.87,-0.19 c -1.39,-0.58 -1.18,-2.73 -0.18,-3.86 1,-1.13 2.48,-1.76 3.39,-3 a 18.09,18.09 0 0 1 1.42,-2.11 5.41,5.41 0 0 1 2.33,-1.17 36.06,36.06 0 0 1 17.75,-0.67 c 1,0.22 2.14,0.62 2.44,1.59 a 2.93,2.93 0 0 1 -0.09,1.48 z" />
    <path
       style="opacity:0.1"
       inkscape:connector-curvature="0"
       id="path64"
       d="m 783.51,706.87998 c 1.44,0.48 3,1.18 3.49,2.62 l -11.58,-2.94 -6,-1.53 c -1.06,-0.27 -4.86,-0.58 -5.56,-1.41 -1,-1.22 2.55,-0.38 3.19,-0.29 1.94,0.29 3.88,0.59 5.81,0.94 3.64,0.65 7.14,1.72 10.65,2.61 z" />
    <path
       style="opacity:0.1"
       inkscape:connector-curvature="0"
       id="path66"
       d="m 788,717.12998 c -1,-0.67 -3.87,-0.59 -5.1,-0.88 -1.8,-0.43 -3.57,-1 -5.34,-1.55 -3.59,-1.17 -7.15,-2.5 -10.84,-3.36 -0.68,-0.15 -3,-0.19 -2.89,-1.05 0.11,-0.86 2.32,-1.16 2.87,-1.2 3.27,-0.24 7.35,1.29 10.39,2.38 a 45.79,45.79 0 0 1 10.91,5.66 z" />
    <path
       style="opacity:0.1"
       inkscape:connector-curvature="0"
       id="path68"
       d="m 780.66,697.73998 c -3.67,-1 -7,-3.28 -10.78,-3.72 a 4.38,4.38 0 0 1 -2.75,-0.84 3.24,3.24 0 0 1 -0.89,-1.6 c 2.53,-0.13 5.47,0.94 7.77,1.95 a 24.45,24.45 0 0 1 3.64,1.94 c 0.84,0.51 2.1,1.98 3.01,2.27 z" />
    <path
       style="fill:#3f3d56"
       inkscape:connector-curvature="0"
       id="path70"
       d="m 850.62,608.19998 a 17.49,17.49 0 0 0 12.26,19.33 c -0.49,2.37 -2.94,3.68 -4.67,5.37 -2.44,2.37 -3.7,5.92 -6.58,7.72 -3.21,2 -7.34,1.22 -11,0.38 a 1.34,1.34 0 0 1 -0.86,-0.45 1.23,1.23 0 0 1 -0.16,-0.39 c -1.21,-4.43 -2,-9.16 -0.76,-13.6 1,-3.78 3.4,-7 5.32,-10.34 1.92,-3.34 2.1,-6.92 6.45,-8.02 z" />
    <path
       style="fill:#3f3d56"
       inkscape:connector-curvature="0"
       id="path72"
       d="m 761.21,550.85998 a 26,26 0 0 0 -11,3.35 c -2.24,1.28 -4.54,3 -7.1,2.69 -1.51,-0.17 -3,-1 -4.47,-0.6 a 8.77,8.77 0 0 0 -2.29,1.36 2.59,2.59 0 0 1 -2.52,0.4 l -1,13.84 c -0.38,5.26 -0.75,10.63 0.51,15.76 0.65,2.62 2.08,5 2.24,7.66 0.16,2.66 -0.08,5.39 0.11,8.08 0.18,2.49 0.73,4.94 0.87,7.43 0.28,4.7 -0.88,9.36 -2,13.93 -1.69,6.74 -2.71,13.63 -6,19.73 -0.92,1.69 -2,3.41 -2,5.33 0,0.24 0,0.47 0.06,0.7 -1,0.55 -1.93,1.07 -2.78,1.61 -1.9,1.23 -3.93,2.6 -4.71,4.73 -0.63,1.73 -0.34,3.71 -1.1,5.38 -0.76,1.67 -2.5,2.86 -2.88,4.66 -0.27,1.31 0.25,2.69 0,4 a 17.09,17.09 0 0 0 -0.55,2.07 c -0.1,1.5 1.17,2.71 2.43,3.53 a 19.57,19.57 0 0 0 6,2.64 l 5.97,-23.7 v 0 a 191.09,191.09 0 0 0 13.53,-31.47 67.66,67.66 0 0 1 3.91,-10.36 48.68,48.68 0 0 0 3,-5.88 c 0.91,-2.52 1,-5.25 1.44,-7.91 a 55.37,55.37 0 0 1 2.35,-9.13 c 1.08,-3.21 2.33,-6.41 2.55,-9.78 0.33,-4.82 -1.42,-9.91 0.44,-14.37 a 19.11,19.11 0 0 1 3.05,-4.59 c 2.58,-3.16 4.93,-6.47 7.51,-9.63 -1.34,-1.43 -3.57,-1.58 -5.57,-1.46 z" />
    <g
       transform="translate(0,347.47998)"
       style="opacity:0.1"
       id="g78">
      <path
         inkscape:connector-curvature="0"
         id="path74"
         transform="translate(-28,-123.74)"
         d="m 817.39,271.81 -1.25,0.09 -0.14,0.1 a 7.38,7.38 0 0 0 1.39,-0.19 z" />
      <path
         inkscape:connector-curvature="0"
         id="path76"
         transform="translate(-28,-123.74)"
         d="m 840.27,292.57 a 26.94,26.94 0 0 1 -1.28,5.84 26.74,26.74 0 0 0 -1,3.52 c -0.2,1.16 -0.22,2.34 -0.4,3.5 A 11.4,11.4 0 0 1 833,313 a 2,2 0 0 1 -1.24,0.45 c -0.78,-0.09 -1.26,-1 -1.55,-1.82 -1.59,-4.59 -1.21,-10.2 -4.14,-13.86 a 15.15,15.15 0 0 0 -4.74,-3.53 6.11,6.11 0 0 0 -2.42,-0.91 6.37,6.37 0 0 0 -3.5,1.28 21.79,21.79 0 0 1 -6.92,3.06 8.5,8.5 0 0 1 -7.15,-1.54 c -1.38,-1.14 -2.39,-2.85 -3.92,-3.74 -1.53,-0.89 -3.13,-0.84 -4.64,-1.45 a 6.83,6.83 0 0 1 -3.9,-4.46 2.87,2.87 0 0 1 -0.08,-0.38 7,7 0 0 0 0.08,3.38 6.83,6.83 0 0 0 3.9,4.46 c 1.51,0.61 3.21,0.62 4.64,1.45 1.43,0.83 2.54,2.6 3.92,3.74 a 8.5,8.5 0 0 0 7.15,1.54 21.79,21.79 0 0 0 6.92,-3.06 6.37,6.37 0 0 1 3.5,-1.28 6.11,6.11 0 0 1 2.42,0.91 15.15,15.15 0 0 1 4.67,3.56 c 2.93,3.66 2.55,9.27 4.14,13.86 0.29,0.83 0.77,1.73 1.55,1.82 A 2,2 0 0 0 833,316 a 11.4,11.4 0 0 0 4.6,-7.6 c 0.18,-1.16 0.2,-2.34 0.4,-3.5 a 26.74,26.74 0 0 1 1,-3.52 22.51,22.51 0 0 0 1.33,-8.41 c -0.02,-0.12 -0.04,-0.26 -0.06,-0.4 z" />
    </g>
    <path
       style="fill:#d37e01"
       inkscape:connector-curvature="0"
       id="path80"
       d="m 749,596.54998 -0.68,9.13 c -0.1,1.24 -2.47,30.76 -19.95,65.26 -15,29.59 -44.19,68.13 -99.3,89.79 q -6.45,2.55 -13.39,4.76 l -5.16,-16.2 a 189.43,189.43 0 0 0 37.22,-16.28 c 28.09,-16.22 49.93,-39.37 65.16,-69.16 a 185.77,185.77 0 0 0 17.1,-50.3 h -62.7 v -17 z" />
    <path
       style="opacity:0.1;fill:#ffffff"
       inkscape:connector-curvature="0"
       id="path82"
       d="m 622.32,760.73998 c 55.1,-21.66 84.3,-60.19 99.29,-89.78 17.48,-34.5 19.86,-64 19.95,-65.26 l 0.68,-9.13 h 7 l -0.68,9.13 c -0.09,1.24 -2.47,30.76 -19.95,65.26 -15,29.59 -44.19,68.12 -99.29,89.78 q -6.45,2.55 -13.4,4.77 l -0.68,-2.13 q 3.62,-1.29 7.08,-2.64 z" />
    <path
       style="fill:#d37e01"
       inkscape:connector-curvature="0"
       id="path84"
       d="m 512,749.28998 -5.16,16.2 q -6.95,-2.22 -13.4,-4.77 c -55.1,-21.66 -84.3,-60.19 -99.29,-89.78 -17.48,-34.5 -19.86,-64 -19.95,-65.26 l -0.68,-9.13 h 81.66 v 17 h -62.71 a 185.88,185.88 0 0 0 17.15,50.3 c 15.23,29.79 37.06,52.94 65.15,69.15 a 189,189 0 0 0 37.23,16.29 z" />
    <path
       style="opacity:0.1;fill:#ffffff"
       inkscape:connector-curvature="0"
       id="path86"
       d="m 500.18,760.73998 c -55.1,-21.66 -84.3,-60.19 -99.29,-89.78 -17.48,-34.5 -19.86,-64 -19.95,-65.26 l -0.68,-9.13 h -7 l 0.68,9.13 c 0.09,1.24 2.47,30.76 19.95,65.26 15,29.59 44.19,68.12 99.29,89.78 q 6.45,2.55 13.4,4.77 l 0.68,-2.13 q -3.61,-1.29 -7.08,-2.64 z" />
    <path
       style="fill:#d37e01"
       inkscape:connector-curvature="0"
       id="path88"
       d="m 655.59,905.88998 v 91.67 H 466.92 v -91.67 l 6,-8 c 61.14,-21.7 73.53,-78.29 76,-100.68 a 92.05,92.05 0 0 0 0.63,-9.32 h 23.33 a 92.05,92.05 0 0 0 0.63,9.32 c 2.51,22.39 14.9,79 76,100.68 z" />
    <rect
       style="opacity:0.1"
       id="rect90"
       height="11.5"
       width="188.67"
       y="905.88995"
       x="466.92001" />
    <path
       style="opacity:0.1;fill:#ffffff"
       inkscape:connector-curvature="0"
       id="path92"
       d="m 482.92,897.88998 c 61.14,-21.7 73.53,-78.29 76,-100.68 a 92.05,92.05 0 0 0 0.63,-9.32 h -10 a 92.05,92.05 0 0 1 -0.63,9.32 c -2.51,22.39 -14.9,79 -76,100.68 l -6,8 v 91.67 h 10 v -91.67 z" />
    <path
       style="opacity:0.1"
       inkscape:connector-curvature="0"
       id="path94"
       d="m 438.26,596.54998 h 16.92 v 17 h -15.42 q -0.91,-8.4 -1.5,-17 z" />
    <path
       style="opacity:0.1"
       inkscape:connector-curvature="0"
       id="path96"
       d="m 512,749.28998 -5.16,16.2 q -6.95,-2.22 -13.4,-4.77 a 179.15,179.15 0 0 1 -18.67,-27.72 189,189 0 0 0 37.23,16.29 z" />
    <path
       style="opacity:0.1"
       inkscape:connector-curvature="0"
       id="path98"
       d="m 610.51,749.28998 a 189.43,189.43 0 0 0 37.22,-16.28 179.86,179.86 0 0 1 -18.67,27.73 q -6.45,2.55 -13.39,4.76 z" />
    <path
       style="opacity:0.1"
       inkscape:connector-curvature="0"
       id="path100"
       d="m 684.24,596.54998 q -0.59,8.6 -1.5,17 h -15.41 v -17 z" />
    <path
       style="opacity:0.1"
       inkscape:connector-curvature="0"
       id="path102"
       d="m 573.55,797.20998 a 64.64,64.64 0 0 1 -24.59,0 92.05,92.05 0 0 0 0.63,-9.32 h 23.33 a 92.05,92.05 0 0 0 0.63,9.32 z" />
    <path
       style="fill:#d37e01"
       inkscape:connector-curvature="0"
       id="path104"
       d="m 440.26,568.38998 c 0.43,126.06 54.43,228 121,228 66.57,0 120.56,-101.94 121,-228 z" />
    <path
       style="opacity:0.1;fill:#ffffff"
       inkscape:connector-curvature="0"
       id="path106"
       d="m 461.76,568.38998 h -21.5 c 0.43,126.06 54.43,228 121,228 a 65.35,65.35 0 0 0 10.75,-0.91 c -61.54,-10.28 -109.84,-107.89 -110.25,-227.09 z" />
    <rect
       style="fill:#3f3d56"
       id="rect108"
       height="33"
       width="128.33"
       y="940.97998"
       x="497.09" />
    <polygon
       transform="translate(0,347.47998)"
       style="opacity:0.1;fill:#ffffff"
       id="polygon110"
       points="503.09,626.5 503.09,598 625.42,598 625.42,593.5 497.09,593.5 497.09,626.5 " />
    <path
       style="fill:url(#e2a6fc7a-3d7b-4d78-8350-c6ea621e07cc)"
       inkscape:connector-curvature="0"
       id="path112"
       d="m 371.82,690.09998 c -2.31,-0.77 -15.91,-11.53 -16.94,-16.4 -1.03,-4.87 7.19,-50.24 7.19,-50.24 0,0 -0.76,0 -2,-0.15 v -0.73 l 1.69,-59.6 c 0,0 6.93,-40 -6.16,-37.67 -13.09,2.33 -4.88,37.67 -4.88,37.67 0,0 -1.49,17.94 -2.54,23.32 -1,5.19 -5.58,26.33 -2.46,32.9 a 7.16,7.16 0 0 0 0.38,0.68 v 0 c 0,0 0.52,22.55 -5.13,25.63 -5.39,2.93 -7.63,17.68 -7.82,19 l -0.29,-0.12 v 0 a 15.67,15.67 0 0 1 -4.17,-3.81 c -0.12,-0.15 -0.21,-0.31 -0.32,-0.47 a 22,22 0 0 0 -0.59,-29.87 22.18,22.18 0 0 0 -6.19,-4.52 14.2,14.2 0 0 0 -1.33,-5.52 c -2.6,-5.56 -17,-12.83 -27.23,-13 -4.72,-0.14 -8.59,1.2 -10,4.89 -0.72,1.87 -0.5,4 -0.8,5.94 -0.6,4 -3.17,7.13 -6.47,9.62 a 40.56,40.56 0 0 0 -4.31,-4.15 c -3.34,-2.56 -10,-11 -10,-11 0,0 -20.79,-21.53 -22.33,-27.43 -1.54,-5.9 -22.31,-41.33 -26.93,-35.16 -4.62,6.17 15.91,33.06 15.91,33.06 0,0 3.9,9.77 6.9,13.07 3,3.3 26,36.7 26,36.7 l 1.1,2.28 c -4.86,2.56 -9.3,5.82 -10.87,10.9 -2.3,7.48 2.73,15 6.21,22 6.78,13.66 7.75,31.08 -1,43.56 -7.84,11.02 -21.44,16.26 -34.17,20.84 a 33.63,33.63 0 0 0 21.6,7.17 c -2.94,8.52 -13.36,11.34 -22.24,12.92 4.66,4.48 11.33,6.11 17.73,7.1 a 53.12,53.12 0 0 0 9.49,0.75 h 0.78 l 0.78,-0.06 a 27.16,27.16 0 0 0 3.23,-0.41 c 4.62,-0.94 9.11,-3.46 11.47,-7.54 2,-3.49 2.7,-8.25 6.33,-10 a 8.09,8.09 0 0 1 3,-0.71 h -0.11 c 0.68,0 1.38,0 2.06,0 l 15.13,0.15 c 0.63,0 1.28,0 1.93,0 4.27,-0.1 8.83,-0.84 11,-4.37 a 12.12,12.12 0 0 0 1.37,-5.55 c 0.32,-4.79 0,-9.72 0.13,-14.55 1.29,8.79 2.64,22.49 -0.57,27.55 a 47,47 0 0 1 -9.38,10.17 18,18 0 0 0 -2.48,2.54 c -0.49,0.35 -0.78,0.54 -0.78,0.54 l -0.31,0.93 a 17.61,17.61 0 0 0 -2.44,5.66 3.93,3.93 0 0 0 -0.19,1.61 c 0.35,0.71 -2.5,3.64 -1.67,4.87 -7.12,8.35 -8.47,21 -8.47,21 l -13,19.74 c -6.68,17.55 -16.68,19.35 -16.68,19.35 0,0 -23.49,-15.76 -24.13,-16.53 -0.64,-0.77 -9.62,-4.62 -9.62,-4.62 a 10.18,10.18 0 0 0 -4.62,-4.22 c -3.08,-1.28 -3.34,-6 -3.34,-6 -0.38,-11.15 -6.93,-12 -6.93,-12 -5.28,-0.45 -9.31,0.49 -12.41,2.21 l -0.94,0.07 c -4.54,0.37 -10,0.78 -16,1.18 -16.69,1.1 -20.66,11.91 -20.66,11.91 0,0 -2.05,2.31 0.64,4.81 2.69,2.5 19.91,0 20.64,-0.06 a 11.18,11.18 0 0 1 -3.92,-0.27 c 2.71,-0.1 6.44,-0.2 9.62,-0.2 h 0.77 a 41.62,41.62 0 0 0 -0.29,5.08 c 0,3.2 8.85,5.25 8.85,5.25 l 26.95,24 c 0,0 16.94,7.57 27.72,18.46 10.78,10.89 20.31,1.49 20.31,1.49 11.41,-2.82 44.24,-42.51 44.27,-42.55 v 0 c 0,1.16 0.69,39.76 2,47.51 v 0 a 5.15,5.15 0 0 0 0.29,1.15 c 1.54,3.33 -0.52,12.43 -1.41,16.27 a 45.2,45.2 0 0 0 -0.65,9.74 c 0,0 -12.31,47 -11.29,51.13 1.02,4.13 -6.67,23.32 -6.67,23.32 v 16 l 1.34,-0.07 a 8.64,8.64 0 0 0 -0.48,0.8 l -0.09,0.17 c 0,0 8.21,1.79 13.73,1.28 5.52,-0.51 15,4.25 15,4.25 0,0 3.21,1.52 13.09,2.16 9.88,0.64 9.88,-4.36 9.88,-4.36 -1.13,-6.81 -16.74,-9.09 -17.22,-9.16 -1.26,-0.79 -2.44,-1.65 -3.41,-2.39 l -0.2,-0.16 a 4.28,4.28 0 0 0 0.17,-0.46 c 1.67,-6.8 -7.57,-9.75 -7.57,-9.75 v -1.66 c 6,-3.08 7.19,-24.22 7.19,-24.22 0,0 9,-26.14 10.26,-30.5 1.26,-4.36 0,-10.89 0,-10.89 l 0.9,-5.64 c 0,0 1.93,-3.84 1.93,-4.61 a 11.39,11.39 0 0 1 2.18,-5.38 c 1.41,-1.67 -1.54,-5.64 -1.54,-5.64 l 2.57,-6.66 v -7.31 l 6,-26.52 c 0,0 6.29,-30.89 4.11,-41 -2.18,-10.11 2.57,-15.25 2.57,-15.25 a 12.64,12.64 0 0 1 -1.32,0.6 38.21,38.21 0 0 0 1.55,-4.26 l 13.5,1.67 v 0.2 h 4.87 c 0,0 -1.54,-19 -1.54,-26.66 0,-7.66 5.19,-35.15 5.19,-35.15 0,0 2.31,-26.87 0,-27.64 z m -59.93,-22.18 c 0,0.75 -0.07,1.53 -0.12,2.33 l -0.27,0.41 -0.5,-0.42 -0.61,0.95 -0.18,0.09 c -1.32,-0.68 -2,-4.57 -2.95,-3.73 l -0.13,0.11 c -0.21,-0.24 -0.42,-0.31 -0.64,-0.11 l -0.2,0.17 c 0,-0.29 0,-0.59 0,-0.89 a 22.5,22.5 0 0 0 5.6,0.71 c 0.01,0.13 0,0.26 0,0.38 z m 44.9,88.48 h 0.29 l -0.48,1.26 c 0.06,-0.42 0.12,-0.83 0.19,-1.26 z m -49.29,226.77 -1.84,-0.46 1,-0.17 0.93,0.61 0.11,0.08 z m 18.8,-2.69 c -0.61,-0.32 -1.23,-0.69 -1.83,-1.07 0.2,0.11 0.99,0.52 1.83,1.07 z" />
    <polygon
       transform="translate(0,347.47998)"
       style="fill:#f86d70"
       id="polygon114"
       points="351.32,421.59 354.26,421.59 342.87,430.67 363.43,433.23 363.43,390.03 " />
    <polygon
       transform="translate(0,347.47998)"
       style="opacity:0.1"
       id="polygon116"
       points="351.32,421.59 348.27,420.77 342.87,430.67 363.43,433.23 363.43,390.03 " />
    <polygon
       transform="translate(0,347.47998)"
       style="fill:#f86d70"
       id="polygon118"
       points="344.44,352.87 344.44,410.22 363.43,410.22 370.4,352.87 " />
    <polygon
       transform="translate(0,347.47998)"
       style="opacity:0.1"
       id="polygon120"
       points="344.44,352.87 344.44,410.22 363.43,410.22 370.4,352.87 " />
    <path
       style="fill:#fbbebe"
       inkscape:connector-curvature="0"
       id="path122"
       d="m 307.35,713.92998 4.1,-0.69 9.42,-1.6 c 0,0 28.29,-6.38 34.13,-6.9 a 36.47,36.47 0 0 0 10.24,-2.92 c 1.53,-0.66 2.5,-1.16 2.5,-1.16 l -10.19,-18.61 -15.81,-11.72 c 0,0 -10,-2.13 -14.23,-7.95 a 9.37,9.37 0 0 1 -1.31,-8.88 c 2.58,-8 -15.41,7.65 -15.41,7.65 0,0 0.17,3.75 0,8.53 0,0.94 -0.09,1.92 -0.16,2.92 0,0.66 -0.09,1.32 -0.16,2 -0.44,4.75 -1.34,9.64 -3.12,12.56 -4.35,7.14 0,26.77 0,26.77 z" />
    <path
       style="opacity:0.1"
       inkscape:connector-curvature="0"
       id="path124"
       d="m 310.79,670.07998 h 0.4 c 0.72,0 1.3,-1.53 2,-1.6 5.63,-0.54 10.77,-1.72 14.34,-5.71 a 9.38,9.38 0 0 1 -1.31,-8.87 c 2.58,-8 -15.41,7.64 -15.41,7.64 0,0 0.19,3.76 -0.02,8.54 z" />
    <path
       style="fill:#fbbebe"
       inkscape:connector-curvature="0"
       id="path126"
       d="m 288.89,647.39998 a 21.91,21.91 0 0 0 21.92,21.92 c 0.72,0 1.43,0 2.14,-0.1 a 21.92,21.92 0 1 0 -24.06,-21.82 z" />
    <path
       style="fill:#3f3d56"
       inkscape:connector-curvature="0"
       id="path128"
       d="m 282.16,614.12998 c -0.72,1.86 -0.5,3.94 -0.79,5.91 -1.07,7.11 -8.3,11.37 -14.84,14.35 -6.54,2.98 -13.92,6.51 -16,13.38 -2.28,7.43 2.7,14.88 6.16,21.85 6.74,13.58 7.7,30.9 -1,43.32 -7.73,11 -21.2,16.22 -33.88,20.8 a 33.4,33.4 0 0 0 21.45,7.14 c -2.91,8.47 -13.26,11.28 -22.08,12.84 4.63,4.46 11.26,6.08 17.61,7.06 4.63,0.72 9.38,1.19 14,0.26 4.62,-0.93 9,-3.44 11.38,-7.5 2,-3.47 2.68,-8.2 6.29,-9.95 a 11.38,11.38 0 0 1 5.13,-0.75 l 15,0.16 c 4.67,0 10.2,-0.36 12.61,-4.35 a 12,12 0 0 0 1.36,-5.52 c 0.65,-9.84 -1.24,-20.24 2.81,-29.22 1.22,-2.71 -6.61,-7 -5.79,-9.87 2.82,-9.87 3.53,-17.64 3.5,-27.91 0,-7.95 5.17,-14.8 9.44,-21.51 4.27,-6.71 7.84,-15.18 4.47,-22.38 -3.8,-8.03 -32.34,-19.7 -36.83,-8.11 z" />
    <path
       style="fill:#fbbebe"
       inkscape:connector-curvature="0"
       id="path130"
       d="m 302.13,980.28998 3.82,2.53 0.59,0.39 0.11,0.07 4.53,3 10.58,1.78 9.3,-0.64 c 0,0 2.68,-5.6 -1.53,-5.47 a 8.76,8.76 0 0 1 -3.84,-1.11 l -0.58,-0.29 v 0 c -0.61,-0.32 -1.22,-0.68 -1.82,-1.06 v 0 c -1.25,-0.79 -2.43,-1.65 -3.38,-2.38 -1.4,-1.08 -2.33,-1.9 -2.33,-1.9 z" />
    <path
       style="opacity:0.1"
       inkscape:connector-curvature="0"
       id="path132"
       d="m 306,982.81998 0.59,0.39 0.11,0.07 4.53,3 10.58,1.78 9.3,-0.64 c 0,0 2.68,-5.6 -1.53,-5.47 a 8.76,8.76 0 0 1 -3.84,-1.11 c 0.74,0.58 1.36,1.21 1.42,1.74 0.17,1.43 -6.88,4 -6.88,4 l -9.94,-2.63 c 0,0 -1.69,-0.48 -4,-1.08 l -0.22,-0.06 z" />
    <path
       style="fill:#3f3d56"
       inkscape:connector-curvature="0"
       id="path134"
       d="m 289,985.25998 c 0,0 8.15,1.78 13.63,1.27 5.48,-0.51 14.92,4.21 14.92,4.21 0,0 3.19,1.5 13,2.14 9.81,0.64 9.81,-4.34 9.81,-4.34 -1.12,-6.77 -16.62,-9 -17.1,-9.1 v 0 0 0 c 0.19,0.1 1,0.51 1.82,1.06 v 0 c 1.1,0.72 2.29,1.66 2.38,2.42 0.17,1.42 -6.88,4 -6.88,4 l -9.94,-2.62 c 0,0 -1.69,-0.49 -4,-1.09 h -0.22 a 85.26,85.26 0 0 0 -10.42,-2.15 c -4.28,-0.46 -6.47,3.18 -6.92,4 a 1.19,1.19 0 0 0 -0.08,0.2 z" />
    <path
       style="fill:#fbbebe"
       inkscape:connector-curvature="0"
       id="path136"
       d="m 160.54,805.42998 4.33,3.32 c 0,0 1.26,-0.06 3.14,-0.12 h 0.6 c 2.69,-0.1 6.4,-0.2 9.55,-0.2 a 30.32,30.32 0 0 1 6.09,0.34 c 2.16,0.76 6,-12.36 6,-12.36 l -4.34,-1 -1.44,-0.34 -1,-0.24 -3.53,-0.83 -10.7,1.22 -7.52,4.84 z" />
    <path
       style="opacity:0.1"
       inkscape:connector-curvature="0"
       id="path138"
       d="m 160.54,805.42998 4.33,3.32 c 0,0 1.26,-0.06 3.14,-0.12 a 3.79,3.79 0 0 1 -2,-1.79 c -2.8,-7.77 11.09,-11.09 11.09,-11.09 l 6.47,-0.28 1.26,-0.06 h 1 l -1.44,-0.34 -1,-0.24 -3.53,-0.83 -10.7,1.22 -7.52,4.84 z" />
    <path
       style="fill:#3f3d56"
       inkscape:connector-curvature="0"
       id="path140"
       d="m 152,808.93998 c 2.62,2.42 19.78,0 20.5,-0.06 a 10.8,10.8 0 0 1 -3.89,-0.27 4.29,4.29 0 0 1 -3,-2.15 c -2.8,-7.78 11.09,-11.09 11.09,-11.09 l 6.47,-0.28 1.25,-0.06 15.73,-0.68 0.76,-4.33 c 0,0 -5.11,0.48 -13.13,1.12 -4.51,0.37 -10,0.78 -15.93,1.17 -16.57,1.1 -20.51,11.85 -20.51,11.85 0,0 -2.01,2.3 0.66,4.78 z" />
    <path
       style="fill:#fbbebe"
       inkscape:connector-curvature="0"
       id="path142"
       d="m 344.45,621.23998 a 4.43,4.43 0 0 0 0.38,0.68 l 3.82,5.6 9.94,1 0.11,-3.94 1.67,-59.28 c 0,0 6.88,-39.76 -6.12,-37.47 -13,2.29 -4.84,37.47 -4.84,37.47 0,0 -1.48,17.84 -2.52,23.2 -1.01,5.18 -5.54,26.24 -2.44,32.74 z" />
    <path
       style="fill:#fbbebe"
       inkscape:connector-curvature="0"
       id="path144"
       d="m 322.14,768.47998 2.83,4.84 6.33,10.83 c 0,0 11.48,4.21 14.42,1 1.61,-1.75 3.35,-7.86 4.57,-13 1,-4.16 1.67,-7.67 1.67,-7.67 z" />
    <path
       style="opacity:0.1"
       inkscape:connector-curvature="0"
       id="path146"
       d="m 322.14,768.47998 2.83,4.84 a 3.33,3.33 0 0 0 0.48,-0.51 c 3.2,-4.08 17.29,-0.87 24.84,-0.61 1,-4.16 1.67,-7.67 1.67,-7.67 z" />
    <path
       style="opacity:0.1"
       inkscape:connector-curvature="0"
       id="path148"
       d="m 178.16,808.40998 a 30.32,30.32 0 0 1 6.09,0.34 c 2.16,0.76 6,-12.36 6,-12.36 l -5.78,-1.36 15.73,-0.68 0.76,-4.33 c 0,0 -5.11,0.48 -13.13,1.12 a 16.5,16.5 0 0 0 -4.37,3.65 l -0.24,0.3 c -3.35,4.11 -4.59,9.41 -5.06,13.32 z" />
    <path
       style="opacity:0.1"
       inkscape:connector-curvature="0"
       id="path150"
       d="m 302.13,980.28998 4.41,2.92 c 6.58,-1.19 12.59,-3.06 13.3,-6 a 1,1 0 0 0 0,-0.14 c -1.4,-1.08 -2.33,-1.9 -2.33,-1.9 z" />
    <path
       style="opacity:0.1"
       inkscape:connector-curvature="0"
       id="path152"
       d="m 289.09,985.08998 a 152.62,152.62 0 0 0 17.34,-1.86 85.26,85.26 0 0 0 -10.43,-2.17 c -4.27,-0.46 -6.46,3.18 -6.91,4.03 z" />
    <path
       style="fill:#3f3d56"
       inkscape:connector-curvature="0"
       id="path154"
       d="m 178.64,813.45998 c 0,3.19 8.79,5.23 8.79,5.23 l 26.77,23.83 c 0,0 16.82,7.52 27.52,18.35 10.7,10.83 20.14,1.53 20.14,1.53 11.34,-2.8 44,-42.31 44,-42.31 0,0 0.76,45.12 2.29,48.43 1.53,3.31 -0.51,12.36 -1.4,16.19 a 45,45 0 0 0 -0.64,9.68 c 0,0 -12.23,46.77 -11.21,50.85 1.02,4.08 -6.63,23.2 -6.63,23.2 v 15.93 c 0,0 29.95,-1.15 31.6,-7.9 1.65,-6.75 -7.51,-9.69 -7.51,-9.69 v -1.66 c 6,-3.06 7.13,-24.08 7.13,-24.08 0,0 8.93,-26 10.2,-30.33 1.27,-4.33 0,-10.84 0,-10.84 l 0.89,-5.6 c 0,0 1.91,-3.83 1.91,-4.59 a 11.34,11.34 0 0 1 2.17,-5.35 c 1.4,-1.66 -1.53,-5.61 -1.53,-5.61 l 2.55,-6.63 v -7.26 l 6,-26.38 c 0,0 6.25,-30.72 4.08,-40.79 -2.17,-10.07 2.55,-15.16 2.55,-15.16 -10.23,5.36 -15.39,-6.57 -17.08,-11.7 -0.43,-1.32 -0.64,-2.2 -0.64,-2.2 0,0 -14.05,-5.18 -27.13,-3.94 a 31.23,31.23 0 0 0 -7.79,1.65 c -14.53,5.23 -16.82,26.89 -16.82,26.89 l -12.87,19.63 c -6.63,17.46 -16.57,19.24 -16.57,19.24 0,0 -23.32,-15.67 -24,-16.44 -0.68,-0.77 -9.56,-4.59 -9.56,-4.59 a 10.1,10.1 0 0 0 -4.59,-4.2 c -3.06,-1.28 -3.31,-6 -3.31,-6 -0.38,-11.09 -6.88,-12 -6.88,-12 -22.56,-1.88 -22.43,21.44 -22.43,24.62 z" />
    <rect
       style="fill:#f86d70"
       id="rect156"
       transform="scale(-1)"
       height="42.689999"
       width="13.76"
       y="-751.15002"
       x="-322.13998" />
    <rect
       style="opacity:0.1"
       id="rect158"
       transform="scale(-1)"
       height="42.689999"
       width="13.76"
       y="-751.15002"
       x="-322.13998" />
    <path
       style="opacity:0.1"
       inkscape:connector-curvature="0"
       id="path160"
       d="m 344.44,621.14998 a 0.62,0.62 0 0 0 0,0.09 4.43,4.43 0 0 0 0.38,0.68 l 3.82,5.6 9.94,1 0.11,-3.94 c -3.1,-0.24 -10.16,-1.09 -14.25,-3.43 z" />
    <path
       style="fill:#f86d70"
       inkscape:connector-curvature="0"
       id="path162"
       d="m 344.83,621.91998 c 0,0 0.51,22.42 -5.1,25.48 -5.61,3.06 -7.79,19 -7.79,19 0,0 17,11.18 20.79,16.1 3.79,4.92 12.49,16.64 10.7,19.44 -1.79,2.8 4.34,15.55 4.34,15.55 0,0 -11.22,22.94 -8.67,31.61 2.55,8.67 2.8,31.6 2.8,31.6 h 4.85 c 0,0 -1.53,-18.86 -1.53,-26.51 0,-7.65 5.09,-34.92 5.09,-34.92 0,0 2.3,-26.76 0,-27.52 -2.3,-0.76 -15.8,-11.47 -16.82,-16.32 -1.02,-4.85 7.14,-50 7.14,-50 0,0 -10.45,-0.45 -15.8,-3.51 z" />
    <path
       style="opacity:0.1"
       inkscape:connector-curvature="0"
       id="path164"
       d="m 308.12,704.49998 a 21.82,21.82 0 0 0 3.33,8.74 l 9.42,-1.6 c 0,0 28.29,-6.38 34.13,-6.9 a 36.47,36.47 0 0 0 10.24,-2.92 45.16,45.16 0 0 0 -12.65,-20.75 l -3.59,-3.33 a 60.15,60.15 0 0 0 -18.1,-11.57 c 0.42,0.35 30.1,25.69 23.6,30.66 -6.5,4.97 -24,-7.13 -24,-7.13 l -19.9,-17.1 -0.72,-0.62 -1.15,1.79 a 16.69,16.69 0 0 1 1.71,0.82 29.28,29.28 0 0 1 14,17.4 c 4.09,13.75 -16.32,12.51 -16.32,12.51 z" />
    <path
       style="fill:#444053"
       inkscape:connector-curvature="0"
       id="path166"
       d="m 302,768.21998 c 0,0 18.86,10.45 23.44,4.59 1,-1.29 3.11,-1.85 5.74,-2 -0.43,-1.32 -0.64,-2.2 -0.64,-2.2 0,0 -14.05,-5.18 -27.13,-3.94 -0.86,2.16 -1.41,3.55 -1.41,3.55 z" />
    <path
       style="fill:#e8e8f0"
       inkscape:connector-curvature="0"
       id="path168"
       d="m 310.68,671.99998 20.62,17.74 c 0,0 17.43,12.14 24,7.13 6.57,-5.01 -23.61,-30.67 -23.61,-30.67 v 0 a 61,61 0 0 1 18.09,11.54 l 3.59,3.33 c 9.44,8.75 11.57,8.75 11.89,21.61 0.08,3.17 -1,7.72 -1.83,8.54 -3.06,3 -5.2,24.79 -4.73,27.34 0.47,2.55 -5.7,24.56 -3.7,30.68 2,6.12 -25,-3.06 -29.57,2.81 -4.57,5.87 -23.43,-4.59 -23.43,-4.59 0,0 10.45,-26.77 13,-28.55 2.55,-1.78 5.61,-15.55 0,-21.92 -5.61,-6.37 -6.11,-12.49 -6.11,-12.49 0,0 20.4,1.26 16.31,-12.49 a 28.86,28.86 0 0 0 -15.68,-18.22 z" />
    <path
       style="opacity:0.1"
       inkscape:connector-curvature="0"
       id="path170"
       d="m 338.2,717.11998 c 0,0 -7.91,14.91 -18.14,18.78 -0.33,0.12 -0.65,0.23 -1,0.33 -10.68,3.25 19.94,-14.49 19.14,-19.11 z" />
    <path
       style="fill:#fbbebe"
       inkscape:connector-curvature="0"
       id="path172"
       d="m 227.58,585.20998 c 0,0 3.82,9.69 6.88,13 3.06,3.31 25.74,36.45 25.74,36.45 l 1.92,4 1.65,3.41 14.53,-1.53 1,-5.86 -0.56,-0.68 c -1.46,-1.75 -5.44,-6.45 -8.11,-8.5 -3.31,-2.54 -9.94,-10.95 -9.94,-10.95 0,0 -20.64,-21.42 -22.17,-27.28 -1.53,-5.86 -22.18,-41 -26.76,-34.92 -4.58,6.08 15.82,32.86 15.82,32.86 z" />
    <g
       transform="translate(0,347.47998)"
       style="opacity:0.1"
       id="g178">
      <path
         inkscape:connector-curvature="0"
         id="path174"
         transform="translate(-28,-123.74)"
         d="m 297.74,519.1 a 11.39,11.39 0 0 0 -5.13,0.74 c -3.6,1.75 -4.28,6.48 -6.28,9.95 -2.34,4.06 -6.8,6.57 -11.39,7.5 a 25.44,25.44 0 0 1 -2.76,0.38 31.34,31.34 0 0 0 8.76,-0.38 c 4.59,-0.93 9.05,-3.44 11.39,-7.5 2,-3.47 2.68,-8.2 6.28,-9.95 a 8,8 0 0 1 3,-0.7 z" />
      <path
         inkscape:connector-curvature="0"
         id="path176"
         transform="translate(-28,-123.74)"
         d="m 333.26,442.39 c 0,-7.95 5.17,-14.8 9.43,-21.51 4.26,-6.71 7.84,-15.18 4.47,-22.38 -2.88,-6.15 -20.24,-14.4 -30.26,-12.77 9.81,1.27 21.9,7.73 24.26,12.77 3.37,7.2 -0.21,15.67 -4.47,22.38 -4.26,6.71 -9.45,13.56 -9.43,21.51 0,10.26 -0.69,18 -3.51,27.91 -0.81,2.85 7,7.16 5.8,9.86 -4.06,9 -2.16,19.38 -2.81,29.22 a 12.15,12.15 0 0 1 -1.37,5.52 c -2,3.29 -6.1,4.14 -10.09,4.32 h 3.49 c 4.66,0 10.19,-0.36 12.6,-4.35 a 12.15,12.15 0 0 0 1.37,-5.52 c 0.65,-9.84 -1.25,-20.23 2.81,-29.22 1.22,-2.7 -6.61,-7 -5.8,-9.86 2.82,-9.84 3.53,-17.62 3.51,-27.88 z" />
    </g>
    <path
       style="opacity:0.1"
       inkscape:connector-curvature="0"
       id="path180"
       d="m 262.12,638.63998 1.65,3.41 14.53,-1.53 1,-5.86 -0.56,-0.68 c -1.55,0.76 -13.16,6.35 -16.62,4.66 z" />
    <path
       style="opacity:0.1"
       inkscape:connector-curvature="0"
       id="path182"
       d="m 315.77,676.96998 c 0,0 -3.57,-5.6 -5.61,-4.08 -2.04,1.52 -2.83,-4.59 -4,-3.57 -1.17,1.02 -4.58,3.86 -6,-0.11 -1.11,-3.16 -13.19,-23.15 -18.09,-31.19 -1.26,-2.08 -2.05,-3.36 -2.05,-3.36 0,0 -13.76,6.88 -17.07,4.59 v 4.84 l 2.8,0.26 15,28 c 0,0 4.72,7.51 4.4,10.13 -0.32,2.62 6.05,14.09 7.07,14.85 1.02,0.76 12,13.51 12,13.51 0,0 5.61,27.53 0.76,35.18 -4.85,7.65 -13.25,13.25 -13.25,13.25 0,0 -2.53,7.39 -2.16,8.16 0.37,0.77 -2.94,4.08 -1.41,5.1 1.53,1.02 3.57,8.15 3.57,8.15 0,0 7.14,-11.47 11,-13.25 3.86,-1.78 8.8,-25.24 8.8,-25.24 0,0 1.41,-13.82 1.52,-22.74 0.11,-8.92 -0.34,-42.48 2.72,-42.48 z" />
    <path
       style="fill:#f86d70"
       inkscape:connector-curvature="0"
       id="path184"
       d="m 315,676.96998 c 0,0 -3.56,-5.6 -5.6,-4.08 -2.04,1.52 -2.84,-4.59 -4,-3.57 -1.16,1.02 -4.57,3.86 -6,-0.11 -1.12,-3.16 -13.2,-23.15 -18.09,-31.19 l -2.05,-3.36 c 0,0 -13.76,6.88 -17.08,4.59 v 4.84 l 2.81,0.26 15,28 c 0,0 4.73,7.51 4.4,10.13 -0.33,2.62 6,14.09 7.07,14.85 1.07,0.76 12,13.51 12,13.51 0,0 5.61,27.53 0.77,35.18 a 46.88,46.88 0 0 1 -9.23,10.22 17.84,17.84 0 0 0 -6,9.62 3.8,3.8 0 0 0 -0.18,1.6 c 0.37,0.76 -2.94,4.08 -1.41,5.1 1.53,1.02 3.59,8.18 3.59,8.18 0,0 7.14,-11.47 11,-13.25 3.86,-1.78 8.81,-25.24 8.81,-25.24 0,0 1.4,-13.82 1.52,-22.74 0.12,-8.92 -0.33,-42.54 2.67,-42.54 z" />
    <path
       style="opacity:0.1"
       inkscape:connector-curvature="0"
       id="path186"
       d="m 280.08,792.94998 c 0,0 10.71,2 15,5.09 4.29,3.09 -16.31,-4.84 -16.31,-4.84 z" />
    <path
       style="opacity:0.1"
       inkscape:connector-curvature="0"
       id="path188"
       d="m 305.83,820.08998 c 0,0 11.17,9.31 9.17,17.72 -2,8.41 -7.16,29.57 -7.16,29.57 z" />
    <path
       style="opacity:0.1"
       inkscape:connector-curvature="0"
       id="path190"
       d="m 208.14,802.18998 c 0,0 -15.74,1.72 -14.72,3.76 1.02,2.04 14.72,-1.88 14.72,-1.88 z" />
    <path
       style="opacity:0.1"
       inkscape:connector-curvature="0"
       id="path192"
       d="m 329,879.60998 c 0,0 1,1.27 -4.84,0 -5.84,-1.27 -1.53,-5.19 -1.53,-5.19 z" />
    <path
       style="opacity:0.1"
       inkscape:connector-curvature="0"
       id="path194"
       d="m 327,897.19998 c 0,0 -8,1.27 -12.29,0 -4.29,-1.27 12.29,0 12.29,0 z" />
    <path
       style="opacity:0.1"
       inkscape:connector-curvature="0"
       id="path196"
       d="m 310.54,966.01998 c 0,0 -1.4,-1.53 -8.41,1.27 -7.01,2.8 -9.81,2.93 -11.85,2 -2.04,-0.93 20.26,-3.27 20.26,-3.27 z" />
    <path
       style="opacity:0.1"
       inkscape:connector-curvature="0"
       id="path198"
       d="m 318.32,800.01998 -9.94,13.83 c 0,0 5.35,-12.11 9.94,-13.83 z" />
    <path
       style="opacity:0.1"
       inkscape:connector-curvature="0"
       id="path200"
       d="m 299,672.88998 c 0,0 -0.43,4.59 -6.84,6.38 -6.41,1.79 -7.63,3.24 -7.63,3.24" />
    <path
       style="opacity:0.1"
       inkscape:connector-curvature="0"
       id="path202"
       d="m 282.34,639.61998 c 0,0 -8.46,6 -17.29,4.73" />
    <path
       style="opacity:0.1"
       inkscape:connector-curvature="0"
       id="path204"
       d="m 288.78,768.08998 c 0,0 2.47,1.55 8.4,-5.23" />
    <path
       style="opacity:0.1"
       inkscape:connector-curvature="0"
       id="path206"
       d="m 350.37,696.19998 c 0.24,-1.24 -0.62,-2.39 -1.43,-3.36 l -1.66,-2 a 7.7,7.7 0 0 0 -1.09,-1.12 c -1,-0.77 -2.28,-1 -3.32,-1.69" />
    <path
       style="opacity:0.1;fill:#d37e01"
       inkscape:connector-curvature="0"
       id="path208"
       d="m 887.29,347.58998 c 0,0 -84.19,-5.08 -74.29,53.92 0,0 -2,10.43 7.48,15.16 0,0 0.15,-4.37 8.64,-2.88 a 39.5,39.5 0 0 0 9.15,0.44 19.06,19.06 0 0 0 11.18,-4.62 v 0 c 0,0 23.67,-9.78 32.87,-48.46 0,0 6.81,-8.44 6.54,-10.61 l -14.21,6.07 c 0,0 4.86,10.25 1,18.77 0,0 -0.46,-18.4 -3.19,-18 -0.55,0.09 -7.38,3.55 -7.38,3.55 0,0 8.35,17.85 2.05,30.83 0,0 2.39,-22 -4.66,-29.54 l -10,5.84 c 0,0 9.76,18.44 3.14,33.49 0,0 1.7,-23.08 -5.25,-32.07 l -9.06,7.07 c 0,0 9.17,18.18 3.58,30.66 0,0 -0.73,-26.87 -5.54,-28.9 0,0 -7.93,7 -9.14,9.86 0,0 6.28,13.2 2.38,20.16 0,0 -2.39,-17.9 -4.35,-18 0,0 -7.9,11.86 -8.72,20 0,0 0.34,-12.09 6.81,-21.12 0,0 -7.64,1.31 -12.1,6.26 0,0 1.23,-8.38 14.05,-9.11 0,0 6.53,-9 8.27,-9.55 0,0 -12.74,-1.06 -20.47,2.36 0,0 6.8,-7.91 22.81,-4.31 l 8.95,-7.31 c 0,0 -16.78,-2.29 -23.9,0.24 0,0 8.19,-7 26.31,-1.9 l 9.74,-5.82 c 0,0 -14.31,-3.08 -22.83,-2 0,0 9,-4.85 25.69,0.41 l 7,-3.13 c 0,0 -10.48,-2.06 -13.55,-2.39 -3.07,-0.33 -3.23,-1.17 -3.23,-1.17 a 36.35,36.35 0 0 1 19.69,2.19 c 0,0 14.8,-5.46 14.54,-6.39 z" />
    <path
       style="opacity:0.1;fill:#d37e01"
       inkscape:connector-curvature="0"
       id="path210"
       d="m 783.45,362.59998 c 0,0 -38,-2.3 -33.55,24.36 0,0 -0.89,4.72 3.37,6.86 0,0 0.07,-2 3.91,-1.31 a 17.51,17.51 0 0 0 4.13,0.2 8.57,8.57 0 0 0 5.05,-2.09 v 0 c 0,0 10.7,-4.41 14.86,-21.89 0,0 3.07,-3.82 2.95,-4.8 l -6.42,2.74 c 0,0 2.2,4.64 0.47,8.49 0,0 -0.21,-8.32 -1.44,-8.12 -0.25,0 -3.34,1.6 -3.34,1.6 0,0 3.78,8.07 0.93,13.94 0,0 1.08,-9.94 -2.11,-13.35 l -4.52,2.64 c 0,0 4.42,8.33 1.42,15.13 0,0 0.77,-10.43 -2.37,-14.49 l -4.09,3.23 c 0,0 4.14,8.22 1.62,13.85 0,0 -0.33,-12.14 -2.51,-13.05 0,0 -3.58,3.16 -4.13,4.46 0,0 2.84,6 1.08,9.1 0,0 -1.08,-8.09 -2,-8.12 0,0 -3.56,5.36 -3.94,9 a 19.55,19.55 0 0 1 3.08,-9.55 10.76,10.76 0 0 0 -5.47,2.83 c 0,0 0.56,-3.78 6.35,-4.12 0,0 3,-4.06 3.74,-4.31 0,0 -5.76,-0.48 -9.25,1.07 0,0 3.07,-3.58 10.31,-2 l 4,-3.3 c 0,0 -7.58,-1 -10.8,0.11 0,0 3.7,-3.16 11.89,-0.86 l 4.4,-2.63 c 0,0 -6.46,-1.4 -10.32,-0.89 0,0 4.07,-2.2 11.61,0.18 l 3.15,-1.41 c 0,0 -4.74,-0.94 -6.13,-1.08 -1.39,-0.14 -1.46,-0.53 -1.46,-0.53 a 16.39,16.39 0 0 1 8.9,1 c 0,0 6.75,-2.47 6.63,-2.89 z" />
    <ellipse
       style="fill:#d37e01"
       id="ellipse212"
       ry="6.8000002"
       rx="40.209999"
       cy="991.44"
       cx="916.19" />
    <path
       style="fill:#d37e01"
       inkscape:connector-curvature="0"
       id="path214"
       d="m 932.82,980.31998 a 11.64,11.64 0 0 0 3.83,-5.79 c 0.5,-2.29 -0.48,-5 -2.68,-5.89 -2.46,-0.94 -5.09,0.77 -7.08,2.49 -1.99,1.72 -4.28,3.69 -6.88,3.32 a 10.5,10.5 0 0 0 3.24,-9.81 4.12,4.12 0 0 0 -0.9,-2 c -1.37,-1.46 -3.84,-0.84 -5.48,0.31 -5.2,3.66 -6.65,10.73 -6.68,17.08 -0.52,-2.29 -0.08,-4.68 -0.09,-7 -0.01,-2.32 -0.66,-5 -2.65,-6.23 a 7.91,7.91 0 0 0 -4,-0.94 c -2.33,-0.09 -4.94,0.15 -6.53,1.86 -2,2.12 -1.47,5.68 0.25,8 1.72,2.32 4.35,3.81 6.77,5.42 a 15,15 0 0 1 4.83,4.61 4.16,4.16 0 0 1 0.36,0.83 h 14.66 a 40.77,40.77 0 0 0 9.03,-6.26 z" />
  </g>
</svg>
