<svg xmlns="http://www.w3.org/2000/svg" xmlns:xlink="http://www.w3.org/1999/xlink" width="1000" height="1000"><style><![CDATA[.B{opacity:.1}.C{fill:#3f3d56}.D{fill:#d37e01}.E{fill:#fbbebe}.F{fill:#f86d70}.G{fill:#be6f72}]]></style><defs><linearGradient id="A" gradientUnits="userSpaceOnUse"><stop offset="0" stop-color="gray" stop-opacity=".25"/><stop offset=".54" stop-color="gray" stop-opacity=".12"/><stop offset="1" stop-color="gray" stop-opacity=".1"/></linearGradient><linearGradient id="B" x1="150.62" y1="759.09" x2="372.84" y2="759.09" xlink:href="#A"/><linearGradient xlink:href="#A" id="C" x1="808.51" y1="852.41" x2="808.51" y2="450.11"/><path id="D" d="M707.86 517.03a32.2 32.2 0 0 0-.76 6c-3 .6-6.12-.4-9-1.4l-8.27-2.82a2.35 2.35 0 0 0-3.16.59c-1.33 1.38-3.16 4-5 5.55a4.08 4.08 0 0 1-.87-.19c-1.4-.58-1.18-2.73-.18-3.86s2.48-1.76 3.4-3a18.09 18.09 0 0 1 1.42-2.11 5.41 5.41 0 0 1 2.33-1.17 36.06 36.06 0 0 1 17.75-.67c1 .22 2.14.62 2.44 1.6a2.93 2.93 0 0 1-.09 1.48z"/></defs><g transform="matrix(.87411 0 0 .87411 .017783 -88.89665)"><g class="D"><path d="M687.72 817.8c22.1-1.26 49.52-16.25 70.84-22.88q37.85-11.74 76-22.6 132.8-37.8 268.47-64.4 12.66-2.5 25.36-4.86a179.51 179.51 0 0 0-59.26-71.17 182.06 182.06 0 0 0 1-18.78c0-99.14-79.23-179.5-177-179.5a174.18 174.18 0 0 0-85.9 22.55c-69.2-45.52-159.52-73.07-258.34-73.07-140.42 0-263.7 55.63-333.54 139.4l529.62 89.46c-229.53 6.85-459.77 13.66-688.64-2.42a181.42 181.42 0 0 0-26.12 229 139.97 139.97 0 0 0 .42 10.68c5.83 1.67 11.46 3.3 16.5 4.35q121.6 25.7 244.78 43c-60.5 37.3-134.2 42.6-204 58.4 33.8 27.9 79.7 45 130.28 45h753.12c81.55 0 147.65-56.77 147.65-126.8a180.19 180.19 0 0 0 24-65.89c-150.9 14.57-303.68 1.92-455.25 10.55z" class="B"/><path d="M1144 777.4a180 180 0 0 0-76-147.42 184.71 184.71 0 0 0 1-18.77c0-99.14-79.27-179.48-177-179.48a174.28 174.28 0 0 0-85.91 22.54c-69.2-45.54-159.53-73.1-258.35-73.1-160.74 0-299.1 72.95-360.46 177.56a175.77 175.77 0 0 0-10.3-.31c-97.74 0-177 80.37-177 179.5a180.53 180.53 0 0 0 29.12 98.67c0 89.2 84.2 161.5 188 161.5h753.14c81.54 0 147.64-56.78 147.64-126.82a180.52 180.52 0 0 0 26.12-93.89z" class="B"/></g><path d="M934.28 667.43a11.14 11.14 0 0 0-4.88-2.14c-1.87-.43-3.78-.7-5.68-1l-24.62-3.55a29 29 0 0 0-7.54-.4 9.57 9.57 0 0 0-6.56 3.4 5.11 5.11 0 0 0-1.14 3.2 8.44 8.44 0 0 0 1.12 3.32 11.1 11.1 0 0 1 .61 1.47 33.6 33.6 0 0 0 .88 3.35 2.84 2.84 0 0 0 .42.66 1.09 1.09 0 0 1 0 .17c-.27 1.38.6 2.82.2 4.15-.34 1.14-1.45 1.83-2.15 2.78a4.18 4.18 0 0 0-.1 4.61c.75 1.16 2.1 1.95 2.5 3.28.5 1.75-.87 3.44-2.1 4.8a74.23 74.23 0 0 0-6.26 7.89 4.89 4.89 0 0 0-1 2.35c-.1 1.74 1.56 3.27 1.27 5-.23 1.36-1.56 2.2-2.7 3-4.25 2.8-7.66 7.3-8 12.4a43.4 43.4 0 0 0-9.68-22c-1.43-1.72-3-3.45-3.6-5.63-.22-.87-.26-1.8-.56-2.64-1-2.65-4.18-3.8-5.57-6.23-1-1.72-1-3.93-2.24-5.44s-3.2-1.85-4.26-3.3a21.18 21.18 0 0 1-1.36-3.08 6.73 6.73 0 0 0-1.85-2.22 5.4 5.4 0 0 0-.46-.33 1.59 1.59 0 0 0 .53-1.18c0-1.17-1.16-1.94-2.17-2.52-1.3-.74-2.57-1.54-3.8-2.37a8.91 8.91 0 0 0 3.41-2.79 9.17 9.17 0 0 0 1.3-6 7.57 7.57 0 0 0-1.79-4.59c-.63-.67-1.42-1.15-2.08-1.78-1.7-1.67-2.3-4.14-3-6.42-.94-3-2.4-6.15-5.15-7.74-1.32-.77-2.86-1.13-4.15-1.94s-2.37-2.34-1.92-3.8c.3-1 1.23-1.7 1.86-2.54a5.06 5.06 0 0 0-1.27-7c-.74-.47-1.65-.88-1.8-1.74a3.18 3.18 0 0 1-2.32-2.46 9.48 9.48 0 0 1 0-3.56q.4-2.8.77-5.56a3.62 3.62 0 0 0 2.78 0 24.48 24.48 0 0 0 3 3.92 39.17 39.17 0 0 1 7 12.15c.57 1.6 1.15 3.4 2.63 4.24.5.3 1.1.44 1.6.75a5.94 5.94 0 0 1 1.56 1.6l3.6 4.76.06.24a1.4 1.4 0 0 0 .16.4 1.33 1.33 0 0 0 .86.44c3.68.85 7.8 1.63 11-.38 2.88-1.8 4.14-5.36 6.58-7.74 1.73-1.7 4.18-3 4.67-5.38a17.7 17.7 0 0 1-1.72-.63c.5-.5 1-1.08 1.68-1.74a21.18 21.18 0 0 0 2.66-3.17 20.43 20.43 0 0 0 2-4.48q2.9-8.24 5.8-16.5c.92-2.6 1.84-5.22 3-7.75 1.2-2.74 2.62-5.37 3.93-8.06a107 107 0 0 0 7.78-21.9 8 8 0 0 0 .31-3.19c-.28-1.73-1.6-3.1-2.84-4.32a20.84 20.84 0 0 0-4.26-3.53 7 7 0 0 0-5.34-.86c-2.56.75-4.17 3.37-4.76 6s-.37 5.34-.62 8c-.36 3.85-1.68 7.57-2 11.43-.17 2.23 0 4.5-.27 6.72a24.52 24.52 0 0 1-3 8.28 53.6 53.6 0 0 1-12.93 15.94c-.6.5-1.24 1-1.84 1.55 0-.43.07-.87.13-1.3a7.84 7.84 0 0 0-1.27.45 3.81 3.81 0 0 0-.15-1.5c-.8-2.4-4.36-3-5-5.43a11.1 11.1 0 0 1-.17-1.82c-.2-2.13-1.66-3.93-2.16-6-.46-1.9-.1-4-1-5.77a16.13 16.13 0 0 0-2.66-3 11.77 11.77 0 0 1-2.53-4.77l-.4-1.5a6.82 6.82 0 0 0-.36-3.29c-.9-2.26-3.26-3.7-4.1-6-.66-1.78-.37-4-1.62-5.38a5.85 5.85 0 0 0-2.37-1.43 52.73 52.73 0 0 0-14.27-3.37c-2.74-.25-5.76-.4-7.72-2.32-2.3-2.24-2.4-6.27-5.08-8-2.36-1.53-5.7-.4-7.53 1.75a9.53 9.53 0 0 0-.76 1 10.7 10.7 0 0 1-.21-4.1c0-.34.07-.7.1-1a20 20 0 0 0 10.84-8.56v.06l.12.3c.3.73.75 1.43 1.43 1.5a2 2 0 0 0 1.24-.45 10.27 10.27 0 0 0 1.66-1.44q.38-.42.72-.87a11.33 11.33 0 0 0 1.18-2 11.88 11.88 0 0 0 1-3.35c.18-1.16.2-2.35.4-3.5a21.61 21.61 0 0 1 .73-2.65l.3-.87.32-1a23.17 23.17 0 0 0 1-6.34q0-.54 0-1.08a10.55 10.55 0 0 0-3.36-7.45c-1.72-1.4-4-2-5.26-3.9-.82-1.28-1-2.93-1.48-4.43a10 10 0 0 0-7.86-7.07 8.75 8.75 0 0 0-6.22 1.71l-.14.1a10 10 0 0 0-2.48 2.76 8.25 8.25 0 0 1-3.52-2c-1-.93-1.77-2.1-2.78-3a7.15 7.15 0 0 0-7.12-1.5 8.51 8.51 0 0 0-5.09 5.83c-.55 2.06-.45 4.43-1.6 6.15-.9 1.34-2.35 2-3.37 3.22a6.06 6.06 0 0 0-1.26 2.67 7.23 7.23 0 0 0-.17 1.67c0 .25 0 .5.06.74v.12a5.29 5.29 0 0 0 .17.81 7 7 0 0 0 1.49 2.74 6.58 6.58 0 0 0 2.41 1.74 9.76 9.76 0 0 0 1.16.37l1.2.27.42.1a19.94 19.94 0 0 0-.56 17.61c0 .28-.07.56-.1.84a69.17 69.17 0 0 0 .52 11.79c.14 1.55.22 3.26-.73 4.5a8.52 8.52 0 0 1-1.45 1.29l1.65-2.08c-1.4-1.42-3.64-1.6-5.64-1.46a26.13 26.13 0 0 0-11 3.36c-2.24 1.3-4.54 3-7.1 2.7-1.5-.17-3-1-4.47-.6a9.06 9.06 0 0 0-2.29 1.36 3.1 3.1 0 0 1-1.88.58c-1.57-1.93-4-3.24-5.88-4.8a46.33 46.33 0 0 1-5.85-6.27L713 533.73c-2.68-3.32-5.43-6.9-5.9-11.16a10.93 10.93 0 0 1-.07-1.27 32.3 32.3 0 0 1 .76-6 3 3 0 0 0 0-1.45c-.3-1-1.45-1.37-2.44-1.6.13-.77.22-1.56.27-2.3.56-8.6-.05-17.34 1.77-25.76.7-3.24 1.82-6.52 4.15-8.87 3.65-3.7 9.76-4.58 12.56-8.95 2.34-3.64 1.4-8.8-1.53-12s-7.47-4.52-11.78-4.36a6.08 6.08 0 0 0-3.43.92 7.29 7.29 0 0 0-2.08 3.16l-4.3 10.43a63.08 63.08 0 0 0-3.14 8.38c-1.2 4.38-1.47 9-2.42 13.42 0 3.4-2.2 7.64-3.4 10.77-1.34 3.52-2.8 7-4 10.6-.3.9-1.35 3.57-2 6a3.66 3.66 0 0 0-.68.51 18.09 18.09 0 0 0-1.42 2.11c-.9 1.2-2.4 1.84-3.4 3s-1.2 3.3.18 3.87a4.08 4.08 0 0 0 .87.19 3.38 3.38 0 0 1 .54.09c1.5.42 2.1 2.3 1.87 3.87s-1 3-1.13 4.56c-.27 2.76 1.35 5.33 2.9 7.65a65.94 65.94 0 0 0 5.34 7.19c1.4 1.58 3 3 4.42 4.52 5.4 5.56 9.7 12.06 14.57 18.1a40.13 40.13 0 0 0 5.93 6.22 44.65 44.65 0 0 0 4.49 3.09l8.36 5.3a9.16 9.16 0 0 0 3.16 1.49 4.2 4.2 0 0 0 1.12 0c.05.25.1.5.15.74.65 2.62 2.08 5 2.24 7.67s-.08 5.4.1 8.1c.18 2.5.73 5 .87 7.45.28 4.72-.88 9.38-2 14-1.7 6.76-2.7 13.66-6 19.8-.92 1.7-2 3.4-2 5.34 0 .23 0 .47.06.7l-1.5.85c-.44.25-.88.5-1.28.76-1.9 1.24-3.93 2.6-4.7 4.75-.63 1.73-.34 3.7-1.1 5.4a2.39 2.39 0 0 1-.12.22c-.8 1.56-2.4 2.72-2.75 4.43-.27 1.3.25 2.7 0 4v.05a14.47 14.47 0 0 0-.54 2 2.39 2.39 0 0 0 .06.66 3.81 3.81 0 0 0 1.2 1.95 8 8 0 0 0 1.17.93q.64.42 1.32.78l.26.14c.38.2.76.4 1.15.57l.26.1a17.69 17.69 0 0 0 1.37.54l.32.1a13.85 13.85 0 0 0 1.1.32l.25.08.23.05 1 .2.37.07q.66.1 1.35.18h.4c.34 0 .67.05 1 .06h1.83c.47 0 .94-.07 1.4-.13h.15a18.46 18.46 0 0 0 1.26-.22l.32-.07a16.74 16.74 0 0 0 1.17-.3l.2-.06c.47-.14.94-.3 1.4-.47a36.74 36.74 0 0 0 4.62-2.29l3-1.62a23.29 23.29 0 0 1 2.28-1 12.87 12.87 0 0 1 6-1 23.5 23.5 0 0 1 3 .61v.33q1.22 7.2 2.4 14.4a29.32 29.32 0 0 1 4.14-2.49 9.21 9.21 0 0 0-.53 2.25 8.92 8.92 0 0 0 0 1.79c.1.95.3 2-.28 2.75-.35.46-1 .72-1.2 1.24a4.23 4.23 0 0 0-.1 1.63 2.6 2.6 0 0 1-2.38 2.42 3.8 3.8 0 0 1-1.51 4.46 5.28 5.28 0 0 0-1.16.76 3.46 3.46 0 0 0-.67 1.51 26.72 26.72 0 0 1-7.83 12.87 25.17 25.17 0 0 0-3.87 3.78 17.21 17.21 0 0 0-1.75 3.45q-4 9.78-8.12 19.57c-1.52 3.65-3 7.36-3.48 11.3-1.2 10.78-10.8 19.92-9 30.62a15 15 0 0 0 3.12 7.31c2 2.4 5 3.8 8 4.9 7.7 3 15.84 4.64 23.94 6.3l12.72 2.6a55.6 55.6 0 0 0 7.58 1.2c3.07.2 6.22-.08 9.2.7 1.85.48 3.62 1.37 5.53 1.47 1.64.1 3.66-.26 4.63 1.08s.22 3.1 1.14 4.3c1.48 1.9 5.1 0 6.7 1.78a8.29 8.29 0 0 1 1 2.21 4 4 0 0 0 1 1.26 8.45 8.45 0 0 1 .12 1.71 29.49 29.49 0 0 1-1.44 6.82q-1.8 6.1-3.6 12.2a27 27 0 0 0-1 4.4 10.57 10.57 0 0 0 0 2.18c.2 2.2 1.48 4.5 3.6 5.2a6.58 6.58 0 0 0 4.86-.6 21.48 21.48 0 0 0 4-2.7 27.31 27.31 0 0 0 5.77-5.94c5-7.48 3.38-17.6 6.9-25.87 2.33-5.52 6.87-10 8.38-15.82a6.33 6.33 0 0 0 .12-3.42c-.63-2-2.76-3.14-4.75-3.86h-.1a41 41 0 0 0-5-1.43c-.42-.1-.85-.16-1.28-.23a7.85 7.85 0 0 1-2.21-2.88 6.7 6.7 0 0 0-.47-1.73 1.8 1.8 0 0 0-1.44-.8c-1-.1-2.34.26-3.43.18-2.23-.16-3.7-2.35-5.7-3.36s-4.17-.76-6.3-.6a5.83 5.83 0 0 1-2.28-.14 8.57 8.57 0 0 1-2.4-1.65 10.06 10.06 0 0 0-8.81-1.77 9.6 9.6 0 0 1-3 .68c-1.95-.1-3.33-1.85-4.77-3.17-3.94-3.6-9.55-4.56-14.33-6.93a3.27 3.27 0 0 1-1.72-1.48c-.55-1.36.7-2.72 1.8-3.65l8.22-6.83c9-7.48 20.25-13.1 24.43-24.08a13.93 13.93 0 0 1 2-4.11 5.58 5.58 0 0 1 1.11-1 8.4 8.4 0 0 1 6.15-1.2 20.77 20.77 0 0 1 7.24 3.16q5.37 3.25 10.45 7a92.45 92.45 0 0 1 9.55 7.84c5.25 5 9.62 10.93 14.5 16.32s10.48 10.42 17.27 13 15 2.47 20.83-1.86c6.73-5 8.9-13.94 10.6-22.14 3.75-3.62 4.88-9.13 6.7-14 1.15-3.1 2.62-6 3.86-9.08 1.48-3.62 2.64-7.36 3.8-11.1a53.33 53.33 0 0 0 2.66-11.57c.48-6.23-1.2-12.86.56-18.7 2.3-.5 4.4-1.8 6.68-2.57 3.38-1.1 7-.93 10.58-.9h.23a5.46 5.46 0 0 0 3.52-.83c1.2-1 1.4-2.7 1.45-4.26.14-3.83-.1-8.13-2.97-10.6zM789.4 496.85a7.43 7.43 0 0 1-2.53.18z" fill="url(#C)"/><path d="M793.33 560.1a11 11 0 0 1-4.16 2.21l-7.1 2.54c-3.85 1.38-7.87 2.77-11.93 2.27-2.27-.28-12-1.7-13.47-3.48-2.24-2.74 5.6-6.77 8.3-9.08a11.34 11.34 0 0 0 1.68-1.48c1-1.22.87-2.93.73-4.47a69 69 0 0 1-.52-11.77 23.72 23.72 0 0 1 .4-2.79c1-4.6 5.28-2.92 8.66-1.7a67.71 67.71 0 0 1 11.75 5.09 8.43 8.43 0 0 1 2.9 2.46c1.48 2.24.9 5.18.65 8-.2 2.2-.2 4.3 1.17 5.88a15.14 15.14 0 0 1 1.89 2 3.75 3.75 0 0 1-.95 4.32zm-97.93-72.06c1-4.43 1.22-9 2.42-13.4a62.69 62.69 0 0 1 3.14-8.35l4.4-10.3a7.26 7.26 0 0 1 2.08-3.15 6.16 6.16 0 0 1 3.43-.92c4.3-.16 8.84 1.18 11.78 4.35s3.87 8.3 1.53 11.93c-2.8 4.37-8.9 5.25-12.56 8.93-2.33 2.35-3.46 5.62-4.15 8.85-1.82 8.4-1.2 17.1-1.77 25.7-.18 2.67-.7 5.72-3 7.1a8.75 8.75 0 0 1-4.48.87l-6.56.1c-1.1 0-5.1.7-5.82-.14-1.28-1.45 1.64-8.67 2.17-10.28 1.18-3.57 2.63-7.05 4-10.56 1.2-3.13 3.38-7.36 3.38-10.75z" class="G"/><path d="M830.84 802.2c-1.5 5.78-6.05 10.28-8.38 15.8-3.5 8.25-1.93 18.34-6.9 25.8a27.26 27.26 0 0 1-5.77 5.95 21.43 21.43 0 0 1-4 2.69 6.58 6.58 0 0 1-4.86.6c-2.1-.72-3.38-3-3.6-5.2a10.49 10.49 0 0 1 0-2.17 26.89 26.89 0 0 1 1-4.39q1.8-6.07 3.6-12.16a29.44 29.44 0 0 0 1.44-6.8c.13-2.52-1.47-5.8-.8-8.15.3-1.06 1.47-2 2-2.9a16.73 16.73 0 0 0 1.72-4.09c.82-2.8 1.38-5.77 3.1-8.12a19.06 19.06 0 0 1 3.9-3.65 10.34 10.34 0 0 1 3.72-2.09 9.11 9.11 0 0 1 4 .19 39.25 39.25 0 0 1 5 1.42h.1c2 .72 4.12 1.83 4.75 3.85a6.29 6.29 0 0 1-.03 3.42zm106.4-122.94c-.06 1.55-.25 3.28-1.45 4.25a5.46 5.46 0 0 1-3.52.83H932c-3.57 0-7.2-.2-10.58.9-2.57.85-4.93 2.4-7.6 2.72-3.7.42-7.16-1.6-10.43-3.36a103.75 103.75 0 0 0-9.47-4.5c-2.12-.87-6.45-1.43-7.47-3.75a34.14 34.14 0 0 1-.88-3.34 11.1 11.1 0 0 0-.61-1.47 8.45 8.45 0 0 1-1.12-3.31 5.11 5.11 0 0 1 1.14-3.2 9.59 9.59 0 0 1 6.55-3.37 29 29 0 0 1 7.54.4l24.62 3.54c1.9.27 3.8.54 5.68 1a11.14 11.14 0 0 1 4.88 2.14c2.9 2.44 3.15 6.73 3 10.5z" class="C"/><path d="M915.6 685.66c-3 6.33-.84 13.82-1.38 20.82a53.07 53.07 0 0 1-2.66 11.54c-1.16 3.72-2.32 7.45-3.8 11.06-1.24 3-2.7 6-3.86 9.06-1.83 4.88-3 10.37-6.7 14-1.7 8.18-3.86 17.12-10.6 22.08-5.85 4.32-14 4.47-20.83 1.86s-12.38-7.6-17.27-13-9.26-11.26-14.5-16.28a91 91 0 0 0-9.57-7.83q-5.08-3.7-10.45-6.94a20.93 20.93 0 0 0-7.24-3.15 8.4 8.4 0 0 0-6.15 1.2 5.58 5.58 0 0 0-1.11 1 13.76 13.76 0 0 0-2 4.1c-4.2 10.94-15.47 16.56-24.47 24.02l-8.22 6.8c-1.12.93-2.36 2.3-1.8 3.64a3.27 3.27 0 0 0 1.72 1.48c4.78 2.36 10.4 3.3 14.33 6.9 1.44 1.32 2.82 3.06 4.77 3.16a9.58 9.58 0 0 0 3-.67 10.09 10.09 0 0 1 8.81 1.76 8.57 8.57 0 0 0 2.4 1.65 5.83 5.83 0 0 0 2.28.14c2.13-.15 4.4-.34 6.3.6s3.48 3.2 5.7 3.35c1.1.08 2.4-.28 3.43-.18a1.8 1.8 0 0 1 1.44.8 6.63 6.63 0 0 1 .47 1.72c.4 1.4 1.8 2.27 2.7 3.43 1.38 1.78 1.58 4.2 1.44 6.45a27.52 27.52 0 0 1-8.76 18.42 10.84 10.84 0 0 1-5.39 3 5 5 0 0 1-5.34-2.37 8.22 8.22 0 0 0-1-2.2c-1.6-1.77-5.22.1-6.7-1.78-.92-1.18-.26-3.07-1.14-4.3s-3-1-4.63-1.07c-1.9-.1-3.68-1-5.53-1.47-3-.78-6.14-.5-9.2-.7a55.6 55.6 0 0 1-7.58-1.2l-12.72-2.6c-8.1-1.65-16.23-3.32-23.94-6.27-2.95-1.12-5.92-2.5-8-4.9a15 15 0 0 1-3.12-7.3c-1.8-10.67 7.8-19.8 9-30.54.43-3.92 2-7.62 3.48-11.26q4.07-9.76 8.12-19.53a17.4 17.4 0 0 1 1.7-3.46 25.11 25.11 0 0 1 3.87-3.77 26.63 26.63 0 0 0 7.83-12.84 3.46 3.46 0 0 1 .67-1.51 5.62 5.62 0 0 1 1.16-.75 3.8 3.8 0 0 0 1.51-4.45 2.6 2.6 0 0 0 2.38-2.42 4.18 4.18 0 0 1 .1-1.62c.24-.52.84-.78 1.2-1.24.57-.75.37-1.8.28-2.74a8.92 8.92 0 0 1 0-1.79 9.19 9.19 0 0 1 2.68-5.59c2.4-2.35 5.8-1.74 9.1-2.3a52.07 52.07 0 0 0 9.6-3.07 94.31 94.31 0 0 1 27.11-6.27 59.19 59.19 0 0 1 27.38 4.36 15.57 15.57 0 0 1 3.53 2 6.69 6.69 0 0 1 1.85 2.21 20.6 20.6 0 0 0 1.36 3.07c1.07 1.46 3.1 1.93 4.26 3.3s1.27 3.7 2.24 5.42c1.4 2.44 4.6 3.57 5.57 6.22.3.84.34 1.76.56 2.63.54 2.18 2.16 3.9 3.6 5.62a43.21 43.21 0 0 1 9.68 22c.32-5.07 3.73-9.56 8-12.36 1.15-.75 2.48-1.58 2.7-2.94.3-1.72-1.38-3.25-1.27-5a4.9 4.9 0 0 1 1-2.34 74 74 0 0 1 6.26-7.87c1.23-1.35 2.6-3 2.1-4.78-.4-1.33-1.75-2.1-2.5-3.27a4.16 4.16 0 0 1 .1-4.6c.7-.95 1.8-1.64 2.15-2.77.4-1.33-.48-2.77-.2-4.14a5.12 5.12 0 0 1 2.06-2.67 17.13 17.13 0 0 1 4.47-2.94c2.64-1 5.58-.63 8.38-.24 4.68.65 9.93 1.65 12.57 5.57 1.7 2.45 2.55 6.17 1.3 8.8z" fill="#65617d"/><path d="M937.24 679.26c-.06 1.55-.25 3.28-1.45 4.25a5.46 5.46 0 0 1-3.52.83H932c.4-2.08 2.94-3.27 3.38-5.38a4.76 4.76 0 0 0-1.1-3.63c-2.14-2.9-5.58-4.5-9-5.66a59.62 59.62 0 0 0-30.06-2.25 30.27 30.27 0 0 0-7.9 2.43 25.74 25.74 0 0 0-2.4 1.7 8.45 8.45 0 0 1-1.12-3.31 5.11 5.11 0 0 1 1.14-3.2 9.59 9.59 0 0 1 6.55-3.37 29 29 0 0 1 7.54.4l24.62 3.54c1.9.27 3.8.54 5.68 1a11.14 11.14 0 0 1 4.88 2.14c2.94 2.44 3.18 6.73 3.03 10.5zM830.84 802.2c-1.5 5.78-6.05 10.28-8.38 15.8-3.5 8.25-1.93 18.34-6.9 25.8a27.26 27.26 0 0 1-5.77 5.95 21.43 21.43 0 0 1-4 2.69 6.58 6.58 0 0 1-4.86.6c-2.1-.72-3.38-3-3.6-5.2a10.49 10.49 0 0 1 0-2.17l.06.16c.87 2.1 2.3 4.3 4.53 4.67a6.13 6.13 0 0 0 4.62-1.63c3.3-2.65 5.22-6.6 7.05-10.4a43.3 43.3 0 0 0 3.38-8.63c.4-1.7.6-3.44 1-5.14 1.9-8.26 8.37-15 9.8-23.37a5.72 5.72 0 0 0 .08-1.75 8.84 8.84 0 0 0-.86-2.18 10.8 10.8 0 0 1-.76-2.42c2 .72 4.12 1.83 4.75 3.85a6.29 6.29 0 0 1-.16 3.39zm-15.1-14.34a14.49 14.49 0 0 1-4.51 6.16 22 22 0 0 1-9.71 4.2 9.66 9.66 0 0 1-5-.06c-2.22-.77-3.82-2.85-6.1-3.45-1.62-.44-3.36-.05-5-.3-2.95-.4-5.24-2.66-7.62-4.46-7.3-5.48-16.86-7.25-24.15-12.73a2.24 2.24 0 0 1-.78-.81 2.41 2.41 0 0 1-.15-1.13 23 23 0 0 1 2.19-9.61 33.53 33.53 0 0 1 4.12-5.87c6.53-8 13.1-16.06 20.9-22.8 3.28-2.83 6.86-5.47 11-6.75 2.3-.7 6.84-1.38 9.64-.18a5.58 5.58 0 0 0-1.11 1 13.76 13.76 0 0 0-2 4.1c-4.2 10.95-15.48 16.57-24.48 24.03l-8.22 6.8c-1.12.93-2.36 2.3-1.8 3.64a3.27 3.27 0 0 0 1.72 1.48c4.78 2.36 10.4 3.3 14.33 6.9 1.44 1.32 2.82 3.06 4.77 3.16a9.58 9.58 0 0 0 3-.67 10.09 10.09 0 0 1 8.81 1.76 8.57 8.57 0 0 0 2.4 1.65 5.83 5.83 0 0 0 2.28.14c2.13-.15 4.4-.34 6.3.6s3.48 3.2 5.7 3.35c1.1.08 2.4-.3 3.45-.18z" class="B"/><path d="M723.77 652.14c-1.9 1.22-3.92 2.6-4.7 4.72-.64 1.73-.34 3.7-1.1 5.4s-2.5 2.85-2.88 4.65c-.27 1.3.26 2.7 0 4a17.24 17.24 0 0 0-.55 2.08c-.1 1.5 1.18 2.7 2.43 3.53a20.3 20.3 0 0 0 18.17 2c2.67-1 5.08-2.63 7.64-3.9a15.11 15.11 0 0 1 8.23-2c1.65.18 3.23.78 4.88 1a5.12 5.12 0 0 0 4.57-1.36 5.7 5.7 0 0 0 1-2.37c1.4-5.5.76-11.3-.56-16.83s-3.32-10.83-4.73-16.32c-1-4.07-1.77-8.24-3.44-12.1s-4.48-7.43-8.4-8.9a1.57 1.57 0 0 0-1-.13 1.7 1.7 0 0 0-.65.48 30.75 30.75 0 0 0-6.86 11.54c-1.57 4.8-2 9.87-3.44 14.68-.62 2-1.42 4.68-3 6.2s-3.8 2.48-5.6 3.63z" class="C"/><path d="M761.48 669.84a5.83 5.83 0 0 1-1.05 2.37 5.07 5.07 0 0 1-4.57 1.35c-1.64-.2-3.22-.8-4.87-1a15.08 15.08 0 0 0-8.23 2l-7.65 3.9a20.19 20.19 0 0 1-12.13.69 19.57 19.57 0 0 1-6-2.64c-1.26-.82-2.53-2-2.43-3.53a17.09 17.09 0 0 1 .55-2.07c.26-1.3-.26-2.7 0-4 .38-1.8 2.12-3 2.88-4.66s.47-3.65 1.1-5.38c.78-2.13 2.8-3.5 4.7-4.73s4.16-2.17 5.68-3.66a5.64 5.64 0 0 0 .53-.74 18 18 0 0 0 2.38-5.51c1.47-4.82 1.87-9.9 3.43-14.7a30.81 30.81 0 0 1 6.87-11.53 1.51 1.51 0 0 1 .64-.48 1.6 1.6 0 0 1 1 .12c3.92 1.48 6.73 5.06 8.4 8.9s2.4 8 3.44 12.08c1.4 5.5 3.4 10.82 4.73 16.33s1.97 11.37.58 16.87zm29.74-121.96a20 20 0 0 1-24.36-11 23.72 23.72 0 0 1 .4-2.79c1-4.6 5.28-2.92 8.66-1.7a67.71 67.71 0 0 1 11.75 5.09 8.43 8.43 0 0 1 2.9 2.46c1.48 2.2.9 5.15.65 7.94z" class="B"/><circle r="20" cy="527.82" cx="785.18" class="G"/><path d="M839.45 677.28c0 1.66-2.25 2.2-3.92 2.1-6-.35-11.87-2-17.8-1.5-7.5.68-14.4 4.83-21.94 5.2-2.9.15-5.85-.28-8.7.25-3.7.7-7 2.94-10.77 3.26-3.27.28-6.5-.95-9.77-.82a15.7 15.7 0 0 0-6.53 1.86 9.19 9.19 0 0 1 2.68-5.59c2.4-2.35 5.8-1.74 9.1-2.3a52.07 52.07 0 0 0 9.6-3.07 94.31 94.31 0 0 1 27.11-6.27 59.19 59.19 0 0 1 27.37 4.33 15.57 15.57 0 0 1 3.53 2 1.57 1.57 0 0 1 .07.54z" class="B"/><path d="M775.93 564.34l-11.52-4.26a16.54 16.54 0 0 0-4.36-1.16c-3.92-.3-7.6 2.3-9.7 5.64s-2.88 7.3-3.55 11.17q-1.38 7.94-2.34 15.94a104.13 104.13 0 0 0-1.05 14.54c.23 12.38 2.85 24.6 5.73 36.64a128.88 128.88 0 0 1 3.19 16.25c.24 2.26.35 4.53.6 6.8.26 2.55.68 5.07 1.1 7.6l2.4 14.37c3-2.13 6.4-4 10.1-4.1 3.27-.12 6.5 1.1 9.77.82 3.75-.3 7.07-2.56 10.77-3.25 2.86-.53 5.8-.1 8.72-.25 7.52-.38 14.43-4.54 21.93-5.2 5.95-.54 11.86 1.14 17.82 1.5 1.66.1 3.9-.43 3.9-2.1 0-1.16-1.16-1.93-2.17-2.5a107 107 0 0 1-13.55-9.67c-3.94-3.12-7.94-6.32-10.65-10.54-6.53-10.15-4.3-23.88-9.86-34.6-4.53-8.7 0-20.1 0-29.9 0-4.9 0-9.84-1.15-14.6a61.89 61.89 0 0 0-2.68-7.8l-3.9-9.85a1.61 1.61 0 0 0-.46-.75 1.53 1.53 0 0 0-.89-.27 9.38 9.38 0 0 0-6.46 2.07c-1.83 1.5-3 3.63-4.8 5.18-1.97 1.7-4.5 3.2-6.96 2.3z" fill="#e3e8f4"/><g class="C"><path d="M789 558.66c.64-2.74 1.33-5.6 3.16-7.73s5.17-3.27 7.53-1.74c2.68 1.74 2.8 5.76 5.08 8 2 1.92 5 2.07 7.72 2.32a52.35 52.35 0 0 1 14.27 3.36 5.83 5.83 0 0 1 2.37 1.42c1.25 1.42 1 3.6 1.62 5.37.85 2.28 3.2 3.73 4.1 6 1 2.52 0 5.34-.84 7.93-1.5 4.65-2.46 9.48-3.93 14.15s-3.56 9.27-7 12.8c-1.52 1.56-3.78 3-5.78 2.07l-.77 5.55a9.43 9.43 0 0 0 0 3.55 3.18 3.18 0 0 0 2.32 2.46c.15.86 1.06 1.27 1.8 1.74a5 5 0 0 1 1.27 7c-.63.85-1.56 1.52-1.86 2.53-.45 1.46.62 3 1.92 3.8s2.83 1.17 4.15 1.94c2.74 1.58 4.2 4.7 5.15 7.7.7 2.28 1.28 4.75 3 6.4.66.63 1.45 1.1 2.08 1.77a7.59 7.59 0 0 1 1.79 4.59 9.11 9.11 0 0 1-1.3 6c-2 2.86-5.73 3.7-9 5-5.3 2.18-9.68 6.08-14.36 9.4a15.32 15.32 0 0 1-6.55 3.08c-3.24.43-6.43-1-9.7-1.13a24.06 24.06 0 0 0-5.78.76l-6 1.3c.32-4.65-2.24-9.3-3.67-13.74-2.7-8.34-3.2-17.26-2.56-26s2.42-17.36 4.18-25.94c1.23-6 1.1-12.27 3-18.1 1.77-5.6 4.3-11 5.23-16.84 1.52-9.45-4.8-17.46-2.66-26.78z"/><path d="M834.5 577.15a11 11 0 0 1 1.15 3.25 11.73 11.73 0 0 0 2.53 4.76 16.39 16.39 0 0 1 2.66 3c.92 1.74.57 3.86 1 5.76.5 2.07 1.95 3.87 2.16 6a11 11 0 0 0 .17 1.82c.65 2.42 4.2 3 5 5.42.53 1.57-.38 3.28-.2 4.93a4.34 4.34 0 0 1 .09 1.56 3.17 3.17 0 0 1-1.14 1.46 23 23 0 0 0-6.58 11.71 66.69 66.69 0 0 0-1.51 13.53l-3.9-5.17a5.94 5.94 0 0 0-1.56-1.6c-.5-.3-1.08-.45-1.6-.75-1.48-.84-2.06-2.62-2.63-4.22a39 39 0 0 0-7-12.12c-1.6-1.87-3.44-3.75-3.8-6.18a11.38 11.38 0 0 1 .18-3.34c1-6.55 2.07-13.26 5.26-19.07 1.5-2.72 3.42-5.18 4.85-7.94.96-1.83 2.3-6.6 4.87-2.8zm-98.66 6.3a4.57 4.57 0 0 1-.62 2.4 3.16 3.16 0 0 1-3.16 1 9.14 9.14 0 0 1-3.16-1.48q-4.18-2.64-8.36-5.3a46.28 46.28 0 0 1-4.49-3.08 40.07 40.07 0 0 1-5.93-6.21c-4.86-6-9.16-12.5-14.57-18-1.47-1.5-3-2.94-4.42-4.5a65.82 65.82 0 0 1-5.34-7.18c-1.56-2.3-3.18-4.87-2.9-7.63.16-1.56.9-3 1.13-4.55s-.37-3.44-1.87-3.86a3.38 3.38 0 0 0-.54-.09 4.08 4.08 0 0 1-.87-.19c-1.4-.58-1.18-2.73-.18-3.86s2.48-1.76 3.4-3a18.09 18.09 0 0 1 1.42-2.11 5.41 5.41 0 0 1 2.33-1.17 36.06 36.06 0 0 1 17.75-.67c1 .22 2.14.62 2.44 1.6a2.93 2.93 0 0 1 0 1.44 32.2 32.2 0 0 0-.76 6 10.64 10.64 0 0 0 .07 1.26c.47 4.24 3.22 7.83 5.9 11.14l9.65 11.75a46.17 46.17 0 0 0 5.85 6.25c2 1.66 4.6 3 6.15 5.13 1.27 1.72.86 4.07 1 6.14a136.28 136.28 0 0 1 .1 18.78z"/></g><path d="M862.84 625.16a21 21 0 0 0 2.66-3.15 20.78 20.78 0 0 0 2-4.47l5.8-16.45 3-7.74 3.93-8A106.7 106.7 0 0 0 888 563.6a8.06 8.06 0 0 0 .31-3.19c-.28-1.73-1.6-3.08-2.84-4.3a20.79 20.79 0 0 0-4.26-3.52 7 7 0 0 0-5.34-.86c-2.56.75-4.17 3.37-4.76 6s-.37 5.32-.62 8c-.36 3.84-1.68 7.55-2 11.4-.17 2.23 0 4.48-.27 6.7a24.47 24.47 0 0 1-3 8.27 53.69 53.69 0 0 1-12.93 15.9 20.79 20.79 0 0 0-3.88 3.73 12.17 12.17 0 0 0-1.87 4.66 10.73 10.73 0 0 0 .81 7.57c1.63 2.78 4.76 4 7.75 4.62 4.04.84 4.97-.54 7.74-3.4z" class="G"/><path d="M785.3 498.84a9.33 9.33 0 0 1 9.06-4.91 10 10 0 0 1 7.86 7.06c.47 1.5.66 3.14 1.48 4.42 1.24 1.93 3.54 2.5 5.26 3.9a10.53 10.53 0 0 1 3.36 7.44 22.51 22.51 0 0 1-1.33 8.41 26.74 26.74 0 0 0-1 3.52c-.2 1.16-.22 2.34-.4 3.5a11.4 11.4 0 0 1-4.59 7.57 2 2 0 0 1-1.24.45c-.78-.1-1.26-1-1.55-1.82-1.6-4.6-1.2-10.2-4.14-13.86a15.15 15.15 0 0 0-4.74-3.53 6.11 6.11 0 0 0-2.42-.91 6.37 6.37 0 0 0-3.5 1.28 21.79 21.79 0 0 1-6.92 3.06 8.5 8.5 0 0 1-7.15-1.54c-1.38-1.14-2.4-2.85-3.92-3.74s-3.13-.84-4.64-1.45A6.87 6.87 0 0 1 762 507.2c1-1.2 2.48-1.88 3.37-3.2 1.15-1.72 1.05-4.08 1.6-6.14a8.45 8.45 0 0 1 5.09-5.81 7.15 7.15 0 0 1 7.12 1.49c1 .9 1.8 2.06 2.78 3a8 8 0 0 0 7.4 2" class="C"/><path d="M801.74 646.03a3.88 3.88 0 0 0-1.06 4.24c.22.47 10.54-1.52 11.63-1.67 2.72-.4 7.5-.2 9.32-2.7 3.26-4.4-6.84-3.43-8.7-3.27-3.52.3-8.52.78-11.2 3.4z" class="B"/><use xlink:href="#D" class="C"/><use xlink:href="#D" class="B"/><path d="M783.5 706.88c1.44.48 3 1.18 3.5 2.62l-17.58-4.47c-1.06-.27-4.86-.58-5.56-1.4-1-1.22 2.55-.38 3.2-.3l5.8.94c3.64.65 7.14 1.72 10.65 2.6zm4.5 10.25c-1-.67-3.87-.6-5.1-.88l-5.34-1.55c-3.6-1.17-7.15-2.5-10.84-3.36-.68-.15-3-.2-2.9-1.05s2.32-1.16 2.87-1.2c3.27-.24 7.35 1.3 10.4 2.38a45.79 45.79 0 0 1 10.91 5.66zm-7.34-19.4c-3.67-1-7-3.28-10.78-3.72a4.38 4.38 0 0 1-2.75-.84 3.24 3.24 0 0 1-.89-1.6c2.53-.13 5.47.94 7.77 1.95a24.45 24.45 0 0 1 3.64 1.94c.84.5 2.1 1.98 3 2.27z" class="B"/><path d="M850.62 608.2a17.49 17.49 0 0 0 12.26 19.33c-.5 2.37-2.94 3.68-4.67 5.37-2.44 2.37-3.7 5.92-6.58 7.72-3.2 2-7.34 1.22-11 .38a1.34 1.34 0 0 1-.86-.45 1.23 1.23 0 0 1-.16-.39c-1.2-4.43-2-9.16-.76-13.6 1-3.78 3.4-7 5.32-10.34s2.1-6.92 6.45-8.02zm-89.42-57.34a26 26 0 0 0-11 3.35c-2.24 1.28-4.54 3-7.1 2.7-1.5-.17-3-1-4.47-.6a8.77 8.77 0 0 0-2.29 1.36 2.59 2.59 0 0 1-2.52.4l-1 13.84c-.38 5.26-.75 10.63.5 15.76.65 2.62 2.08 5 2.24 7.66s-.08 5.4.1 8.08c.18 2.5.73 4.94.87 7.43.28 4.7-.88 9.36-2 13.93-1.7 6.74-2.7 13.63-6 19.73-.92 1.7-2 3.4-2 5.33 0 .24 0 .47.06.7-1 .55-1.93 1.07-2.78 1.6-1.9 1.23-3.93 2.6-4.7 4.73-.63 1.73-.34 3.7-1.1 5.38s-2.5 2.86-2.88 4.66c-.27 1.3.25 2.7 0 4a17.09 17.09 0 0 0-.55 2.07c-.1 1.5 1.17 2.7 2.43 3.53a19.57 19.57 0 0 0 6 2.64l5.97-23.7a191.09 191.09 0 0 0 13.53-31.47 67.66 67.66 0 0 1 3.91-10.36 48.68 48.68 0 0 0 3-5.88c.9-2.52 1-5.25 1.44-7.9a55.37 55.37 0 0 1 2.35-9.13c1.08-3.2 2.33-6.4 2.55-9.78.33-4.82-1.42-9.9.44-14.37a19.11 19.11 0 0 1 3.05-4.59c2.58-3.16 4.93-6.47 7.5-9.63-1.34-1.43-3.57-1.58-5.57-1.46z" class="C"/><path d="M789.4 495.55l-1.25.1-.14.1a7.38 7.38 0 0 0 1.39-.19zm22.87 20.75a26.94 26.94 0 0 1-1.28 5.84 26.74 26.74 0 0 0-1 3.52c-.2 1.16-.22 2.34-.4 3.5a11.4 11.4 0 0 1-4.59 7.57 2 2 0 0 1-1.24.45c-.78-.1-1.26-1-1.55-1.82-1.6-4.6-1.2-10.2-4.14-13.86a15.15 15.15 0 0 0-4.74-3.53 6.11 6.11 0 0 0-2.42-.91 6.37 6.37 0 0 0-3.5 1.28 21.79 21.79 0 0 1-6.92 3.06 8.5 8.5 0 0 1-7.15-1.54c-1.38-1.14-2.4-2.85-3.92-3.74s-3.13-.84-4.64-1.45a6.83 6.83 0 0 1-3.9-4.46 2.87 2.87 0 0 1-.08-.38 7 7 0 0 0 .08 3.38 6.83 6.83 0 0 0 3.9 4.46c1.5.6 3.2.62 4.64 1.45s2.54 2.6 3.92 3.74a8.5 8.5 0 0 0 7.15 1.54 21.79 21.79 0 0 0 6.92-3.06 6.37 6.37 0 0 1 3.5-1.28 6.11 6.11 0 0 1 2.42.91 15.15 15.15 0 0 1 4.67 3.56c2.93 3.66 2.55 9.27 4.14 13.86.3.83.77 1.73 1.55 1.82a2 2 0 0 0 1.31-.48 11.4 11.4 0 0 0 4.6-7.6c.18-1.16.2-2.34.4-3.5a26.74 26.74 0 0 1 1-3.52 22.51 22.51 0 0 0 1.33-8.41c-.02-.12-.04-.26-.06-.4z" class="B"/><path d="M749 596.55l-.68 9.13c-.1 1.24-2.47 30.76-19.95 65.26-15 29.6-44.2 68.13-99.3 89.8q-6.45 2.55-13.4 4.76l-5.16-16.2a189.43 189.43 0 0 0 37.22-16.28c28.1-16.22 49.93-39.37 65.16-69.16a185.77 185.77 0 0 0 17.1-50.3h-62.7v-17z" class="D"/><path d="M622.32 760.74c55.1-21.66 84.3-60.2 99.3-89.78 17.48-34.5 19.86-64 19.95-65.26l.68-9.13h7l-.68 9.13c-.1 1.24-2.47 30.76-19.95 65.26-15 29.6-44.2 68.12-99.3 89.78q-6.45 2.55-13.4 4.77l-.68-2.13q3.62-1.3 7.08-2.64z" fill="#fff" class="B"/><path d="M512 749.3l-5.16 16.2q-6.95-2.22-13.4-4.77c-55.1-21.66-84.3-60.2-99.3-89.78-17.48-34.5-19.86-64-19.95-65.26l-.68-9.13h81.66v17h-62.7a185.88 185.88 0 0 0 17.15 50.3c15.23 29.8 37.06 52.94 65.15 69.15A189 189 0 0 0 512 749.29z" class="D"/><path d="M500.18 760.74c-55.1-21.66-84.3-60.2-99.3-89.78-17.48-34.5-19.86-64-19.95-65.26l-.68-9.13h-7l.68 9.13c.1 1.24 2.47 30.76 19.95 65.26 15 29.6 44.2 68.12 99.3 89.78q6.45 2.55 13.4 4.77l.68-2.13q-3.6-1.3-7.08-2.64z" fill="#fff" class="B"/><path d="M655.6 905.9v91.67H466.92V905.9l6-8c61.14-21.7 73.53-78.3 76-100.68a92.05 92.05 0 0 0 .63-9.32h23.33a92.05 92.05 0 0 0 .63 9.32c2.5 22.4 14.9 79 76 100.68z" class="D"/><path d="M466.92 905.9H655.6v11.5H466.92z" class="B"/><path d="M482.92 897.9c61.14-21.7 73.53-78.3 76-100.68a92.05 92.05 0 0 0 .63-9.32h-10a92.05 92.05 0 0 1-.63 9.32c-2.5 22.4-14.9 79-76 100.68l-6 8v91.67h10V905.9z" fill="#fff" class="B"/><path d="M438.26 596.55h16.92v17h-15.42q-.9-8.4-1.5-17zM512 749.3l-5.16 16.2q-6.95-2.22-13.4-4.77A179.15 179.15 0 0 1 474.77 733 189 189 0 0 0 512 749.29zm98.5 0a189.43 189.43 0 0 0 37.22-16.28 179.86 179.86 0 0 1-18.67 27.73q-6.45 2.55-13.4 4.76zm73.74-152.75q-.6 8.6-1.5 17h-15.4v-17zM573.55 797.2a64.64 64.64 0 0 1-24.59 0 92.05 92.05 0 0 0 .63-9.32h23.33a92.05 92.05 0 0 0 .63 9.32z" class="B"/><path d="M440.26 568.4c.43 126.06 54.43 228 121 228s120.56-101.94 121-228z" class="D"/><path d="M461.76 568.4h-21.5c.43 126.06 54.43 228 121 228a65.35 65.35 0 0 0 10.75-.91c-61.54-10.28-109.84-107.9-110.25-227.1z" fill="#fff" class="B"/><path d="M497.1 940.98h128.33v33H497.1z" class="C"/><path d="M503.1 973.98v-28.5h122.33v-4.5H497.1v33z" fill="#fff" class="B"/><path d="M371.82 690.1c-2.3-.77-15.9-11.53-16.94-16.4s7.2-50.24 7.2-50.24-.76 0-2-.15v-.73l1.7-59.6s6.93-40-6.16-37.67-4.88 37.67-4.88 37.67-1.5 17.94-2.54 23.32c-1 5.2-5.58 26.33-2.46 32.9a7.16 7.16 0 0 0 .38.68s.52 22.55-5.13 25.63c-5.4 2.93-7.63 17.68-7.82 19l-.3-.12a15.67 15.67 0 0 1-4.17-3.81c-.12-.15-.2-.3-.32-.47a22 22 0 0 0-.59-29.87 22.18 22.18 0 0 0-6.19-4.52 14.2 14.2 0 0 0-1.33-5.52c-2.6-5.56-17-12.83-27.23-13-4.72-.14-8.6 1.2-10 4.9-.72 1.87-.5 4-.8 5.94-.6 4-3.17 7.13-6.47 9.62a40.56 40.56 0 0 0-4.31-4.15c-3.34-2.56-10-11-10-11s-20.8-21.53-22.33-27.43-22.3-41.33-26.93-35.16 15.9 33.06 15.9 33.06 3.9 9.77 6.9 13.07 26 36.7 26 36.7l1.1 2.28c-4.86 2.56-9.3 5.82-10.87 10.9-2.3 7.48 2.73 15 6.2 22 6.78 13.66 7.75 31.08-1 43.56-7.84 11.02-21.44 16.26-34.17 20.84a33.63 33.63 0 0 0 21.6 7.17c-2.94 8.52-13.36 11.34-22.24 12.92 4.66 4.48 11.33 6.1 17.73 7.1a53.12 53.12 0 0 0 9.49.75h.78l.78-.06a27.16 27.16 0 0 0 3.23-.41c4.62-.94 9.1-3.46 11.47-7.54 2-3.5 2.7-8.25 6.33-10a8.09 8.09 0 0 1 3-.71h-.1 2.06l15.13.15h1.93c4.27-.1 8.83-.84 11-4.37a12.12 12.12 0 0 0 1.37-5.55c.32-4.8 0-9.72.13-14.55 1.3 8.8 2.64 22.5-.57 27.55a47 47 0 0 1-9.38 10.17 18 18 0 0 0-2.48 2.54c-.5.35-.78.54-.78.54l-.3.93a17.61 17.61 0 0 0-2.44 5.66 3.93 3.93 0 0 0-.19 1.61c.35.7-2.5 3.64-1.67 4.87-7.12 8.35-8.47 21-8.47 21l-13 19.74c-6.68 17.55-16.68 19.35-16.68 19.35l-24.13-16.53c-.64-.77-9.62-4.62-9.62-4.62a10.18 10.18 0 0 0-4.62-4.22c-3.08-1.28-3.34-6-3.34-6-.38-11.15-6.93-12-6.93-12-5.28-.45-9.3.5-12.4 2.2l-.94.07-16 1.18c-16.7 1.1-20.66 11.9-20.66 11.9s-2.05 2.3.64 4.8 19.9 0 20.64-.06a11.18 11.18 0 0 1-3.92-.27c2.7-.1 6.44-.2 9.62-.2h.77a41.62 41.62 0 0 0-.29 5.08c0 3.2 8.85 5.25 8.85 5.25l26.95 24s16.94 7.57 27.72 18.46 20.3 1.5 20.3 1.5c11.4-2.82 44.24-42.5 44.27-42.55 0 1.16.7 39.76 2 47.5a5.15 5.15 0 0 0 .29 1.15c1.54 3.33-.52 12.43-1.4 16.27a45.2 45.2 0 0 0-.65 9.74s-12.3 47-11.3 51.13-6.67 23.32-6.67 23.32v16l1.34-.07a8.64 8.64 0 0 0-.48.8l-.1.17s8.2 1.8 13.73 1.28 15 4.25 15 4.25 3.2 1.52 13.1 2.16 9.88-4.36 9.88-4.36c-1.13-6.8-16.74-9.1-17.22-9.16-1.26-.8-2.44-1.65-3.4-2.4l-.2-.16a4.28 4.28 0 0 0 .17-.46c1.67-6.8-7.57-9.75-7.57-9.75v-1.66c6-3.08 7.2-24.22 7.2-24.22l10.26-30.5c1.26-4.36 0-10.9 0-10.9l.9-5.64s1.93-3.84 1.93-4.6a11.39 11.39 0 0 1 2.18-5.38c1.4-1.67-1.54-5.64-1.54-5.64l2.57-6.66v-7.3l6-26.52s6.3-30.9 4.1-41 2.57-15.25 2.57-15.25a12.64 12.64 0 0 1-1.32.6 38.21 38.21 0 0 0 1.55-4.26l13.5 1.67v.2h4.87s-1.54-19-1.54-26.66 5.2-35.15 5.2-35.15 2.3-26.87 0-27.64zm-59.93-22.18c0 .75-.07 1.53-.12 2.33l-.27.4-.5-.42-.6.95-.18.1c-1.32-.68-2-4.57-2.95-3.73l-.13.1c-.2-.24-.42-.3-.64-.1l-.2.17v-.9a22.5 22.5 0 0 0 5.6.71c.01.13 0 .26 0 .38zm44.9 88.48h.3l-.48 1.26.2-1.26zm-49.3 226.77l-1.84-.46 1-.17.93.6.1.08zm18.8-2.7a26.36 26.36 0 0 1-1.83-1.07c.2.1 1 .52 1.83 1.07z" fill="url(#B)"/><path d="M351.32 769.07h2.94l-11.4 9.08 20.56 2.56v-43.2z" class="F"/><path d="M351.32 769.07l-3.05-.82-5.4 9.9 20.56 2.56v-43.2z" class="B"/><path d="M344.44 700.35v57.35h19l6.97-57.35z" class="F"/><path d="M344.44 700.35v57.35h19l6.97-57.35z" class="B"/><path d="M307.35 713.93l4.1-.7 9.42-1.6s28.3-6.38 34.13-6.9a36.47 36.47 0 0 0 10.24-2.92l2.5-1.16-10.2-18.6-15.8-11.72s-10-2.13-14.23-7.95a9.37 9.37 0 0 1-1.31-8.88c2.58-8-15.4 7.65-15.4 7.65s.17 3.75 0 8.53c0 .94-.1 1.92-.16 2.92 0 .66-.1 1.32-.16 2-.44 4.75-1.34 9.64-3.12 12.56-4.35 7.14 0 26.77 0 26.77z" class="E"/><path d="M310.8 670.08h.4c.72 0 1.3-1.53 2-1.6 5.63-.54 10.77-1.72 14.34-5.7a9.38 9.38 0 0 1-1.31-8.87c2.58-8-15.4 7.64-15.4 7.64s.2 3.76-.02 8.54z" class="B"/><path d="M288.9 647.4a21.91 21.91 0 0 0 21.92 21.92l2.14-.1a21.92 21.92 0 1 0-24.06-21.82z" class="E"/><path d="M282.16 614.13c-.72 1.86-.5 3.94-.8 5.9-1.07 7.1-8.3 11.37-14.84 14.35s-13.92 6.5-16 13.38c-2.28 7.43 2.7 14.88 6.16 21.85 6.74 13.58 7.7 30.9-1 43.32-7.73 11-21.2 16.22-33.88 20.8a33.4 33.4 0 0 0 21.45 7.14c-2.9 8.47-13.26 11.28-22.08 12.84 4.63 4.46 11.26 6.08 17.6 7.06 4.63.72 9.38 1.2 14 .26s9-3.44 11.38-7.5c2-3.47 2.68-8.2 6.3-9.95a11.38 11.38 0 0 1 5.13-.75l15 .16c4.67 0 10.2-.36 12.6-4.35a12 12 0 0 0 1.36-5.52c.65-9.84-1.24-20.24 2.8-29.22 1.22-2.7-6.6-7-5.8-9.87 2.82-9.87 3.53-17.64 3.5-27.9 0-7.95 5.17-14.8 9.44-21.5s7.84-15.18 4.47-22.38c-3.8-8.03-32.34-19.7-36.83-8.1z" class="C"/><path d="M302.13 980.3l4.4 2.92.1.07 4.53 3 10.58 1.78 9.3-.64s2.68-5.6-1.53-5.47a8.76 8.76 0 0 1-3.84-1.11l-.58-.3-1.82-1.06-3.38-2.38-2.33-1.9z" class="E"/><path d="M306 982.82l.6.4.1.07 4.53 3 10.58 1.78 9.3-.64s2.68-5.6-1.53-5.47a8.76 8.76 0 0 1-3.84-1.11c.74.58 1.36 1.2 1.42 1.74.17 1.43-6.88 4-6.88 4l-9.94-2.63-4.22-1.14z" class="B"/><path d="M289 985.26s8.15 1.78 13.63 1.27 14.92 4.2 14.92 4.2 3.2 1.5 13 2.14 9.8-4.34 9.8-4.34c-1.12-6.77-16.62-9-17.1-9.1.2.1 1 .5 1.82 1.06 1.1.72 2.3 1.66 2.38 2.42.17 1.42-6.88 4-6.88 4l-9.94-2.62s-1.7-.5-4-1.1h-.22a85.26 85.26 0 0 0-10.42-2.15c-4.28-.46-6.47 3.18-6.92 4a1.19 1.19 0 0 0-.08.2z" class="C"/><path d="M160.54 805.43l4.33 3.32 3.14-.12h.6l9.55-.2a30.32 30.32 0 0 1 6.09.34c2.16.76 6-12.36 6-12.36l-4.34-1-1.44-.34-1-.24-3.53-.83-10.7 1.22-7.52 4.84z" class="E"/><path d="M160.54 805.43l4.33 3.32 3.14-.12a3.79 3.79 0 0 1-2-1.79c-2.8-7.77 11.1-11.1 11.1-11.1l6.47-.28 1.26-.06h1l-1.44-.34-1-.24-3.53-.83-10.7 1.22-7.52 4.84z" class="B"/><path d="M152 808.94c2.62 2.42 19.78 0 20.5-.06a10.8 10.8 0 0 1-3.89-.27 4.29 4.29 0 0 1-3-2.15c-2.8-7.78 11.1-11.1 11.1-11.1l6.47-.28 1.25-.06 15.73-.68.76-4.33-13.13 1.12-15.93 1.17c-16.57 1.1-20.5 11.85-20.5 11.85s-2 2.3.66 4.78z" class="C"/><path d="M344.45 621.24a4.43 4.43 0 0 0 .38.68l3.82 5.6 9.94 1 1.78-63.22s6.88-39.76-6.12-37.47-4.84 37.47-4.84 37.47-1.48 17.84-2.52 23.2c-1 5.18-5.54 26.24-2.44 32.74zm-22.3 147.24l9.16 15.67s11.48 4.2 14.42 1c1.6-1.75 3.35-7.86 4.57-13 1-4.16 1.67-7.67 1.67-7.67z" class="E"/><path d="M322.14 768.48l2.83 4.84a3.33 3.33 0 0 0 .48-.51c3.2-4.08 17.3-.87 24.84-.6 1-4.16 1.67-7.67 1.67-7.67zM178.16 808.4a30.32 30.32 0 0 1 6.09.34c2.16.76 6-12.36 6-12.36l-5.78-1.36 15.73-.68.76-4.33-13.13 1.12a16.5 16.5 0 0 0-4.37 3.65l-.24.3c-3.35 4.1-4.6 9.4-5.06 13.32zm123.97 171.9l4.4 2.92c6.58-1.2 12.6-3.06 13.3-6a1 1 0 0 0 0-.14c-1.4-1.08-2.33-1.9-2.33-1.9zm-13.03 4.8a152.62 152.62 0 0 0 17.34-1.86 85.26 85.26 0 0 0-10.43-2.17c-4.27-.46-6.46 3.18-6.9 4.03z" class="B"/><path d="M178.64 813.46c0 3.2 8.8 5.23 8.8 5.23l26.77 23.83s16.82 7.52 27.52 18.35 20.14 1.53 20.14 1.53c11.34-2.8 44-42.3 44-42.3s.76 45.12 2.3 48.43-.5 12.36-1.4 16.2a45 45 0 0 0-.64 9.68s-12.23 46.77-11.2 50.85-6.63 23.2-6.63 23.2v15.93s29.95-1.15 31.6-7.9-7.5-9.7-7.5-9.7v-1.66c6-3.06 7.13-24.08 7.13-24.08l10.2-30.33c1.27-4.33 0-10.84 0-10.84l.9-5.6s1.9-3.83 1.9-4.6a11.34 11.34 0 0 1 2.17-5.35c1.4-1.66-1.53-5.6-1.53-5.6l2.55-6.63v-7.26l6-26.38s6.25-30.72 4.08-40.8 2.55-15.16 2.55-15.16c-10.23 5.36-15.4-6.57-17.08-11.7-.43-1.32-.64-2.2-.64-2.2s-14.05-5.18-27.13-3.94a31.23 31.23 0 0 0-7.79 1.65c-14.53 5.23-16.82 26.9-16.82 26.9l-12.87 19.63c-6.63 17.46-16.57 19.24-16.57 19.24l-24-16.44c-.68-.77-9.56-4.6-9.56-4.6a10.1 10.1 0 0 0-4.59-4.2c-3.06-1.28-3.3-6-3.3-6-.38-11.1-6.88-12-6.88-12-22.56-1.88-22.43 21.44-22.43 24.62z" class="C"/><path d="M322.14 751.15h-13.76v-42.7h13.76z" class="F"/><path d="M322.14 751.15h-13.76v-42.7h13.76zm22.3-130a.62.62 0 0 0 0 .09 4.43 4.43 0 0 0 .38.68l3.82 5.6 9.94 1 .1-3.94c-3.1-.24-10.16-1.1-14.25-3.43z" class="B"/><path d="M344.83 621.92s.5 22.42-5.1 25.48-7.8 19-7.8 19 17 11.18 20.8 16.1 12.5 16.64 10.7 19.44 4.34 15.55 4.34 15.55-11.22 22.94-8.67 31.6 2.8 31.6 2.8 31.6h4.85s-1.53-18.86-1.53-26.5 5.1-34.92 5.1-34.92 2.3-26.76 0-27.52-15.8-11.47-16.82-16.32 7.14-50 7.14-50-10.45-.45-15.8-3.5z" class="F"/><path d="M308.12 704.5a21.82 21.82 0 0 0 3.33 8.74l9.42-1.6s28.3-6.38 34.13-6.9a36.47 36.47 0 0 0 10.24-2.92 45.16 45.16 0 0 0-12.65-20.75l-3.6-3.33a60.15 60.15 0 0 0-18.1-11.57c.42.35 30.1 25.7 23.6 30.66s-24-7.13-24-7.13l-20.62-17.72-1.15 1.8a16.69 16.69 0 0 1 1.71.82 29.28 29.28 0 0 1 14 17.4c4.1 13.75-16.32 12.5-16.32 12.5z" class="B"/><path d="M302 768.22s18.86 10.45 23.44 4.6c1-1.3 3.1-1.85 5.74-2l-.64-2.2s-14.05-5.18-27.13-3.94l-1.4 3.55z" fill="#444053"/><path d="M310.68 672l20.62 17.74s17.43 12.14 24 7.13-23.6-30.67-23.6-30.67a61 61 0 0 1 18.09 11.54l3.6 3.33c9.44 8.75 11.57 8.75 11.9 21.6.08 3.17-1 7.72-1.83 8.54-3.06 3-5.2 24.8-4.73 27.34s-5.7 24.56-3.7 30.68-25-3.06-29.57 2.8-23.43-4.6-23.43-4.6 10.45-26.77 13-28.55 5.6-15.55 0-21.92-6.1-12.5-6.1-12.5 20.4 1.26 16.3-12.5a28.86 28.86 0 0 0-15.68-18.22z" fill="#e8e8f0"/><path d="M338.2 717.12s-7.9 14.9-18.14 18.78l-1 .33c-10.68 3.25 19.94-14.5 19.14-19.1z" class="B"/><path d="M227.58 585.2s3.82 9.7 6.88 13 25.74 36.45 25.74 36.45l1.92 4 1.65 3.4 14.53-1.53 1-5.86-.56-.68c-1.46-1.75-5.44-6.45-8.1-8.5-3.3-2.54-9.94-10.95-9.94-10.95s-20.64-21.42-22.17-27.28-22.18-41-26.76-34.92 15.82 32.86 15.82 32.86z" class="E"/><g class="B"><path d="M269.74 742.84a11.39 11.39 0 0 0-5.13.74c-3.6 1.75-4.28 6.48-6.28 9.95-2.34 4.06-6.8 6.57-11.4 7.5a25.44 25.44 0 0 1-2.76.38 31.34 31.34 0 0 0 8.76-.38c4.6-.93 9.05-3.44 11.4-7.5 2-3.47 2.68-8.2 6.28-9.95a8 8 0 0 1 3-.7zm35.52-76.7c0-7.95 5.17-14.8 9.43-21.5s7.84-15.18 4.47-22.38c-2.88-6.15-20.24-14.4-30.26-12.77 9.8 1.27 21.9 7.73 24.26 12.77 3.37 7.2-.2 15.67-4.47 22.38s-9.45 13.56-9.43 21.5c0 10.26-.7 18-3.5 27.9-.8 2.85 7 7.16 5.8 9.86-4.06 9-2.16 19.38-2.8 29.22a12.15 12.15 0 0 1-1.37 5.52c-2 3.3-6.1 4.14-10.1 4.32h3.5c4.66 0 10.2-.36 12.6-4.35a12.15 12.15 0 0 0 1.37-5.52c.65-9.84-1.25-20.23 2.8-29.22 1.22-2.7-6.6-7-5.8-9.86 2.82-9.84 3.53-17.62 3.5-27.88z"/><path d="M262.12 638.64l1.65 3.4 14.53-1.53 1-5.86-.56-.68c-1.55.76-13.16 6.35-16.62 4.66z"/><path d="M315.77 676.97s-3.57-5.6-5.6-4.08-2.83-4.6-4-3.57-4.58 3.86-6-.1c-1.1-3.16-13.2-23.15-18.1-31.2l-2.05-3.36s-13.76 6.88-17.07 4.6v4.84l2.8.26 15 28s4.72 7.5 4.4 10.13 6.05 14.1 7.07 14.85 12 13.5 12 13.5 5.6 27.53.76 35.18-13.25 13.25-13.25 13.25-2.53 7.4-2.16 8.16-2.94 4.08-1.4 5.1 3.57 8.15 3.57 8.15 7.14-11.47 11-13.25 8.8-25.24 8.8-25.24 1.4-13.82 1.52-22.74-.34-42.48 2.72-42.48z"/></g><path d="M315 676.97s-3.56-5.6-5.6-4.08-2.84-4.6-4-3.57-4.57 3.86-6-.1c-1.12-3.16-13.2-23.15-18.1-31.2l-2.05-3.36s-13.76 6.88-17.08 4.6v4.84l2.8.26 15 28s4.73 7.5 4.4 10.13 6 14.1 7.07 14.85 12 13.5 12 13.5 5.6 27.53.77 35.18a46.88 46.88 0 0 1-9.23 10.22 17.84 17.84 0 0 0-6 9.62 3.8 3.8 0 0 0-.18 1.6c.37.76-2.94 4.08-1.4 5.1s3.6 8.18 3.6 8.18 7.14-11.47 11-13.25 8.8-25.24 8.8-25.24 1.4-13.82 1.52-22.74-.33-42.54 2.67-42.54z" class="F"/><path d="M280.08 792.95s10.7 2 15 5.1-16.3-4.84-16.3-4.84zm25.75 27.15s11.17 9.3 9.17 17.7l-7.16 29.57zm-97.7-17.9s-15.74 1.72-14.72 3.76 14.72-1.88 14.72-1.88zM329 879.6s1 1.27-4.84 0-1.53-5.2-1.53-5.2zm-2 17.6s-8 1.27-12.3 0 12.3 0 12.3 0zm-16.46 68.82s-1.4-1.53-8.4 1.27-9.8 2.93-11.85 2 20.26-3.27 20.26-3.27zm7.78-166l-9.94 13.83s5.35-12.1 9.94-13.83zM299 672.9s-.43 4.6-6.84 6.38-7.63 3.24-7.63 3.24m-2.2-42.9s-8.46 6-17.3 4.73m23.74 123.75s2.47 1.55 8.4-5.23m53.2-66.67c.24-1.24-.62-2.4-1.43-3.36l-1.66-2a7.7 7.7 0 0 0-1.09-1.12c-1-.77-2.28-1-3.32-1.7" class="B"/><g class="D"><path d="M887.3 347.6s-84.2-5.08-74.3 53.92c0 0-2 10.43 7.48 15.16 0 0 .15-4.37 8.64-2.88a39.5 39.5 0 0 0 9.15.44 19.06 19.06 0 0 0 11.18-4.62s23.67-9.78 32.87-48.46c0 0 6.8-8.44 6.54-10.6l-14.2 6.07s4.86 10.25 1 18.77c0 0-.46-18.4-3.2-18-.55.1-7.38 3.55-7.38 3.55s8.35 17.85 2.05 30.83c0 0 2.4-22-4.66-29.54l-10 5.84s9.76 18.44 3.14 33.5c0 0 1.7-23.08-5.25-32.07l-9.06 7.07s9.17 18.18 3.58 30.66c0 0-.73-26.87-5.54-28.9 0 0-7.93 7-9.14 9.86 0 0 6.28 13.2 2.38 20.16 0 0-2.4-17.9-4.35-18 0 0-7.9 11.86-8.72 20 0 0 .34-12.1 6.8-21.12 0 0-7.64 1.3-12.1 6.26 0 0 1.23-8.38 14.05-9.1 0 0 6.53-9 8.27-9.55 0 0-12.74-1.06-20.47 2.36 0 0 6.8-7.9 22.8-4.3l8.95-7.3s-16.78-2.3-23.9.24c0 0 8.2-7 26.3-1.9l9.74-5.82s-14.3-3.08-22.83-2c0 0 9-4.85 25.7.4l7-3.13s-10.48-2.06-13.55-2.4-3.23-1.17-3.23-1.17a36.35 36.35 0 0 1 19.69 2.19s14.8-5.46 14.54-6.4zm-103.85 15s-38-2.3-33.55 24.36c0 0-.9 4.72 3.37 6.86 0 0 .07-2 3.9-1.3a17.51 17.51 0 0 0 4.13.2 8.57 8.57 0 0 0 5.05-2.09s10.7-4.4 14.86-21.9c0 0 3.07-3.82 2.95-4.8l-6.42 2.74s2.2 4.64.47 8.5c0 0-.2-8.32-1.44-8.12-.25 0-3.34 1.6-3.34 1.6s3.78 8.07.93 13.94c0 0 1.08-9.94-2.1-13.35l-4.52 2.64s4.42 8.33 1.42 15.13c0 0 .77-10.43-2.37-14.5l-4.1 3.23s4.14 8.22 1.62 13.85c0 0-.33-12.14-2.5-13.05 0 0-3.58 3.16-4.13 4.46 0 0 2.84 6 1.08 9.1 0 0-1.08-8.1-2-8.12 0 0-3.56 5.36-3.94 9a19.55 19.55 0 0 1 3.08-9.55 10.76 10.76 0 0 0-5.47 2.83s.56-3.78 6.35-4.12c0 0 3-4.06 3.74-4.3 0 0-5.76-.48-9.25 1.07 0 0 3.07-3.58 10.3-2l4-3.3s-7.58-1-10.8.1c0 0 3.7-3.16 11.9-.86l4.4-2.63s-6.46-1.4-10.32-.9c0 0 4.07-2.2 11.6.18l3.15-1.4s-4.74-.94-6.13-1.08-1.46-.53-1.46-.53a16.39 16.39 0 0 1 8.9 1s6.75-2.47 6.63-2.9z" class="B"/><ellipse ry="6.8" rx="40.21" cy="991.44" cx="916.19"/><path d="M932.82 980.32a11.64 11.64 0 0 0 3.83-5.79c.5-2.3-.48-5-2.68-5.9-2.46-.94-5.1.77-7.08 2.5s-4.28 3.7-6.88 3.32a10.5 10.5 0 0 0 3.24-9.81 4.12 4.12 0 0 0-.9-2c-1.37-1.46-3.84-.84-5.48.3-5.2 3.66-6.65 10.73-6.68 17.08-.52-2.3-.08-4.68-.1-7s-.66-5-2.65-6.23a7.91 7.91 0 0 0-4-.94c-2.33-.1-4.94.15-6.53 1.86-2 2.12-1.47 5.68.25 8s4.35 3.8 6.77 5.42a15 15 0 0 1 4.83 4.61 4.16 4.16 0 0 1 .36.83h14.66a40.77 40.77 0 0 0 9.03-6.26z"/></g></g></svg>