<?xml version="1.0" encoding="UTF-8" standalone="no"?>
<svg
   xmlns:dc="http://purl.org/dc/elements/1.1/"
   xmlns:cc="http://creativecommons.org/ns#"
   xmlns:rdf="http://www.w3.org/1999/02/22-rdf-syntax-ns#"
   xmlns:svg="http://www.w3.org/2000/svg"
   xmlns="http://www.w3.org/2000/svg"
   xmlns:xlink="http://www.w3.org/1999/xlink"
   xmlns:sodipodi="http://sodipodi.sourceforge.net/DTD/sodipodi-0.dtd"
   xmlns:inkscape="http://www.inkscape.org/namespaces/inkscape"
   id="b1ff9bb2-7f4f-4418-907c-98d09956747d"
   data-name="Layer 1"
   width="931.5"
   height="570.9715"
   viewBox="0 0 931.5 570.97149"
   version="1.1"
   sodipodi:docname="compass.svg"
   inkscape:version="0.92.4 (5da689c313, 2019-01-14)">
  <metadata
     id="metadata235">
    <rdf:RDF>
      <cc:Work
         rdf:about="">
        <dc:format>image/svg+xml</dc:format>
        <dc:type
           rdf:resource="http://purl.org/dc/dcmitype/StillImage" />
        <dc:title>circles</dc:title>
      </cc:Work>
    </rdf:RDF>
  </metadata>
  <sodipodi:namedview
     pagecolor="#ffffff"
     bordercolor="#666666"
     borderopacity="1"
     objecttolerance="10"
     gridtolerance="10"
     guidetolerance="10"
     inkscape:pageopacity="0"
     inkscape:pageshadow="2"
     inkscape:window-width="1360"
     inkscape:window-height="705"
     id="namedview233"
     showgrid="false"
     inkscape:zoom="0.69056605"
     inkscape:cx="617.99716"
     inkscape:cy="181.98471"
     inkscape:window-x="-5"
     inkscape:window-y="-8"
     inkscape:window-maximized="1"
     inkscape:current-layer="b1ff9bb2-7f4f-4418-907c-98d09956747d"
     fit-margin-top="0"
     fit-margin-left="0"
     fit-margin-right="0"
     fit-margin-bottom="0" />
  <defs
     id="defs10">
    <linearGradient
       id="fad104b9-db35-42fc-bc00-2b8a23207366"
       x1="543.53998"
       y1="713.89001"
       x2="543.53998"
       y2="413.48001"
       gradientTransform="matrix(-1,0,0,1,1022.18,0)"
       gradientUnits="userSpaceOnUse">
      <stop
         offset="0"
         stop-color="gray"
         stop-opacity="0.25"
         id="stop2" />
      <stop
         offset="0.54"
         stop-color="gray"
         stop-opacity="0.12"
         id="stop4" />
      <stop
         offset="1"
         stop-color="gray"
         stop-opacity="0.1"
         id="stop6" />
    </linearGradient>
    <linearGradient
       id="f2f9dedb-0f43-435f-9543-735f3db0009a"
       x1="527.53003"
       y1="653.29999"
       x2="615"
       y2="653.29999"
       gradientTransform="matrix(-1,0,0,1,1154.27,-211.3185)"
       xlink:href="#fad104b9-db35-42fc-bc00-2b8a23207366" />
    <linearGradient
       inkscape:collect="always"
       xlink:href="#fad104b9-db35-42fc-bc00-2b8a23207366"
       id="linearGradient2235"
       gradientUnits="userSpaceOnUse"
       gradientTransform="matrix(-1,0,0,1,952.18,-211.3185)"
       x1="543.53998"
       y1="713.89001"
       x2="543.53998"
       y2="413.48001" />
  </defs>
  <title
     id="title12">circles</title>
  <ellipse
     cx="811.5"
     cy="474.9715"
     rx="119.5"
     ry="24"
     stroke-miterlimit="10"
     id="ellipse14"
     style="fill:none;stroke:#444053;stroke-miterlimit:10" />
  <path
     d="m 360.54,283.7915 a 27.37,27.37 0 0 0 1.19,2.61 v 0.11 c 0,0 5.66,20.91 8.31,25.3 0.77,1.27 1.64,2.65 2.5,4 a 8.89,8.89 0 0 0 0,3 c 0.8,4.66 1.77,11.07 1.33,12.48 -0.44,1.41 0.53,4.92 -1,6.14 -1.53,1.22 -3.1,3.34 1.59,6.15 0,0 0.88,2.37 0.09,2.9 -0.09,0.06 0,0.19 0.22,0.36 -1.29,3.82 -3.18,10 -2,10.44 0.65,0.25 2.41,-0.67 4.34,-1.91 0.05,0.25 0.09,0.52 0.14,0.79 a 38.15,38.15 0 0 0 1.42,6.07 c 0.86,1.91 1.72,5.13 1.26,6.19 -0.46,1.06 1.26,3.42 0.86,4.35 -0.4,0.93 1.33,3.95 1.33,3.95 0,0 1.72,5.86 1.65,7.84 -0.07,1.98 1.86,14.75 1.86,14.75 0,0 -2,6.59 -1,8.5 1,1.91 1.65,8.5 0,10.94 -1.65,2.44 -3.72,7.83 -3.05,9.28 0.67,1.45 -0.93,19.37 3.11,26.75 a 82.26,82.26 0 0 1 1.13,8.3 c 0,2 3.18,7.31 3.18,7.31 0,0 -1.92,8 2.79,9.35 a 4.43,4.43 0 0 0 1,0.19 4.49,4.49 0 0 1 -0.34,2.58 10.2,10.2 0 0 0 -1.68,3.72 v 0 a 1,1 0 0 0 0.09,0.75 c 0.53,0.59 2,8.5 2,8.5 0,0 2.12,8.89 13.79,6.72 0,0 7.89,-0.46 7.23,-3.23 a 18.16,18.16 0 0 0 -0.86,-2.68 17.33,17.33 0 0 1 -0.74,-1.73 c -0.13,-0.66 -1.79,-2.51 -1.92,-3.76 -0.13,-1.25 -1.19,-3.69 -1,-4.48 0.19,-0.79 -1.79,-6.45 -1.93,-7.71 a 13.07,13.07 0 0 0 -0.75,-2.56 l 0.42,-0.2 c 0,0 1.06,-5.93 0.14,-8.1 -0.92,-2.17 -4.58,-5 -4.58,-5 0,0 0.53,-14.56 -0.13,-16.54 -0.66,-1.98 0.33,-9.48 0.33,-9.48 0,0 2.25,-10.61 2.12,-13 a 11,11 0 0 1 0.66,-4.35 c 0,0 1.4,-15.61 2.32,-17.59 0.92,-1.98 2,-21.34 2,-21.34 l 0.62,1.78 a 68.37,68.37 0 0 0 3.1,7.83 c 0.51,0.8 2,3.36 3.28,5.5 l 1.89,3.2 c 0,0 0.86,3.1 0.26,5 -0.6,1.9 6.17,12.18 6.17,12.18 a 6.09,6.09 0 0 0 -0.66,2.77 c 0.19,1 -2.06,4.15 -2.06,4.15 0,0 -0.86,2.83 -0.33,3.82 0.53,0.99 -0.86,6.85 -0.86,6.85 0,0 -2.26,12.91 -2.79,14.43 -0.53,1.52 0.27,11.92 0.27,11.92 0,0 -4.16,10.65 -2.23,14.19 0.08,1.31 0.09,3.31 -0.42,4.12 -0.69,1.08 -0.49,5.07 -0.42,6.17 0,0.19 0,0.29 0,0.29 0,0 -2.26,3 0.59,4.22 2.85,1.22 12.54,2.1 12.54,2.1 0,0 9.21,2.64 13.65,3.36 4.44,0.72 13.73,0.46 14.39,-2.24 a 7.21,7.21 0 0 0 0.24,-2.58 3.21,3.21 0 0 0 -1.83,-2.56 75.24,75.24 0 0 0 -8.36,-2.77 c 0,0 -4.38,-1 -4.78,-2.9 -0.4,-1.9 -6.63,-7.18 -6.63,-7.18 0,0 -0.07,-0.37 -0.2,-0.87 h 0.2 l -0.3,-0.3 c -0.31,-1 -0.81,-2.32 -1.42,-2.07 v 0 a 1.5,1.5 0 0 1 0.68,-2.06 c 2.39,-1.31 3.85,-5.46 3.18,-9.94 -0.67,-4.48 -0.79,-3.69 0.6,-6.26 a 12.3,12.3 0 0 0 1,-6.19 l 3.67,-13.68 a 20.7,20.7 0 0 0 1.06,-5.2 9.72,9.72 0 0 1 1.06,-4 c 0,0 1.66,-9.49 3.12,-11.66 1.46,-2.17 -1,-9.82 -1,-9.82 0,0 -2.25,-11.85 -2.12,-17.26 0.13,-5.41 -5.84,-24.17 -5.84,-24.17 a 6.28,6.28 0 0 1 -0.92,-4.09 c 0.12,-1.12 -0.58,-2.94 -1.37,-4.57 l -0.25,-0.51 a 4.43,4.43 0 0 1 1.09,-1 c 1.64,-1 2.41,-3.63 2.42,-5.48 l -22.61,-53.29 c 0,-0.16 10.47,-21.55 10.44,-21.71 -0.62,-3.51 -6.54,-12.82 -6.54,-12.82 v 0 a 0.75,0.75 0 0 0 -0.25,-0.29 c -1.33,-0.61 -5.83,-3.16 -5.83,-3.16 -3.53,-4.36 -6.84,-5.26 -9,-5.23 a 6.12,6.12 0 0 0 -2,0.31 4.41,4.41 0 0 0 -0.67,0.27 l -0.1,0.87 a 17.84,17.84 0 0 1 0.47,-6 c 0.05,-0.17 0.1,-0.35 0.14,-0.52 0.33,0 0.66,0 1,0 a 16.12,16.12 0 0 0 16.17,-16.07 16.32,16.32 0 0 0 -0.62,-4.45 l -0.08,-0.23 0.5,-0.22 c 2,-0.74 4.51,0.52 6.13,-0.82 a 4.65,4.65 0 0 0 1.22,-2.11 12.67,12.67 0 0 0 0.89,-3.35 c 0,-0.2 0,-0.4 0,-0.6 a 1.09,1.09 0 0 0 0,-0.18 1.7,1.7 0 0 0 0,-0.22 c 0,-0.09 0,-0.18 0,-0.27 0,-0.09 0,0 0,0 a 3.89,3.89 0 0 0 -0.86,-2 c -1.06,-1.24 -2.83,-1.54 -4.17,-2.45 a 10.09,10.09 0 0 1 -2.67,-3.13 11.64,11.64 0 0 0 -2.59,-3.19 3.81,3.81 0 0 0 -3.89,-0.61 4.39,4.39 0 0 1 -1.28,0.6 2.67,2.67 0 0 1 -1.41,-0.38 c -4.6,-2.15 -10,-1.77 -15,-1.13 a 19.51,19.51 0 0 0 -5.91,1.42 7,7 0 0 0 -4,4.33 c -0.41,1.55 -0.1,3.23 -0.59,4.76 -0.34,1 -1,1.92 -1.42,2.93 a 6,6 0 0 0 -0.38,1.65 v 0 c 0,0 0,0.11 0,0.16 -0.17,2.27 0.72,4.66 1.15,7 0.59,3.19 0.29,6.66 1.66,9.68 a 5.79,5.79 0 0 0 0.52,1.06 c -0.48,1 -1,2.06 -1.5,3.05 -0.74,-0.21 -3,-0.71 -3.08,1.27 a 10.78,10.78 0 0 1 -1.1,4.64 3.29,3.29 0 0 1 -0.33,0.23 0.64,0.64 0 0 0 -0.37,0.65 v 0 l -0.26,0.2 a 0.64,0.64 0 0 0 -0.32,0.11 c -0.14,-0.24 -0.6,-0.26 -2.06,1.48 a 28.1,28.1 0 0 1 -6.63,5.1 c 0,0 -9.82,6.85 -10.35,10 -0.53,3.15 -3.81,16.91 -2.13,21.48 z m 43.12,-33.42 c 0,0 0,-0.07 0,-0.11 l 0.12,0.06 z m 26.68,224 a 2.14,2.14 0 0 1 -0.84,0.17 z"
     id="path16"
     inkscape:connector-curvature="0"
     style="fill:url(#linearGradient2235)" />
  <path
     d="m 407.73,502.2315 c -11.53,2.16 -13.63,-6.68 -13.63,-6.68 0,0 -1.44,-7.86 -2,-8.45 a 1,1 0 0 1 -0.09,-0.75 v 0 a 10.24,10.24 0 0 1 1.66,-3.7 c 0.72,-0.85 0.13,-4.39 0.13,-4.39 l 13.36,-3.4 a 20.05,20.05 0 0 1 1.31,3.93 c 0.14,1.24 2.1,6.88 1.9,7.66 -0.2,0.78 0.86,3.21 1,4.46 0.14,1.25 1.77,3.08 1.9,3.73 a 14,14 0 0 0 0.72,1.73 16.83,16.83 0 0 1 0.85,2.66 c 0.68,2.74 -7.11,3.2 -7.11,3.2 z"
     id="path18"
     inkscape:connector-curvature="0"
     style="fill:#444053" />
  <path
     d="m 407.73,502.2315 c -11.53,2.16 -13.63,-6.68 -13.63,-6.68 0,0 -1.44,-7.86 -2,-8.45 a 1,1 0 0 1 -0.09,-0.75 l 2.77,8 c 0,0 2.3,4.79 10.81,4.06 4.85,-0.4 7.23,-1.3 8.39,-2 a 16.83,16.83 0 0 1 0.85,2.66 c 0.69,2.7 -7.1,3.16 -7.1,3.16 z"
     id="path20"
     inkscape:connector-curvature="0"
     style="opacity:0.1" />
  <path
     d="m 398.75,489.7815 c 0,0 2.89,0.07 3.08,-2.29 z"
     id="path22"
     inkscape:connector-curvature="0"
     style="opacity:0.1" />
  <path
     d="m 448.87,412.3515 c -1.44,2.16 -3.08,11.59 -3.08,11.59 a 9.92,9.92 0 0 0 -1,4 20.26,20.26 0 0 1 -1,5.18 l -3.79,13.56 a 12.27,12.27 0 0 1 -1,6.15 c -1.37,2.56 -1.24,1.77 -0.59,6.23 0.65,4.46 -0.78,8.58 -3.14,9.89 -2.36,1.31 1.05,4.39 1.05,4.39 0,0 -15.07,4.06 -18.22,1.57 -3.15,-2.49 1.64,-14.8 1.64,-14.8 0,0 -0.78,-10.35 -0.26,-11.86 0.52,-1.51 2.75,-14.35 2.75,-14.35 0,0 1.38,-5.83 0.85,-6.81 -0.53,-0.98 0.33,-3.8 0.33,-3.8 0,0 2.23,-3.15 2,-4.13 a 6.16,6.16 0 0 1 0.66,-2.75 c 0,0 -6.68,-10.22 -6.1,-12.12 0.58,-1.9 -0.26,-5 -0.26,-5 0,0 -0.84,-1.45 -1.86,-3.18 -1.24,-2.13 -2.74,-4.67 -3.25,-5.47 a 69.83,69.83 0 0 1 -3.05,-7.78 l -0.62,-1.78 c 0,0 -1,19.26 -2,21.22 -1,1.96 -2.29,17.5 -2.29,17.5 a 10.88,10.88 0 0 0 -0.66,4.32 c 0.13,2.42 -2.1,13 -2.1,13 0,0 -1,7.47 -0.32,9.44 0.68,1.97 0.13,16.44 0.13,16.44 0,0 3.6,2.82 4.52,5 0.92,2.18 -0.13,8.06 -0.13,8.06 0,0 -10.48,5.24 -15.14,3.86 -4.66,-1.38 -2.75,-9.3 -2.75,-9.3 0,0 -3.14,-5.24 -3.14,-7.27 a 82.19,82.19 0 0 0 -1.12,-8.26 c -4,-7.34 -2.42,-25.15 -3.07,-26.6 -0.65,-1.45 1.37,-6.81 3,-9.23 1.63,-2.42 1,-9 0,-10.88 -1,-1.88 1,-8.45 1,-8.45 0,0 -1.9,-12.71 -1.83,-14.67 0.07,-1.96 -1.64,-7.8 -1.64,-7.8 0,0 -1.7,-3 -1.31,-3.93 0.39,-0.93 -1.31,-3.28 -0.85,-4.32 0.46,-1.04 -0.4,-4.26 -1.25,-6.16 a 39.49,39.49 0 0 1 -1.4,-6 c -0.4,-2.26 -0.69,-4.25 -0.69,-4.25 l 10.81,-8.71 27,-7.08 10.24,-3.33 9.89,15.59 c 0,0 1,1.63 1.93,3.51 0.78,1.62 1.47,3.43 1.35,4.55 a 6.27,6.27 0 0 0 0.92,4.06 c 0,0 5.89,18.67 5.76,24 -0.13,5.33 2.1,17.17 2.1,17.17 0,0 2.42,7.63 0.98,9.79 z"
     id="path24"
     inkscape:connector-curvature="0"
     style="fill:#3f3d56" />
  <path
     d="m 388.21,422.1115 c 0,0 11.53,-4.91 14.93,-1.44 3.4,3.47 -14.93,1.44 -14.93,1.44 z"
     id="path26"
     inkscape:connector-curvature="0"
     style="opacity:0.1" />
  <path
     d="m 394.69,424.0715 c 0,0 -11.69,6.61 -7.69,7.67 4,1.06 7.69,-7.67 7.69,-7.67 z"
     id="path28"
     inkscape:connector-curvature="0"
     style="opacity:0.1" />
  <path
     d="m 429.54,418.3815 c 0,0 -5,0.32 -3.08,1.31 1.92,0.99 3.08,-1.31 3.08,-1.31 z"
     id="path30"
     inkscape:connector-curvature="0"
     style="opacity:0.1" />
  <path
     d="m 435.77,419.8815 c -0.07,0.33 -14.48,5 -11.66,7.08 2.82,2.08 11.66,-7.08 11.66,-7.08 z"
     id="path32"
     inkscape:connector-curvature="0"
     style="opacity:0.1" />
  <path
     d="m 389.91,459.9715 c 2.16,-0.32 14.22,-5.89 9.5,-1.89 a 9.4,9.4 0 0 1 -9.5,1.89 z"
     id="path34"
     inkscape:connector-curvature="0"
     style="opacity:0.1" />
  <path
     d="m 395.87,464.3615 c 0,0 1.05,4.07 5.05,3.54 4,-0.53 -5.05,-3.54 -5.05,-3.54 z"
     id="path36"
     inkscape:connector-curvature="0"
     style="opacity:0.1" />
  <path
     d="m 392.53,472.6215 c 0.72,-0.2 9.3,-4.13 9.5,-2.29 0.2,1.84 -8.19,5 -8.84,4.06 a 3.52,3.52 0 0 1 -0.66,-1.77 z"
     id="path38"
     inkscape:connector-curvature="0"
     style="opacity:0.1" />
  <path
     d="m 420.31,467.9015 c 1,-0.06 10.87,-3.21 12.84,-0.39 z"
     id="path40"
     inkscape:connector-curvature="0"
     style="opacity:0.1" />
  <path
     d="m 429.22,469.7415 c 0,0 1.7,-1.51 3.4,-0.72 1.7,0.79 -3.4,0.72 -3.4,0.72 z"
     id="path42"
     inkscape:connector-curvature="0"
     style="opacity:0.1" />
  <path
     d="m 407.47,485.9815 a 2.92,2.92 0 0 0 2.22,2.3 z"
     id="path44"
     inkscape:connector-curvature="0"
     style="opacity:0.1" />
  <path
     d="m 457.45,492.1415 c -0.65,2.69 -9.83,2.95 -14.21,2.23 -4.38,-0.72 -13.5,-3.34 -13.5,-3.34 0,0 -9.56,-0.92 -12.38,-2.1 -2.82,-1.18 -0.59,-4.19 -0.59,-4.19 0,0 0,-0.1 0,-0.28 -0.07,-1.1 -0.26,-5.07 0.41,-6.14 0.79,-1.25 0.33,-5.31 0.33,-5.31 0,0 13.56,2.62 13.82,1.38 0.26,-1.24 2.36,-3 3.34,-3.41 0.98,-0.41 1.71,3.28 1.71,3.28 0,0 6.16,5.24 6.55,7.14 0.39,1.9 4.71,2.88 4.71,2.88 a 73.26,73.26 0 0 1 8.26,2.75 3.18,3.18 0 0 1 1.81,2.54 7.14,7.14 0 0 1 -0.26,2.57 z"
     id="path46"
     inkscape:connector-curvature="0"
     style="fill:#444053" />
  <path
     d="m 457.45,492.1415 c -0.65,2.69 -9.83,2.95 -14.21,2.23 -4.38,-0.72 -13.5,-3.34 -13.5,-3.34 0,0 -9.56,-0.92 -12.38,-2.1 -2.82,-1.18 -0.59,-4.19 -0.59,-4.19 0,0 0,-0.1 0,-0.28 l 13.71,3 c 0,0 6.75,2.88 11.07,2.88 3.78,0 12.23,1.55 16.16,-0.8 a 7.14,7.14 0 0 1 -0.26,2.6 z"
     id="path48"
     inkscape:connector-curvature="0"
     style="opacity:0.1" />
  <path
     d="m 438.91,481.7915 c 0,0 -0.65,4.32 -3.27,5.77 z"
     id="path50"
     inkscape:connector-curvature="0"
     style="opacity:0.1" />
  <path
     d="m 480.9,322.5515 c -3.9,1.48 -12.9,1.64 -16.9,1.64 -1.22,0 -2,0 -2,0 l -2.57,-5.24 2.57,-4.37 c 0,0 2.36,-0.65 5.5,-1.22 4.63,-0.83 11,-1.48 14,0.39 5.04,3.13 4.5,6.93 -0.6,8.8 z"
     id="path52"
     inkscape:connector-curvature="0"
     style="fill:#a1616a" />
  <path
     d="m 421.33,259.8415 1.14,-1.31 c 0,0 5.85,9.26 6.46,12.75 0.61,3.49 1.4,7.51 1.4,7.51 0,0 1.48,4.54 2.45,6.55 a 22.15,22.15 0 0 1 1.92,4.81 c 0.08,0.87 -0.35,2.79 1.48,4 1.83,1.21 2.27,4.54 2.27,4.54 0,0 6.64,6.46 10.14,6.64 3.5,0.18 13.53,1.92 13.19,3.66 -0.34,1.74 4.19,2.8 6,3.24 1.81,0.44 -11.78,5.69 -3.78,12.45 0,0 -5.07,1 -5.59,2.27 -0.52,1.27 -5.85,-0.7 -5.85,-0.7 0,0 -1.14,-2.71 -5.07,-2.88 -3.93,-0.17 -5.94,-1.92 -5.94,-2.18 0,-0.26 -3.93,-2.45 -6.11,-3.06 -2.18,-0.61 -5.07,-0.87 -5.16,-1.49 -0.09,-0.62 -13.1,-56.77 -13.1,-56.77 z"
     id="path54"
     inkscape:connector-curvature="0"
     style="fill:#d37e01" />
  <path
     d="m 421.33,260.0615 1.14,-1.31 c 0,0 5.85,9.26 6.46,12.76 0.61,3.5 1.4,7.51 1.4,7.51 0,0 1.48,4.54 2.45,6.55 a 22.32,22.32 0 0 1 1.92,4.8 c 0.08,0.88 -0.35,2.8 1.48,4 1.83,1.2 2.27,4.54 2.27,4.54 0,0 6.64,6.47 10.14,6.64 3.5,0.17 13.53,1.92 13.19,3.67 -0.34,1.75 4.19,2.8 6,3.23 1.81,0.43 -11.78,5.7 -3.78,12.43 0,0 -5.07,1 -5.59,2.27 -0.52,1.27 -5.85,-0.7 -5.85,-0.7 0,0 -1.14,-2.71 -5.07,-2.88 -3.93,-0.17 -5.94,-1.92 -5.94,-2.19 0,-0.27 -3.93,-2.44 -6.11,-3.05 -2.18,-0.61 -5.07,-0.88 -5.16,-1.49 -0.09,-0.61 -13.1,-56.78 -13.1,-56.78 z"
     id="path56"
     inkscape:connector-curvature="0"
     style="opacity:0.05" />
  <path
     d="m 555,497.4615 c 66,0 119.5,10.75 119.5,24 0,13.25 -53.5,24 -119.5,24 -66,0 -119.5,-10.74 -119.5,-24"
     stroke-miterlimit="10"
     id="path58"
     inkscape:connector-curvature="0"
     style="fill:none;stroke:#444053;stroke-miterlimit:10" />
  <rect
     x="506.35654"
     y="-85.916534"
     width="17.09"
     height="127.07"
     transform="rotate(9.63)"
     id="rect60"
     style="fill:#444053" />
  <polygon
     points="557.28,597.69 550.34,598.75 554.08,625.45 "
     id="polygon62"
     style="fill:#d0d2d5"
     transform="translate(0,-93.098504)" />
  <polygon
     points="433.94,614.77 436.61,614.77 439.82,599.29 441.42,580.6 430.2,583.8 430.2,600.36 "
     id="polygon64"
     style="fill:#3f3d56"
     transform="translate(0,-93.098504)" />
  <path
     d="m 422.59,426.1015 8,1.6 c 0,0 -9.07,25.09 -2.67,30.43 h -10.13 c 0,0 -3.74,-19.22 4.8,-32.03 z"
     id="path66"
     inkscape:connector-curvature="0"
     style="fill:#d0d2d5" />
  <path
     d="m 422.59,426.1015 8,1.6 c 0,0 -9.07,25.09 -2.67,30.43 h -10.13 c 0,0 -3.74,-19.22 4.8,-32.03 z"
     id="path68"
     inkscape:connector-curvature="0"
     style="opacity:0.1" />
  <path
     d="m 476.12,124.4315 -25.63,162.31 c 0,0 -37.9,173 -23.49,207.17 h 18.16 l 54.46,-332.1 z"
     id="path70"
     inkscape:connector-curvature="0"
     style="fill:#d0d2d5" />
  <path
     d="m 541.12,104.2715 19.65,163.14 c 0,0 14.31,207.83 -1.36,241.44 h -15.48 l -27.66,-368.09 z"
     id="path72"
     inkscape:connector-curvature="0"
     style="fill:#d0d2d5" />
  <path
     d="m 473.73,65.131496 a 21,21 0 0 1 20.71,-15 c 15.81,0.4 40.25,3.28 53,16.34 19.76,20.29 -13.35,88.630004 -13.35,88.630004 0,0 -31,57.13 -59.26,-15.48 -0.04,0.06 -11.76,-38.82 -1.1,-74.490004 z"
     id="path74"
     inkscape:connector-curvature="0"
     style="fill:#444053" />
  <path
     d="m 473.73,65.131496 a 21,21 0 0 1 20.71,-15 c 15.81,0.4 40.25,3.28 53,16.34 19.76,20.29 -13.35,88.630004 -13.35,88.630004 0,0 -31,57.13 -59.26,-15.48 -0.04,0.06 -11.76,-38.82 -1.1,-74.490004 z"
     id="path76"
     inkscape:connector-curvature="0"
     style="opacity:0.1" />
  <path
     d="m 484.6,79.011496 a 15,15 0 0 1 14.75,-10.66 c 11.25,0.29 28.65,2.34 37.7,11.64 14.07,14.44 -9.5,63.100004 -9.5,63.100004 0,0 -22,40.67 -42.2,-11 0,-0.03 -8.35,-27.68 -0.75,-53.080004 z"
     id="path78"
     inkscape:connector-curvature="0"
     style="fill:#444053" />
  <path
     d="m 539.33,494.8015 c 0.17,2.58 0.57,5.29 2.2,7.31 2.7,3.34 7.61,3.6 11.81,4.65 a 52,52 0 0 1 9.34,3.68 l 9.09,4.3 a 23.69,23.69 0 0 0 -6.82,1.42 c -1.17,0.43 -2.45,1.14 -2.62,2.36 a 2.52,2.52 0 0 0 1.51,2.42 7.12,7.12 0 0 0 3,0.53 100.83,100.83 0 0 0 16.2,-0.85 l 0.64,-0.09 q 4.14,2.05 8.24,4.19 c 1.14,0.6 2.51,0 3.47,-0.84 a 18.4,18.4 0 0 0 3.08,-3.52 c 0.16,0.28 0.32,0.55 0.45,0.82 0.88,1.69 1.71,3.9 0.45,5.34 -1,1.12 -2.89,1.31 -3.46,2.67 a 2.41,2.41 0 0 0 0.93,2.71 6.16,6.16 0 0 0 2.91,1 25.83,25.83 0 0 0 7.45,-0.06 6,6 0 0 0 3.6,-1.53 6.6,6.6 0 0 0 1.28,-4 l 1.71,-19.43 a 5.83,5.83 0 0 0 -0.2,-2.76 c -0.68,-1.65 -2.65,-2.34 -4.43,-2.63 h -0.19 c 1.48,0 3,-0.07 4.6,-0.07 a 11,11 0 0 0 4.12,-0.52 c 2.54,-1 3.91,-3.67 5,-6.13 2,-4.32 4.3,-9 4,-13.8 l -0.78,-0.35 c -0.07,-5.11 -2.21,-9.88 -3,-14.87 a 8.28,8.28 0 0 0 1.33,-4.5 16.64,16.64 0 0 0 -1.13,-5.12 c -3.17,-9.42 -6.34,-18.87 -10.58,-27.87 a 96.41,96.41 0 0 0 -10,-17 q -1.53,-2 -3.18,-4 c -0.8,-0.92 -2.59,-2.22 -2.92,-3.39 -0.33,-1.17 0.37,-2.31 0,-3.51 a 5.94,5.94 0 0 0 -0.36,-0.91 c 2.34,-3.1 1.68,-7.58 0.86,-11.44 l -1,-4.81 a 13,13 0 0 0 -1.24,-3.81 11.13,11.13 0 0 0 -2.39,-2.71 c -4.92,-4.44 -11,-7.39 -16.53,-11.07 -5.85,-3.89 -11.08,-8.62 -16.32,-13.29 -1.6,-1.42 -3.61,-2.95 -5.68,-2.35 -2.07,0.6 -2.93,2.84 -3,4.88 a 10.06,10.06 0 0 0 3.25,7.54 c 3.62,3.31 9.09,3.58 13.4,5.92 a 31.35,31.35 0 0 1 4.21,2.93 l 12.52,9.83 a 4.35,4.35 0 0 1 1.95,2.54 4.09,4.09 0 0 1 -0.3,1.88 c -0.47,1.44 -1.27,3.25 -1.86,5.08 l -1,-0.72 a 39.2,39.2 0 0 0 -6.63,-4 32.91,32.91 0 0 0 -9.71,-2.33 c -7.39,-0.83 -14,0.31 -18.52,6.48 a 13.7,13.7 0 0 1 -3.51,3.61 13,13 0 0 0 -2.85,1.81 c -2.32,2.57 -1,6.83 1.18,9 a 14,14 0 0 0 6.58,3.43 13.52,13.52 0 0 0 16.42,7.36 20.1,20.1 0 0 1 0.09,3.88 4.47,4.47 0 0 0 1.41,3.59 5.88,5.88 0 0 0 1.72,0.8 26.39,26.39 0 0 1 6.23,3.25 32,32 0 0 0 -5.52,8.25 13.42,13.42 0 0 0 1,12.48 l 0.06,0.08 a 4.14,4.14 0 0 1 -0.91,1.68 3,3 0 0 1 -4.13,-0.42 15.72,15.72 0 0 1 -2.16,-3.33 13.94,13.94 0 0 0 -9,-6.36 7.23,7.23 0 0 0 -4.15,0.17 3.66,3.66 0 0 0 -2.41,3.12 c 0,1.51 1.1,2.76 2.18,3.83 a 63.59,63.59 0 0 0 11,9.1 35.41,35.41 0 0 0 3.37,1.84 q -3,-0.63 -5.92,-1.23 a 26.77,26.77 0 0 0 -8.35,-0.73 9.32,9.32 0 0 0 -7,4.08 9,9 0 0 0 -0.65,6.8 22.86,22.86 0 0 0 3.07,6.3 44.85,44.85 0 0 0 7.67,9.6 c -2.5,0.75 -5,1.57 -7.44,2.47 -2.44,0.9 -5,2 -6.12,4.24 a 9.72,9.72 0 0 0 -0.61,5.1 z m 36.81,-34 h 0.09 a 3.13,3.13 0 0 0 1.31,-1.11 18.14,18.14 0 0 0 3.16,-6.84 7.71,7.71 0 0 0 1.7,-0.43 3.8,3.8 0 0 0 -1.18,2.76 l 5.64,2.76 a 2.1,2.1 0 0 1 1,0.79 2,2 0 0 1 0.11,1.18 c -0.16,1.29 -0.41,2.58 -0.57,3.86 -1.69,-0.5 -3.35,-0.9 -4.84,-1.3 -2.12,-0.58 -4.27,-1.12 -6.42,-1.66 z"
     id="path80"
     inkscape:connector-curvature="0"
     style="fill:url(#f2f9dedb-0f43-435f-9543-735f3db0009a)" />
  <path
     d="m 577.19,407.6815 a 10.81,10.81 0 0 0 8.4,-1.35 5.15,5.15 0 0 1 1.63,-0.76 3.32,3.32 0 0 1 2.78,1.11 c 2.4,2.39 2.68,6.33 1.44,9.48 -1.24,3.15 -3.73,5.63 -6.34,7.78 a 57.55,57.55 0 0 1 -6.67,4.74 12.36,12.36 0 0 0 -6.84,-6.65 c -2.74,-1.06 -4.74,-3.9 -6.31,-6.38 -1.17,-1.84 -2.21,-1.76 -1.16,-3.66 a 27.68,27.68 0 0 1 4.16,-5 16.25,16.25 0 0 0 2.24,-3 c 0.7,-1.26 0.54,-2.08 1.62,-1.08 0.71,0.66 1,2.09 1.82,2.86 a 8,8 0 0 0 3.23,1.91 z"
     id="path82"
     inkscape:connector-curvature="0"
     style="fill:#fabdbd" />
  <path
     d="m 585.78,388.1815 a 4.23,4.23 0 0 0 0.29,-1.85 4.34,4.34 0 0 0 -1.91,-2.51 l -12.23,-9.7 a 30,30 0 0 0 -4.1,-2.89 c -4.22,-2.31 -9.55,-2.58 -13.09,-5.84 a 10.05,10.05 0 0 1 -3.18,-7.45 c 0,-2 1,-4.26 2.89,-4.82 1.89,-0.56 4,0.92 5.56,2.33 5.11,4.6 10.21,9.27 15.92,13.11 5.4,3.64 11.35,6.54 16.16,10.93 a 10.88,10.88 0 0 1 2.23,2.61 13.4,13.4 0 0 1 1.21,3.77 l 1,4.74 c 0.84,4 1.52,8.65 -1.17,11.72 a 4.27,4.27 0 0 1 -3.26,1.61 6.42,6.42 0 0 1 -2.51,-0.86 c -2,-1 -5.62,-2 -6.23,-4.5 -0.78,-3.13 1.47,-7.5 2.42,-10.4 z"
     id="path84"
     inkscape:connector-curvature="0"
     style="fill:#fabdbd" />
  <path
     d="m 566.27,450.6815 a 16,16 0 0 1 -2.11,-3.28 13.61,13.61 0 0 0 -8.78,-6.28 7.06,7.06 0 0 0 -4,0.16 3.61,3.61 0 0 0 -2.35,3.09 c 0,1.48 1.07,2.72 2.12,3.77 a 62,62 0 0 0 10.76,9 28.38,28.38 0 0 0 13.09,4.54 3.3,3.3 0 0 0 1.4,-0.13 3.13,3.13 0 0 0 1.28,-1.09 c 2.48,-3.18 3.34,-7.31 4,-11.28 -0.24,1.43 -8.29,-1.91 -9.2,-1.48 -1.34,0.63 -1.21,2.51 -2.18,3.41 a 2.89,2.89 0 0 1 -4.03,-0.43 z"
     id="path86"
     inkscape:connector-curvature="0"
     style="fill:#fabdbd" />
  <path
     d="m 624.92,482.1015 a 2.65,2.65 0 0 1 -0.28,1.45 c -0.55,0.86 -1.79,0.87 -2.8,0.72 a 51.18,51.18 0 0 1 -6.89,-1.66 l -20.53,-5.93 a 1.87,1.87 0 0 1 -0.88,-0.43 1.82,1.82 0 0 1 -0.41,-0.9 24.15,24.15 0 0 1 -0.45,-9 2.4,2.4 0 0 1 0.41,-1.21 2.42,2.42 0 0 1 1.7,-0.64 87,87 0 0 1 9.68,-0.44 48.85,48.85 0 0 0 6.29,-0.14 c 2.7,-0.32 5.81,-1.87 8.52,-1.63 2.35,0.2 2.25,2 2.49,4 0.67,5.31 3.1,10.39 3.15,15.81 z"
     id="path88"
     inkscape:connector-curvature="0"
     style="fill:#fabdbd" />
  <path
     d="m 559.37,457.7315 a 25.61,25.61 0 0 0 -8.16,-0.73 9.08,9.08 0 0 0 -6.83,4 8.89,8.89 0 0 0 -0.64,6.72 23.25,23.25 0 0 0 3,6.21 40.83,40.83 0 0 0 8.77,10.56 c 1.75,1.39 3.68,2.54 5.36,4 3.58,3.13 5.8,7.5 7.93,11.75 2,4 4,8.08 4.86,12.48 a 1.25,1.25 0 0 0 0.43,0.89 1.19,1.19 0 0 0 0.89,0.06 l 9.85,-1.82 a 1.54,1.54 0 0 0 1.38,-2.34 68.92,68.92 0 0 0 -11.75,-25.41 22.55,22.55 0 0 0 19.82,5.74 7.74,7.74 0 0 0 3.76,-1.63 c 2.2,-2 2.1,-5.41 1.61,-8.32 a 61.07,61.07 0 0 0 -1.82,-7.67 c -1.85,-6 -9.83,-7.62 -15.24,-9.08 q -11.52,-3.05 -23.22,-5.41 z"
     id="path90"
     inkscape:connector-curvature="0"
     style="fill:#3f3d56" />
  <path
     d="m 566.66,478.9915 a 10.83,10.83 0 0 1 3.74,2.48 c -1.77,-2 -6.83,-3 -9.31,-3.93 -3.07,-1.14 -6.42,-2.31 -9,-4.34 a 107.88,107.88 0 0 1 14.57,5.79 z"
     id="path92"
     inkscape:connector-curvature="0"
     style="opacity:0.1" />
  <path
     d="m 598.56,521.1415 c 0.85,1.68 1.66,3.85 0.44,5.28 -0.94,1.1 -2.82,1.29 -3.38,2.63 a 2.39,2.39 0 0 0 0.91,2.68 5.88,5.88 0 0 0 2.84,1 25.37,25.37 0 0 0 7.28,-0.06 5.84,5.84 0 0 0 3.51,-1.51 6.58,6.58 0 0 0 1.25,-4 l 1.67,-19.18 a 6,6 0 0 0 -0.19,-2.73 c -0.67,-1.63 -2.59,-2.3 -4.33,-2.59 a 23.24,23.24 0 0 0 -5.89,-0.24 6.22,6.22 0 0 0 -3.67,1.26 7.09,7.09 0 0 0 -1.73,4 c -0.45,2.28 -1.71,5.44 -1.44,7.75 0.17,1.91 1.89,4.03 2.73,5.71 z"
     id="path94"
     inkscape:connector-curvature="0"
     style="fill:#d37e01" />
  <path
     d="m 576.48,514.9415 a 23.35,23.35 0 0 0 -11.11,1.25 c -1.14,0.42 -2.39,1.13 -2.56,2.33 a 2.49,2.49 0 0 0 1.48,2.39 7,7 0 0 0 2.94,0.53 99.64,99.64 0 0 0 15.82,-0.84 8.51,8.51 0 0 0 3.85,-1.21 3,3 0 0 0 1.21,-3.56 c -0.63,-1.32 -2.35,-1.73 -3.18,-2.92 -0.6,-0.86 -0.75,-2.13 -1.69,-2.58 a 2.89,2.89 0 0 0 -2.15,0.16 c -1,0.35 -3.4,0.7 -4.09,1.53 a 11.49,11.49 0 0 0 -0.52,2.92 z"
     id="path96"
     inkscape:connector-curvature="0"
     style="fill:#d37e01" />
  <circle
     cx="562.32001"
     cy="405.0415"
     r="13.13"
     id="circle98"
     style="fill:#fabdbd" />
  <path
     d="m 593.46,399.2615 c -2.11,-1.55 -4.77,-2.08 -7.34,-2.56 a 3.84,3.84 0 0 0 -2.64,0.13 3.9,3.9 0 0 0 -1.27,1.56 14.52,14.52 0 0 0 -1.74,4.15 4.82,4.82 0 0 0 1,4.23 c 0.78,0.8 1.9,1.2 2.7,2 a 5,5 0 0 1 1.18,4.32 12.93,12.93 0 0 1 -1.75,4.27 72.33,72.33 0 0 1 -6.58,9.68 c -2.55,3.17 -5.41,6.22 -6.91,10 a 13.38,13.38 0 0 0 1,12.32 c 2.43,3.54 7.27,5.44 11.28,3.91 a 3.72,3.72 0 0 0 -1.14,2.72 l 5.5,2.73 a 2.08,2.08 0 0 1 1,0.78 2,2 0 0 1 0.1,1.16 36.47,36.47 0 0 0 -0.67,6.73 c 0.15,2.25 1.18,4.62 3.22,5.6 1.87,0.9 4.09,0.42 6.13,0 a 76.53,76.53 0 0 1 14.47,-1.52 c 2.42,0 4.92,0.06 7.15,-0.88 a 8.5,8.5 0 0 0 5.07,-7.69 16.4,16.4 0 0 0 -1.11,-5.06 c -3.09,-9.3 -6.19,-18.62 -10.33,-27.51 a 96.65,96.65 0 0 0 -9.81,-16.8 c -1,-1.33 -2,-2.64 -3.11,-3.91 -0.78,-0.91 -2.53,-2.19 -2.85,-3.35 -0.32,-1.16 0.36,-2.28 0,-3.46 a 7,7 0 0 0 -2.55,-3.55 z"
     id="path100"
     inkscape:connector-curvature="0"
     style="fill:#d37e01" />
  <path
     d="m 625.68,482.3715 c -5.76,-2.66 -11.52,-5.32 -17.51,-7.39 -4.41,-1.52 -9.33,-2.71 -13.66,-1 -1.3,0.52 -2.48,1.27 -3.73,1.88 -4.19,2 -9,2.34 -13.63,2.85 a 128,128 0 0 0 -30.15,7.17 c -2.33,0.86 -4.84,2 -6,4.18 a 9.57,9.57 0 0 0 -0.64,5 c 0.17,2.55 0.56,5.23 2.15,7.22 2.64,3.3 7.43,3.55 11.53,4.59 a 50.53,50.53 0 0 1 9.13,3.64 c 9.58,4.57 19.17,9.14 28.57,14.09 1.1,0.59 2.44,0 3.38,-0.83 a 20.79,20.79 0 0 0 5.9,-9.72 41.94,41.94 0 0 0 1.5,-11.38 c 3.68,0 6.67,-0.16 10.35,-0.16 a 10.7,10.7 0 0 0 4,-0.51 c 2.47,-1 3.81,-3.63 4.92,-6.05 1.98,-4.27 4.21,-8.9 3.89,-13.58 z"
     id="path102"
     inkscape:connector-curvature="0"
     style="fill:#3f3d56" />
  <path
     d="m 558.8,496.0415 c 2.59,-1.26 5.59,-1.29 8.48,-1.27 a 28.06,28.06 0 0 1 5.26,0.4 41.53,41.53 0 0 1 7.69,2.89 48.82,48.82 0 0 0 19.38,3.8"
     id="path104"
     inkscape:connector-curvature="0"
     style="opacity:0.1" />
  <path
     d="m 543.86,406.9015 a 14.32,14.32 0 0 0 7.08,3.55 c 2.6,0.6 5.28,0.83 7.9,1.41 3.22,0.71 6.74,2.41 7.47,5.63 a 18.7,18.7 0 0 1 0.1,3.89 4.41,4.41 0 0 0 1.35,3.51 6,6 0 0 0 1.68,0.79 28,28 0 0 1 18,25.84 12.73,12.73 0 0 0 6.18,-9.12 c 0,3.48 3,7 1.3,10.11 a 16,16 0 0 0 3.85,-23.25 c -1.32,-1.68 -3,-3.08 -4.38,-4.69 a 21.74,21.74 0 0 1 -5.18,-16.6 c 0.29,-2.53 1,-5.09 0.47,-7.58 -0.77,-3.45 -3.8,-5.85 -6.68,-7.9 a 38.39,38.39 0 0 0 -6.48,-3.94 31.86,31.86 0 0 0 -9.49,-2.31 c -7.21,-0.81 -13.62,0.31 -18.09,6.4 a 13.17,13.17 0 0 1 -3.42,3.56 12.89,12.89 0 0 0 -2.79,1.79 c -2.29,2.54 -0.99,6.74 1.13,8.91 z"
     id="path106"
     inkscape:connector-curvature="0"
     style="fill:#3f3d56" />
  <path
     d="m 409,260.4915 c -0.41,-0.17 -28.91,-11.94 -25,-14.28 2.33,-1.39 5.2,-7.27 7.16,-11.88 1.37,-3.21 2.3,-5.81 2.3,-5.81 0,0 22.88,-4.06 14.69,10 a 26.09,26.09 0 0 0 -2.89,6.91 c -2.36,9.5 3.51,14.88 3.74,15.06 z"
     id="path108"
     inkscape:connector-curvature="0"
     style="fill:#a1616a" />
  <path
     d="m 408.12,238.4815 a 26.09,26.09 0 0 0 -2.89,6.91 16,16 0 0 1 -13.5,-9.5 14,14 0 0 1 -0.6,-1.56 c 1.37,-3.21 2.3,-5.81 2.3,-5.81 0,0 22.88,-4.06 14.69,9.96 z"
     id="path110"
     inkscape:connector-curvature="0"
     style="opacity:0.1" />
  <path
     d="m 422.34,228.9215 a 16,16 0 0 1 -30.61,6.45 15.79,15.79 0 0 1 -1.36,-6.45 16,16 0 0 1 31.35,-4.43 16.18,16.18 0 0 1 0.62,4.43 z"
     id="path112"
     inkscape:connector-curvature="0"
     style="fill:#a1616a" />
  <path
     d="m 437.76,352.7715 a 9.73,9.73 0 0 0 -2.32,4.42 c 0,0 -7.86,5.37 -7.34,2 0.52,-3.37 -4.1,-17.2 -4.1,-17.2 l 0.52,18.74 c 0,0 -25.15,-1.18 -27,-3 -1.85,-1.82 -12.52,-5.39 -12.52,-5.39 0,0 -3.29,2.64 -6.32,4.64 -0.4,-2.26 -0.69,-4.25 -0.69,-4.25 l 10.81,-8.71 27,-7.08 10.14,-3.26 9.89,15.59 c 0,0 1.02,1.62 1.93,3.5 z"
     id="path114"
     inkscape:connector-curvature="0"
     style="opacity:0.1" />
  <path
     d="m 438.58,351.2915 c -2.09,1.31 -2.88,4.85 -2.88,4.85 0,0 -7.86,5.37 -7.34,2 0.52,-3.37 -4.06,-17.16 -4.06,-17.16 l 0.53,18.74 c 0,0 -25.16,-1.18 -27,-3 -1.84,-1.82 -12.58,-5.37 -12.58,-5.37 0,0 -9.3,7.47 -11,6.81 -1.7,-0.66 3,-13.36 3,-13.36 l 4.84,-74.42 c 0,0 -1.31,-22.14 0.66,-22.93 a 2.6,2.6 0 0 0 0.82,-0.52 c 1.3,-1.16 1.69,-3.52 1.8,-5.51 0.13,-2.35 3.27,-1.18 3.27,-1.18 l -1.83,2.36 16.24,9.87 0.14,0.09 a 19.49,19.49 0 0 1 2,-0.89 c 1.44,-0.55 3.35,-1.07 4.6,-0.55 a 4.51,4.51 0 0 1 1.72,1.55 19.17,19.17 0 0 1 2.21,4.48 l 5.9,9.95 c 0,0 3,13.24 3,13.76 0,0.52 0.92,12.58 2,13.89 1.08,1.31 2.1,7.86 1.71,9.83 -0.39,1.97 0.65,9.3 0.65,9.3 4.33,3.54 6.55,15.59 6.55,15.59 0,0 6.82,13.5 7.34,15.07 0.52,1.57 -0.19,5.44 -2.29,6.75 z"
     id="path116"
     inkscape:connector-curvature="0"
     style="fill:#444053" />
  <path
     d="m 403.07,252.9415 c -1.6,2.36 -6.2,5.67 -6.2,5.67 l -13.28,-11.21 c 1.3,-1.16 1.69,-3.53 1.8,-5.51 0.13,-2.36 3.27,-1.18 3.27,-1.18 l -0.38,0.49 a 2.12,2.12 0 0 0 0.57,3.1 z"
     id="path118"
     inkscape:connector-curvature="0"
     style="opacity:0.1" />
  <path
     d="m 403.07,252.4115 c -1.6,2.36 -6.2,5.68 -6.2,5.68 l -13.28,-11.22 c 1.3,-1.16 1.69,-3.52 1.8,-5.51 0.13,-2.35 3.27,-1.18 3.27,-1.18 l -0.38,0.49 a 2.12,2.12 0 0 0 0.57,3.1 z"
     id="path120"
     inkscape:connector-curvature="0"
     style="fill:#444053" />
  <path
     d="m 409.21,254.1815 c -1.72,2.05 -4.15,4.38 -4,3.21 0.15,-1.17 -1.45,-3.74 -2.44,-4.89 a 7.3,7.3 0 0 1 4.76,0.13 4.51,4.51 0 0 1 1.68,1.55 z"
     id="path122"
     inkscape:connector-curvature="0"
     style="opacity:0.1" />
  <path
     d="m 409.47,253.3915 c -1.72,2.06 -4.15,4.38 -4,3.22 0.15,-1.16 -1.29,-3.06 -2.29,-4.21 1.44,-0.55 3.35,-1.07 4.6,-0.55 a 4.4,4.4 0 0 1 1.69,1.54 z"
     id="path124"
     inkscape:connector-curvature="0"
     style="fill:#444053" />
  <path
     d="m 383.6,247.5215 c 0,0 0.17,-1.57 -2.1,1.14 a 27.69,27.69 0 0 1 -6.5,5.02 c 0,0 -9.69,6.82 -10.22,10 -0.53,3.18 -3.67,16.77 -2,21.31 1.67,4.54 14.33,26.3 14.33,26.3 0,0 -3.32,3.93 -2.54,8.56 0.78,4.63 1.75,11 1.31,12.4 -0.44,1.4 0.53,4.89 -1,6.11 -1.53,1.22 -3.05,3.32 1.58,6.12 0,0 0.87,2.36 0.08,2.88 -0.79,0.52 11.62,5.94 16.51,3.06 4.89,-2.88 13.72,-25.94 13.89,-31.1 0.17,-5.16 -2.71,-22.18 -4.28,-26.2 -1.57,-4.02 -6.29,-19.66 -8.3,-23.15 -2.01,-3.49 -10.76,-22.45 -10.76,-22.45 z"
     id="path126"
     inkscape:connector-curvature="0"
     style="opacity:0.1" />
  <path
     d="m 383.07,247.5215 c 0,0 0.18,-1.57 -2.09,1.14 a 27.69,27.69 0 0 1 -6.55,5.06 c 0,0 -9.7,6.82 -10.22,10 -0.52,3.18 -3.67,16.77 -2,21.31 1.67,4.54 14.32,26.3 14.32,26.3 0,0 -3.32,3.93 -2.53,8.56 0.79,4.63 1.75,11 1.31,12.4 -0.44,1.4 0.52,4.89 -1,6.11 -1.52,1.22 -3.06,3.32 1.57,6.12 0,0 0.88,2.36 0.09,2.88 -0.79,0.52 11.62,5.94 16.51,3.06 4.89,-2.88 13.71,-25.94 13.89,-31.1 0.18,-5.16 -2.71,-22.18 -4.28,-26.2 -1.57,-4.02 -6.29,-19.66 -8.3,-23.15 -2.01,-3.49 -10.72,-22.49 -10.72,-22.49 z"
     id="path128"
     inkscape:connector-curvature="0"
     style="fill:#d37e01" />
  <path
     d="m 379.58,262.3715 c 0,0 7.51,8.3 7.25,13.8 0,0 0.09,-8.91 -7.25,-13.8 z"
     id="path130"
     inkscape:connector-curvature="0"
     style="opacity:0.1" />
  <path
     d="m 404.93,250.4915 c 0,0 4.87,-3 11,4.63 0,0 4.45,2.53 5.76,3.15 1.31,0.62 2.8,16.85 2.8,16.85 0,0 2.88,7 2.09,11 -0.79,4 2.28,17.82 2.28,17.82 0,0 5.06,24.81 4.89,25.5 -0.17,0.69 -5.16,-7.77 -5.07,-12 0.09,-4.23 -4.19,-17.3 -4.8,-18.08 -0.61,-0.78 -4.81,-23.24 -4.81,-23.24 0,0 -3.4,-9.52 -5.59,-12.66 -2.19,-3.14 -4.89,-9.09 -6,-10.14 a 11.55,11.55 0 0 0 -2.7,-1.74 z"
     id="path132"
     inkscape:connector-curvature="0"
     style="opacity:0.1" />
  <path
     d="m 404.87,250.4915 c 0,0 5.46,-3 11.57,4.63 0,0 4.46,2.53 5.77,3.15 1.31,0.62 2.79,16.85 2.79,16.85 0,0 2.88,7 2.1,11 -0.78,4 2.27,17.82 2.27,17.82 0,0 5.07,24.81 4.89,25.5 -0.18,0.69 -5.15,-7.77 -5.07,-12 0.08,-4.23 -4.19,-17.3 -4.8,-18.08 -0.61,-0.78 -4.8,-23.24 -4.8,-23.24 0,0 -3.41,-9.44 -5.59,-12.61 -2.18,-3.17 -4.9,-9.09 -6,-10.14 a 10.93,10.93 0 0 0 -3.23,-1.74 z"
     id="path134"
     inkscape:connector-curvature="0"
     style="fill:#d37e01" />
  <path
     d="m 428.85,305.0815 c 0,0 10.39,-6.81 15.41,-3.45 5.02,3.36 13.24,8.13 5.16,11.58 -8.08,3.45 -19.26,2.79 -19.26,2.79 z"
     id="path136"
     inkscape:connector-curvature="0"
     style="fill:#a1616a" />
  <path
     d="m 421.62,370.8115 c -1.55,3.33 -2.83,20 -3.7,25.32 -1.24,-2.13 -2.74,-4.67 -3.25,-5.47 a 69.83,69.83 0 0 1 -3.05,-7.78 c 1,-2.4 3.71,-9.28 3.71,-11.8 0,-3.08 5,-6.95 5,-6.95 a 5.78,5.78 0 0 1 1.29,6.68 z"
     id="path138"
     inkscape:connector-curvature="0"
     style="opacity:0.1" />
  <path
     d="m 421.72,224.4915 a 4.74,4.74 0 0 1 -0.78,0.32 c -1.23,0.33 -2.43,-0.5 -3.52,-1.16 -1.09,-0.66 -2.6,-1.15 -3.55,-0.29 -1.23,1.12 -0.34,3.51 -1.61,4.59 -0.8,0.69 -2.07,0.45 -3,1 -0.93,0.55 -1.16,1.8 -1.39,2.86 -0.23,1.06 -0.67,2.28 -1.72,2.59 -1.05,0.31 -2,-0.37 -3,-0.34 -0.21,0 -0.46,0 -0.6,-0.12 a 0.64,0.64 0 0 1 -0.1,-0.47 10.24,10.24 0 0 0 -0.34,-3.79 3.63,3.63 0 0 0 -2.66,-2.5 c -1.84,-0.28 -3.39,1.33 -4.47,2.85 a 46.4,46.4 0 0 0 -3.09,5 c -0.05,0.09 -0.1,0.21 -0.16,0.35 a 15.79,15.79 0 0 1 -1.36,-6.45 16,16 0 0 1 31.35,-4.43 z"
     id="path140"
     inkscape:connector-curvature="0"
     style="opacity:0.1" />
  <path
     d="m 395,229.7815 c 1.08,-1.52 2.63,-3.13 4.47,-2.85 a 3.64,3.64 0 0 1 2.66,2.49 10.07,10.07 0 0 1 0.33,3.79 0.7,0.7 0 0 0 0.11,0.48 c 0.14,0.16 0.39,0.13 0.6,0.12 1,0 2.05,0.63 3,0.34 0.95,-0.29 1.5,-1.53 1.72,-2.59 0.22,-1.06 0.47,-2.28 1.39,-2.86 0.92,-0.58 2.17,-0.33 3,-1 1.27,-1.08 0.38,-3.48 1.61,-4.59 0.95,-0.86 2.46,-0.37 3.55,0.29 1.09,0.66 2.29,1.49 3.52,1.16 a 10.39,10.39 0 0 0 1.19,-0.51 c 1.95,-0.74 4.47,0.52 6.06,-0.81 a 4.71,4.71 0 0 0 1.21,-2.1 12.9,12.9 0 0 0 0.88,-3.33 4.48,4.48 0 0 0 -0.88,-3.26 c -1,-1.22 -2.8,-1.53 -4.13,-2.43 a 10.14,10.14 0 0 1 -2.63,-3.11 11.49,11.49 0 0 0 -2.56,-3.18 3.76,3.76 0 0 0 -3.85,-0.6 4,4 0 0 1 -1.26,0.59 2.52,2.52 0 0 1 -1.39,-0.38 c -4.54,-2.14 -9.83,-1.76 -14.81,-1.12 a 19.06,19.06 0 0 0 -5.84,1.41 7,7 0 0 0 -3.94,4.31 c -0.4,1.54 -0.09,3.21 -0.58,4.73 -0.33,1 -1,1.91 -1.4,2.92 -1.06,2.76 0.21,5.8 0.75,8.71 0.59,3.18 0.29,6.62 1.64,9.63 0.27,0.59 0.56,1.62 1.23,1.23 0.49,-0.29 1,-2 1.25,-2.49 a 48.14,48.14 0 0 1 3.1,-4.99 z"
     id="path142"
     inkscape:connector-curvature="0"
     style="fill:#3f3d56" />
  <path
     d="m 366.22,280.9815 -2.36,6.7 c 0,0 5.59,20.79 8.21,25.16 2.62,4.37 6.46,10 6.46,10 a 24,24 0 0 0 14,1.74 c 7.51,-1.48 29.43,-5.41 29.43,-5.41 a 2.92,2.92 0 0 0 2.8,-1.05 c 1,-1.4 5.94,-2.1 5.94,-2.1 0,0 5.76,-8.38 -1.31,-11.88 0,0 -0.87,1.93 -4.63,0.61 -3.76,-1.32 -4.89,1.05 -4.89,1.05 0,0 -6.12,1.23 -9.52,0.79 -3.4,-0.44 -11.88,-0.61 -12.76,-1.31 a 1.11,1.11 0 0 0 -1.57,0.09 9.53,9.53 0 0 1 -2.79,-1.58 c -0.7,-0.78 -1.66,0.88 -1.66,0.88 0,0 -1.23,-0.7 -0.88,-1.57 0.35,-0.87 -1.13,-4.2 -1.13,-4.2 a 8.46,8.46 0 0 1 -0.26,-3.93 c 0.43,-1.75 -2.19,-8 -2.19,-8 a 11.34,11.34 0 0 1 0.35,-3.15 c 0.44,-1.57 -3.32,-4.72 -3.32,-4.72 0,0 -3.67,-17.81 -11.44,-12 -7.77,5.81 -6.48,13.88 -6.48,13.88 z"
     id="path144"
     inkscape:connector-curvature="0"
     style="opacity:0.1" />
  <path
     d="m 365.69,280.9815 -2.36,6.7 c 0,0 5.59,20.79 8.21,25.16 2.62,4.37 6.47,10 6.47,10 a 23.94,23.94 0 0 0 14,1.74 c 7.52,-1.48 29.44,-5.41 29.44,-5.41 a 2.92,2.92 0 0 0 2.8,-1.05 c 1,-1.4 5.94,-2.1 5.94,-2.1 0,0 5.76,-8.38 -1.31,-11.88 0,0 -0.88,1.93 -4.63,0.61 -3.75,-1.32 -4.9,1.05 -4.9,1.05 0,0 -6.11,1.23 -9.52,0.79 -3.41,-0.44 -11.88,-0.61 -12.75,-1.31 a 1.11,1.11 0 0 0 -1.57,0.09 9.54,9.54 0 0 1 -2.8,-1.58 c -0.7,-0.78 -1.66,0.88 -1.66,0.88 0,0 -1.22,-0.7 -0.87,-1.57 0.35,-0.87 -1.14,-4.2 -1.14,-4.2 a 8.61,8.61 0 0 1 -0.26,-3.93 c 0.44,-1.75 -2.18,-8 -2.18,-8 a 10.91,10.91 0 0 1 0.35,-3.15 c 0.43,-1.57 -3.32,-4.72 -3.32,-4.72 0,0 -3.67,-17.81 -11.44,-12 -7.77,5.81 -6.5,13.88 -6.5,13.88 z"
     id="path146"
     inkscape:connector-curvature="0"
     style="fill:#d37e01" />
  <path
     d="m 387.27,301.2415 c 0,0 -8.56,1.75 -5.68,3.23 2.88,1.48 5.68,-3.23 5.68,-3.23 z"
     id="path148"
     inkscape:connector-curvature="0"
     style="opacity:0.1" />
  <g
     id="g154"
     style="opacity:0.1"
     transform="translate(0,-93.098504)">
    <path
       d="m 472.11,439.26 a 3.6,3.6 0 0 0 -2.66,-2.49 c -1.84,-0.28 -3.39,1.33 -4.47,2.84 a 48.28,48.28 0 0 0 -3.1,5 c -0.28,0.52 -0.76,2.2 -1.25,2.49 -0.67,0.39 -1,-0.65 -1.23,-1.24 -1.35,-3 -1,-6.45 -1.64,-9.63 a 55.71,55.71 0 0 1 -1.13,-5.61 c -0.2,2.28 0.7,4.68 1.13,7 0.59,3.18 0.29,6.62 1.64,9.63 0.27,0.59 0.56,1.62 1.23,1.23 0.49,-0.29 1,-2 1.25,-2.48 a 47.24,47.24 0 0 1 3.1,-5 c 1.08,-1.52 2.63,-3.13 4.47,-2.84 a 3.6,3.6 0 0 1 2.66,2.49 6.84,6.84 0 0 1 0.35,2 9,9 0 0 0 -0.35,-3.39 z"
       transform="translate(-70,-118.22)"
       id="path150"
       inkscape:connector-curvature="0" />
    <path
       d="m 499.4,431 a 4.62,4.62 0 0 1 -1.21,2.09 c -1.59,1.33 -4.11,0.08 -6.06,0.82 -0.4,0.15 -0.77,0.39 -1.19,0.51 -1.23,0.32 -2.43,-0.5 -3.52,-1.16 -1.09,-0.66 -2.6,-1.16 -3.55,-0.3 -1.23,1.12 -0.34,3.51 -1.61,4.59 -0.8,0.69 -2.07,0.45 -3,1 -0.93,0.55 -1.16,1.79 -1.39,2.85 -0.23,1.06 -0.67,2.28 -1.72,2.59 -1.05,0.31 -2,-0.37 -3,-0.33 -0.21,0 -0.46,0 -0.6,-0.12 a 0.28,0.28 0 0 1 -0.07,-0.13 c 0,0.35 0,0.7 0,1.05 a 0.69,0.69 0 0 0 0.11,0.47 c 0.14,0.16 0.39,0.13 0.6,0.13 1,0 2.05,0.62 3,0.33 0.95,-0.29 1.5,-1.52 1.72,-2.59 0.22,-1.07 0.47,-2.27 1.39,-2.85 0.92,-0.58 2.17,-0.33 3,-1 1.27,-1.08 0.38,-3.47 1.61,-4.59 0.95,-0.86 2.46,-0.37 3.55,0.29 1.09,0.66 2.29,1.49 3.52,1.16 a 12.45,12.45 0 0 0 1.19,-0.5 c 1.95,-0.74 4.47,0.51 6.06,-0.82 a 4.67,4.67 0 0 0 1.21,-2.09 13.08,13.08 0 0 0 0.88,-3.34 5.09,5.09 0 0 0 0,-1.17 14.81,14.81 0 0 1 -0.92,3.11 z"
       transform="translate(-70,-118.22)"
       id="path152"
       inkscape:connector-curvature="0" />
  </g>
  <ellipse
     cx="255"
     cy="472.4715"
     rx="40.919998"
     ry="7.8699999"
     id="ellipse156"
     style="fill:#d37e01" />
  <ellipse
     cx="254.32001"
     cy="469.13147"
     rx="4.7600002"
     ry="6.2399998"
     id="ellipse158"
     style="fill:#3f3d56" />
  <ellipse
     cx="254.32001"
     cy="461.51147"
     rx="4.7600002"
     ry="6.2399998"
     id="ellipse160"
     style="fill:#3f3d56" />
  <ellipse
     cx="254.32001"
     cy="453.89148"
     rx="4.7600002"
     ry="6.2399998"
     id="ellipse162"
     style="fill:#3f3d56" />
  <ellipse
     cx="254.32001"
     cy="446.26147"
     rx="4.7600002"
     ry="6.2399998"
     id="ellipse164"
     style="fill:#3f3d56" />
  <ellipse
     cx="254.32001"
     cy="438.64148"
     rx="4.7600002"
     ry="6.2399998"
     id="ellipse166"
     style="fill:#3f3d56" />
  <ellipse
     cx="254.32001"
     cy="431.02148"
     rx="4.7600002"
     ry="6.2399998"
     id="ellipse168"
     style="fill:#3f3d56" />
  <ellipse
     cx="254.32001"
     cy="423.40149"
     rx="4.7600002"
     ry="6.2399998"
     id="ellipse170"
     style="fill:#3f3d56" />
  <path
     d="m 272.15,371.2415 a 22.27,22.27 0 0 0 1.77,-2.62 l -12.51,-2.05 13.53,0.1 a 22.87,22.87 0 0 0 0.44,-18.08 l -18.16,9.42 16.78,-12.33 a 22.82,22.82 0 1 0 -37.69,25.54 22.52,22.52 0 0 0 -2.6,4.16 l 16.24,8.44 -17.32,-5.82 a 22.78,22.78 0 0 0 3.68,21.43 22.82,22.82 0 1 0 35.87,0 22.82,22.82 0 0 0 0,-28.21 z"
     id="path172"
     inkscape:connector-curvature="0"
     style="fill:#d37e01" />
  <path
     d="m 231.39,385.3415 a 22.71,22.71 0 0 0 4.89,14.11 22.82,22.82 0 1 0 35.87,0 c 3.06,-3.88 -40.76,-16.67 -40.76,-14.11 z"
     id="path174"
     inkscape:connector-curvature="0"
     style="opacity:0.1" />
  <circle
     cx="304.51196"
     cy="109.19805"
     r="15.27"
     id="circle196"
     style="opacity:0.1;fill:#d37e01" />
  <circle
     cx="341.19092"
     cy="178.36084"
     r="25.6"
     id="circle200"
     style="opacity:0.1;fill:#d37e01" />
  <circle
     cx="112.35469"
     cy="355.61215"
     r="8.6499996"
     id="circle208"
     style="opacity:0.1;fill:#d37e01" />
  <circle
     cx="142.79408"
     cy="302.37177"
     id="circle210"
     style="opacity:0.1;fill:#d37e01"
     r="14.5" />
  <circle
     cx="67.001907"
     cy="364.18729"
     r="14.5"
     id="circle212"
     style="opacity:0.1;fill:#d37e01" />
  <circle
     cx="903.17816"
     cy="414.11377"
     r="8.6499996"
     id="circle214"
     style="opacity:0.1;fill:#d37e01" />
  <circle
     cx="679.28864"
     cy="410.17801"
     r="14.5"
     id="circle218"
     style="opacity:0.1;fill:#d37e01" />
  <circle
     cx="100.37098"
     cy="253.76385"
     r="13.442624"
     id="circle220"
     style="opacity:0.1;fill:#d37e01;stroke-width:0.37083098" />
  <circle
     cx="297.59637"
     cy="263.34717"
     r="20.92"
     id="circle222"
     style="opacity:0.1;fill:#d37e01" />
  <circle
     cx="626.48419"
     cy="358.15829"
     r="20.92"
     id="circle224"
     style="opacity:0.1;fill:#d37e01" />
  <ellipse
     cx="255"
     cy="475.4715"
     rx="119.5"
     ry="24"
     stroke-miterlimit="10"
     id="ellipse226"
     style="fill:none;stroke:#444053;stroke-miterlimit:10" />
  <ellipse
     style="fill:#d37e01"
     cx="811.8443"
     cy="473.7912"
     rx="40.919998"
     ry="7.8699999"
     id="ellipse176" />
  <ellipse
     style="fill:#3f3d56"
     cx="811.16431"
     cy="470.45117"
     rx="4.7600002"
     ry="6.2399998"
     id="ellipse178" />
  <ellipse
     style="fill:#3f3d56"
     cx="811.16431"
     cy="462.83118"
     rx="4.7600002"
     ry="6.2399998"
     id="ellipse180" />
  <ellipse
     style="fill:#3f3d56"
     cx="811.16431"
     cy="455.21118"
     rx="4.7600002"
     ry="6.2399998"
     id="ellipse182" />
  <ellipse
     style="fill:#3f3d56"
     cx="811.16431"
     cy="447.58118"
     rx="4.7600002"
     ry="6.2399998"
     id="ellipse184" />
  <ellipse
     style="fill:#3f3d56"
     cx="811.16431"
     cy="439.96118"
     rx="4.7600002"
     ry="6.2399998"
     id="ellipse186" />
  <ellipse
     style="fill:#3f3d56"
     cx="811.16431"
     cy="432.34119"
     rx="4.7600002"
     ry="6.2399998"
     id="ellipse188" />
  <ellipse
     style="fill:#3f3d56"
     cx="811.16431"
     cy="424.72119"
     rx="4.7600002"
     ry="6.2399998"
     id="ellipse190" />
  <path
     style="fill:#d37e01"
     inkscape:connector-curvature="0"
     d="m 828.99427,372.56117 a 22.27,22.27 0 0 0 1.77,-2.62 l -12.51,-2.05 13.53,0.1 a 22.87,22.87 0 0 0 0.44,-18.08 l -18.16,9.42 16.78,-12.33 a 22.82,22.82 0 1 0 -37.69,25.54 22.52,22.52 0 0 0 -2.6,4.16 l 16.24,8.44 -17.32,-5.82 a 22.78,22.78 0 0 0 3.68,21.43 22.82,22.82 0 1 0 35.87,0 22.82,22.82 0 0 0 0,-28.21 z"
     id="path192" />
  <path
     style="opacity:0.1"
     inkscape:connector-curvature="0"
     d="m 788.23427,386.66117 a 22.71,22.71 0 0 0 4.89,14.11 22.82,22.82 0 1 0 35.87,0 c 3.06,-3.88 -40.76,-16.67 -40.76,-14.11 z"
     id="path194" />
  <ellipse
     cx="120"
     cy="546.4715"
     rx="119.5"
     ry="24"
     stroke-miterlimit="10"
     id="ellipse230"
     style="fill:none;stroke:#444053;stroke-miterlimit:10" />
  <circle
     cx="123.81147"
     cy="176.36768"
     r="22.855192"
     id="circle220-8"
     style="opacity:0.1;fill:#d37e01;stroke-width:0.63048804" />
</svg>
