<svg xmlns="http://www.w3.org/2000/svg" xmlns:xlink="http://www.w3.org/1999/xlink" width="931.5" height="570.972" viewBox="0 0 931.5 570.971"><style><![CDATA[.B{opacity:.1}.C{fill:#d37e01}.D{fill:#444053}.E{fill:#3f3d56}.F{stroke:#444053}.G{fill:#a1616a}.H{fill:#d0d2d5}]]></style><defs><linearGradient id="A" gradientUnits="userSpaceOnUse"><stop offset="0" stop-color="gray" stop-opacity=".25"/><stop offset=".54" stop-color="gray" stop-opacity=".12"/><stop offset="1" stop-color="gray" stop-opacity=".1"/></linearGradient><linearGradient id="B" x1="626.74" y1="441.981" x2="539.27" y2="441.981" xlink:href="#A"/><linearGradient xlink:href="#A" id="C" x1="408.64" y1="502.572" x2="408.64" y2="202.162"/><path id="D" d="M422.6 426.102l8 1.6s-9.07 25.1-2.67 30.43H417.8s-3.74-19.22 4.8-32.03z"/><path id="E" d="M473.73 65.13a21 21 0 0 1 20.71-15c15.8.4 40.25 3.28 53 16.34 19.76 20.3-13.35 88.63-13.35 88.63s-31 57.13-59.26-15.48c-.04.06-11.76-38.82-1.1-74.5z"/><path id="F" d="M272.15 371.242a22.27 22.27 0 0 0 1.77-2.62l-12.5-2.05 13.53.1a22.87 22.87 0 0 0 .44-18.08l-18.16 9.42 16.78-12.33a22.82 22.82 0 1 0-37.69 25.54 22.52 22.52 0 0 0-2.6 4.16l16.24 8.44-17.32-5.82a22.78 22.78 0 0 0 3.68 21.43 22.82 22.82 0 1 0 35.87 0 22.82 22.82 0 0 0 0-28.21z"/><path id="G" d="M231.4 385.342a22.71 22.71 0 0 0 4.89 14.11 22.82 22.82 0 1 0 35.87 0c3.06-3.88-40.76-16.67-40.76-14.1z"/></defs><ellipse cx="811.5" cy="474.972" rx="119.5" ry="24" fill="none" class="F"/><path d="M360.54 283.792a27.37 27.37 0 0 0 1.19 2.61v.1s5.66 20.9 8.3 25.3l2.5 4a8.89 8.89 0 0 0 0 3c.8 4.66 1.77 11.07 1.33 12.48s.53 4.92-1 6.14-3.1 3.34 1.6 6.15c0 0 .88 2.37.1 2.9-.1.06 0 .2.22.36-1.3 3.82-3.18 10-2 10.44.65.25 2.4-.67 4.34-1.9.05.25.1.52.14.8a38.15 38.15 0 0 0 1.42 6.07c.86 1.9 1.72 5.13 1.26 6.2s1.26 3.42.86 4.35 1.33 3.95 1.33 3.95 1.72 5.86 1.65 7.84 1.86 14.75 1.86 14.75-2 6.6-1 8.5 1.65 8.5 0 10.94-3.72 7.83-3.05 9.28-.93 19.37 3.1 26.75a82.26 82.26 0 0 1 1.13 8.3c0 2 3.18 7.3 3.18 7.3s-1.92 8 2.8 9.35a4.43 4.43 0 0 0 1 .19 4.49 4.49 0 0 1-.34 2.58 10.2 10.2 0 0 0-1.68 3.72 1 1 0 0 0 .09.75c.53.6 2 8.5 2 8.5s2.12 8.9 13.8 6.72c0 0 7.9-.46 7.23-3.23a18.16 18.16 0 0 0-.86-2.68 17.33 17.33 0 0 1-.74-1.73c-.13-.66-1.8-2.5-1.92-3.76s-1.2-3.7-1-4.48-1.8-6.45-1.93-7.7a13.07 13.07 0 0 0-.75-2.56l.42-.2s1.06-5.93.14-8.1-4.58-5-4.58-5 .53-14.56-.13-16.54.33-9.48.33-9.48 2.25-10.6 2.12-13a11 11 0 0 1 .66-4.35s1.4-15.6 2.32-17.6 2-21.34 2-21.34l.62 1.78a68.37 68.37 0 0 0 3.1 7.83c.5.8 2 3.36 3.28 5.5l1.9 3.2s.86 3.1.26 5 6.17 12.18 6.17 12.18a6.09 6.09 0 0 0-.66 2.77c.2 1-2.06 4.15-2.06 4.15s-.86 2.83-.33 3.82-.86 6.85-.86 6.85-2.26 12.9-2.8 14.43.27 11.92.27 11.92-4.16 10.65-2.23 14.2c.08 1.3.1 3.3-.42 4.12-.7 1.08-.5 5.07-.42 6.17v.3s-2.26 3 .6 4.22 12.54 2.1 12.54 2.1 9.2 2.64 13.65 3.36 13.73.46 14.4-2.24a7.21 7.21 0 0 0 .24-2.58 3.21 3.21 0 0 0-1.83-2.56 75.24 75.24 0 0 0-8.36-2.77s-4.38-1-4.78-2.9-6.63-7.18-6.63-7.18-.07-.37-.2-.87h.2l-.3-.3c-.3-1-.8-2.32-1.42-2.07a1.5 1.5 0 0 1 .68-2.06c2.4-1.3 3.85-5.46 3.18-9.94s-.8-3.7.6-6.26a12.3 12.3 0 0 0 1-6.19l3.67-13.68a20.7 20.7 0 0 0 1.06-5.2 9.72 9.72 0 0 1 1.06-4s1.66-9.5 3.12-11.66-1-9.82-1-9.82-2.25-11.85-2.12-17.26-5.84-24.17-5.84-24.17a6.28 6.28 0 0 1-.92-4.09c.12-1.12-.58-2.94-1.37-4.57l-.25-.5a4.43 4.43 0 0 1 1.09-1c1.64-1 2.4-3.63 2.42-5.48l-22.6-53.3c0-.16 10.47-21.55 10.44-21.7-.62-3.5-6.54-12.82-6.54-12.82a.75.75 0 0 0-.25-.29c-1.33-.6-5.83-3.16-5.83-3.16-3.53-4.36-6.84-5.26-9-5.23a6.12 6.12 0 0 0-2 .31 4.41 4.41 0 0 0-.67.27l-.1.87a17.84 17.84 0 0 1 .47-6c.05-.17.1-.35.14-.52h1a16.12 16.12 0 0 0 16.17-16.07 16.32 16.32 0 0 0-.62-4.45l-.08-.23.5-.22c2-.74 4.5.52 6.13-.82a4.65 4.65 0 0 0 1.22-2.11 12.67 12.67 0 0 0 .89-3.35v-.6a1.09 1.09 0 0 0 0-.18 1.7 1.7 0 0 0 0-.22v-.27c0-.1 0 0 0 0a3.89 3.89 0 0 0-.86-2c-1.06-1.24-2.83-1.54-4.17-2.45a10.09 10.09 0 0 1-2.67-3.13 11.64 11.64 0 0 0-2.59-3.19 3.81 3.81 0 0 0-3.89-.61 4.39 4.39 0 0 1-1.28.6 2.67 2.67 0 0 1-1.41-.38c-4.6-2.15-10-1.77-15-1.13a19.51 19.51 0 0 0-5.91 1.42 7 7 0 0 0-4 4.33c-.4 1.55-.1 3.23-.6 4.76-.34 1-1 1.92-1.42 2.93a6 6 0 0 0-.38 1.65v.16c-.17 2.27.72 4.66 1.15 7 .6 3.2.3 6.66 1.66 9.68a5.79 5.79 0 0 0 .52 1.06l-1.5 3.05c-.74-.2-3-.7-3.08 1.27a10.78 10.78 0 0 1-1.1 4.64 3.29 3.29 0 0 1-.33.23.64.64 0 0 0-.37.65l-.26.2a.64.64 0 0 0-.32.11c-.14-.24-.6-.26-2.06 1.48a28.1 28.1 0 0 1-6.63 5.1s-9.82 6.85-10.35 10-3.8 16.9-2.13 21.48zm43.12-33.42v-.1l.12.06zm26.68 224a2.14 2.14 0 0 1-.84.17z" fill="url(#C)"/><path d="M407.73 502.232c-11.53 2.16-13.63-6.68-13.63-6.68s-1.44-7.86-2-8.45a1 1 0 0 1-.09-.75 10.24 10.24 0 0 1 1.66-3.7c.72-.85.13-4.4.13-4.4l13.36-3.4a20.05 20.05 0 0 1 1.31 3.93c.14 1.24 2.1 6.88 1.9 7.66s.86 3.2 1 4.46 1.77 3.08 1.9 3.73a14 14 0 0 0 .72 1.73 16.83 16.83 0 0 1 .85 2.66c.68 2.74-7.1 3.2-7.1 3.2z" class="D"/><path d="M407.73 502.232c-11.53 2.16-13.63-6.68-13.63-6.68s-1.44-7.86-2-8.45a1 1 0 0 1-.09-.75l2.77 8s2.3 4.8 10.8 4.06c4.85-.4 7.23-1.3 8.4-2a16.83 16.83 0 0 1 .85 2.66c.7 2.7-7.1 3.16-7.1 3.16zm-8.98-12.45s2.9.07 3.08-2.3z" class="B"/><path d="M448.87 412.352c-1.44 2.16-3.08 11.6-3.08 11.6a9.92 9.92 0 0 0-1 4 20.26 20.26 0 0 1-1 5.18l-3.8 13.56a12.27 12.27 0 0 1-1 6.15c-1.37 2.56-1.24 1.77-.6 6.23s-.78 8.58-3.14 9.9 1.05 4.4 1.05 4.4-15.07 4.06-18.22 1.57 1.64-14.8 1.64-14.8-.78-10.35-.26-11.86 2.75-14.35 2.75-14.35 1.38-5.83.85-6.8.33-3.8.33-3.8 2.23-3.15 2-4.13a6.16 6.16 0 0 1 .66-2.75s-6.68-10.22-6.1-12.12-.26-5-.26-5l-1.86-3.18-3.25-5.47a69.83 69.83 0 0 1-3.05-7.78l-.62-1.78s-1 19.26-2 21.22-2.3 17.5-2.3 17.5a10.88 10.88 0 0 0-.66 4.32c.13 2.42-2.1 13-2.1 13s-1 7.47-.32 9.44.13 16.44.13 16.44 3.6 2.82 4.52 5-.13 8.06-.13 8.06-10.48 5.24-15.14 3.86-2.75-9.3-2.75-9.3-3.14-5.24-3.14-7.27a82.19 82.19 0 0 0-1.12-8.26c-4-7.34-2.42-25.15-3.07-26.6s1.37-6.8 3-9.23 1-9 0-10.88 1-8.45 1-8.45-1.9-12.7-1.83-14.67-1.64-7.8-1.64-7.8-1.7-3-1.3-3.93-1.3-3.28-.85-4.32-.4-4.26-1.25-6.16a39.49 39.49 0 0 1-1.4-6l-.7-4.25 10.8-8.7 27-7.08 10.24-3.33 9.9 15.6s1 1.63 1.93 3.5c.78 1.62 1.47 3.43 1.35 4.55a6.27 6.27 0 0 0 .92 4.06s5.9 18.67 5.76 24 2.1 17.17 2.1 17.17 2.42 7.63.98 9.8z" class="E"/><path d="M388.2 422.112s11.53-4.9 14.93-1.44-14.93 1.44-14.93 1.44zm6.5 1.96s-11.7 6.6-7.7 7.67 7.7-7.67 7.7-7.67zm34.84-5.7s-5 .32-3.08 1.3 3.08-1.3 3.08-1.3zm6.23 1.5c-.07.33-14.48 5-11.66 7.08s11.66-7.08 11.66-7.08zm-45.87 40.1c2.16-.32 14.22-5.9 9.5-1.9a9.4 9.4 0 0 1-9.5 1.89zm5.97 4.4s1.05 4.07 5.05 3.54-5.05-3.54-5.05-3.54zm-3.34 8.26c.72-.2 9.3-4.13 9.5-2.3s-8.2 5-8.84 4.06a3.52 3.52 0 0 1-.66-1.77zm27.77-4.72c1-.06 10.87-3.2 12.84-.4zm8.92 1.84s1.7-1.5 3.4-.72-3.4.72-3.4.72zm-21.75 16.24a2.92 2.92 0 0 0 2.22 2.3z" class="B"/><path d="M457.45 492.142c-.65 2.7-9.83 2.95-14.2 2.23s-13.5-3.34-13.5-3.34-9.56-.92-12.38-2.1-.6-4.2-.6-4.2v-.28c-.07-1.1-.26-5.07.4-6.14.8-1.25.33-5.3.33-5.3s13.56 2.62 13.82 1.38 2.36-3 3.34-3.4 1.7 3.28 1.7 3.28 6.16 5.24 6.55 7.14 4.7 2.88 4.7 2.88a73.26 73.26 0 0 1 8.26 2.75 3.18 3.18 0 0 1 1.81 2.54 7.14 7.14 0 0 1-.26 2.57z" class="D"/><path d="M457.45 492.142c-.65 2.7-9.83 2.95-14.2 2.23s-13.5-3.34-13.5-3.34-9.56-.92-12.38-2.1-.6-4.2-.6-4.2v-.28l13.7 3s6.75 2.88 11.07 2.88c3.78 0 12.23 1.55 16.16-.8a7.14 7.14 0 0 1-.26 2.6zm-18.55-10.35s-.65 4.32-3.27 5.77z" class="B"/><path d="M480.9 322.552c-3.9 1.48-12.9 1.64-16.9 1.64h-2l-2.57-5.24 2.57-4.37s2.36-.65 5.5-1.22c4.63-.83 11-1.48 14 .4 5.04 3.13 4.5 6.93-.6 8.8z" class="G"/><path d="M421.33 259.842l1.14-1.3s5.85 9.26 6.46 12.75l1.4 7.5s1.48 4.54 2.45 6.55a22.15 22.15 0 0 1 1.92 4.81c.08.87-.35 2.8 1.48 4s2.27 4.54 2.27 4.54 6.64 6.46 10.14 6.64 13.53 1.92 13.2 3.66 4.2 2.8 6 3.24-11.78 5.7-3.78 12.45c0 0-5.07 1-5.6 2.27s-5.85-.7-5.85-.7-1.14-2.7-5.07-2.88-5.94-1.92-5.94-2.18-3.93-2.45-6.1-3.06-5.07-.87-5.16-1.5-13.1-56.77-13.1-56.77z" class="C"/><path d="M421.33 260.062l1.14-1.3s5.85 9.26 6.46 12.76l1.4 7.5s1.48 4.54 2.45 6.55a22.32 22.32 0 0 1 1.92 4.8c.08.88-.35 2.8 1.48 4s2.27 4.54 2.27 4.54 6.64 6.47 10.14 6.64 13.53 1.92 13.2 3.67 4.2 2.8 6 3.23-11.78 5.7-3.78 12.43c0 0-5.07 1-5.6 2.27s-5.85-.7-5.85-.7-1.14-2.7-5.07-2.88-5.94-1.92-5.94-2.2-3.93-2.44-6.1-3.05-5.07-.88-5.16-1.5-13.1-56.78-13.1-56.78z" opacity=".05"/><path d="M555 497.462c66 0 119.5 10.75 119.5 24s-53.5 24-119.5 24-119.5-10.74-119.5-24" stroke-miterlimit="10" fill="none" class="F"/><path d="M513.594 0l16.85 2.86-21.257 125.28-16.85-2.86z" class="D"/><path d="M557.28 504.59l-6.94 1.06 3.74 26.7z" class="H"/><path d="M433.94 521.67h2.67l3.2-15.48 1.6-18.7-11.22 3.2v16.56z" class="E"/><use xlink:href="#D" class="H"/><use xlink:href="#D" class="B"/><path d="M476.12 124.432l-25.63 162.3s-37.9 173-23.5 207.17h18.16l54.46-332.1zm65-20.16l19.65 163.14s14.3 207.83-1.36 241.44h-15.48l-27.66-368.1z" class="H"/><use xlink:href="#E" class="D"/><use xlink:href="#E" class="B"/><path d="M484.6 79.01a15 15 0 0 1 14.75-10.66c11.25.3 28.65 2.34 37.7 11.64 14.07 14.44-9.5 63.1-9.5 63.1s-22 40.67-42.2-11c0-.03-8.35-27.68-.75-53.08z" class="D"/><path d="M539.33 494.802c.17 2.58.57 5.3 2.2 7.3 2.7 3.34 7.6 3.6 11.8 4.65a52 52 0 0 1 9.34 3.68l9.1 4.3a23.69 23.69 0 0 0-6.82 1.42c-1.17.43-2.45 1.14-2.62 2.36a2.52 2.52 0 0 0 1.51 2.42 7.12 7.12 0 0 0 3 .53 100.83 100.83 0 0 0 16.2-.85l.64-.1q4.14 2.05 8.24 4.2c1.14.6 2.5 0 3.47-.84a18.4 18.4 0 0 0 3.08-3.52c.16.28.32.55.45.82.88 1.7 1.7 3.9.45 5.34-1 1.12-2.9 1.3-3.46 2.67a2.41 2.41 0 0 0 .93 2.71 6.16 6.16 0 0 0 2.91 1 25.83 25.83 0 0 0 7.45-.06 6 6 0 0 0 3.6-1.53 6.6 6.6 0 0 0 1.28-4l1.7-19.43a5.83 5.83 0 0 0-.2-2.76c-.68-1.65-2.65-2.34-4.43-2.63h-.2c1.48 0 3-.07 4.6-.07a11 11 0 0 0 4.12-.52c2.54-1 3.9-3.67 5-6.13 2-4.32 4.3-9 4-13.8l-.78-.35c-.07-5.1-2.2-9.88-3-14.87a8.28 8.28 0 0 0 1.33-4.5 16.64 16.64 0 0 0-1.13-5.12c-3.17-9.42-6.34-18.87-10.58-27.87a96.41 96.41 0 0 0-10-17q-1.53-2-3.18-4c-.8-.92-2.6-2.22-2.92-3.4s.37-2.3 0-3.5a5.94 5.94 0 0 0-.36-.91c2.34-3.1 1.68-7.58.86-11.44l-1-4.8a13 13 0 0 0-1.24-3.81 11.13 11.13 0 0 0-2.39-2.71c-4.92-4.44-11-7.4-16.53-11.07-5.85-3.9-11.08-8.62-16.32-13.3-1.6-1.42-3.6-2.95-5.68-2.35s-2.93 2.84-3 4.88a10.06 10.06 0 0 0 3.25 7.54c3.62 3.3 9.1 3.58 13.4 5.92a31.35 31.35 0 0 1 4.21 2.93l12.52 9.83a4.35 4.35 0 0 1 1.95 2.54 4.09 4.09 0 0 1-.3 1.88c-.47 1.44-1.27 3.25-1.86 5.08l-1-.72a39.2 39.2 0 0 0-6.63-4 32.91 32.91 0 0 0-9.71-2.33c-7.4-.83-14 .3-18.52 6.48a13.7 13.7 0 0 1-3.51 3.61 13 13 0 0 0-2.85 1.81c-2.32 2.57-1 6.83 1.18 9a14 14 0 0 0 6.58 3.43 13.52 13.52 0 0 0 16.42 7.36 20.1 20.1 0 0 1 .09 3.88 4.47 4.47 0 0 0 1.41 3.59 5.88 5.88 0 0 0 1.72.8 26.39 26.39 0 0 1 6.23 3.25 32 32 0 0 0-5.52 8.25 13.42 13.42 0 0 0 1 12.48l.06.08a4.14 4.14 0 0 1-.91 1.68 3 3 0 0 1-4.13-.42 15.72 15.72 0 0 1-2.16-3.33 13.94 13.94 0 0 0-9-6.36 7.23 7.23 0 0 0-4.15.17 3.66 3.66 0 0 0-2.41 3.12c0 1.5 1.1 2.76 2.18 3.83a63.59 63.59 0 0 0 11 9.1 35.41 35.41 0 0 0 3.37 1.84q-3-.63-5.92-1.23a26.77 26.77 0 0 0-8.35-.73 9.32 9.32 0 0 0-7 4.08 9 9 0 0 0-.65 6.8 22.86 22.86 0 0 0 3.07 6.3 44.85 44.85 0 0 0 7.67 9.6c-2.5.75-5 1.57-7.44 2.47s-5 2-6.12 4.24a9.72 9.72 0 0 0-.61 5.1zm36.8-34h.1a3.13 3.13 0 0 0 1.31-1.11 18.14 18.14 0 0 0 3.16-6.84 7.71 7.71 0 0 0 1.7-.43 3.8 3.8 0 0 0-1.18 2.76l5.64 2.76a2.1 2.1 0 0 1 1 .79 2 2 0 0 1 .11 1.18c-.16 1.3-.4 2.58-.57 3.86-1.7-.5-3.35-.9-4.84-1.3l-6.42-1.66z" fill="url(#B)"/><path d="M577.2 407.682a10.81 10.81 0 0 0 8.4-1.35 5.15 5.15 0 0 1 1.63-.76 3.32 3.32 0 0 1 2.78 1.11c2.4 2.4 2.68 6.33 1.44 9.48s-3.73 5.63-6.34 7.78a57.55 57.55 0 0 1-6.67 4.74 12.36 12.36 0 0 0-6.84-6.65c-2.74-1.06-4.74-3.9-6.3-6.38-1.17-1.84-2.2-1.76-1.16-3.66a27.68 27.68 0 0 1 4.16-5 16.25 16.25 0 0 0 2.24-3c.7-1.26.54-2.08 1.62-1.08.7.66 1 2.1 1.82 2.86a8 8 0 0 0 3.23 1.91zm8.58-19.5a4.23 4.23 0 0 0 .29-1.85 4.34 4.34 0 0 0-1.91-2.51l-12.23-9.7a30 30 0 0 0-4.1-2.89c-4.22-2.3-9.55-2.58-13.1-5.84a10.05 10.05 0 0 1-3.18-7.45c0-2 1-4.26 2.9-4.82s4 .92 5.56 2.33c5.1 4.6 10.2 9.27 15.92 13.1 5.4 3.64 11.35 6.54 16.16 10.93a10.88 10.88 0 0 1 2.23 2.61 13.4 13.4 0 0 1 1.21 3.77l1 4.74c.84 4 1.52 8.65-1.17 11.72a4.27 4.27 0 0 1-3.26 1.61 6.42 6.42 0 0 1-2.51-.86c-2-1-5.62-2-6.23-4.5-.78-3.13 1.47-7.5 2.42-10.4zm-19.5 62.5a16 16 0 0 1-2.11-3.28 13.61 13.61 0 0 0-8.78-6.28 7.06 7.06 0 0 0-4 .16 3.61 3.61 0 0 0-2.35 3.09c0 1.48 1.07 2.72 2.12 3.77a62 62 0 0 0 10.76 9 28.38 28.38 0 0 0 13.09 4.54 3.3 3.3 0 0 0 1.4-.13 3.13 3.13 0 0 0 1.28-1.09c2.48-3.18 3.34-7.3 4-11.28-.24 1.43-8.3-1.9-9.2-1.48-1.34.63-1.2 2.5-2.18 3.4a2.89 2.89 0 0 1-4.03-.43zm58.65 31.42a2.65 2.65 0 0 1-.28 1.45c-.55.86-1.8.87-2.8.72a51.18 51.18 0 0 1-6.89-1.66l-20.53-5.93a1.87 1.87 0 0 1-.88-.43 1.82 1.82 0 0 1-.41-.9 24.15 24.15 0 0 1-.45-9 2.4 2.4 0 0 1 .41-1.21 2.42 2.42 0 0 1 1.7-.64 87 87 0 0 1 9.68-.44 48.85 48.85 0 0 0 6.29-.14c2.7-.32 5.8-1.87 8.52-1.63 2.35.2 2.25 2 2.5 4 .67 5.3 3.1 10.4 3.15 15.8z" fill="#fabdbd"/><path d="M559.37 457.732a25.61 25.61 0 0 0-8.16-.73 9.08 9.08 0 0 0-6.83 4 8.89 8.89 0 0 0-.64 6.72 23.25 23.25 0 0 0 3 6.21 40.83 40.83 0 0 0 8.77 10.56l5.36 4c3.58 3.13 5.8 7.5 7.93 11.75 2 4 4 8.08 4.86 12.48a1.25 1.25 0 0 0 .43.89 1.19 1.19 0 0 0 .89.06l9.85-1.82a1.54 1.54 0 0 0 1.38-2.34 68.92 68.92 0 0 0-11.75-25.41 22.55 22.55 0 0 0 19.82 5.74 7.74 7.74 0 0 0 3.76-1.63c2.2-2 2.1-5.4 1.6-8.32a61.07 61.07 0 0 0-1.82-7.67c-1.85-6-9.83-7.62-15.24-9.08q-11.52-3.05-23.22-5.4z" class="E"/><path d="M566.66 478.992a10.83 10.83 0 0 1 3.74 2.48c-1.77-2-6.83-3-9.3-3.93-3.07-1.14-6.42-2.3-9-4.34a107.88 107.88 0 0 1 14.57 5.79z" class="B"/><path d="M598.56 521.14c.85 1.68 1.66 3.85.44 5.28-.94 1.1-2.82 1.3-3.38 2.63a2.39 2.39 0 0 0 .91 2.68 5.88 5.88 0 0 0 2.84 1 25.37 25.37 0 0 0 7.28-.06 5.84 5.84 0 0 0 3.51-1.51 6.58 6.58 0 0 0 1.25-4l1.67-19.18a6 6 0 0 0-.19-2.73c-.67-1.63-2.6-2.3-4.33-2.6a23.24 23.24 0 0 0-5.89-.24 6.22 6.22 0 0 0-3.67 1.26 7.09 7.09 0 0 0-1.73 4c-.45 2.28-1.7 5.44-1.44 7.75.17 1.9 1.9 4.03 2.73 5.7zm-22.08-6.198a23.35 23.35 0 0 0-11.11 1.25c-1.14.42-2.4 1.13-2.56 2.33a2.49 2.49 0 0 0 1.48 2.39 7 7 0 0 0 2.94.53 99.64 99.64 0 0 0 15.82-.84 8.51 8.51 0 0 0 3.85-1.21 3 3 0 0 0 1.21-3.56c-.63-1.32-2.35-1.73-3.18-2.92-.6-.86-.75-2.13-1.7-2.58a2.89 2.89 0 0 0-2.15.16c-1 .35-3.4.7-4.1 1.53a11.49 11.49 0 0 0-.52 2.92z" class="C"/><circle cx="562.32" cy="405.042" r="13.13" fill="#fabdbd"/><path d="M593.46 399.262c-2.1-1.55-4.77-2.08-7.34-2.56a3.84 3.84 0 0 0-2.64.13 3.9 3.9 0 0 0-1.27 1.56 14.52 14.52 0 0 0-1.74 4.15 4.82 4.82 0 0 0 1 4.23c.78.8 1.9 1.2 2.7 2a5 5 0 0 1 1.18 4.32 12.93 12.93 0 0 1-1.75 4.27 72.33 72.33 0 0 1-6.58 9.68c-2.55 3.17-5.4 6.22-6.9 10a13.38 13.38 0 0 0 1 12.32c2.43 3.54 7.27 5.44 11.28 3.9a3.72 3.72 0 0 0-1.14 2.72l5.5 2.73a2.08 2.08 0 0 1 1 .78 2 2 0 0 1 .1 1.16 36.47 36.47 0 0 0-.67 6.73c.15 2.25 1.18 4.62 3.22 5.6 1.87.9 4.1.42 6.13 0a76.53 76.53 0 0 1 14.47-1.52c2.42 0 4.92.06 7.15-.88a8.5 8.5 0 0 0 5.07-7.69 16.4 16.4 0 0 0-1.11-5.06c-3.1-9.3-6.2-18.62-10.33-27.5a96.65 96.65 0 0 0-9.81-16.8c-1-1.33-2-2.64-3.1-3.9-.78-.9-2.53-2.2-2.85-3.35s.36-2.28 0-3.46a7 7 0 0 0-2.55-3.55z" class="C"/><path d="M625.68 482.372c-5.76-2.66-11.52-5.32-17.5-7.4-4.4-1.52-9.33-2.7-13.66-1-1.3.52-2.48 1.27-3.73 1.88-4.2 2-9 2.34-13.63 2.85a128 128 0 0 0-30.15 7.17c-2.33.86-4.84 2-6 4.18a9.57 9.57 0 0 0-.64 5c.17 2.55.56 5.23 2.15 7.22 2.64 3.3 7.43 3.55 11.53 4.6a50.53 50.53 0 0 1 9.13 3.64l28.57 14.1c1.1.6 2.44 0 3.38-.83a20.79 20.79 0 0 0 5.9-9.72 41.94 41.94 0 0 0 1.5-11.38c3.68 0 6.67-.16 10.35-.16a10.7 10.7 0 0 0 4-.51c2.47-1 3.8-3.63 4.92-6.05 1.98-4.27 4.2-8.9 3.9-13.58z" class="E"/><path d="M558.8 496.042c2.6-1.26 5.6-1.3 8.48-1.27a28.06 28.06 0 0 1 5.26.4 41.53 41.53 0 0 1 7.69 2.89 48.82 48.82 0 0 0 19.38 3.8" class="B"/><path d="M543.86 406.902a14.32 14.32 0 0 0 7.08 3.55c2.6.6 5.28.83 7.9 1.4 3.22.7 6.74 2.4 7.47 5.63a18.7 18.7 0 0 1 .1 3.89 4.41 4.41 0 0 0 1.35 3.51 6 6 0 0 0 1.68.79 28 28 0 0 1 18 25.84 12.73 12.73 0 0 0 6.18-9.12c0 3.48 3 7 1.3 10.1a16 16 0 0 0 3.85-23.25c-1.32-1.68-3-3.08-4.38-4.7a21.74 21.74 0 0 1-5.18-16.6c.3-2.53 1-5.1.47-7.58-.77-3.45-3.8-5.85-6.68-7.9a38.39 38.39 0 0 0-6.48-3.94 31.86 31.86 0 0 0-9.49-2.31c-7.2-.8-13.62.3-18.1 6.4a13.17 13.17 0 0 1-3.42 3.56 12.89 12.89 0 0 0-2.79 1.79c-2.3 2.54-1 6.74 1.13 8.9z" class="E"/><path d="M409 260.49c-.4-.17-28.9-11.94-25-14.28 2.33-1.4 5.2-7.27 7.16-11.88 1.37-3.2 2.3-5.8 2.3-5.8s22.88-4.06 14.7 10a26.09 26.09 0 0 0-2.89 6.91c-2.36 9.5 3.5 14.88 3.74 15.06z" class="G"/><path d="M408.12 238.482a26.09 26.09 0 0 0-2.89 6.91 16 16 0 0 1-13.5-9.5 14 14 0 0 1-.6-1.56l2.3-5.8s22.88-4.06 14.7 9.96z" class="B"/><path d="M422.34 228.922a16 16 0 0 1-30.61 6.45 15.79 15.79 0 0 1-1.36-6.45 16 16 0 0 1 31.35-4.43 16.18 16.18 0 0 1 .62 4.43z" class="G"/><path d="M437.76 352.772a9.73 9.73 0 0 0-2.32 4.42s-7.86 5.37-7.34 2-4.1-17.2-4.1-17.2l.52 18.74s-25.15-1.18-27-3-12.52-5.4-12.52-5.4-3.3 2.64-6.32 4.64l-.7-4.25 10.8-8.7 27-7.08 10.14-3.26 9.9 15.6s1.02 1.62 1.93 3.5z" class="B"/><path d="M438.58 351.292c-2.1 1.3-2.88 4.85-2.88 4.85s-7.86 5.37-7.34 2-4.06-17.16-4.06-17.16l.53 18.74s-25.16-1.18-27-3-12.58-5.37-12.58-5.37-9.3 7.47-11 6.8 3-13.36 3-13.36l4.84-74.42s-1.3-22.14.66-22.93a2.6 2.6 0 0 0 .82-.52c1.3-1.16 1.7-3.52 1.8-5.5.13-2.35 3.27-1.18 3.27-1.18l-1.83 2.36 16.38 9.96a19.49 19.49 0 0 1 2-.89c1.44-.55 3.35-1.07 4.6-.55a4.51 4.51 0 0 1 1.72 1.55 19.17 19.17 0 0 1 2.21 4.48l5.9 9.95 3 13.76c0 .52.92 12.58 2 13.9s2.1 7.86 1.7 9.83.65 9.3.65 9.3c4.33 3.54 6.55 15.6 6.55 15.6s6.82 13.5 7.34 15.07-.2 5.44-2.3 6.75z" class="D"/><path d="M403.07 252.942c-1.6 2.36-6.2 5.67-6.2 5.67l-13.28-11.2c1.3-1.16 1.7-3.53 1.8-5.5.13-2.36 3.27-1.18 3.27-1.18l-.38.5a2.12 2.12 0 0 0 .57 3.1z" class="B"/><path d="M403.07 252.412c-1.6 2.36-6.2 5.68-6.2 5.68l-13.28-11.22c1.3-1.16 1.7-3.52 1.8-5.5.13-2.35 3.27-1.18 3.27-1.18l-.38.5a2.12 2.12 0 0 0 .57 3.1z" class="D"/><path d="M409.2 254.182c-1.72 2.05-4.15 4.38-4 3.2s-1.45-3.74-2.44-4.9a7.3 7.3 0 0 1 4.76.13 4.51 4.51 0 0 1 1.68 1.55z" class="B"/><path d="M409.47 253.392c-1.72 2.06-4.15 4.38-4 3.22s-1.3-3.06-2.3-4.2c1.44-.55 3.35-1.07 4.6-.55a4.4 4.4 0 0 1 1.69 1.54z" class="D"/><path d="M383.6 247.522s.17-1.57-2.1 1.14a27.69 27.69 0 0 1-6.5 5.02s-9.7 6.82-10.22 10-3.67 16.77-2 21.3 14.33 26.3 14.33 26.3-3.32 3.93-2.54 8.56 1.75 11 1.3 12.4.53 4.9-1 6.1-3.05 3.32 1.58 6.12c0 0 .87 2.36.08 2.88s11.62 5.94 16.5 3.06 13.72-25.94 13.9-31.1-2.7-22.18-4.28-26.2-6.3-19.66-8.3-23.15-10.76-22.45-10.76-22.45z" class="B"/><path d="M383.07 247.522s.18-1.57-2.1 1.14a27.69 27.69 0 0 1-6.55 5.06s-9.7 6.82-10.22 10-3.67 16.77-2 21.3 14.32 26.3 14.32 26.3-3.32 3.93-2.53 8.56 1.75 11 1.3 12.4.52 4.9-1 6.1-3.06 3.32 1.57 6.12c0 0 .88 2.36.1 2.88s11.62 5.94 16.5 3.06 13.7-25.94 13.9-31.1-2.7-22.18-4.28-26.2-6.3-19.66-8.3-23.15-10.72-22.5-10.72-22.5z" class="C"/><path d="M379.58 262.372s7.5 8.3 7.25 13.8c0 0 .1-8.9-7.25-13.8zm25.35-11.88s4.87-3 11 4.63l5.76 3.15 2.8 16.85s2.88 7 2.1 11 2.28 17.82 2.28 17.82l4.9 25.5c-.17.7-5.16-7.77-5.07-12s-4.2-17.3-4.8-18.08-4.8-23.24-4.8-23.24-3.4-9.52-5.6-12.66-4.9-9.1-6-10.14a11.55 11.55 0 0 0-2.7-1.74z" class="B"/><path d="M404.87 250.492s5.46-3 11.57 4.63l5.77 3.15s2.8 16.85 2.8 16.85 2.88 7 2.1 11 2.27 17.82 2.27 17.82l4.9 25.5c-.18.7-5.15-7.77-5.07-12s-4.2-17.3-4.8-18.08-4.8-23.24-4.8-23.24-3.4-9.44-5.6-12.6-4.9-9.1-6-10.14a10.93 10.93 0 0 0-3.23-1.74z" class="C"/><path d="M428.85 305.082s10.4-6.8 15.4-3.45 13.24 8.13 5.16 11.58-19.26 2.8-19.26 2.8z" class="G"/><path d="M421.62 370.812c-1.55 3.33-2.83 20-3.7 25.32l-3.25-5.47a69.83 69.83 0 0 1-3.05-7.78c1-2.4 3.7-9.28 3.7-11.8 0-3.08 5-6.95 5-6.95a5.78 5.78 0 0 1 1.29 6.68zm.1-146.32a4.74 4.74 0 0 1-.78.32c-1.23.33-2.43-.5-3.52-1.16s-2.6-1.15-3.55-.3c-1.23 1.12-.34 3.5-1.6 4.6-.8.7-2.07.45-3 1s-1.16 1.8-1.4 2.86-.67 2.28-1.72 2.6-2-.37-3-.34c-.2 0-.46 0-.6-.12a.64.64 0 0 1-.1-.47 10.24 10.24 0 0 0-.34-3.79 3.63 3.63 0 0 0-2.66-2.5c-1.84-.28-3.4 1.33-4.47 2.85a46.4 46.4 0 0 0-3.09 5c-.05.1-.1.2-.16.35a15.79 15.79 0 0 1-1.36-6.45 16 16 0 0 1 31.35-4.43z" class="B"/><path d="M395 229.782c1.08-1.52 2.63-3.13 4.47-2.85a3.64 3.64 0 0 1 2.66 2.49 10.07 10.07 0 0 1 .33 3.79.7.7 0 0 0 .11.48c.14.16.4.13.6.12 1 0 2.05.63 3 .34s1.5-1.53 1.72-2.6.47-2.28 1.4-2.86 2.17-.33 3-1c1.27-1.08.38-3.48 1.6-4.6.95-.86 2.46-.37 3.55.3s2.3 1.5 3.52 1.16a10.39 10.39 0 0 0 1.19-.51c1.95-.74 4.47.52 6.06-.8a4.71 4.71 0 0 0 1.21-2.1 12.9 12.9 0 0 0 .88-3.33 4.48 4.48 0 0 0-.88-3.26c-1-1.22-2.8-1.53-4.13-2.43a10.14 10.14 0 0 1-2.63-3.11 11.49 11.49 0 0 0-2.56-3.18 3.76 3.76 0 0 0-3.85-.6 4 4 0 0 1-1.26.59 2.52 2.52 0 0 1-1.39-.38c-4.54-2.14-9.83-1.76-14.8-1.12a19.06 19.06 0 0 0-5.84 1.41 7 7 0 0 0-3.94 4.31c-.4 1.54-.1 3.2-.58 4.73-.33 1-1 1.9-1.4 2.92-1.06 2.76.2 5.8.75 8.7.6 3.18.3 6.62 1.64 9.63.27.6.56 1.62 1.23 1.23.5-.3 1-2 1.25-2.5a48.14 48.14 0 0 1 3.1-4.99z" class="E"/><path d="M366.22 280.982l-2.36 6.7s5.6 20.8 8.2 25.16 6.46 10 6.46 10a24 24 0 0 0 14 1.74l29.43-5.4a2.92 2.92 0 0 0 2.8-1.05c1-1.4 5.94-2.1 5.94-2.1s5.76-8.38-1.3-11.88c0 0-.87 1.93-4.63.6s-4.9 1.05-4.9 1.05-6.12 1.23-9.52.8-11.88-.6-12.76-1.3a1.11 1.11 0 0 0-1.57.09 9.53 9.53 0 0 1-2.79-1.58c-.7-.78-1.66.88-1.66.88s-1.23-.7-.88-1.57-1.13-4.2-1.13-4.2a8.46 8.46 0 0 1-.26-3.93c.43-1.75-2.2-8-2.2-8a11.34 11.34 0 0 1 .35-3.15c.44-1.57-3.32-4.72-3.32-4.72s-3.67-17.8-11.44-12-6.48 13.88-6.48 13.88z" class="B"/><path d="M365.7 280.982l-2.36 6.7s5.6 20.8 8.2 25.16 6.47 10 6.47 10a23.94 23.94 0 0 0 14 1.74l29.44-5.4a2.92 2.92 0 0 0 2.8-1.05c1-1.4 5.94-2.1 5.94-2.1s5.76-8.38-1.3-11.88c0 0-.88 1.93-4.63.6s-4.9 1.05-4.9 1.05-6.1 1.23-9.52.8-11.88-.6-12.75-1.3a1.11 1.11 0 0 0-1.57.09 9.54 9.54 0 0 1-2.8-1.58c-.7-.78-1.66.88-1.66.88s-1.22-.7-.87-1.57-1.14-4.2-1.14-4.2a8.61 8.61 0 0 1-.26-3.93c.44-1.75-2.18-8-2.18-8a10.91 10.91 0 0 1 .35-3.15c.43-1.57-3.32-4.72-3.32-4.72s-3.67-17.8-11.44-12-6.5 13.88-6.5 13.88z" class="C"/><path d="M387.27 301.242s-8.56 1.75-5.68 3.23 5.68-3.23 5.68-3.23z" class="B"/><path d="M402.1 227.94a3.6 3.6 0 0 0-2.66-2.49c-1.84-.28-3.4 1.33-4.47 2.84a48.28 48.28 0 0 0-3.1 5c-.28.52-.76 2.2-1.25 2.5-.67.4-1-.65-1.23-1.24-1.35-3-1-6.45-1.64-9.63a55.71 55.71 0 0 1-1.13-5.61c-.2 2.28.7 4.68 1.13 7 .6 3.18.3 6.62 1.64 9.63.27.6.56 1.62 1.23 1.23.5-.3 1-2 1.25-2.48a47.24 47.24 0 0 1 3.1-5c1.08-1.52 2.63-3.13 4.47-2.84a3.6 3.6 0 0 1 2.66 2.49 6.84 6.84 0 0 1 .35 2 9 9 0 0 0-.35-3.39zm27.3-8.26a4.62 4.62 0 0 1-1.21 2.09c-1.6 1.33-4.1.08-6.06.82-.4.15-.77.4-1.2.5-1.23.32-2.43-.5-3.52-1.16s-2.6-1.16-3.55-.3c-1.23 1.12-.34 3.5-1.6 4.6-.8.7-2.07.45-3 1s-1.16 1.8-1.4 2.85-.67 2.28-1.72 2.6-2-.37-3-.33c-.2 0-.46 0-.6-.12a.28.28 0 0 1-.07-.13v1.05a.69.69 0 0 0 .11.47c.14.16.4.13.6.13 1 0 2.05.62 3 .33s1.5-1.52 1.72-2.6.47-2.27 1.4-2.85 2.17-.33 3-1c1.27-1.08.38-3.47 1.6-4.6.95-.86 2.46-.37 3.55.3s2.3 1.5 3.52 1.16a12.45 12.45 0 0 0 1.19-.5c1.95-.74 4.47.5 6.06-.82a4.67 4.67 0 0 0 1.21-2.09 13.08 13.08 0 0 0 .88-3.34 5.09 5.09 0 0 0 0-1.17 14.81 14.81 0 0 1-.92 3.11z" class="B"/><ellipse cx="255" cy="472.472" rx="40.92" ry="7.87" class="C"/><g class="E"><ellipse cx="254.32" cy="469.131" rx="4.76" ry="6.24"/><ellipse cx="254.32" cy="461.511" rx="4.76" ry="6.24"/><ellipse cx="254.32" cy="453.891" rx="4.76" ry="6.24"/><ellipse cx="254.32" cy="446.261" rx="4.76" ry="6.24"/><ellipse cx="254.32" cy="438.641" rx="4.76" ry="6.24"/><ellipse cx="254.32" cy="431.021" rx="4.76" ry="6.24"/><ellipse cx="254.32" cy="423.401" rx="4.76" ry="6.24"/></g><use xlink:href="#F" class="C"/><use xlink:href="#G" class="B"/><g class="C"><circle cx="304.512" cy="109.198" r="15.27" class="B"/><circle cx="341.191" cy="178.361" r="25.6" class="B"/><circle cx="112.355" cy="355.612" r="8.65" class="B"/><circle cx="142.794" cy="302.372" r="14.5" class="B"/><circle cx="67.002" cy="364.187" r="14.5" class="B"/><circle cx="903.178" cy="414.114" r="8.65" class="B"/><circle cx="679.289" cy="410.178" r="14.5" class="B"/><circle cx="100.371" cy="253.764" r="13.443" class="B"/><circle cx="297.596" cy="263.347" r="20.92" class="B"/><circle cx="626.484" cy="358.158" r="20.92" class="B"/></g><ellipse cx="255" cy="475.472" rx="119.5" ry="24" fill="none" class="F"/><ellipse cx="811.844" cy="473.791" rx="40.92" ry="7.87" class="C"/><g class="E"><ellipse cx="811.164" cy="470.451" rx="4.76" ry="6.24"/><ellipse cx="811.164" cy="462.831" rx="4.76" ry="6.24"/><ellipse cx="811.164" cy="455.211" rx="4.76" ry="6.24"/><ellipse cx="811.164" cy="447.581" rx="4.76" ry="6.24"/><ellipse cx="811.164" cy="439.961" rx="4.76" ry="6.24"/><ellipse cx="811.164" cy="432.341" rx="4.76" ry="6.24"/><ellipse cx="811.164" cy="424.721" rx="4.76" ry="6.24"/></g><use xlink:href="#F" x="556.844" y="1.318" class="C"/><use xlink:href="#G" x="556.834" y="1.318" class="B"/><ellipse cx="120" cy="546.472" rx="119.5" ry="24" fill="none" class="F"/><circle cx="123.811" cy="176.368" r="22.855" class="B C"/></svg>