<svg xmlns="http://www.w3.org/2000/svg" width="1920" height="713"><defs><linearGradient id="A" x1="1790.344" y1="85.522" x2="1696.696" y2="283.736" gradientUnits="userSpaceOnUse"><stop offset="0" stop-color="#0b7463"/><stop offset="1" stop-color="#0e9481"/></linearGradient></defs><g transform="matrix(1.447128 0 0 1.447128 -830.48557 -116)"><path d="M1528.935 0a262.553 262.553 0 0 0-60.002 166.854A262.553 262.553 0 0 0 1920 349.195V0z" fill="url(#A)" paint-order="normal"/><g transform="matrix(2.34691 0 0 2.34691 1263.5638 1390.4935)" fill="#239274"><circle cx="131.414" cy="-491.094" r="7.265" paint-order="normal"/><circle cx="141.108" cy="-527.188" r="7.164" paint-order="normal"/><circle cx="125.683" cy="-507.715" r="4.291" paint-order="normal"/><circle cx="130.361" cy="-458.771" r="5.527" paint-order="normal"/><circle cx="190.964" cy="-419.55" r="5.795" paint-order="normal"/><circle cx="213.582" cy="-464.432" r="4.045" paint-order="normal"/><circle cx="222.702" cy="-461.444" r="2.107" paint-order="normal"/><circle cx="233.493" cy="-470.865" r="4.145" paint-order="normal"/><circle cx="270.498" cy="-474.06" r="6.35" paint-order="normal"/></g></g><g transform="matrix(.258819 -.965926 -.965926 -.258819 -126 0)" fill="#d67a00"><circle r="32.903" cy="-1329.832" cx="308.873" fill-opacity=".098" paint-order="normal"/><circle r="16.898" cy="-1228.22" cx="257.842" fill-opacity=".098" paint-order="normal"/><circle r="14.595" cy="-1193.788" cx="173.775" fill-opacity=".098" paint-order="normal"/><circle r="8.059" cy="-1117.808" cx="151.718" fill-opacity=".098" paint-order="normal"/></g></svg>