<svg xmlns="http://www.w3.org/2000/svg" xmlns:xlink="http://www.w3.org/1999/xlink" width="1920" height="1406.45"><defs><linearGradient id="A" gradientUnits="userSpaceOnUse"><stop offset="0" stop-color="#0b7463"/><stop offset="1" stop-color="#0e9481"/></linearGradient><linearGradient xlink:href="#A" id="B" x1="1902.905" y1="1331.158" x2="1743.748" y2="1157.991"/><linearGradient xlink:href="#A" id="C" x1="1860.566" y1="51.338" x2="1569.275" y2="352.566"/></defs><g fill="#d0e6e3"><path d="M1500.238 1222.996a82.275 82.275 0 1 0 0 164.551 82.275 82.275 0 1 0 0-164.551z" paint-order="normal"/><path clip-path="none" d="M1860.842 802.795a71.155 71.155 0 1 0 0 142.311A71.155 71.155 0 0 0 1920 913.424v-78.92a71.155 71.155 0 0 0-59.158-31.709z" paint-order="normal"/></g><path d="M1436.166 0a310.772 310.772 0 0 0-30.976 134.145A310.772 310.772 0 0 0 1920 367.852V0h-483.834z" fill="url(#C)" paint-order="normal"/><g fill="#239274"><circle cx="1527.162" cy="218.285" r="20.181" paint-order="normal"/><circle cx="1554.093" cy="118.02" r="19.902" paint-order="normal"/><circle cx="1511.244" cy="172.113" r="11.921" paint-order="normal"/><circle cx="1524.237" cy="308.075" r="15.355" paint-order="normal"/><circle cx="1692.589" cy="417.031" r="16.097" paint-order="normal"/><circle cx="1755.419" cy="292.35" r="11.236" paint-order="normal"/><circle cx="1780.755" cy="300.651" r="5.853" paint-order="normal"/><circle cx="1810.732" cy="274.479" r="11.514" paint-order="normal"/></g><path d="M1836.084 1095.14a155.155 155.155 0 1 0 0 310.311 155.155 155.155 0 0 0 83.916-24.656V1119.98a155.155 155.155 0 0 0-83.916-24.84z" fill="url(#B)" paint-order="normal"/></svg>