<svg xmlns="http://www.w3.org/2000/svg" xmlns:xlink="http://www.w3.org/1999/xlink" width="1280" height="1406.45"><defs><linearGradient id="A" gradientUnits="userSpaceOnUse"><stop offset="0" stop-color="#0b7463"/><stop offset="1" stop-color="#0e9481"/></linearGradient><linearGradient xlink:href="#A" id="B" x1="1269.237" y1="1242.676" x2="1169.034" y2="1133.653"/><linearGradient xlink:href="#A" id="C" x1="1220.566" y1="51.338" x2="929.275" y2="352.566"/></defs><g fill="#d0e6e3"><path d="M1015.724 1290.58a51.799 51.799 0 1 0 0 103.599 51.799 51.799 0 1 0 0-103.599z" paint-order="normal"/><path clip-path="none" d="M1242.755 910.027a44.798 44.798 0 1 0 0 89.597A44.798 44.798 0 0 0 1280 979.677V929.99a44.798 44.798 0 0 0-37.245-19.963z" paint-order="normal"/></g><g transform="matrix(.759135 0 0 .759135 308.30762 0)"><path d="M796.166 0a310.772 310.772 0 0 0-30.977 134.145A310.772 310.772 0 0 0 1280 367.852V0z" fill="url(#C)" paint-order="normal"/><g fill="#239274"><circle r="20.181" cy="218.285" cx="887.162" paint-order="normal"/><circle r="19.902" cy="118.02" cx="914.093" paint-order="normal"/><circle r="11.921" cy="172.113" cx="871.244" paint-order="normal"/><circle r="15.355" cy="308.075" cx="884.237" paint-order="normal"/><circle r="16.097" cy="417.031" cx="1052.589" paint-order="normal"/><circle r="11.236" cy="292.35" cx="1115.419" paint-order="normal"/><circle r="5.853" cy="300.651" cx="1140.755" paint-order="normal"/><circle r="11.514" cy="274.479" cx="1170.732" paint-order="normal"/></g></g><path d="M1227.168 1094.082a97.683 97.683 0 1 0 0 195.367 97.683 97.683 0 0 0 52.832-15.523V1109.72a97.683 97.683 0 0 0-52.832-15.639z" fill="url(#B)" paint-order="normal"/></svg>