<svg xmlns="http://www.w3.org/2000/svg" width="1920" height="1406" viewBox="0 0 508 372.004"><style><![CDATA[.B{opacity:.9}]]></style><defs><linearGradient id="A" x1="75.022" x2="11.888" y1="91.853" y2="165.15" gradientUnits="userSpaceOnUse"><stop stop-color="#f9aa33" offset="0"/><stop stop-color="#d37e01" offset="1"/></linearGradient></defs><g transform="translate(0 75.004)"><circle cx="103.57" cy="75.506" r="24.85" fill="#f9aa33" fill-opacity=".558" paint-order="normal"/><circle cx="46.399" cy="121.32" r="73.231" fill="url(#A)" paint-order="normal"/><g transform="matrix(.52325 0 0 .52325 -45.891 115.97)" fill="#a3c8c3"><circle cx="104.1" cy="257.44" r="1.871" paint-order="normal" class="B"/><circle cx="104.1" cy="268.67" r="1.871" paint-order="normal" class="B"/><circle cx="104.1" cy="279.89" r="1.871" paint-order="normal" class="B"/><circle cx="104.1" cy="291.12" r="1.871" paint-order="normal" class="B"/><circle cx="104.1" cy="302.35" r="1.871" paint-order="normal" class="B"/><circle cx="104.1" cy="313.57" r="1.871" paint-order="normal" class="B"/><circle cx="104.1" cy="324.8" r="1.871" paint-order="normal" class="B"/><circle cx="104.1" cy="336.02" r="1.871" paint-order="normal" class="B"/><circle cx="115.33" cy="257.44" r="1.871" paint-order="normal" class="B"/><circle cx="115.33" cy="268.67" r="1.871" paint-order="normal" class="B"/><circle cx="115.33" cy="279.89" r="1.871" paint-order="normal" class="B"/><circle cx="115.33" cy="291.12" r="1.871" paint-order="normal" class="B"/><circle cx="115.33" cy="302.35" r="1.871" paint-order="normal" class="B"/><circle cx="115.33" cy="313.57" r="1.871" paint-order="normal" class="B"/><circle cx="115.33" cy="324.8" r="1.871" paint-order="normal" class="B"/><circle cx="115.33" cy="336.02" r="1.871" paint-order="normal" class="B"/><circle cx="126.55" cy="257.44" r="1.871" paint-order="normal" class="B"/><circle cx="126.55" cy="268.67" r="1.871" paint-order="normal" class="B"/><circle cx="126.55" cy="279.89" r="1.871" paint-order="normal" class="B"/><circle cx="126.55" cy="291.12" r="1.871" paint-order="normal" class="B"/><circle cx="126.55" cy="302.35" r="1.871" paint-order="normal" class="B"/><circle cx="126.55" cy="313.57" r="1.871" paint-order="normal" class="B"/><circle cx="126.55" cy="324.8" r="1.871" paint-order="normal" class="B"/><circle cx="126.55" cy="336.02" r="1.871" paint-order="normal" class="B"/><circle cx="137.78" cy="257.44" r="1.871" paint-order="normal" class="B"/><circle cx="137.78" cy="268.67" r="1.871" paint-order="normal" class="B"/><circle cx="137.78" cy="279.89" r="1.871" paint-order="normal" class="B"/><circle cx="137.78" cy="291.12" r="1.871" paint-order="normal" class="B"/><circle cx="137.78" cy="302.35" r="1.871" paint-order="normal" class="B"/><circle cx="137.78" cy="313.57" r="1.871" paint-order="normal" class="B"/><circle cx="137.78" cy="324.8" r="1.871" paint-order="normal" class="B"/><circle cx="137.78" cy="336.02" r="1.871" paint-order="normal" class="B"/><circle cx="149" cy="257.44" r="1.871" paint-order="normal" class="B"/><circle cx="149" cy="268.67" r="1.871" paint-order="normal" class="B"/><circle cx="149" cy="279.89" r="1.871" paint-order="normal" class="B"/><circle cx="149" cy="291.12" r="1.871" paint-order="normal" class="B"/><circle cx="149" cy="302.35" r="1.871" paint-order="normal" class="B"/><circle cx="149" cy="313.57" r="1.871" paint-order="normal" class="B"/><circle cx="149" cy="324.8" r="1.871" paint-order="normal" class="B"/><circle cx="149" cy="336.02" r="1.871" paint-order="normal" class="B"/><circle cx="160.23" cy="257.44" r="1.871" paint-order="normal" class="B"/><circle cx="160.23" cy="268.67" r="1.871" paint-order="normal" class="B"/><circle cx="160.23" cy="279.89" r="1.871" paint-order="normal" class="B"/><circle cx="160.23" cy="291.12" r="1.871" paint-order="normal" class="B"/><circle cx="160.23" cy="302.35" r="1.871" paint-order="normal" class="B"/><circle cx="160.23" cy="313.57" r="1.871" paint-order="normal" class="B"/><circle cx="160.23" cy="324.8" r="1.871" paint-order="normal" class="B"/><circle cx="160.23" cy="336.02" r="1.871" paint-order="normal" class="B"/><circle cx="171.45" cy="257.44" r="1.871" paint-order="normal" class="B"/><circle cx="171.45" cy="268.67" r="1.871" paint-order="normal" class="B"/><circle cx="171.45" cy="279.89" r="1.871" paint-order="normal" class="B"/><circle cx="171.45" cy="291.12" r="1.871" paint-order="normal" class="B"/><circle cx="171.45" cy="302.35" r="1.871" paint-order="normal" class="B"/><circle cx="171.45" cy="313.57" r="1.871" paint-order="normal" class="B"/><circle cx="171.45" cy="324.8" r="1.871" paint-order="normal" class="B"/><circle cx="171.45" cy="336.02" r="1.871" paint-order="normal" class="B"/><circle cx="182.68" cy="257.44" r="1.871" paint-order="normal" class="B"/><circle cx="182.68" cy="268.67" r="1.871" paint-order="normal" class="B"/><circle cx="182.68" cy="279.89" r="1.871" paint-order="normal" class="B"/><circle cx="182.68" cy="291.12" r="1.871" paint-order="normal" class="B"/><circle cx="182.68" cy="302.35" r="1.871" paint-order="normal" class="B"/><circle cx="182.68" cy="313.57" r="1.871" paint-order="normal" class="B"/><circle cx="182.68" cy="324.8" r="1.871" paint-order="normal" class="B"/><circle cx="182.68" cy="336.02" r="1.871" paint-order="normal" class="B"/><circle cx="193.9" cy="257.44" r="1.871" paint-order="normal" class="B"/><circle cx="193.9" cy="268.67" r="1.871" paint-order="normal" class="B"/><circle cx="193.9" cy="279.89" r="1.871" paint-order="normal" class="B"/><circle cx="193.9" cy="291.12" r="1.871" paint-order="normal" class="B"/><circle cx="193.9" cy="302.35" r="1.871" paint-order="normal" class="B"/><circle cx="193.9" cy="313.57" r="1.871" paint-order="normal" class="B"/><circle cx="193.9" cy="324.8" r="1.871" paint-order="normal" class="B"/><circle cx="193.9" cy="336.02" r="1.871" paint-order="normal" class="B"/><circle cx="205.13" cy="257.44" r="1.871" paint-order="normal" class="B"/><circle cx="205.13" cy="268.67" r="1.871" paint-order="normal" class="B"/><circle cx="205.13" cy="279.89" r="1.871" paint-order="normal" class="B"/><circle cx="205.13" cy="291.12" r="1.871" paint-order="normal" class="B"/><circle cx="205.13" cy="302.35" r="1.871" paint-order="normal" class="B"/><circle cx="205.13" cy="313.57" r="1.871" paint-order="normal" class="B"/><circle cx="205.13" cy="324.8" r="1.871" paint-order="normal" class="B"/><circle cx="205.13" cy="336.02" r="1.871" paint-order="normal" class="B"/><circle cx="216.35" cy="257.44" r="1.871" paint-order="normal" class="B"/><circle cx="216.35" cy="268.67" r="1.871" paint-order="normal" class="B"/><circle cx="216.35" cy="279.89" r="1.871" paint-order="normal" class="B"/><circle cx="216.35" cy="291.12" r="1.871" paint-order="normal" class="B"/><circle cx="216.35" cy="302.35" r="1.871" paint-order="normal" class="B"/><circle cx="216.35" cy="313.57" r="1.871" paint-order="normal" class="B"/><circle cx="216.35" cy="324.8" r="1.871" paint-order="normal" class="B"/><circle cx="216.35" cy="336.02" r="1.871" paint-order="normal" class="B"/></g></g></svg>