<svg xmlns="http://www.w3.org/2000/svg" width="960" height="800" viewBox="0 0 254.001 211.667"><defs><linearGradient id="A" x1="82.021" x2=".285" y1="68.275" y2="163.169" gradientUnits="userSpaceOnUse"><stop stop-color="#f9aa33" offset="0"/><stop stop-color="#d37e01" offset="1"/></linearGradient><linearGradient id="B" x1="248.043" y1="128.547" x2="192.574" y2="188.899" gradientUnits="userSpaceOnUse"><stop offset="0" stop-color="#0b7463"/><stop offset="1" stop-color="#0e9481"/></linearGradient></defs><circle r="94.809" cy="106.425" cx="44.965" fill="url(#A)" paint-order="normal"/><circle cx="100.236" cy="-36.144" transform="scale(1 -1)" r="25.601" fill="#faab32" fill-opacity=".557" paint-order="normal"/><path d="M224.754 210.804a54.074 54.074 0 1 1 0-108.148 54.074 54.074 0 0 1 29.246 8.593v90.898a54.074 54.074 0 0 1-29.246 8.657z" fill="url(#B)" paint-order="normal"/><g fill="#d0e6e3"><path clip-path="none" d="M168.654 203.88a18.827 18.827 0 1 0-37.653 0 18.827 18.827 0 0 0 8.382 15.652h20.88a18.827 18.827 0 0 0 8.39-15.652z" paint-order="normal"/><path d="M247.755 48.447a21.769 21.769 0 1 0 0 43.538 21.769 21.769 0 1 0 0-43.537z" paint-order="normal"/></g></svg>