<?xml version="1.0" encoding="UTF-8" standalone="no"?>
<!-- Created with Inkscape (http://www.inkscape.org/) -->

<svg
   xmlns:dc="http://purl.org/dc/elements/1.1/"
   xmlns:cc="http://creativecommons.org/ns#"
   xmlns:rdf="http://www.w3.org/1999/02/22-rdf-syntax-ns#"
   xmlns:svg="http://www.w3.org/2000/svg"
   xmlns="http://www.w3.org/2000/svg"
   xmlns:sodipodi="http://sodipodi.sourceforge.net/DTD/sodipodi-0.dtd"
   xmlns:inkscape="http://www.inkscape.org/namespaces/inkscape"
   width="150.38mm"
   height="76.508mm"
   version="1.1"
   viewBox="0 0 150.38 76.508"
   id="svg74"
   sodipodi:docname="inclusion_logo_text.svg"
   inkscape:version="0.92.4 (5da689c313, 2019-01-14)">
  <defs
     id="defs78" />
  <sodipodi:namedview
     pagecolor="#ffffff"
     bordercolor="#666666"
     borderopacity="1"
     objecttolerance="10"
     gridtolerance="10"
     guidetolerance="10"
     inkscape:pageopacity="0"
     inkscape:pageshadow="2"
     inkscape:window-width="1360"
     inkscape:window-height="705"
     id="namedview76"
     showgrid="false"
     inkscape:zoom="0.91068561"
     inkscape:cx="-57.417614"
     inkscape:cy="157.87005"
     inkscape:window-x="-5"
     inkscape:window-y="-8"
     inkscape:window-maximized="1"
     inkscape:current-layer="svg74" />
  <metadata
     id="metadata2">
    <rdf:RDF>
      <cc:Work
         rdf:about="">
        <dc:format>image/svg+xml</dc:format>
        <dc:type
           rdf:resource="http://purl.org/dc/dcmitype/StillImage" />
        <dc:title />
      </cc:Work>
    </rdf:RDF>
  </metadata>
  <g
     transform="translate(28.602 -338.39)"
     id="g72">
    <g
       transform="translate(0 108.9)"
       id="g14">
      <g
         transform="translate(0 76.172)"
         id="g6">
        <path
           transform="matrix(.26458 0 0 .26458 0 -76.172)"
           d="m70.357 905.16a106.79 106.79 0 0 0-106.79 106.79 106.79 106.79 0 0 0 106.79 106.79 106.79 106.79 0 0 0 106.79-106.79 106.79 106.79 0 0 0-106.79-106.79zm-125.64 45.691a15.022 15.022 0 0 0-15.021 15.021 15.022 15.022 0 0 0 15.021 15.023 15.022 15.022 0 0 0 15.021-15.023 15.022 15.022 0 0 0-15.021-15.021zm79.865 2e-3a15.022 15.022 0 0 1 15.021 15.021 15.022 15.022 0 0 1-15.021 15.021 15.022 15.022 0 0 1-15.021-15.021 15.022 15.022 0 0 1 15.021-15.021z"
           fill="#e37c0d"
           style="paint-order:normal"
           id="path4" />
      </g>
      <g
         transform="translate(0 76.172)"
         fill="#fff"
         id="g12">
        <path
           d="m2.5041 207.61h10.253v-4.9609h-2.4096v-16.773h-7.843v4.8192h2.4805v11.954h-2.4805z"
           style="paint-order:normal;fill:#000000;fill-opacity:1"
           id="path8" />
        <path
           transform="scale(.26458)"
           d="m66.168 700.32-16.945 10.316c5 2.9464 13.252 12.461 13.252 23.09v32.189h-9.0176v18.75h38.75v-18.75h-9.1074v-30.404c11.684-20.238 27.611-18.037 27.611-4.1071v53.261h29.732v-18.75h-9.1074v-43.797c0-12.658-22.696-37.986-54.672-9.9788z"
           style="paint-order:normal;fill:#000000;fill-opacity:1"
           id="path10" />
      </g>
    </g>
    <g
       id="g68">
      <flowRoot
         transform="scale(.26458)"
         fill="#000000"
         font-family="TriplexSerifBold"
         font-size="40px"
         font-weight="bold"
         letter-spacing="0px"
         word-spacing="0px"
         style="line-height:1.25"
         xml:space="preserve"
         id="flowRoot22"><flowRegion
           id="flowRegion18"><rect
             x="183.85"
             y="649.77"
             width="109.1"
             height="121.22"
             id="rect16" /></flowRegion><flowPara
           id="flowPara20" /></flowRoot>      <flowRoot
         transform="scale(.26458)"
         fill="#000000"
         font-family="TriplexSerifBold"
         font-size="40px"
         font-weight="bold"
         letter-spacing="0px"
         word-spacing="0px"
         style="line-height:1.25"
         xml:space="preserve"
         id="flowRoot30"><flowRegion
           id="flowRegion26"><rect
             x="157.58"
             y="655.83"
             width="140.41"
             height="120.21"
             id="rect24" /></flowRegion><flowPara
           id="flowPara28" /></flowRoot>      <g
         transform="translate(.26727 183.1)"
         fill="#fff"
         stroke-width=".26458"
         id="g66">
        <g
           aria-label="inclusión"
           id="g50">
          <path
             d="m53.343 187.97q0 0.41487-0.29633 0.72602-0.29633 0.29633-0.72602 0.29633-0.41487 0-0.72602-0.29633-0.29633-0.31115-0.29633-0.72602 0-0.42968 0.29633-0.72601 0.31115-0.29634 0.72602-0.29634 0.42968 0 0.72602 0.29634 0.29633 0.29633 0.29633 0.72601zm-0.04445 7.4083h0.77047v1.5409h-3.23v-1.5409h0.77047v-3.7338h-0.77047v-1.5409h2.4596z"
             id="path32" />
          <path
             d="m55.634 195.37v-2.341q0-1.3928-1.1261-2.2521l1.4224-0.84455q0.29633 0.22225 0.85937 1.0075 1.1557-1.0964 2.2521-1.0964 0.93345 0 1.6002 0.60748 0.68157 0.59267 0.68157 1.5113v3.4078h0.77047v1.5409h-2.4596v-4.1487q0-1.1409-0.82973-1.1409-0.84455 0-1.4817 1.2742v2.4744h0.77047v1.5409h-3.23v-1.5409z"
             id="path34" />
          <path
             d="m66.077 191.57q-0.66675 0-1.0816 0.6223-0.3556 0.54822-0.3556 1.3187 0 0.77046 0.37042 1.3187 0.40005 0.6223 1.0668 0.6223 0.91863 0 1.378-0.59267l1.289 1.0224q-0.99272 1.289-2.667 1.2594-1.3631-0.0148-2.2818-1.1112-0.87418-1.052-0.87418-2.5188 0-1.452 0.889-2.5336 0.90382-1.0816 2.267-1.0964 1.5558-0.0296 2.5336 1.0816v1.7187h-1.5409v-0.77046q-0.42968-0.34079-0.99272-0.34079z"
             id="path36" />
          <path
             d="m71.805 195.37h0.77047v1.5409h-3.23v-1.5409h0.77047v-7.1416h-0.77047v-1.5409h2.4596z"
             id="path38" />
          <path
             d="m75.624 194.25q0 1.1409 0.74083 1.1409 1.1112 0 1.4224-1.2742v-2.4744h-0.77047v-1.5409h2.4596v3.882q0 1.3928 1.1261 2.2521l-1.4224 0.84455q-0.20743-0.13335-0.84455-0.9779-1.1112 1.0668-2.2077 1.0668-0.84455 0-1.4965-0.59266-0.69638-0.6223-0.69638-1.5261v-3.4078h-0.77047v-1.5409h2.4596z"
             id="path40" />
          <path
             d="m84.222 191.55q-0.2667-0.11854-0.56303-0.11854-0.81492 0-0.81492 0.51859 0 0.25188 0.38523 0.45931 0.32597 0.13335 0.65193 0.28152l0.66675 0.29633q1.3335 0.59267 1.3335 1.9262 0 0.93345-0.78528 1.5854-0.78528 0.63712-1.8076 0.63712-1.1261 0-2.0299-0.68157v-1.7632h1.5113v0.77047q0.34078 0.14816 0.59267 0.14816 0.889 0 0.889-0.6223 0-0.38523-0.96308-0.81491l-0.66675-0.29634q-1.4076-0.6223-1.4076-1.9262 0-0.90382 0.74083-1.5113 0.69638-0.56304 1.6298-0.56304 1.2742 0 2.1484 0.81492v1.6743h-1.5113z"
             id="path42" />
          <path
             d="m89.315 187.97q0 0.41487-0.29633 0.72602-0.29633 0.29633-0.72602 0.29633-0.41487 0-0.72602-0.29633-0.29633-0.31115-0.29633-0.72602 0-0.42968 0.29633-0.72601 0.31115-0.29634 0.72602-0.29634 0.42968 0 0.72602 0.29634 0.29633 0.29633 0.29633 0.72601zm-0.04445 7.4083h0.77047v1.5409h-3.23v-1.5409h0.77047v-3.7338h-0.77047v-1.5409h2.4596z"
             id="path44" />
          <path
             d="m93.948 189.88q1.3928 0 2.3114 1.0816 0.91863 1.0816 0.91863 2.5485t-0.91863 2.5485q-0.91863 1.0816-2.3114 1.0816-1.3928 0-2.3114-1.0816-0.91863-1.0816-0.91863-2.5485t0.91863-2.5485q0.91863-1.0816 2.3114-1.0816zm-1.5113 3.6301q0 0.77046 0.40005 1.3335 0.42968 0.60748 1.1112 0.60748 0.68157 0 1.1112-0.60748 0.40005-0.56304 0.40005-1.3335 0-0.77047-0.41487-1.3483-0.41487-0.59267-1.0964-0.59267-0.68157 0-1.0964 0.59267-0.41487 0.57785-0.41487 1.3483zm1.3039-6.3119q0.1778-0.31115 0.32597-0.45932 0.31115-0.31115 0.72602-0.31115 0.28152 0 0.45932 0.1778t0.1778 0.45932q0 0.41486-0.31115 0.72601-0.14817 0.14817-0.45932 0.32597l-1.4076 0.8001-0.31115-0.31115z"
             id="path46" />
          <path
             d="m98.769 195.37v-2.341q0-1.3928-1.1261-2.2521l1.4224-0.84455q0.29633 0.22225 0.85937 1.0075 1.1557-1.0964 2.2521-1.0964 0.93345 0 1.6002 0.60748 0.68157 0.59267 0.68157 1.5113v3.4078h0.77046v1.5409h-2.4596v-4.1487q0-1.1409-0.82974-1.1409-0.84455 0-1.4817 1.2742v2.4744h0.77046v1.5409h-3.23v-1.5409z"
             id="path48" />
        </g>
        <g
           aria-label="social"
           id="g64">
          <path
             d="m53.846 203.92q-0.2667-0.11853-0.56303-0.11853-0.81492 0-0.81492 0.51858 0 0.25189 0.38523 0.45932 0.32597 0.13335 0.65193 0.28152l0.66675 0.29633q1.3335 0.59267 1.3335 1.9262 0 0.93345-0.78528 1.5854-0.78528 0.63712-1.8076 0.63712-1.1261 0-2.0299-0.68157v-1.7632h1.5113v0.77046q0.34078 0.14817 0.59267 0.14817 0.889 0 0.889-0.6223 0-0.38523-0.96308-0.81492l-0.66675-0.29633q-1.4076-0.6223-1.4076-1.9262 0-0.90381 0.74083-1.5113 0.69638-0.56303 1.6298-0.56303 1.2742 0 2.1484 0.81492v1.6743h-1.5113z"
             id="path52" />
          <path
             d="m59.651 202.24q1.3928 0 2.3114 1.0816 0.91863 1.0816 0.91863 2.5485t-0.91863 2.5485q-0.91863 1.0816-2.3114 1.0816-1.3928 0-2.3114-1.0816-0.91863-1.0816-0.91863-2.5485t0.91863-2.5485q0.91863-1.0816 2.3114-1.0816zm-1.5113 3.6301q0 0.77047 0.40005 1.3335 0.42968 0.60749 1.1112 0.60749 0.68157 0 1.1112-0.60749 0.40005-0.56303 0.40005-1.3335 0-0.77046-0.41487-1.3483-0.41487-0.59267-1.0964-0.59267-0.68157 0-1.0964 0.59267-0.41487 0.57785-0.41487 1.3483z"
             id="path54" />
          <path
             d="m66.739 203.93q-0.66675 0-1.0816 0.6223-0.3556 0.54822-0.3556 1.3187 0 0.77047 0.37042 1.3187 0.40005 0.6223 1.0668 0.6223 0.91863 0 1.378-0.59267l1.289 1.0224q-0.99272 1.289-2.667 1.2594-1.3631-0.0148-2.2818-1.1112-0.87418-1.052-0.87418-2.5188 0-1.452 0.889-2.5336 0.90382-1.0816 2.267-1.0964 1.5558-0.0296 2.5336 1.0816v1.7187h-1.5409v-0.77047q-0.42968-0.34078-0.99272-0.34078z"
             id="path56" />
          <path
             d="m72.512 200.33q0 0.41487-0.29633 0.72602-0.29633 0.29633-0.72602 0.29633-0.41487 0-0.72602-0.29633-0.29633-0.31115-0.29633-0.72602 0-0.42968 0.29633-0.72602 0.31115-0.29633 0.72602-0.29633 0.42968 0 0.72602 0.29633 0.29633 0.29634 0.29633 0.72602zm-0.04445 7.4083h0.77047v1.5409h-3.23v-1.5409h0.77047v-3.7338h-0.77047v-1.5409h2.4596z"
             id="path58" />
          <path
             d="m79.279 206.35q0 1.3928 1.1261 2.2521l-1.4224 0.84455q-0.29633-0.20743-0.72602-0.81492-0.77047 0.87419-1.8965 0.87419-0.9779 0-1.7039-0.63712-0.78528-0.68157-0.78528-1.6595 0-1.0668 0.87418-1.7336 0.81492-0.63711 2.0595-0.63711h0.78528q0-1.0372-1.0816-1.0372-0.68157 0-1.2002 0.3556l-0.60748-1.3483q0.78528-0.56303 1.8076-0.56303 1.3335 0 2.0743 0.77047 0.69638 0.72601 0.69638 1.8965zm-1.6891-0.20744h-0.78528q-1.215 0-1.215 1.0668 0 0.32597 0.25188 0.5334 0.2667 0.19262 0.57785 0.19262 0.65193 0 1.2594-0.65193-0.0889-0.60749-0.0889-1.1409z"
             id="path60" />
          <path
             d="m83.349 207.74h0.77047v1.5409h-3.23v-1.5409h0.77047v-7.1416h-0.77047v-1.5409h2.4596z"
             id="path62" />
        </g>
      </g>
    </g>
  </g>
</svg>
