<svg xmlns="http://www.w3.org/2000/svg" width="247.449" height="213.574" viewBox="0 0 65.471 56.508"><path d="M37.217 0C21.613 0 8.964 12.65 8.964 28.253c0 7.493 2.977 14.68 8.275 19.98s12.485 8.275 19.978 8.275 14.68-2.977 19.978-8.275 8.275-12.485 8.275-19.98C65.47 12.65 52.82 0 37.217 0zM3.974 12.09C1.78 12.09 0 13.868 0 16.063c0 1.054.42 2.065 1.164 2.81s1.756 1.164 2.81 1.164 2.065-.42 2.81-1.164 1.164-1.756 1.164-2.81c0-2.195-1.78-3.974-3.974-3.974zm21.13.001c2.195 0 3.974 1.78 3.974 3.974s-1.78 3.974-3.974 3.974-3.974-1.78-3.974-3.974 1.78-3.974 3.974-3.974z" fill="#e37c0d" paint-order="normal"/><path d="M21.106 44.3H31.36v-4.96h-2.4V22.557h-7.843v4.82h2.48V39.33h-2.48zM36.1 21.974l-4.483 2.73c1.323.78 3.506 3.297 3.506 6.1v8.517h-2.386v4.96H43v-4.96h-2.4v-8.044c3.1-5.355 7.305-4.772 7.305-1.087v14.1h7.867v-4.96h-2.4V27.742c0-3.35-6.005-10.05-14.465-2.64z" paint-order="normal" fill="#000001"/></svg>