<svg xmlns="http://www.w3.org/2000/svg" xmlns:xlink="http://www.w3.org/1999/xlink" width="568.365" height="289.164" viewBox="0 0 150.38 76.508"><path d="M47.217 9.997c-7.494 0-14.68 2.977-19.98 8.276s-8.276 12.485-8.276 19.98c0 15.605 12.65 28.254 28.254 28.254s28.254-12.65 28.254-28.254c0-7.494-2.977-14.68-8.276-19.98S54.71 9.997 47.217 9.997zm-33.242 12.09c-2.195 0-3.974 1.78-3.974 3.974 0 1.054.42 2.065 1.164 2.8s1.756 1.164 2.8 1.164 2.065-.42 2.8-1.164 1.164-1.756 1.164-2.8c0-2.195-1.78-3.974-3.974-3.974zm21.13.001c2.195 0 3.974 1.78 3.974 3.974s-1.78 3.974-3.974 3.974-3.974-1.78-3.974-3.974 1.78-3.974 3.974-3.974z" fill="#e37c0d" paint-order="normal"/><path d="M31.106 54.292H41.36v-4.96h-2.4V32.558h-7.843v4.82h2.48V49.33h-2.48zM46.1 31.973l-4.483 2.73c1.323.78 3.506 3.297 3.506 6.1v8.517h-2.386v4.96H53v-4.96h-2.4v-8.044c3.1-5.355 7.305-4.772 7.305-1.087V54.3h7.866v-4.96h-2.4v-11.6c0-3.35-6.005-10.05-14.465-2.64z" paint-order="normal" fill="#000"/><g fill="#fff"><use xlink:href="#B"/><use xlink:href="#C"/><path d="M94.946 36.28q-.667 0-1.082.622-.356.548-.356 1.32 0 .77.37 1.32.4.622 1.067.622.92 0 1.378-.593l1.3 1.022q-.993 1.3-2.667 1.26-1.363-.015-2.282-1.1-.874-1.052-.874-2.52 0-1.452.9-2.534.904-1.082 2.267-1.096 1.556-.03 2.534 1.082v1.72h-1.54v-.77q-.43-.34-.993-.34zm5.728 3.8h.77v1.54h-3.23v-1.54h.77v-7.142h-.77v-1.54h2.46zm3.82-1.12q0 1.14.74 1.14 1.1 0 1.422-1.274v-2.474h-.77v-1.54h2.46v3.882q0 1.393 1.126 2.252l-1.422.845q-.207-.133-.845-.978-1.1 1.067-2.208 1.067-.845 0-1.496-.593-.696-.622-.696-1.526v-3.408h-.77v-1.54h2.46zm8.597-2.7q-.267-.12-.563-.12-.815 0-.815.52 0 .252.385.46.326.133.652.282l.667.296q1.334.593 1.334 1.926 0 .933-.785 1.585-.785.637-1.808.637-1.126 0-2.03-.682V39.4h1.5v.77q.34.148.593.148.9 0 .9-.622 0-.385-.963-.815l-.667-.296q-1.408-.622-1.408-1.926 0-.904.74-1.5.696-.563 1.63-.563 1.274 0 2.148.815v1.674h-1.5z"/><use xlink:href="#B" x="35.972"/><path d="M122.817 34.6q1.393 0 2.31 1.082.92 1.082.92 2.548 0 1.467-.92 2.55-.92 1.082-2.31 1.082-1.393 0-2.31-1.082-.92-1.082-.92-2.55 0-1.467.92-2.548.92-1.082 2.31-1.082zm-1.51 3.63q0 .77.4 1.334.43.607 1.11.607.682 0 1.11-.607.4-.563.4-1.334 0-.77-.415-1.348-.415-.593-1.096-.593-.682 0-1.096.593-.415.578-.415 1.348zm1.304-6.312q.178-.31.326-.46.31-.31.726-.31.282 0 .46.178.178.178.178.46 0 .415-.31.726-.148.148-.46.326l-1.408.8-.31-.31z"/><use xlink:href="#C" x="43.135"/><path d="M82.715 48.63q-.267-.12-.563-.12-.815 0-.815.52 0 .252.385.46.326.133.652.282l.667.296q1.334.593 1.334 1.926 0 .933-.785 1.585-.785.637-1.808.637-1.126 0-2.03-.682V51.77h1.5v.77q.34.148.593.148.9 0 .9-.622 0-.385-.963-.815l-.667-.296q-1.408-.622-1.408-1.926 0-.904.74-1.5.696-.563 1.63-.563 1.274 0 2.148.815v1.674h-1.5zm5.805-1.68q1.393 0 2.3 1.082.92 1.082.92 2.55 0 1.467-.92 2.548-.92 1.082-2.3 1.082-1.393 0-2.3-1.082-.92-1.082-.92-2.548 0-1.467.92-2.55.92-1.082 2.3-1.082zM87 50.58q0 .77.4 1.333.43.607 1.1.607.682 0 1.1-.607.4-.563.4-1.333 0-.77-.415-1.348-.415-.593-1.096-.593-.682 0-1.096.593-.415.578-.415 1.348zm8.598-1.94q-.667 0-1.082.622-.356.548-.356 1.32 0 .77.37 1.32.4.622 1.067.622.92 0 1.378-.593l1.3 1.022q-.993 1.3-2.667 1.26-1.363-.015-2.282-1.1-.874-1.052-.874-2.52 0-1.452.9-2.534.904-1.082 2.267-1.096 1.556-.03 2.534 1.082v1.72H96.6v-.77q-.43-.34-.993-.34z"/><use xlink:href="#B" x="19.168" y="12.36"/><path d="M108.148 51.06q0 1.393 1.126 2.252l-1.422.845q-.296-.207-.726-.815-.77.874-1.897.874-.978 0-1.704-.637-.785-.682-.785-1.66 0-1.067.874-1.734.815-.637 2.06-.637h.785q0-1.037-1.082-1.037-.682 0-1.2.356l-.607-1.348q.785-.563 1.808-.563 1.334 0 2.074.77.696.726.696 1.897zm-1.7-.207h-.785q-1.215 0-1.215 1.067 0 .326.252.533.267.193.578.193.652 0 1.26-.652-.1-.607-.1-1.14zm5.76 1.597h.77V54h-3.23v-1.54h.77v-7.142h-.77v-1.54h2.46z"/></g><defs ><path id="B" d="M82.212 32.68q0 .415-.296.726-.296.296-.726.296-.415 0-.726-.296-.296-.31-.296-.726 0-.43.296-.726.31-.296.726-.296.43 0 .726.296.296.296.296.726zm-.044 7.408h.77v1.54h-3.23v-1.54h.77v-3.734h-.77v-1.54h2.46z"/><path id="C" d="M84.503 40.08v-2.34q0-1.393-1.126-2.252l1.422-.845q.296.222.86 1.007 1.156-1.096 2.252-1.096.933 0 1.6.607.682.593.682 1.51v3.408h.77v1.54h-2.46v-4.15q0-1.14-.83-1.14-.845 0-1.482 1.274v2.474h.77v1.54h-3.23v-1.54z"/></defs></svg>