<?xml version="1.0" encoding="UTF-8" standalone="no"?>
<!-- Created with Inkscape (http://www.inkscape.org/) -->

<svg
   xmlns:dc="http://purl.org/dc/elements/1.1/"
   xmlns:cc="http://creativecommons.org/ns#"
   xmlns:rdf="http://www.w3.org/1999/02/22-rdf-syntax-ns#"
   xmlns:svg="http://www.w3.org/2000/svg"
   xmlns="http://www.w3.org/2000/svg"
   xmlns:sodipodi="http://sodipodi.sourceforge.net/DTD/sodipodi-0.dtd"
   xmlns:inkscape="http://www.inkscape.org/namespaces/inkscape"
   width="150.38095mm"
   height="76.507668mm"
   viewBox="0 0 150.38095 76.507667"
   version="1.1"
   id="svg8"
   inkscape:version="0.92.4 (5da689c313, 2019-01-14)"
   sodipodi:docname="inclusion_logo_text.svg">
  <defs
     id="defs2" />
  <sodipodi:namedview
     id="base"
     pagecolor="#ffffff"
     bordercolor="#666666"
     borderopacity="1.0"
     inkscape:pageopacity="0.0"
     inkscape:pageshadow="2"
     inkscape:zoom="0.9899495"
     inkscape:cx="224.10836"
     inkscape:cy="155.7718"
     inkscape:document-units="mm"
     inkscape:current-layer="layer1"
     showgrid="false"
     inkscape:window-width="1360"
     inkscape:window-height="705"
     inkscape:window-x="-8"
     inkscape:window-y="-8"
     inkscape:window-maximized="1"
     fit-margin-top="10"
     fit-margin-left="10"
     fit-margin-right="10"
     fit-margin-bottom="10" />
  <metadata
     id="metadata5">
    <rdf:RDF>
      <cc:Work
         rdf:about="">
        <dc:format>image/svg+xml</dc:format>
        <dc:type
           rdf:resource="http://purl.org/dc/dcmitype/StillImage" />
        <dc:title />
      </cc:Work>
    </rdf:RDF>
  </metadata>
  <g
     inkscape:label="Capa 1"
     inkscape:groupmode="layer"
     id="layer1"
     transform="translate(28.601965,-338.39277)">
    <flowRoot
       xml:space="preserve"
       id="flowRoot834"
       style="font-style:normal;font-variant:normal;font-weight:bold;font-stretch:normal;font-size:40px;line-height:1.25;font-family:TriplexSerifBold;-inkscape-font-specification:'TriplexSerifBold Bold';letter-spacing:0px;word-spacing:0px;fill:#000000;fill-opacity:1;stroke:none"
       transform="scale(0.26458333)"><flowRegion
         id="flowRegion836"><rect
           id="rect838"
           width="109.09647"
           height="121.21831"
           x="183.84776"
           y="649.76831" /></flowRegion><flowPara
         id="flowPara840" /></flowRoot>    <flowRoot
       xml:space="preserve"
       id="flowRoot842"
       style="font-style:normal;font-variant:normal;font-weight:bold;font-stretch:normal;font-size:40px;line-height:1.25;font-family:TriplexSerifBold;-inkscape-font-specification:'TriplexSerifBold Bold';letter-spacing:0px;word-spacing:0px;fill:#000000;fill-opacity:1;stroke:none"
       transform="scale(0.26458333)"><flowRegion
         id="flowRegion844"><rect
           id="rect846"
           width="140.41121"
           height="120.20815"
           x="157.5838"
           y="655.82922" /></flowRegion><flowPara
         id="flowPara848" /></flowRoot>    <g
       id="g1108">
      <g
         id="g1077">
        <path
           id="path826"
           d="M 18.615401,348.39277 A 28.253719,28.253719 0 0 0 -9.6381712,376.64635 28.253719,28.253719 0 0 0 18.615401,404.90044 28.253719,28.253719 0 0 0 46.868974,376.64635 28.253719,28.253719 0 0 0 18.615401,348.39277 Z m -33.242932,12.08919 a 3.9744811,3.9744811 0 0 0 -3.974434,3.97443 3.9744811,3.9744811 0 0 0 3.974434,3.97495 3.9744811,3.9744811 0 0 0 3.974435,-3.97495 3.9744811,3.9744811 0 0 0 -3.974435,-3.97443 z m 21.1310099,5.3e-4 a 3.9744811,3.9744811 0 0 1 3.9744341,3.97442 3.9744811,3.9744811 0 0 1 -3.9744341,3.97443 3.9744811,3.9744811 0 0 1 -3.9744343,-3.97443 3.9744811,3.9744811 0 0 1 3.9744343,-3.97444 z"
           style="opacity:1;vector-effect:none;fill:#e37c0d;fill-opacity:1;stroke:none;stroke-width:3.37853098;stroke-linecap:round;stroke-linejoin:miter;stroke-miterlimit:4;stroke-dasharray:none;stroke-dashoffset:0;stroke-opacity:1;paint-order:normal"
           inkscape:connector-curvature="0" />
        <path
           style="opacity:1;vector-effect:none;fill:#000001;fill-opacity:1;stroke:none;stroke-width:4;stroke-linecap:round;stroke-linejoin:miter;stroke-miterlimit:4;stroke-dasharray:none;stroke-dashoffset:0;stroke-opacity:1;paint-order:normal"
           d="M 2.5040922,392.68344 H 12.756696 V 387.7225 H 10.347098 V 370.94981 H 2.5040922 V 375.769 H 4.984561 v 11.9535 H 2.5040922 Z"
           id="path4594"
           inkscape:connector-curvature="0"
           sodipodi:nodetypes="ccccccccccc" />
        <path
           style="opacity:1;vector-effect:none;fill:#000001;fill-opacity:1;stroke:none;stroke-width:4;stroke-linecap:round;stroke-linejoin:miter;stroke-miterlimit:4;stroke-dasharray:none;stroke-dashoffset:0;stroke-opacity:1;paint-order:normal"
           d="m 17.506942,370.36686 -4.483448,2.72955 c 1.322917,0.77958 3.506246,3.297 3.506246,6.10918 v 8.5168 h -2.385901 v 4.96093 h 10.252604 v -4.96093 h -2.409672 v -8.04433 c 3.091432,-5.35451 7.305498,-4.77218 7.305498,-1.08668 v 14.09194 h 7.866703 v -4.96093 H 34.7493 v -11.58785 c 0,-3.34912 -6.004904,-10.05042 -14.465267,-2.64023 z"
           id="path4594-6"
           inkscape:connector-curvature="0"
           sodipodi:nodetypes="ccsccccccccccccccc" />
      </g>
      <g
         id="g1072">
        <path
           inkscape:connector-curvature="0"
           d="m 53.980201,367.73303 h 0.770466 v 1.54093 h -3.230033 v -1.54093 h 0.770467 v -3.58563 h -1.185334 v -1.6891 h 1.185334 v -0.77047 q 0,-1.08162 0.637116,-1.85208 0.637117,-0.78529 1.6891,-1.00754 l 0.963084,0.9779 q -0.7112,0.11854 -1.1557,0.63712 -0.4445,0.51858 -0.4445,1.2446 v 0.77047 h 1.3335 v 1.6891 h -1.3335 z"
           style="font-style:normal;font-variant:normal;font-weight:bold;font-stretch:normal;font-size:14.8166666px;line-height:1.25;font-family:TriplexSerifBold;-inkscape-font-specification:'TriplexSerifBold Bold';letter-spacing:-0.18785417px;word-spacing:0px;fill:#000000;fill-opacity:1;stroke:none;stroke-width:0.26458332"
           id="path853" />
        <path
           inkscape:connector-curvature="0"
           d="m 58.312587,366.60696 q 0,1.14089 0.740833,1.14089 1.11125,0 1.4224,-1.27424 v -2.47438 h -0.770466 v -1.54093 h 2.459566 v 3.88196 q 0,1.39277 1.126067,2.25214 l -1.4224,0.84455 q -0.207433,-0.13335 -0.84455,-0.9779 -1.11125,1.0668 -2.207683,1.0668 -0.84455,0 -1.496484,-0.59267 -0.696383,-0.6223 -0.696383,-1.52612 v -3.40783 H 55.85302 v -1.54093 h 2.459567 z"
           style="font-style:normal;font-variant:normal;font-weight:bold;font-stretch:normal;font-size:14.8166666px;line-height:1.25;font-family:TriplexSerifBold;-inkscape-font-specification:'TriplexSerifBold Bold';letter-spacing:-0.18785417px;word-spacing:0px;fill:#000000;fill-opacity:1;stroke:none;stroke-width:0.26458332"
           id="path855" />
        <path
           inkscape:connector-curvature="0"
           d="M 64.65842,367.73303 V 365.392 q 0,-1.39277 -1.126067,-2.25214 l 1.4224,-0.84455 q 0.296333,0.22225 0.859367,1.00754 1.1557,-1.09644 2.252133,-1.09644 0.93345,0 1.6002,0.60749 0.681567,0.59266 0.681567,1.5113 v 3.40783 h 0.770466 v 1.54093 H 68.65892 v -4.14866 q 0,-1.14089 -0.829734,-1.14089 -0.84455,0 -1.481666,1.27424 v 2.47438 h 0.770466 v 1.54093 h -3.230033 v -1.54093 z"
           style="font-style:normal;font-variant:normal;font-weight:bold;font-stretch:normal;font-size:14.8166666px;line-height:1.25;font-family:TriplexSerifBold;-inkscape-font-specification:'TriplexSerifBold Bold';letter-spacing:-0.18785417px;word-spacing:0px;fill:#000000;fill-opacity:1;stroke:none;stroke-width:0.26458332"
           id="path857" />
        <path
           inkscape:connector-curvature="0"
           d="m 78.390129,366.34026 q 0,1.39277 1.126067,2.25214 l -1.4224,0.84455 q -0.251883,-0.1778 -0.770467,-0.87419 -0.889,0.93345 -2.148416,0.93345 -1.392767,0 -2.3114,-1.08161 -0.918634,-1.08162 -0.918634,-2.54847 0,-1.46685 0.918634,-2.54847 0.918633,-1.08161 2.3114,-1.08161 0.740833,0 1.526116,0.6223 v -2.26695 h -0.770466 v -1.54094 h 2.459566 z m -3.215216,-2.41511 q -0.681567,0 -1.096434,0.59266 -0.414866,0.57785 -0.414866,1.34832 0,0.77047 0.40005,1.3335 0.429683,0.60748 1.11125,0.60748 0.681566,0 1.126066,-0.60748 0.40005,-0.56303 0.40005,-1.3335 0,-0.77047 -0.40005,-1.3335 -0.4445,-0.60748 -1.126066,-0.60748 z"
           style="font-style:normal;font-variant:normal;font-weight:bold;font-stretch:normal;font-size:14.8166666px;line-height:1.25;font-family:TriplexSerifBold;-inkscape-font-specification:'TriplexSerifBold Bold';letter-spacing:-0.18785417px;word-spacing:0px;fill:#000000;fill-opacity:1;stroke:none;stroke-width:0.26458332"
           id="path859" />
        <path
           inkscape:connector-curvature="0"
           d="m 85.339278,366.34026 q 0,1.39277 1.126067,2.25214 l -1.4224,0.84455 q -0.296333,-0.20744 -0.726017,-0.81492 -0.770466,0.87418 -1.896533,0.87418 -0.9779,0 -1.703917,-0.63711 -0.785283,-0.68157 -0.785283,-1.65947 0,-1.0668 0.874183,-1.73355 0.814917,-0.63712 2.059517,-0.63712 h 0.785283 q 0,-1.03716 -1.081616,-1.03716 -0.681567,0 -1.20015,0.3556 l -0.607484,-1.34832 q 0.785284,-0.56303 1.807634,-0.56303 1.3335,0 2.074333,0.77046 0.696383,0.72602 0.696383,1.89654 z m -1.6891,-0.20743 h -0.785283 q -1.214967,0 -1.214967,1.0668 0,0.32597 0.251884,0.5334 0.2667,0.19262 0.57785,0.19262 0.651933,0 1.259416,-0.65194 -0.0889,-0.60748 -0.0889,-1.14088 z"
           style="font-style:normal;font-variant:normal;font-weight:bold;font-stretch:normal;font-size:14.8166666px;line-height:1.25;font-family:TriplexSerifBold;-inkscape-font-specification:'TriplexSerifBold Bold';letter-spacing:-0.18785417px;word-spacing:0px;fill:#000000;fill-opacity:1;stroke:none;stroke-width:0.26458332"
           id="path861" />
        <path
           inkscape:connector-curvature="0"
           d="m 90.091623,363.92515 q -0.66675,0 -1.081617,0.6223 -0.3556,0.54821 -0.3556,1.31868 0,0.77047 0.370417,1.31868 0.40005,0.6223 1.0668,0.6223 0.918633,0 1.37795,-0.59266 l 1.28905,1.02235 q -0.992717,1.28905 -2.667,1.25941 -1.363134,-0.0148 -2.281767,-1.11125 -0.874183,-1.05198 -0.874183,-2.51883 0,-1.45203 0.889,-2.53365 0.903816,-1.08162 2.26695,-1.09643 1.55575,-0.0296 2.53365,1.08161 v 1.71874 h -1.540934 v -0.77047 q -0.429683,-0.34078 -0.992716,-0.34078 z"
           style="font-style:normal;font-variant:normal;font-weight:bold;font-stretch:normal;font-size:14.8166666px;line-height:1.25;font-family:TriplexSerifBold;-inkscape-font-specification:'TriplexSerifBold Bold';letter-spacing:-0.18785417px;word-spacing:0px;fill:#000000;fill-opacity:1;stroke:none;stroke-width:0.26458332"
           id="path863" />
        <path
           inkscape:connector-curvature="0"
           d="m 95.8647,360.3247 q 0,0.41486 -0.296333,0.72601 -0.296333,0.29634 -0.726017,0.29634 -0.414866,0 -0.726016,-0.29634 Q 93.82,360.73956 93.82,360.3247 q 0,-0.42969 0.296334,-0.72602 0.31115,-0.29633 0.726016,-0.29633 0.429684,0 0.726017,0.29633 0.296333,0.29633 0.296333,0.72602 z m -0.04445,7.40833 h 0.770467 v 1.54093 h -3.230033 v -1.54093 h 0.770466 v -3.7338 h -0.770466 v -1.54093 h 2.459566 z"
           style="font-style:normal;font-variant:normal;font-weight:bold;font-stretch:normal;font-size:14.8166666px;line-height:1.25;font-family:TriplexSerifBold;-inkscape-font-specification:'TriplexSerifBold Bold';letter-spacing:-0.18785417px;word-spacing:0px;fill:#000000;fill-opacity:1;stroke:none;stroke-width:0.26458332"
           id="path865" />
        <path
           inkscape:connector-curvature="0"
           d="m 100.49736,362.23605 q 1.39276,0 2.3114,1.08161 0.91863,1.08162 0.91863,2.54847 0,1.46685 -0.91863,2.54847 -0.91864,1.08161 -2.3114,1.08161 -1.392771,0 -2.311404,-1.08161 -0.918634,-1.08162 -0.918634,-2.54847 0,-1.46685 0.918634,-2.54847 0.918633,-1.08161 2.311404,-1.08161 z m -1.511304,3.63008 q 0,0.77047 0.40005,1.3335 0.429683,0.60748 1.111254,0.60748 0.68156,0 1.11125,-0.60748 0.40005,-0.56303 0.40005,-1.3335 0,-0.77047 -0.41487,-1.34832 -0.41487,-0.59266 -1.09643,-0.59266 -0.681571,0 -1.096438,0.59266 -0.414866,0.57785 -0.414866,1.34832 z"
           style="font-style:normal;font-variant:normal;font-weight:bold;font-stretch:normal;font-size:14.8166666px;line-height:1.25;font-family:TriplexSerifBold;-inkscape-font-specification:'TriplexSerifBold Bold';letter-spacing:-0.18785417px;word-spacing:0px;fill:#000000;fill-opacity:1;stroke:none;stroke-width:0.26458332"
           id="path867" />
        <path
           inkscape:connector-curvature="0"
           d="M 105.31892,367.73303 V 365.392 q 0,-1.39277 -1.12606,-2.25214 l 1.4224,-0.84455 q 0.29633,0.22225 0.85936,1.00754 1.1557,-1.09644 2.25214,-1.09644 0.93345,0 1.6002,0.60749 0.68156,0.59266 0.68156,1.5113 v 3.40783 h 0.77047 v 1.54093 h -2.45957 v -4.14866 q 0,-1.14089 -0.82973,-1.14089 -0.84455,0 -1.48167,1.27424 v 2.47438 h 0.77047 v 1.54093 h -3.23003 v -1.54093 z"
           style="font-style:normal;font-variant:normal;font-weight:bold;font-stretch:normal;font-size:14.8166666px;line-height:1.25;font-family:TriplexSerifBold;-inkscape-font-specification:'TriplexSerifBold Bold';letter-spacing:-0.18785417px;word-spacing:0px;fill:#000000;fill-opacity:1;stroke:none;stroke-width:0.26458332"
           id="path869" />
        <path
           inkscape:connector-curvature="0"
           d="m 53.609783,372.92769 q 0,0.41487 -0.296333,0.72602 -0.296333,0.29633 -0.726017,0.29633 -0.414866,0 -0.726016,-0.29633 -0.296334,-0.31115 -0.296334,-0.72602 0,-0.42968 0.296334,-0.72601 0.31115,-0.29634 0.726016,-0.29634 0.429684,0 0.726017,0.29634 0.296333,0.29633 0.296333,0.72601 z m -0.04445,7.40834 H 54.3358 v 1.54093 h -3.230033 v -1.54093 h 0.770466 v -3.7338 h -0.770466 v -1.54094 h 2.459566 z"
           style="font-style:normal;font-variant:normal;font-weight:bold;font-stretch:normal;font-size:14.8166666px;line-height:1.25;font-family:TriplexSerifBold;-inkscape-font-specification:'TriplexSerifBold Bold';letter-spacing:-0.18785417px;word-spacing:0px;fill:#000000;fill-opacity:1;stroke:none;stroke-width:0.26458332"
           id="path872" />
        <path
           inkscape:connector-curvature="0"
           d="m 55.901405,380.33603 v -2.34104 q 0,-1.39276 -1.126066,-2.25213 l 1.4224,-0.84455 q 0.296333,0.22225 0.859366,1.00753 1.1557,-1.09643 2.252134,-1.09643 0.93345,0 1.6002,0.60748 0.681566,0.59267 0.681566,1.5113 v 3.40784 h 0.770467 v 1.54093 h -2.459567 v -4.14867 q 0,-1.14088 -0.829733,-1.14088 -0.84455,0 -1.481667,1.27423 v 2.47439 h 0.770467 v 1.54093 h -3.230033 v -1.54093 z"
           style="font-style:normal;font-variant:normal;font-weight:bold;font-stretch:normal;font-size:14.8166666px;line-height:1.25;font-family:TriplexSerifBold;-inkscape-font-specification:'TriplexSerifBold Bold';letter-spacing:-0.18785417px;word-spacing:0px;fill:#000000;fill-opacity:1;stroke:none;stroke-width:0.26458332"
           id="path874" />
        <path
           inkscape:connector-curvature="0"
           d="m 66.343815,376.52814 q -0.66675,0 -1.081617,0.6223 -0.3556,0.54822 -0.3556,1.31869 0,0.77046 0.370417,1.31868 0.40005,0.6223 1.0668,0.6223 0.918633,0 1.37795,-0.59267 l 1.28905,1.02235 q -0.992717,1.28905 -2.667,1.25942 -1.363133,-0.0148 -2.281767,-1.11125 -0.874183,-1.05198 -0.874183,-2.51883 0,-1.45204 0.889,-2.53365 0.903817,-1.08162 2.26695,-1.09644 1.55575,-0.0296 2.53365,1.08162 v 1.71873 h -1.540933 v -0.77046 q -0.429684,-0.34079 -0.992717,-0.34079 z"
           style="font-style:normal;font-variant:normal;font-weight:bold;font-stretch:normal;font-size:14.8166666px;line-height:1.25;font-family:TriplexSerifBold;-inkscape-font-specification:'TriplexSerifBold Bold';letter-spacing:-0.18785417px;word-spacing:0px;fill:#000000;fill-opacity:1;stroke:none;stroke-width:0.26458332"
           id="path876" />
        <path
           inkscape:connector-curvature="0"
           d="m 72.07244,380.33603 h 0.770467 v 1.54093 h -3.230034 v -1.54093 h 0.770467 v -7.14164 h -0.770467 v -1.54093 h 2.459567 z"
           style="font-style:normal;font-variant:normal;font-weight:bold;font-stretch:normal;font-size:14.8166666px;line-height:1.25;font-family:TriplexSerifBold;-inkscape-font-specification:'TriplexSerifBold Bold';letter-spacing:-0.18785417px;word-spacing:0px;fill:#000000;fill-opacity:1;stroke:none;stroke-width:0.26458332"
           id="path878" />
        <path
           inkscape:connector-curvature="0"
           d="m 75.890874,379.20996 q 0,1.14088 0.740833,1.14088 1.11125,0 1.4224,-1.27423 v -2.47438 H 77.28364 v -1.54094 h 2.459567 v 3.88197 q 0,1.39277 1.126067,2.25213 l -1.4224,0.84455 q -0.207434,-0.13335 -0.84455,-0.9779 -1.11125,1.0668 -2.207684,1.0668 -0.84455,0 -1.496483,-0.59266 -0.696383,-0.6223 -0.696383,-1.52612 v -3.40783 h -0.770467 v -1.54094 h 2.459567 z"
           style="font-style:normal;font-variant:normal;font-weight:bold;font-stretch:normal;font-size:14.8166666px;line-height:1.25;font-family:TriplexSerifBold;-inkscape-font-specification:'TriplexSerifBold Bold';letter-spacing:-0.18785417px;word-spacing:0px;fill:#000000;fill-opacity:1;stroke:none;stroke-width:0.26458332"
           id="path880" />
        <path
           inkscape:connector-curvature="0"
           d="m 84.488841,376.51333 q -0.2667,-0.11854 -0.563033,-0.11854 -0.814917,0 -0.814917,0.51859 0,0.25188 0.385233,0.45931 0.325967,0.13335 0.651934,0.28152 l 0.66675,0.29633 q 1.3335,0.59267 1.3335,1.92617 0,0.93345 -0.785284,1.58538 -0.785283,0.63712 -1.807633,0.63712 -1.126067,0 -2.029883,-0.68157 v -1.76318 h 1.5113 v 0.77047 q 0.340783,0.14816 0.592666,0.14816 0.889,0 0.889,-0.6223 0,-0.38523 -0.963083,-0.81491 l -0.66675,-0.29634 q -1.407583,-0.6223 -1.407583,-1.92616 0,-0.90382 0.740833,-1.5113 0.696383,-0.56304 1.629833,-0.56304 1.274234,0 2.148417,0.81492 v 1.67428 h -1.5113 z"
           style="font-style:normal;font-variant:normal;font-weight:bold;font-stretch:normal;font-size:14.8166666px;line-height:1.25;font-family:TriplexSerifBold;-inkscape-font-specification:'TriplexSerifBold Bold';letter-spacing:-0.18785417px;word-spacing:0px;fill:#000000;fill-opacity:1;stroke:none;stroke-width:0.26458332"
           id="path882" />
        <path
           inkscape:connector-curvature="0"
           d="m 89.582203,372.92769 q 0,0.41487 -0.296333,0.72602 -0.296334,0.29633 -0.726017,0.29633 -0.414867,0 -0.726017,-0.29633 -0.296333,-0.31115 -0.296333,-0.72602 0,-0.42968 0.296333,-0.72601 0.31115,-0.29634 0.726017,-0.29634 0.429683,0 0.726017,0.29634 0.296333,0.29633 0.296333,0.72601 z m -0.04445,7.40834 h 0.770467 v 1.54093 h -3.230034 v -1.54093 h 0.770467 v -3.7338 h -0.770467 v -1.54094 h 2.459567 z"
           style="font-style:normal;font-variant:normal;font-weight:bold;font-stretch:normal;font-size:14.8166666px;line-height:1.25;font-family:TriplexSerifBold;-inkscape-font-specification:'TriplexSerifBold Bold';letter-spacing:-0.18785417px;word-spacing:0px;fill:#000000;fill-opacity:1;stroke:none;stroke-width:0.26458332"
           id="path884" />
        <path
           inkscape:connector-curvature="0"
           d="m 94.214858,374.83904 q 1.392767,0 2.3114,1.08162 0.918634,1.08162 0.918634,2.54847 0,1.46685 -0.918634,2.54846 -0.918633,1.08162 -2.3114,1.08162 -1.392766,0 -2.3114,-1.08162 -0.918633,-1.08161 -0.918633,-2.54846 0,-1.46685 0.918633,-2.54847 0.918634,-1.08162 2.3114,-1.08162 z m -1.5113,3.63009 q 0,0.77046 0.40005,1.3335 0.429684,0.60748 1.11125,0.60748 0.681567,0 1.11125,-0.60748 0.40005,-0.56304 0.40005,-1.3335 0,-0.77047 -0.414866,-1.34832 -0.414867,-0.59267 -1.096434,-0.59267 -0.681566,0 -1.096433,0.59267 -0.414867,0.57785 -0.414867,1.34832 z m 1.303867,-6.3119 q 0.1778,-0.31115 0.325967,-0.45932 0.31115,-0.31115 0.726016,-0.31115 0.281517,0 0.459317,0.1778 0.1778,0.1778 0.1778,0.45932 0,0.41486 -0.31115,0.72601 -0.148167,0.14817 -0.459317,0.32597 l -1.407583,0.8001 -0.31115,-0.31115 z"
           style="font-style:normal;font-variant:normal;font-weight:bold;font-stretch:normal;font-size:14.8166666px;line-height:1.25;font-family:TriplexSerifBold;-inkscape-font-specification:'TriplexSerifBold Bold';letter-spacing:-0.18785417px;word-spacing:0px;fill:#000000;fill-opacity:1;stroke:none;stroke-width:0.26458332"
           id="path886" />
        <path
           inkscape:connector-curvature="0"
           d="m 99.036426,380.33603 v -2.34104 q 0,-1.39276 -1.126066,-2.25213 l 1.4224,-0.84455 q 0.296333,0.22225 0.85937,1.00753 1.1557,-1.09643 2.25213,-1.09643 0.93345,0 1.6002,0.60748 0.68157,0.59267 0.68157,1.5113 v 3.40784 h 0.77046 v 1.54093 h -2.45956 v -4.14867 q 0,-1.14088 -0.82974,-1.14088 -0.84455,0 -1.48166,1.27423 v 2.47439 h 0.77046 v 1.54093 h -3.23003 v -1.54093 z"
           style="font-style:normal;font-variant:normal;font-weight:bold;font-stretch:normal;font-size:14.8166666px;line-height:1.25;font-family:TriplexSerifBold;-inkscape-font-specification:'TriplexSerifBold Bold';letter-spacing:-0.18785417px;word-spacing:0px;fill:#000000;fill-opacity:1;stroke:none;stroke-width:0.26458332"
           id="path888" />
        <path
           inkscape:connector-curvature="0"
           d="m 54.113549,388.87845 q -0.2667,-0.11853 -0.563033,-0.11853 -0.814917,0 -0.814917,0.51858 0,0.25189 0.385233,0.45932 0.325967,0.13335 0.651934,0.28152 l 0.66675,0.29633 q 1.3335,0.59267 1.3335,1.92617 0,0.93345 -0.785284,1.58538 -0.785283,0.63712 -1.807633,0.63712 -1.126067,0 -2.029883,-0.68157 v -1.76318 h 1.5113 v 0.77046 q 0.340783,0.14817 0.592666,0.14817 0.889,0 0.889,-0.6223 0,-0.38523 -0.963083,-0.81492 l -0.66675,-0.29633 q -1.407583,-0.6223 -1.407583,-1.92617 0,-0.90381 0.740833,-1.5113 0.696383,-0.56303 1.629833,-0.56303 1.274234,0 2.148417,0.81492 v 1.67428 h -1.5113 z"
           style="font-style:normal;font-variant:normal;font-weight:bold;font-stretch:normal;font-size:14.8166666px;line-height:1.25;font-family:TriplexSerifBold;-inkscape-font-specification:'TriplexSerifBold Bold';letter-spacing:-0.18785417px;word-spacing:0px;fill:#000000;fill-opacity:1;stroke:none;stroke-width:0.26458332"
           id="path891" />
        <path
           inkscape:connector-curvature="0"
           d="m 59.918111,387.20417 q 1.392766,0 2.3114,1.08162 0.918633,1.08161 0.918633,2.54846 0,1.46685 -0.918633,2.54847 -0.918634,1.08162 -2.3114,1.08162 -1.392767,0 -2.3114,-1.08162 -0.918634,-1.08162 -0.918634,-2.54847 0,-1.46685 0.918634,-2.54846 0.918633,-1.08162 2.3114,-1.08162 z m -1.5113,3.63008 q 0,0.77047 0.40005,1.3335 0.429683,0.60749 1.11125,0.60749 0.681566,0 1.11125,-0.60749 0.40005,-0.56303 0.40005,-1.3335 0,-0.77046 -0.414867,-1.34831 -0.414867,-0.59267 -1.096433,-0.59267 -0.681567,0 -1.096434,0.59267 -0.414866,0.57785 -0.414866,1.34831 z"
           style="font-style:normal;font-variant:normal;font-weight:bold;font-stretch:normal;font-size:14.8166666px;line-height:1.25;font-family:TriplexSerifBold;-inkscape-font-specification:'TriplexSerifBold Bold';letter-spacing:-0.18785417px;word-spacing:0px;fill:#000000;fill-opacity:1;stroke:none;stroke-width:0.26458332"
           id="path893" />
        <path
           inkscape:connector-curvature="0"
           d="m 67.006629,388.89327 q -0.66675,0 -1.081616,0.6223 -0.3556,0.54822 -0.3556,1.31868 0,0.77047 0.370416,1.31869 0.40005,0.6223 1.0668,0.6223 0.918634,0 1.37795,-0.59267 l 1.28905,1.02235 q -0.992716,1.28905 -2.667,1.25942 -1.363133,-0.0148 -2.281766,-1.11125 -0.874184,-1.05199 -0.874184,-2.51884 0,-1.45203 0.889,-2.53365 0.903817,-1.08161 2.26695,-1.09643 1.55575,-0.0296 2.53365,1.08162 v 1.71873 h -1.540933 v -0.77047 q -0.429683,-0.34078 -0.992717,-0.34078 z"
           style="font-style:normal;font-variant:normal;font-weight:bold;font-stretch:normal;font-size:14.8166666px;line-height:1.25;font-family:TriplexSerifBold;-inkscape-font-specification:'TriplexSerifBold Bold';letter-spacing:-0.18785417px;word-spacing:0px;fill:#000000;fill-opacity:1;stroke:none;stroke-width:0.26458332"
           id="path895" />
        <path
           inkscape:connector-curvature="0"
           d="m 72.779705,385.29282 q 0,0.41487 -0.296333,0.72602 -0.296334,0.29633 -0.726017,0.29633 -0.414867,0 -0.726017,-0.29633 -0.296333,-0.31115 -0.296333,-0.72602 0,-0.42968 0.296333,-0.72602 0.31115,-0.29633 0.726017,-0.29633 0.429683,0 0.726017,0.29633 0.296333,0.29634 0.296333,0.72602 z m -0.04445,7.40833 h 0.770467 v 1.54094 h -3.230034 v -1.54094 h 0.770467 v -3.7338 h -0.770467 v -1.54093 h 2.459567 z"
           style="font-style:normal;font-variant:normal;font-weight:bold;font-stretch:normal;font-size:14.8166666px;line-height:1.25;font-family:TriplexSerifBold;-inkscape-font-specification:'TriplexSerifBold Bold';letter-spacing:-0.18785417px;word-spacing:0px;fill:#000000;fill-opacity:1;stroke:none;stroke-width:0.26458332"
           id="path897" />
        <path
           inkscape:connector-curvature="0"
           d="m 79.54596,391.30839 q 0,1.39276 1.126067,2.25213 l -1.4224,0.84455 q -0.296333,-0.20743 -0.726017,-0.81492 -0.770466,0.87419 -1.896533,0.87419 -0.9779,0 -1.703917,-0.63712 -0.785283,-0.68157 -0.785283,-1.65947 0,-1.0668 0.874183,-1.73355 0.814917,-0.63711 2.059517,-0.63711 h 0.785283 q 0,-1.03717 -1.081616,-1.03717 -0.681567,0 -1.20015,0.3556 L 74.96761,387.7672 q 0.785284,-0.56303 1.807634,-0.56303 1.3335,0 2.074333,0.77047 0.696383,0.72601 0.696383,1.89653 z m -1.6891,-0.20744 h -0.785283 q -1.214967,0 -1.214967,1.0668 0,0.32597 0.251884,0.5334 0.2667,0.19262 0.57785,0.19262 0.651933,0 1.259416,-0.65193 -0.0889,-0.60749 -0.0889,-1.14089 z"
           style="font-style:normal;font-variant:normal;font-weight:bold;font-stretch:normal;font-size:14.8166666px;line-height:1.25;font-family:TriplexSerifBold;-inkscape-font-specification:'TriplexSerifBold Bold';letter-spacing:-0.18785417px;word-spacing:0px;fill:#000000;fill-opacity:1;stroke:none;stroke-width:0.26458332"
           id="path899" />
        <path
           inkscape:connector-curvature="0"
           d="m 83.61674,392.70115 h 0.770467 v 1.54094 h -3.230034 v -1.54094 h 0.770467 v -7.14163 h -0.770467 v -1.54093 h 2.459567 z"
           style="font-style:normal;font-variant:normal;font-weight:bold;font-stretch:normal;font-size:14.8166666px;line-height:1.25;font-family:TriplexSerifBold;-inkscape-font-specification:'TriplexSerifBold Bold';letter-spacing:-0.18785417px;word-spacing:0px;fill:#000000;fill-opacity:1;stroke:none;stroke-width:0.26458332"
           id="path901" />
      </g>
    </g>
  </g>
</svg>
