<svg xmlns="http://www.w3.org/2000/svg" xmlns:xlink="http://www.w3.org/1999/xlink" width="1115.914" height="832.564"><style><![CDATA[.B{fill:#2f2e41}.C{fill:#d37e01}.D{stroke:#3f3d56}.E{stroke-width:2}.F{fill:#3f3d56}.G{fill:#fff}.H{fill:none}.I{stroke-miterlimit:10}.J{fill:#0b7163}]]></style><path d="M389.957 255.282h144" class="D E H I"/><ellipse cx="248.867" cy="443.498" rx="39.5" ry="12.4" transform="matrix(.357029 -.934093 .934093 .357029 -296.29734 483.90373)" class="B"/><path d="M1111.335 509.296c15.666 116.59-5.666 233.305-114.17 278.753s-233.305-5.666-278.753-114.17 61.785-173.424 114.17-278.753c106.376-213.893 230.104-247.896 278.753 114.17z" fill="#f2f2f2"/><ellipse cx="916" cy="794.436" rx="170" ry="23.127" class="F"/><g class="B"><path d="M811.183 758.71l-6.394-23.132 41.446-11.457 6.394 23.132z"/><ellipse cx="844.359" cy="777.24" rx="7.5" ry="20" transform="matrix(.963853 -.266436 .266436 .963853 -218.60626 219.34424)"/><ellipse cx="965.361" cy="688.069" rx="39.5" ry="12.4" transform="matrix(.134313 -.990939 .990939 .134313 111.82337 1518.54826)"/><circle cx="915.585" cy="728.299" r="79"/><path d="M811.183 744.71l-6.394-23.132 41.446-11.457 6.394 23.132z"/><ellipse cx="844.359" cy="763.24" rx="7.5" ry="20" transform="matrix(.963853 -.266436 .266436 .963853 -214.87616 218.83818)"/></g><circle cx="936.329" cy="683.043" r="27" class="G"/><circle cx="944.963" cy="671.116" r="9" class="F"/><path d="M1006.815 782.588c29.235-1.463 51.625-28.808 50-61.076s-26.623-57.24-55.858-55.778-33.822 24.412-32.207 56.68 8.82 61.636 38.055 60.173z" class="C"/><path d="M883.298 694.874c-9.907.8-18.587-6.583-19.388-16.5s6.578-18.588 16.484-19.393 12.61 7.065 13.413 16.973-.6 18.107-10.51 18.91z" class="G"/><path d="M49.464 361.025h442.493l177.91 86.674 71.468-133.812h202.24" class="D E H I"/><g class="C"><circle cx="222.811" cy="375.025" r="13.685"/><circle cx="350.541" cy="361.025" r="13.685"/><circle cx="560.384" cy="394.478" r="13.685"/><circle cx="855.379" cy="313.887" r="13.685"/><circle cx="712.443" cy="367.108" r="13.685"/></g><circle cx="427.576" cy="581.441" r="14.756" class="D E H"/><ellipse cx="170" cy="809.436" rx="170" ry="23.127" class="F"/><g class="B"><circle cx="160.805" cy="696.436" r="79"/><path d="M124.805 758.436h24v43h-24zm48 0h24v43h-24z"/><ellipse cx="144.805" cy="801.936" rx="20" ry="7.5"/><ellipse cx="192.805" cy="800.936" rx="20" ry="7.5"/></g><circle cx="162.805" cy="676.436" r="27" class="G"/><circle cx="162.805" cy="676.436" r="9" class="F"/><use xlink:href="#B" class="C"/><g class="B"><circle cx="133.805" cy="469.436" r="79"/><path d="M97.805 531.436h24v43h-24zm48 0h24v43h-24z"/><ellipse cx="117.805" cy="574.936" rx="20" ry="7.5"/><ellipse cx="165.805" cy="573.936" rx="20" ry="7.5"/></g><circle cx="135.805" cy="449.436" r="27" class="G"/><circle cx="135.805" cy="449.436" r="9" class="F"/><use xlink:href="#B" x="-27" y="-227" class="C"/><ellipse cx="86.867" cy="466.498" rx="12.4" ry="39.5" transform="matrix(.428529 -.903528 .903528 .428529 -413.89514 311.35892)" class="B"/><path d="M95 497.936c0 7.732 19.91 23 42 23s42.805-21.768 42.805-29.5-20.713 1.5-42.805 1.5-42-2.732-42 5z" class="G"/><path d="M835.474 564.7h126.13v64.16h-126.13z" class="C"/><path d="M825.603 575.13h126.13v64.16h-126.13z" class="D E H I"/><path d="M226.603 199h36v36h-36z" class="J"/><path d="M217.603 187h36v36h-36z" class="D E H I"/><g class="B"><circle cx="906.052" cy="189.47" r="79"/><path d="M960.178 286.373l-23.616 4.275-7.66-42.312 23.616-4.275zm-47.23 8.555l-23.616 4.275-7.66-42.312 23.616-4.275z"/><ellipse cx="939.065" cy="336.103" rx="20" ry="7.5" transform="matrix(.763108 -.646271 .646271 .763108 -36.79955 652.79249)"/><ellipse cx="985.313" cy="327.731" rx="20" ry="7.5" transform="matrix(.763108 -.646271 .646271 .763108 -20.43292 680.69811)"/></g><circle cx="900.521" cy="170.146" r="27" class="G"/><circle cx="889.425" cy="160.468" r="9" class="F"/><path d="M968.372 103.527c1.188-29.247-24.02-54.02-56.3-55.33s-59.415 21.335-60.603 50.582 21.252 35.892 53.534 37.203 62.18-3.208 63.37-32.455z" class="C"/><g class="B"><ellipse cx="875.15" cy="208.796" rx="12.4" ry="39.5" transform="matrix(.223422 -.974722 .974722 .223422 434.06107 981.45545)"/><ellipse cx="1030.224" cy="234.584" rx="12.4" ry="39.5" transform="matrix(.223422 -.974722 .974722 .223422 529.35145 1152.63631)"/></g><path d="M927.75 220.603c1.77 9.782-4.724 19.148-14.506 20.92s-19.148-4.724-20.92-14.506S898.118 213.772 907.9 212s18.08-1.18 19.85 8.602z" class="G"/><path d="M712.603 99l91 70" class="D E H I"/><circle cx="669.603" cy="68" r="68" class="J"/><ellipse cx="935.71" cy="706.84" rx="39.5" ry="12.4" transform="matrix(.134313 -.990939 .990939 .134313 67.55305 1505.41525)" class="B"/><circle cx="68.811" cy="786.025" r="13.685" class="C"/><path d="M256.603 770h36v36h-36z" class="J"/><g class="C"><circle cx="256.811" cy="794.025" r="13.685"/><circle cx="461.957" cy="255.025" r="13.685"/></g><circle cx="727.721" cy="679.252" r="6.535" fill="#ff6584"/><g class="F"><path d="M759.74 787.725v-74.41" class="D E I"/><circle cx="759.739" cy="713.313" r="10.523"/><path d="M759.74 759.175s-1.503-32.332-32.32-28.574"/></g><defs ><path id="B" d="M84.172 622.97c-6.38-28.568 14.012-57.434 45.544-64.475s62.265 10.4 68.644 38.978-14.52 39.104-46.05 46.145-61.758 7.92-68.137-20.647z"/></defs></svg>