<svg width="1e3" height="1e3" data-name="Layer 1" version="1.1" viewBox="0 0 1e3 1e3" xmlns="http://www.w3.org/2000/svg" xmlns:xlink="http://www.w3.org/1999/xlink">
 <defs>
  <linearGradient id="e151d6ee-b0bf-4b5d-8ce9-000e8108dac8" x1="836.51" x2="836.51" y1="628.67" y2="226.37" gradientUnits="userSpaceOnUse">
   <stop stop-color="gray" stop-opacity=".25" offset="0"/>
   <stop stop-color="gray" stop-opacity=".12" offset=".54"/>
   <stop stop-color="gray" stop-opacity=".1" offset="1"/>
  </linearGradient>
  <linearGradient id="e2a6fc7a-3d7b-4d78-8350-c6ea621e07cc" x1="178.62" x2="400.84" y1="535.35" y2="535.35" gradientTransform="matrix(.87411 0 0 .87411 -24.457 106.68)" xlink:href="#e151d6ee-b0bf-4b5d-8ce9-000e8108dac8"/>
  <linearGradient id="linearGradient1129" x1="836.51" x2="836.51" y1="628.67" y2="226.37" gradientTransform="matrix(.87411 0 0 .87411 -24.457 106.68)" gradientUnits="userSpaceOnUse" xlink:href="#e151d6ee-b0bf-4b5d-8ce9-000e8108dac8"/>
 </defs>
 <title>winners</title>
 <g transform="translate(0 -31.164)">
  <g stroke-width=".87411">
   <path d="m1e3 590.65c0.14352-51.205-24.639-99.276-66.432-128.86 0.56966-5.4506 0.86135-10.927 0.87411-16.407 0-86.659-69.291-156.89-154.72-156.89-26.313-0.0281-52.185 6.7598-75.095 19.702-60.488-39.807-139.45-63.897-225.83-63.897-140.5 0-261.45 63.766-315.08 155.21-2.9807-0.17482-5.9789-0.27097-9.0033-0.27097-85.435 0-154.72 70.252-154.72 156.91-0.059885 30.61 8.784 60.576 25.454 86.248 0 77.971 73.591 205.1 164.33 205.1h658.33c71.275 0 129.05-113.55 129.05-174.77 14.991-24.746 22.889-53.138 22.832-82.07z" fill="#ffc107" opacity=".1"/>
   <path d="m601.16 625.75c19.318-1.1014 43.286-14.204 61.922-20 22.057-6.8414 44.201-13.423 66.432-19.746 77.394-22.022 155.62-40.786 234.67-56.293 7.3775-1.451 14.767-2.8671 22.167-4.2482-11.528-24.911-29.389-46.361-51.8-62.21 0.57399-5.4532 0.86575-10.932 0.87411-16.416 0-86.659-69.256-156.91-154.72-156.91-26.311-0.028-52.181 6.7632-75.086 19.711-60.488-39.789-139.44-63.871-225.82-63.871-122.74 0-230.49 48.627-291.55 121.85l286.95 48.478 175.99 29.72c-200.63 5.9876-401.89 11.94-601.95-2.1154-54.462 52.697-64.028 136.56-22.832 200.17 0 3.138 0.13112 6.2499 0.36713 9.3355 5.0961 1.4598 10.017 2.8758 14.432 3.8024 70.867 14.971 142.19 27.499 213.96 37.587-52.892 32.613-117.31 37.228-178.32 51.039 24.84 47.844 69.476 77.579 113.88 77.579h658.31c71.284 0 129.06-87.868 129.06-149.09 10.697-17.639 17.825-37.208 20.979-57.595-131.9 12.736-265.45 1.6783-397.94 9.2219z" fill="#ffc107" opacity=".1"/>
   <path d="m816.68 494.51a9.7376 9.7376 0 0 0-4.2657-1.8706c-1.6346-0.37587-3.3041-0.61188-4.9649-0.87411l-21.521-3.1031a25.349 25.349 0 0 0-6.5908-0.34965 8.3652 8.3652 0 0 0-5.7342 2.972 4.4667 4.4667 0 0 0-0.99649 2.7972 7.3775 7.3775 0 0 0 0.97901 2.902 9.7026 9.7026 0 0 1 0.5332 1.2849 29.37 29.37 0 0 0 0.76922 2.9283 2.4825 2.4825 0 0 0 0.36712 0.57692 0.95278 0.95278 0 0 1 0 0.14859c-0.236 1.2063 0.52447 2.465 0.18357 3.6276-0.2972 0.99648-1.2675 1.5996-1.8793 2.43a3.6538 3.6538 0 0 0-0.0874 4.0296c0.65558 1.014 1.8444 1.7045 2.1853 2.8671 0.44579 1.5297-0.76048 3.0069-1.8356 4.187a64.885 64.885 0 0 0-5.4719 6.8967 4.2744 4.2744 0 0 0-0.87411 2.0542c-0.0961 1.521 1.3636 2.8583 1.1101 4.3706-0.20105 1.1888-1.3636 1.9143-2.3688 2.6223-3.715 2.4475-6.6957 6.381-6.9929 10.83a37.936 37.936 0 0 0-8.4614-19.23c-1.25-1.5035-2.6223-3.0157-3.1381-4.9212-0.1923-0.76048-0.22726-1.5734-0.4895-2.3076-0.87411-2.3164-3.6538-3.3129-4.8688-5.4457-0.87411-1.5035-0.87411-3.4352-1.958-4.7552-1.0839-1.3199-2.7884-1.6171-3.7237-2.8933a18.514 18.514 0 0 1-1.1888-2.6923 5.8828 5.8828 0 0 0-1.6171-1.9405 4.7202 4.7202 0 0 0-0.4021-0.28846 1.3898 1.3898 0 0 0 0.46328-1.0314c0-1.0227-1.014-1.6958-1.8968-2.2028-1.1363-0.64684-2.2465-1.3461-3.3304-2.0716a7.7883 7.7883 0 0 0 2.9807-2.4388 8.0156 8.0156 0 0 0 1.1363-5.2447 6.617 6.617 0 0 0-1.5646-4.0122c-0.55069-0.58566-1.2412-1.0052-1.8182-1.5559-1.4947-1.4598-2.0017-3.6188-2.6223-5.6118-0.82166-2.6223-2.1066-5.3758-4.5017-6.7656-1.1538-0.67307-2.5-0.98775-3.6276-1.6958-1.1276-0.70803-2.0716-2.0454-1.6783-3.3304 0.26223-0.87411 1.0752-1.4772 1.6258-2.2202a4.423 4.423 0 0 0-1.1101-6.1188c-0.64684-0.41083-1.4423-0.76922-1.5734-1.521a2.7797 2.7797 0 0 1-2.0279-2.1503 8.2866 8.2866 0 0 1 0-3.1118q0.3409-2.4388 0.67306-4.86a3.1643 3.1643 0 0 0 2.43 0 21.398 21.398 0 0 0 2.6223 3.4265 34.239 34.239 0 0 1 6.1188 10.62c0.49824 1.3986 1.0052 2.9632 2.2989 3.7062 0.44579 0.25349 0.95278 0.38461 1.3898 0.65558a5.1922 5.1922 0 0 1 1.3636 1.3986c1.0489 1.3898 2.0979 2.7709 3.1381 4.1608l0.0524 0.20978a1.2238 1.2238 0 0 0 0.13986 0.34965 1.1626 1.1626 0 0 0 0.75173 0.38461c3.2167 0.74299 6.8268 1.4248 9.6152-0.33217 2.5174-1.5734 3.6188-4.6852 5.7516-6.7656 1.5122-1.4772 3.6538-2.6223 4.0821-4.7027a15.472 15.472 0 0 1-1.5035-0.55069c0.43705-0.43705 0.87411-0.94403 1.4685-1.521a18.514 18.514 0 0 0 2.3251-2.7709 17.858 17.858 0 0 0 1.7482-3.916q2.5262-7.2027 5.0698-14.414c0.80418-2.2727 1.6084-4.5628 2.6223-6.7744 1.0489-2.3951 2.2902-4.694 3.4352-7.0453a93.53 93.53 0 0 0 6.8006-19.143 6.9929 6.9929 0 0 0 0.27097-2.7884c-0.24475-1.5122-1.3898-2.701-2.4825-3.7762a18.216 18.216 0 0 0-3.7237-3.0856 6.1188 6.1188 0 0 0-4.6678-0.75173c-2.2377 0.65558-3.645 2.9458-4.1608 5.2447-0.51572 2.2989-0.32342 4.6677-0.54195 6.9929-0.31468 3.3653-1.4685 6.617-1.7482 9.9911-0.14859 1.9493 0 3.9248-0.23601 5.874a21.433 21.433 0 0 1-2.6223 7.2376 46.852 46.852 0 0 1-11.302 13.933c-0.53321 0.44579-1.0839 0.87411-1.6084 1.3549 0-0.37587 0.0612-0.76048 0.11364-1.1364a6.853 6.853 0 0 0-1.1101 0.39335 3.3304 3.3304 0 0 0-0.13112-1.3112c-0.69929-2.0891-3.8111-2.6223-4.3706-4.7464a9.7026 9.7026 0 0 1-0.1486-1.5909c-0.18356-1.8618-1.451-3.4352-1.8881-5.2447-0.40209-1.6696-0.0962-3.4964-0.87411-5.0436a14.099 14.099 0 0 0-2.3251-2.6223 10.288 10.288 0 0 1-2.2115-4.1695c-0.11364-0.42832-0.21853-0.87411-0.3409-1.3024a5.9614 5.9614 0 0 0-0.31468-2.8758c-0.79544-1.9755-2.8496-3.243-3.5926-5.2447-0.57691-1.5559-0.32342-3.4964-1.416-4.7027a5.1135 5.1135 0 0 0-2.0716-1.25 46.092 46.092 0 0 0-12.474-2.9458c-2.3951-0.21853-5.0349-0.34091-6.7481-2.0279-2.0017-1.958-2.0979-5.4807-4.4405-6.9929-2.0629-1.3374-4.9824-0.34964-6.582 1.5297a8.3303 8.3303 0 0 0-0.66433 0.87411 9.353 9.353 0 0 1-0.18356-3.5838c0-0.29719 0.0612-0.60313 0.0874-0.87411a17.482 17.482 0 0 0 9.4754-7.4824v0.0525l0.1049 0.27097c0.25349 0.63811 0.65558 1.25 1.25 1.3199a1.7482 1.7482 0 0 0 1.0839-0.39335 8.9771 8.9771 0 0 0 1.451-1.2587q0.33216-0.36712 0.62936-0.76047a9.9037 9.9037 0 0 0 1.0314-1.7482 10.384 10.384 0 0 0 0.87411-2.9283c0.15734-1.014 0.17482-2.0542 0.34964-3.0681a18.89 18.89 0 0 1 0.6381-2.3164c0.0874-0.25349 0.17483-0.50698 0.2535-0.76047 0.0787-0.25349 0.1923-0.5944 0.27971-0.87411a20.253 20.253 0 0 0 0.87411-5.5419q0-0.47202 0-0.94404a9.2219 9.2219 0 0 0-2.937-6.5121c-1.5035-1.2325-3.4964-1.7482-4.5978-3.4178-0.71677-1.1189-0.87411-2.5611-1.2937-3.8723a8.7411 8.7411 0 0 0-6.8705-6.18 7.6485 7.6485 0 0 0-5.437 1.4947l-0.12238 0.0962a8.7411 8.7411 0 0 0-2.1678 2.4126 7.2114 7.2114 0 0 1-3.0769-1.7482c-0.87411-0.81292-1.5472-1.8356-2.43-2.6223a6.2499 6.2499 0 0 0-6.2237-1.3112 7.4387 7.4387 0 0 0-4.4492 5.0961c-0.48076 1.8007-0.39335 3.8723-1.3986 5.3758-0.77796 1.1713-2.0542 1.7482-2.9458 2.8146a5.2971 5.2971 0 0 0-1.1014 2.3339 6.3198 6.3198 0 0 0-0.1486 1.4598c0 0.21853 0 0.43705 0.0525 0.64684v0.10489a4.624 4.624 0 0 0 0.1486 0.70803 6.1188 6.1188 0 0 0 1.3024 2.3951 5.7516 5.7516 0 0 0 2.1066 1.521 8.5313 8.5313 0 0 0 1.014 0.32342l1.0402 0.23601 0.36713 0.0874a17.43 17.43 0 0 0-0.4895 15.393c0 0.24475-0.0612 0.4895-0.0874 0.73425a60.462 60.462 0 0 0 0.45453 10.306c0.12238 1.3549 0.19231 2.8496-0.6381 3.9248a7.4474 7.4474 0 0 1-1.2674 1.1276c0.47201-0.61188 0.95278-1.215 1.4423-1.8182-1.2325-1.2412-3.1818-1.3986-4.93-1.2762a22.84 22.84 0 0 0-9.6152 2.937c-1.958 1.1276-3.9685 2.6223-6.2062 2.3601-1.3199-0.1486-2.6223-0.87411-3.9073-0.52447a7.9194 7.9194 0 0 0-2.0017 1.1888 2.7097 2.7097 0 0 1-1.6433 0.50698c-1.3724-1.687-3.4964-2.8321-5.1398-4.2045a40.498 40.498 0 0 1-5.1136-5.4807c-2.8321-3.4178-5.6555-6.8443-8.4352-10.297-2.3426-2.902-4.7464-6.0401-5.1572-9.7551a9.554 9.554 0 0 1-0.0612-1.1101 28.234 28.234 0 0 1 0.66432-5.2447 2.6223 2.6223 0 0 0 0-1.2675c-0.26223-0.87411-1.2675-1.1975-2.1328-1.3898 0.11364-0.67307 0.19231-1.3636 0.23601-2.0192 0.48951-7.5173-0.0437-15.157 1.5472-22.517 0.60313-2.8321 1.5909-5.6992 3.6276-7.7534 3.1905-3.2255 8.5313-4.0034 10.979-7.8233 2.0454-3.1818 1.2325-7.6834-1.3374-10.489-2.5699-2.8059-6.5296-3.951-10.297-3.8111a5.3146 5.3146 0 0 0-2.9982 0.80418 6.3723 6.3723 0 0 0-1.8182 2.7622l-3.7499 9.117a55.139 55.139 0 0 0-2.7447 7.325c-1.0489 3.8286-1.2849 7.867-2.1153 11.731 0 2.972-1.9143 6.6782-2.9632 9.4142-1.1713 3.0769-2.4388 6.1188-3.4964 9.2568-0.26223 0.7867-1.18 3.1206-1.7482 5.2447a3.1992 3.1992 0 0 0-0.59439 0.4458 15.813 15.813 0 0 0-1.2412 1.8444c-0.79544 1.0489-2.0891 1.6084-2.9632 2.6223s-1.0577 2.8758 0.15734 3.3828a3.5664 3.5664 0 0 0 0.76048 0.16609 2.9545 2.9545 0 0 1 0.47202 0.0787c1.3112 0.36712 1.8269 2.0192 1.6346 3.3828-0.1923 1.3636-0.87411 2.6223-0.98774 3.9859-0.23601 2.4125 1.18 4.659 2.5437 6.6869a57.639 57.639 0 0 0 4.6677 6.2848c1.2325 1.3811 2.6223 2.6223 3.8636 3.951 4.7289 4.86 8.4876 10.542 12.736 15.821a35.078 35.078 0 0 0 5.1835 5.437 39.029 39.029 0 0 0 3.9248 2.701l7.3076 4.6328a8.0068 8.0068 0 0 0 2.7622 1.3024 3.6713 3.6713 0 0 0 0.979 0c0.0437 0.21853 0.0787 0.42831 0.13112 0.64684 0.56817 2.2902 1.8181 4.3706 1.958 6.7044 0.13986 2.3339-0.0699 4.7202 0.0961 7.0803 0.15734 2.1765 0.6381 4.3706 0.76048 6.5121 0.24475 4.1258-0.76922 8.1992-1.7482 12.238-1.4772 5.909-2.3688 11.94-5.2447 17.299-0.80418 1.4772-1.7482 2.9807-1.7482 4.6678 0 0.20104 0 0.41083 0.0525 0.61187l-1.3112 0.743c-0.3846 0.21853-0.76921 0.43705-1.1189 0.66432-1.6608 1.0839-3.4352 2.2814-4.117 4.152-0.55069 1.5122-0.2972 3.243-0.96152 4.7114a2.0891 2.0891 0 0 1-0.1049 0.19231c-0.69929 1.3636-2.0891 2.3776-2.4038 3.8723-0.23601 1.1451 0.21853 2.3601 0 3.4964v0.0437a12.648 12.648 0 0 0-0.47202 1.7482 2.0891 2.0891 0 0 0 0.0525 0.57691 3.3304 3.3304 0 0 0 1.0489 1.7045 6.9929 6.9929 0 0 0 1.0227 0.81292q0.55943 0.36712 1.1538 0.6818l0.22727 0.12238c0.33216 0.17482 0.66432 0.3409 1.0052 0.49824l0.22727 0.0961c0.39335 0.17483 0.79544 0.33217 1.1975 0.47202l0.27971 0.0874c0.31468 0.1049 0.6381 0.20105 0.96152 0.27972l0.21853 0.0699 0.20105 0.0437 0.87411 0.18357 0.32342 0.0612q0.57691 0.0962 1.18 0.15734h0.34965c0.2972 0 0.58565 0.0437 0.87411 0.0525h0.41083 0.87411 0.31468c0.41083 0 0.82166-0.0612 1.2325-0.11363h0.13112c0.36713-0.0525 0.73425-0.11364 1.1014-0.19231l0.27971-0.0612c0.34091-0.0787 0.68181-0.15734 1.0227-0.26223l0.18356-0.0524c0.41084-0.12237 0.82167-0.25349 1.2238-0.41083a32.115 32.115 0 0 0 4.0384-2.0017c0.87411-0.48076 1.7482-0.97026 2.6223-1.4161a20.358 20.358 0 0 1 1.993-0.87411 11.25 11.25 0 0 1 5.2446-0.87411 20.542 20.542 0 0 1 2.6223 0.53321v0.28846q1.0664 6.2936 2.1066 12.587a25.629 25.629 0 0 1 3.6188-2.1765 8.0506 8.0506 0 0 0-0.46328 1.9667 7.7971 7.7971 0 0 0 0 1.5647c0.0787 0.8304 0.2535 1.7482-0.24475 2.4038-0.30593 0.40209-0.87411 0.62936-1.0402 1.0839a3.6975 3.6975 0 0 0-0.0874 1.4248 2.2727 2.2727 0 0 1-2.0804 2.1153 3.3216 3.3216 0 0 1-1.3199 3.8985 4.6153 4.6153 0 0 0-1.014 0.66432 3.0244 3.0244 0 0 0-0.58566 1.3199 23.356 23.356 0 0 1-6.8443 11.25 22.001 22.001 0 0 0-3.3828 3.3041 15.043 15.043 0 0 0-1.5297 3.0157q-3.4964 8.5488-7.0978 17.106c-1.3286 3.1905-2.6223 6.4334-3.0419 9.8687-1.0489 9.4229-9.4404 17.412-7.867 26.765a13.112 13.112 0 0 0 2.7272 6.3897c1.7482 2.1066 4.3706 3.3129 6.9929 4.2919 6.7394 2.6223 13.846 4.0559 20.926 5.4982l11.119 2.2814a48.601 48.601 0 0 0 6.6258 1.0489c2.6835 0.18356 5.437-0.0699 8.0506 0.61187 1.6171 0.41958 3.1643 1.1975 4.8338 1.285 1.4335 0.0787 3.1992-0.22727 4.0471 0.94403 0.84789 1.1713 0.1923 2.7185 0.99649 3.7587 1.2937 1.6521 4.4492 0 5.8565 1.5559a7.2464 7.2464 0 0 1 0.87411 1.9318 3.4964 3.4964 0 0 0 0.87411 1.1014 7.3862 7.3862 0 0 1 0.10489 1.4947 25.777 25.777 0 0 1-1.2587 5.9614q-1.5734 5.3233-3.1381 10.655a23.601 23.601 0 0 0-0.87411 3.8461 9.2393 9.2393 0 0 0 0 1.9056c0.18356 1.9318 1.2937 3.9248 3.1381 4.5541a5.7516 5.7516 0 0 0 4.2482-0.52446 18.776 18.776 0 0 0 3.4964-2.3601 23.872 23.872 0 0 0 5.0436-5.1922c4.3706-6.5383 2.9545-15.384 6.0226-22.613 2.0367-4.8251 6.0051-8.7411 7.325-13.828a5.5331 5.5331 0 0 0 0.10489-2.9895c-0.55069-1.7482-2.4125-2.7447-4.152-3.3741h-0.0787a35.839 35.839 0 0 0-4.3706-1.25c-0.36712-0.0787-0.74299-0.13985-1.1189-0.20104a6.8618 6.8618 0 0 1-1.9318-2.5174 5.8565 5.8565 0 0 0-0.41083-1.5122 1.5734 1.5734 0 0 0-1.2587-0.69929c-0.87411-0.0874-2.0454 0.22727-2.9982 0.15734-1.9493-0.13985-3.243-2.0542-4.9912-2.937-1.7482-0.88286-3.645-0.66433-5.5069-0.53321a5.0961 5.0961 0 0 1-1.993-0.12238 7.4911 7.4911 0 0 1-2.0979-1.4423 8.7935 8.7935 0 0 0-7.7009-1.5472 8.3915 8.3915 0 0 1-2.6223 0.59439c-1.7045-0.0961-2.9108-1.6171-4.1695-2.7709-3.444-3.1555-8.3478-3.9859-12.526-6.0576a2.8583 2.8583 0 0 1-1.5035-1.2937c-0.48076-1.1888 0.60313-2.3776 1.5821-3.1905l7.1852-5.9702c7.867-6.5383 17.701-11.46 21.354-21.049a12.176 12.176 0 0 1 1.7482-3.5926 4.8775 4.8775 0 0 1 0.97026-0.87411 7.3425 7.3425 0 0 1 5.3758-1.0489 18.155 18.155 0 0 1 6.3286 2.7622q4.694 2.8409 9.1344 6.1188a80.811 80.811 0 0 1 8.3478 6.853c4.5891 4.3706 8.4089 9.554 12.683 14.265s9.1607 9.1082 15.096 11.363c5.9352 2.2552 13.112 2.159 18.208-1.6258 5.8828-4.3706 7.7708-12.185 9.2568-19.353 3.2779-3.1643 4.2656-7.9806 5.8653-12.238 1.0052-2.701 2.2902-5.2447 3.3741-7.9369 1.2937-3.1643 2.3076-6.4334 3.3216-9.6939a46.616 46.616 0 0 0 2.3251-10.113c0.41957-5.4457-1.0402-11.241 0.4895-16.355 2.0192-0.4458 3.8548-1.5821 5.839-2.2465 2.9545-0.97027 6.1188-0.81293 9.2481-0.79544h0.20105a4.7726 4.7726 0 0 0 3.0769-0.72551c1.0489-0.87411 1.215-2.3688 1.2675-3.7237 0.12238-3.3478-0.0874-7.1065-2.5961-9.2743zm-126.65-149.11a6.4946 6.4946 0 0 1-2.2115 0.15734z" fill="url(#linearGradient1129)"/>
   <path d="m693.48 400.7a9.6152 9.6152 0 0 1-3.6363 1.9318l-6.1974 2.2202c-3.3653 1.2063-6.8792 2.4213-10.428 1.9842-1.9842-0.24475-10.489-1.4947-11.774-3.0419-1.958-2.3951 4.9038-5.9177 7.2464-7.9369a9.9124 9.9124 0 0 0 1.4685-1.2937c0.87411-1.0664 0.76048-2.5611 0.6381-3.9073a60.314 60.314 0 0 1-0.45453-10.288 20.734 20.734 0 0 1 0.34964-2.4388c0.87411-4.0209 4.6153-2.5524 7.5698-1.486a59.186 59.186 0 0 1 10.271 4.4492 7.3687 7.3687 0 0 1 2.5349 2.1503c1.2937 1.958 0.77796 4.5279 0.56817 6.9929-0.18356 1.9143-0.17482 3.7499 1.0227 5.1398a13.234 13.234 0 0 1 1.6521 1.7482 3.2779 3.2779 0 0 1-0.83041 3.7762z" fill="#be6f72"/>
   <path d="m607.86 337.7c0.87411-3.8723 1.0664-7.867 2.1154-11.704a54.798 54.798 0 0 1 2.7447-7.2988l3.8548-8.9946a6.346 6.346 0 0 1 1.8182-2.7534 5.3845 5.3845 0 0 1 2.9982-0.80419c3.7674-0.13985 7.7271 1.0314 10.297 3.8024 2.5699 2.7709 3.3828 7.2551 1.3374 10.428-2.4475 3.8199-7.7883 4.5891-10.979 7.8058-2.0367 2.0542-3.0244 4.9125-3.6276 7.7359-1.5909 7.3425-1.0577 14.956-1.5472 22.456-0.15734 2.3339-0.61187 4.9999-2.6223 6.2062a7.6485 7.6485 0 0 1-3.916 0.76048l-5.7342 0.0962c-0.96152 0-4.4492 0.60314-5.0873-0.12237-1.1189-1.2675 1.4335-7.5785 1.8968-8.9858 1.0314-3.1206 2.2989-6.1625 3.4964-9.2306 1.0402-2.736 2.9545-6.4334 2.9545-9.3967z" fill="#be6f72"/>
   <path d="m726.26 612.31c-1.3199 5.0524-5.2884 8.9858-7.325 13.802-3.0681 7.2114-1.687 16.031-6.0226 22.552a23.828 23.828 0 0 1-5.0436 5.201 18.732 18.732 0 0 1-3.4964 2.3514 5.7516 5.7516 0 0 1-4.2482 0.52447c-1.8444-0.62936-2.9545-2.6223-3.1381-4.5454a9.1694 9.1694 0 0 1 0-1.8968 23.505 23.505 0 0 1 0.87411-3.8373q1.5734-5.3058 3.1381-10.629a25.734 25.734 0 0 0 1.2587-5.9439c0.11363-2.2028-1.285-5.0698-0.69055-7.124 0.27097-0.92655 1.2849-1.7482 1.7482-2.5262a14.624 14.624 0 0 0 1.5035-3.5751c0.71677-2.4388 1.2063-5.0436 2.7097-7.0978a16.661 16.661 0 0 1 3.409-3.1905 9.0383 9.0383 0 0 1 3.2517-1.8269 7.9631 7.9631 0 0 1 3.4964 0.16609 34.309 34.309 0 0 1 4.3706 1.2412h0.0787c1.7482 0.62936 3.6013 1.5996 4.152 3.3653a5.4982 5.4982 0 0 1-0.0262 2.9895z" fill="#3f3d56"/>
   <path d="m819.27 504.85c-0.0524 1.3549-0.21852 2.8671-1.2675 3.715a4.7726 4.7726 0 0 1-3.0769 0.72551h-0.23601c-3.1206 0-6.2936-0.17482-9.2481 0.79544-2.2465 0.74299-4.3094 2.1066-6.652 2.3776-3.2255 0.36712-6.2586-1.3986-9.117-2.937a90.689 90.689 0 0 0-8.2778-3.9335c-1.8531-0.76047-5.638-1.25-6.5296-3.2779a29.842 29.842 0 0 1-0.76922-2.9195 9.7026 9.7026 0 0 0-0.53321-1.2849 7.3862 7.3862 0 0 1-0.979-2.8933 4.4667 4.4667 0 0 1 0.99648-2.7972 8.3827 8.3827 0 0 1 5.7254-2.9458 25.349 25.349 0 0 1 6.5908 0.34964l21.521 3.0944c1.6608 0.23601 3.3304 0.47202 4.965 0.87411a9.7376 9.7376 0 0 1 4.2656 1.8706c2.5437 2.1328 2.7534 5.8828 2.6223 9.1869z" fill="#3f3d56"/>
   <path d="m800.35 510.45c-2.6223 5.5331-0.73426 12.08-1.2063 18.199a46.389 46.389 0 0 1-2.3251 10.087c-1.014 3.2517-2.0279 6.5121-3.3216 9.6676-1.0839 2.6223-2.3688 5.2447-3.3741 7.9194-1.5996 4.2656-2.6223 9.0645-5.8653 12.238-1.486 7.1502-3.3741 14.965-9.2568 19.3-5.1135 3.7762-12.238 3.9073-18.208 1.6258s-10.821-6.652-15.096-11.363c-4.2744-4.7114-8.0943-9.8425-12.683-14.23a79.544 79.544 0 0 0-8.3652-6.8443q-4.4405-3.2255-9.1344-6.0663a18.295 18.295 0 0 0-6.3286-2.7534 7.3425 7.3425 0 0 0-5.3758 1.0489 4.8775 4.8775 0 0 0-0.97026 0.87411 12.028 12.028 0 0 0-1.7482 3.5838c-3.6713 9.5628-13.522 14.475-21.389 20.996l-7.1852 5.9527c-0.979 0.81292-2.0629 2.0017-1.5821 3.1818a2.8583 2.8583 0 0 0 1.5035 1.2937c4.1782 2.0629 9.082 2.8933 12.526 6.0401 1.2587 1.1538 2.465 2.6748 4.1695 2.7622a8.374 8.374 0 0 0 2.6223-0.58565 8.8198 8.8198 0 0 1 7.7009 1.5384 7.4911 7.4911 0 0 0 2.0979 1.4423 5.0961 5.0961 0 0 0 1.993 0.12238c1.8618-0.13112 3.8373-0.2972 5.5069 0.53321 1.6696 0.8304 3.0419 2.7884 4.9912 2.9283 0.95278 0.0699 2.0891-0.24475 2.9982-0.15734a1.5734 1.5734 0 0 1 1.2587 0.69929 5.7953 5.7953 0 0 1 0.41083 1.5035c0.35839 1.2325 1.5647 1.9842 2.3514 2.9982 1.2063 1.5559 1.3811 3.6713 1.2587 5.638a24.056 24.056 0 0 1-7.6572 16.101 9.4754 9.4754 0 0 1-4.7114 2.6223 4.3705 4.3705 0 0 1-4.6678-2.0716 7.1852 7.1852 0 0 0-0.87411-1.923c-1.4073-1.5472-4.5628 0.0961-5.8565-1.5559-0.80418-1.0314-0.22727-2.6835-0.99649-3.7499-0.76921-1.0664-2.6223-0.87411-4.0471-0.9353-1.6696-0.0874-3.2167-0.87411-4.8338-1.2849-2.6223-0.6818-5.367-0.42831-8.0506-0.61188a48.601 48.601 0 0 1-6.6258-1.0489l-11.119-2.2727c-7.0803-1.4423-14.187-2.902-20.926-5.4807-2.5786-0.979-5.1747-2.1853-6.9929-4.2831a13.112 13.112 0 0 1-2.7272-6.381c-1.5821-9.3268 6.8093-17.299 7.867-26.695 0.37586-3.4265 1.7482-6.6607 3.0419-9.8425q3.5576-8.5313 7.0978-17.071a15.21 15.21 0 0 1 1.486-3.0244 21.949 21.949 0 0 1 3.3828-3.2954 23.278 23.278 0 0 0 6.8443-11.224 3.0244 3.0244 0 0 1 0.58566-1.3199 4.9125 4.9125 0 0 1 1.014-0.65559 3.3216 3.3216 0 0 0 1.3199-3.8898 2.2727 2.2727 0 0 0 2.0804-2.1154 3.6538 3.6538 0 0 1 0.0874-1.4161c0.20979-0.45454 0.73425-0.6818 1.0402-1.0839 0.49824-0.65559 0.32342-1.5734 0.24475-2.3951a7.7971 7.7971 0 0 1 0-1.5646 8.0331 8.0331 0 0 1 2.3426-4.8863c2.0891-2.0542 5.0611-1.521 7.9456-2.0104a45.515 45.515 0 0 0 8.3915-2.6835 82.437 82.437 0 0 1 23.697-5.4807 51.739 51.739 0 0 1 23.933 3.8111 13.61 13.61 0 0 1 3.0856 1.7482 5.8478 5.8478 0 0 1 1.6171 1.9318 18.007 18.007 0 0 0 1.1888 2.6835c0.9353 1.2762 2.701 1.687 3.7237 2.8933s1.1101 3.243 1.958 4.7377c1.215 2.1328 4.0296 3.1206 4.8688 5.437 0.26223 0.73425 0.29719 1.5384 0.4895 2.2989 0.47202 1.9056 1.8881 3.409 3.138 4.9125a37.77 37.77 0 0 1 8.4614 19.23c0.27972-4.4317 3.2604-8.3565 6.9929-10.804 1.0052-0.65558 2.1678-1.3811 2.3688-2.5699 0.25349-1.5035-1.2063-2.8409-1.1101-4.3706a4.2831 4.2831 0 0 1 0.87411-2.0454 64.684 64.684 0 0 1 5.4719-6.8792c1.0752-1.18 2.2814-2.6223 1.8356-4.1782-0.3409-1.1626-1.5297-1.8444-2.1853-2.8583a3.6363 3.6363 0 0 1 0.0874-4.0209c0.61187-0.83041 1.5821-1.4335 1.8793-2.4213 0.3409-1.1626-0.41957-2.4213-0.18356-3.6188a4.4754 4.4754 0 0 1 1.8007-2.3339 14.974 14.974 0 0 1 3.9073-2.5699c2.3076-0.87411 4.8775-0.55069 7.325-0.20978 4.0908 0.56817 8.6799 1.4423 10.988 4.8688 1.4772 2.1416 2.229 5.3933 1.1276 7.6834z" fill="#65617d"/>
   <path d="m819.27 504.85c-0.0524 1.3549-0.21852 2.8671-1.2675 3.715a4.7726 4.7726 0 0 1-3.0769 0.72551h-0.23601c0.35838-1.8182 2.5699-2.8583 2.9545-4.7027a4.1608 4.1608 0 0 0-0.96152-3.173c-1.8706-2.5262-4.8775-3.9248-7.867-4.9475a52.114 52.114 0 0 0-26.276-1.9668 26.459 26.459 0 0 0-6.9055 2.1241 22.5 22.5 0 0 0-2.0979 1.486 7.3862 7.3862 0 0 1-0.979-2.8933 4.4667 4.4667 0 0 1 0.99648-2.7972 8.3827 8.3827 0 0 1 5.7254-2.9458 25.349 25.349 0 0 1 6.5908 0.34964l21.521 3.0944c1.6608 0.23601 3.3304 0.47202 4.9649 0.87411a9.7376 9.7376 0 0 1 4.2657 1.8706c2.5699 2.1328 2.7797 5.8828 2.6486 9.1869z" opacity=".1"/>
   <path d="m726.26 612.31c-1.3199 5.0524-5.2884 8.9858-7.325 13.802-3.0681 7.2114-1.687 16.031-6.0226 22.552a23.828 23.828 0 0 1-5.0436 5.201 18.732 18.732 0 0 1-3.4964 2.3514 5.7516 5.7516 0 0 1-4.2482 0.52447c-1.8444-0.62936-2.9545-2.6223-3.1381-4.5454a9.1694 9.1694 0 0 1 0-1.8968l0.0524 0.13986c0.76048 1.8356 2.0017 3.7587 3.9597 4.0821a5.3583 5.3583 0 0 0 4.0384-1.4248c2.8846-2.3164 4.5628-5.7691 6.1625-9.0995a37.849 37.849 0 0 0 2.9545-7.5436c0.34964-1.486 0.51573-3.0069 0.87411-4.4929 1.6608-7.2202 7.3163-13.112 8.5663-20.428a4.9999 4.9999 0 0 0 0.0699-1.5297 7.7271 7.7271 0 0 0-0.75173-1.9056 9.4404 9.4404 0 0 1-0.66432-2.1154c1.7482 0.62936 3.6013 1.5996 4.152 3.3653a5.4982 5.4982 0 0 1-0.13986 2.9632z" opacity=".1"/>
   <path d="m713.06 599.78a12.666 12.666 0 0 1-3.9422 5.3845 19.23 19.23 0 0 1-8.4876 3.6713 8.4439 8.4439 0 0 1-4.3706-0.0524c-1.9405-0.67307-3.3391-2.4912-5.3233-3.0157-1.416-0.38461-2.937-0.0437-4.3705-0.2535-2.5786-0.35838-4.5803-2.3251-6.6607-3.8985-6.3723-4.7901-14.737-6.3373-21.11-11.127a1.958 1.958 0 0 1-0.68181-0.70803 2.1066 2.1066 0 0 1-0.13111-0.98775 20.105 20.105 0 0 1 1.9143-8.4002 29.309 29.309 0 0 1 3.6013-5.131c5.7079-6.9929 11.442-14.038 18.278-19.938 2.8671-2.4737 5.9964-4.7814 9.6152-5.9002 2.0104-0.62062 5.9789-1.2063 8.4264-0.15734a4.8775 4.8775 0 0 0-0.97026 0.87411 12.028 12.028 0 0 0-1.7482 3.5838c-3.68 9.5715-13.531 14.484-21.398 21.005l-7.1852 5.9527c-0.979 0.81292-2.0629 2.0017-1.5821 3.1818a2.8583 2.8583 0 0 0 1.5035 1.2937c4.1782 2.0629 9.082 2.8933 12.526 6.0401 1.2587 1.1538 2.465 2.6748 4.1695 2.7622a8.374 8.374 0 0 0 2.6223-0.58565 8.8198 8.8198 0 0 1 7.7009 1.5384 7.4911 7.4911 0 0 0 2.0979 1.4423 5.0961 5.0961 0 0 0 1.993 0.12238c1.8618-0.13112 3.8373-0.2972 5.5069 0.53321 1.6696 0.8304 3.0419 2.7884 4.9912 2.9283 0.97027 0.0699 2.1066-0.26223 3.0157-0.15734z" opacity=".1"/>
   <path d="m632.67 481.15c-1.6608 1.0664-3.4265 2.2727-4.1083 4.1258-0.55943 1.5122-0.2972 3.243-0.97026 4.7114-0.67307 1.4685-2.1853 2.4912-2.5174 4.0646-0.23601 1.1451 0.22727 2.3514 0 3.4964a15.07 15.07 0 0 0-0.48076 1.8182c-0.0874 1.3024 1.0314 2.3601 2.1241 3.0856a17.744 17.744 0 0 0 15.883 1.7482c2.3339-0.87411 4.4405-2.2989 6.6782-3.4178a13.208 13.208 0 0 1 7.1939-1.7482c1.4423 0.15734 2.8234 0.68181 4.2656 0.87411a4.4754 4.4754 0 0 0 3.9947-1.1888 4.9824 4.9824 0 0 0 0.87411-2.0716c1.215-4.7989 0.66433-9.8862-0.4895-14.711-1.1538-4.8251-2.902-9.4666-4.1345-14.265-0.87411-3.5576-1.5472-7.2027-3.0069-10.568-1.4598-3.3653-3.916-6.4946-7.3513-7.7796a1.3724 1.3724 0 0 0-0.87411-0.11364 1.486 1.486 0 0 0-0.56817 0.41958 26.879 26.879 0 0 0-5.9964 10.087c-1.3724 4.187-1.7482 8.6275-3.0069 12.832-0.54195 1.7482-1.2412 4.0908-2.6223 5.4282-1.3811 1.3374-3.3216 2.1678-4.8863 3.173z" fill="#3f3d56"/>
   <path d="m665.63 496.62a5.0961 5.0961 0 0 1-0.91782 2.0716 4.4317 4.4317 0 0 1-3.9947 1.18c-1.4335-0.17483-2.8146-0.70803-4.2569-0.87411a13.182 13.182 0 0 0-7.1939 1.7482c-2.2377 1.1189-4.3706 2.5087-6.6869 3.409a17.648 17.648 0 0 1-10.603 0.60314 17.106 17.106 0 0 1-5.2447-2.3076c-1.1014-0.71677-2.2115-1.7482-2.1241-3.0856a14.939 14.939 0 0 1 0.48076-1.8094c0.22727-1.1451-0.22726-2.3514 0-3.4964 0.33217-1.5734 1.8531-2.6223 2.5174-4.0734 0.66432-1.451 0.41083-3.1905 0.96152-4.7027 0.68181-1.8618 2.4562-3.0594 4.1171-4.1345 1.6608-1.0752 3.6363-1.8968 4.9649-3.1992a4.93 4.93 0 0 0 0.46328-0.64684 15.734 15.734 0 0 0 2.0804-4.8163c1.2849-4.2132 1.6346-8.645 2.9982-12.841a26.931 26.931 0 0 1 6.0051-10.078 1.3199 1.3199 0 0 1 0.55943-0.41958 1.3986 1.3986 0 0 1 0.87411 0.1049c3.4265 1.2937 5.8828 4.423 7.3513 7.7883 1.4685 3.3653 2.0891 6.9929 3.0069 10.559 1.2238 4.7989 2.9807 9.4579 4.1345 14.274 1.1538 4.8163 1.722 9.9386 0.50699 14.746z" opacity=".1"/>
   <path d="m691.63 390.01a17.482 17.482 0 0 1-21.293-9.6152 20.734 20.734 0 0 1 0.34964-2.4388c0.87411-4.0209 4.6153-2.5524 7.5698-1.486a59.186 59.186 0 0 1 10.271 4.4492 7.3687 7.3687 0 0 1 2.5349 2.1503c1.2937 1.9318 0.77796 4.5017 0.56817 6.9404z" opacity=".1"/>
   <circle cx="686.35" cy="372.48" r="17.482" fill="#be6f72"/>
   <path d="m733.79 503.12c0 1.451-1.9668 1.9143-3.4265 1.8356-5.2447-0.30593-10.376-1.7482-15.568-1.3112-6.5646 0.59439-12.596 4.222-19.178 4.5541-2.5349 0.13112-5.1135-0.24475-7.6135 0.21853-3.2342 0.60314-6.1188 2.5699-9.4142 2.8496-2.8583 0.24475-5.6817-0.83041-8.54-0.71677a13.724 13.724 0 0 0-5.7079 1.6258 8.0331 8.0331 0 0 1 2.3426-4.8863c2.0891-2.0542 5.0611-1.521 7.9457-2.0104a45.515 45.515 0 0 0 8.3914-2.6835 82.437 82.437 0 0 1 23.697-5.4807 51.739 51.739 0 0 1 23.924 3.7849 13.61 13.61 0 0 1 3.0856 1.7482 1.3724 1.3724 0 0 1 0.0612 0.47202z" opacity=".1"/>
   <path d="m678.27 404.4-7.0803-2.6223-2.9894-1.1014a14.458 14.458 0 0 0-3.8111-1.014c-3.4265-0.26223-6.652 2.0192-8.4789 4.93-1.8269 2.9108-2.5174 6.381-3.1031 9.7638q-1.2063 6.9404-2.0454 13.933a91.021 91.021 0 0 0-0.91782 12.71c0.20105 10.821 2.4912 21.494 5.0086 32.027a112.66 112.66 0 0 1 2.7884 14.204c0.20979 1.9755 0.30594 3.9597 0.51573 5.9439 0.22726 2.229 0.59439 4.4317 0.96152 6.6432l2.1066 12.561c2.6223-1.8619 5.603-3.4964 8.8285-3.5926 2.8583-0.1049 5.6905 0.96152 8.54 0.71677 3.2779-0.27098 6.18-2.2377 9.4142-2.8409 2.5-0.46328 5.0786-0.0962 7.6222-0.21853 6.5733-0.33216 12.613-3.9685 19.169-4.5541 5.201-0.47202 10.367 0.99648 15.577 1.3024 1.451 0.0874 3.4178-0.37586 3.4178-1.8356 0-1.014-1.014-1.687-1.8968-2.194a93.53 93.53 0 0 1-11.844-8.4526c-3.444-2.7272-6.9404-5.5244-9.3093-9.2131-5.7079-8.8722-3.7499-20.874-8.6187-30.235-3.9597-7.6048 0-17.57 0-26.145 0-4.2744 0-8.6012-1.0052-12.753a54.099 54.099 0 0 0-2.3426-6.818l-3.4003-8.61a1.4073 1.4073 0 0 0-0.40209-0.65559 1.3374 1.3374 0 0 0-0.77796-0.23601 8.1991 8.1991 0 0 0-5.6468 1.8094c-1.5996 1.3024-2.6223 3.173-4.1957 4.5279-1.722 1.4947-3.9422 2.8059-6.0838 2.0192z" fill="#e3e8f4"/>
  </g>
  <g fill="#3f3d56" stroke-width=".87411">
   <path d="m689.69 399.43c0.55943-2.3951 1.1626-4.8863 2.7622-6.7569 1.5996-1.8706 4.5192-2.8583 6.582-1.521 2.3426 1.521 2.4388 5.0349 4.4405 6.9929 1.7482 1.6783 4.3706 1.8094 6.7481 2.0279a45.76 45.76 0 0 1 12.474 2.937 5.0961 5.0961 0 0 1 2.0716 1.2412c1.0926 1.2412 0.87411 3.1468 1.4161 4.694 0.74299 1.993 2.7972 3.2604 3.5926 5.2447 0.87411 2.2028 0 4.6677-0.73425 6.9317-1.3199 4.0646-2.1503 8.2866-3.4352 12.369s-3.1118 8.103-6.1188 11.18c-1.3286 1.3636-3.3041 2.6223-5.0524 1.8094l-0.67307 4.8513a8.2429 8.2429 0 0 0 0 3.1031 2.7797 2.7797 0 0 0 2.0279 2.1503c0.13111 0.75174 0.92655 1.1101 1.5734 1.521a4.3705 4.3705 0 0 1 1.1101 6.1188c-0.55069 0.74299-1.3636 1.3286-1.6258 2.2115-0.39335 1.2762 0.54195 2.6223 1.6783 3.3216 1.1363 0.69928 2.4737 1.0227 3.6276 1.6958 2.3951 1.3811 3.68 4.0996 4.5017 6.7394 0.61188 1.993 1.1189 4.152 2.6223 5.603 0.57691 0.55069 1.2675 0.97026 1.8182 1.5472a6.6345 6.6345 0 0 1 1.5646 4.0122 7.9631 7.9631 0 0 1-1.1363 5.2447c-1.7482 2.5-5.0086 3.2429-7.867 4.3706-4.6415 1.9056-8.4614 5.3146-12.552 8.2166a13.391 13.391 0 0 1-5.7254 2.6923c-2.8321 0.37586-5.6205-0.87411-8.4701-0.98775a21.031 21.031 0 0 0-5.0524 0.66433l-5.2447 1.1363c0.27972-4.0646-1.958-8.138-3.208-12.01-2.3601-7.2901-2.7972-15.087-2.2377-22.727 0.55943-7.6397 2.1153-15.175 3.6538-22.674 1.0752-5.2447 0.97026-10.725 2.6223-15.821 1.5472-4.9038 3.7587-9.6152 4.5716-14.72 1.3286-8.2603-4.1957-15.262-2.3251-23.409z"/>
   <path d="m729.45 415.6a9.6152 9.6152 0 0 1 1.0052 2.8409 10.253 10.253 0 0 0 2.2115 4.1608 14.327 14.327 0 0 1 2.3251 2.6223c0.80418 1.521 0.49824 3.3741 0.87411 5.0349 0.43705 1.8094 1.7045 3.3828 1.8881 5.2447a9.6152 9.6152 0 0 0 0.1486 1.5909c0.56817 2.1154 3.68 2.6223 4.3706 4.7377 0.46328 1.3724-0.33216 2.8671-0.18356 4.3094a3.7936 3.7936 0 0 1 0.0787 1.3636 2.7709 2.7709 0 0 1-0.99649 1.2762 20.105 20.105 0 0 0-5.7516 10.236 58.294 58.294 0 0 0-1.3199 11.827l-3.4178-4.5192a5.1922 5.1922 0 0 0-1.3636-1.3986c-0.43706-0.26224-0.94404-0.39335-1.3898-0.65559-1.2937-0.73425-1.8007-2.2902-2.2989-3.6887a34.09 34.09 0 0 0-6.1188-10.594c-1.3898-1.6346-3.0069-3.2779-3.3129-5.402a9.9474 9.9474 0 0 1 0.15734-2.9195c0.87411-5.7254 1.8094-11.591 4.5978-16.669 1.3024-2.3776 2.9895-4.5279 4.2394-6.9404 0.83914-1.5996 2.0192-5.7604 4.2569-2.4562z"/>
   <path d="m643.22 421.09a3.9947 3.9947 0 0 1-0.54195 2.0979 2.7622 2.7622 0 0 1-2.7622 0.87411 7.9894 7.9894 0 0 1-2.7622-1.2937q-3.6538-2.3076-7.3076-4.624a40.454 40.454 0 0 1-3.9248-2.6923 35.026 35.026 0 0 1-5.1835-5.4282c-4.2482-5.2447-8.0068-10.935-12.736-15.734-1.2849-1.3112-2.6223-2.5699-3.8636-3.9422a57.534 57.534 0 0 1-4.6677-6.2761c-1.3636-2.0192-2.7797-4.2569-2.5437-6.6695 0.13985-1.3636 0.79544-2.6223 0.98774-3.9772s-0.32342-3.0069-1.6346-3.3741a2.9545 2.9545 0 0 0-0.47202-0.0787 3.5664 3.5664 0 0 1-0.76048-0.16608c-1.215-0.50698-1.0314-2.3863-0.15734-3.3741 0.87411-0.98775 2.1678-1.5384 2.9632-2.6223a15.813 15.813 0 0 1 1.2412-1.8444 4.7289 4.7289 0 0 1 2.0367-1.0227 31.52 31.52 0 0 1 15.515-0.58566c0.87411 0.19231 1.8706 0.54195 2.1328 1.3898a2.5611 2.5611 0 0 1 0 1.2587 28.146 28.146 0 0 0-0.66432 5.2446 9.3005 9.3005 0 0 0 0.0612 1.1014c0.41083 3.7062 2.8146 6.8443 5.1572 9.7376 2.7797 3.444 5.603 6.8618 8.4352 10.271a40.358 40.358 0 0 0 5.1136 5.4632c1.7482 1.451 4.0122 2.6223 5.3758 4.4842 1.1101 1.5035 0.75173 3.5576 0.87411 5.367a119.12 119.12 0 0 1 0.0874 16.416z"/>
  </g>
  <g stroke-width=".87411">
   <path d="m754.23 457.56a18.356 18.356 0 0 0 2.3251-2.7534 18.164 18.164 0 0 0 1.7482-3.9073l5.0698-14.379c0.80418-2.2727 1.6084-4.5541 2.6223-6.7656 1.0489-2.3863 2.2902-4.6852 3.4352-6.9929a93.268 93.268 0 0 0 6.7918-19.012 7.0453 7.0453 0 0 0 0.27097-2.7884c-0.24475-1.5122-1.3898-2.6923-2.4825-3.7674a18.173 18.173 0 0 0-3.7237-3.0769 6.1188 6.1188 0 0 0-4.6678-0.75173c-2.2377 0.65558-3.645 2.9458-4.1608 5.2447-0.51572 2.2989-0.32342 4.6503-0.54195 6.9929-0.31468 3.3566-1.4685 6.5995-1.7482 9.9648-0.14859 1.9493 0 3.916-0.23601 5.8565a21.389 21.389 0 0 1-2.6223 7.2289 46.931 46.931 0 0 1-11.302 13.898 18.173 18.173 0 0 0-3.3916 3.2604 10.638 10.638 0 0 0-1.6346 4.0734 9.3792 9.3792 0 0 0 0.70803 6.617c1.4248 2.43 4.1608 3.4964 6.7744 4.0384 3.5314 0.73425 4.3443-0.47202 6.7656-2.9807z" fill="#be6f72"/>
   <path d="m686.46 347.14a8.1554 8.1554 0 0 1 7.9194-4.2919 8.7411 8.7411 0 0 1 6.8705 6.1712c0.41083 1.3024 0.57691 2.7447 1.2937 3.8636 1.0839 1.687 3.0944 2.1765 4.5978 3.4003a9.2044 9.2044 0 0 1 2.937 6.5034 19.676 19.676 0 0 1-1.1626 7.3513 23.374 23.374 0 0 0-0.87411 3.0769c-0.17482 1.014-0.1923 2.0454-0.34964 3.0594a9.9649 9.9649 0 0 1-4.0122 6.617 1.7482 1.7482 0 0 1-1.0839 0.39335c-0.68181-0.0787-1.1014-0.87411-1.3549-1.5909-1.3898-4.0122-1.0577-8.9159-3.6188-12.115a13.243 13.243 0 0 0-4.1433-3.0856 5.3408 5.3408 0 0 0-2.1153-0.79544 5.5681 5.5681 0 0 0-3.0594 1.1189 19.047 19.047 0 0 1-6.0488 2.6748 7.4299 7.4299 0 0 1-6.2499-1.3461c-1.2063-0.99648-2.0891-2.4912-3.4265-3.2692s-2.736-0.73425-4.0559-1.2675a6.0051 6.0051 0 0 1-2.43-9.1607c0.87411-1.0489 2.1678-1.6433 2.9458-2.8059 1.0052-1.5035 0.91782-3.5664 1.3986-5.367a7.3862 7.3862 0 0 1 4.4492-5.0786 6.2499 6.2499 0 0 1 6.2237 1.3024c0.87411 0.7867 1.5734 1.8007 2.43 2.6223a6.9929 6.9929 0 0 0 6.4684 1.7482" fill="#3f3d56"/>
   <path d="m700.83 475.8a3.3915 3.3915 0 0 0-0.92656 3.7062c0.1923 0.41083 9.2131-1.3286 10.166-1.4598 2.3776-0.34091 6.5471-0.17483 8.1467-2.3514 2.8496-3.8548-5.9789-2.9982-7.596-2.8583-3.0769 0.26223-7.4474 0.68181-9.79 2.9632z" opacity=".1"/>
   <path d="m618.77 363.04a28.146 28.146 0 0 0-0.66432 5.2447c-2.6223 0.53321-5.3496-0.3409-7.867-1.215l-7.2289-2.465a2.0542 2.0542 0 0 0-2.7622 0.51572c-1.1626 1.2063-2.7622 3.4964-4.3706 4.8513a3.5664 3.5664 0 0 1-0.76047-0.16608c-1.215-0.50698-1.0314-2.3863-0.15734-3.3741 0.87411-0.98775 2.1678-1.5384 2.9632-2.6223a15.813 15.813 0 0 1 1.2412-1.8444 4.7289 4.7289 0 0 1 2.0367-1.0227 31.52 31.52 0 0 1 15.515-0.58566c0.87411 0.19231 1.8706 0.54195 2.1328 1.3898a2.5611 2.5611 0 0 1-0.0787 1.2937z" fill="#3f3d56"/>
   <path d="m618.77 363.04a28.146 28.146 0 0 0-0.66432 5.2447c-2.6223 0.53321-5.3496-0.3409-7.867-1.215l-7.2289-2.465a2.0542 2.0542 0 0 0-2.7622 0.51572c-1.1626 1.2063-2.7622 3.4964-4.3706 4.8513a3.5664 3.5664 0 0 1-0.76047-0.16608c-1.215-0.50698-1.0314-2.3863-0.15734-3.3741 0.87411-0.98775 2.1678-1.5384 2.9632-2.6223a15.813 15.813 0 0 1 1.2412-1.8444 4.7289 4.7289 0 0 1 2.0367-1.0227 31.52 31.52 0 0 1 15.515-0.58566c0.87411 0.19231 1.8706 0.54195 2.1328 1.3898a2.5611 2.5611 0 0 1-0.0787 1.2937z" opacity=".1"/>
   <path d="m684.89 528.99c1.2587 0.41958 2.6223 1.0314 3.0506 2.2902l-10.122-2.5699-5.2447-1.3374c-0.92656-0.23601-4.2482-0.50698-4.86-1.2325-0.87411-1.0664 2.229-0.33217 2.7884-0.2535 1.6958 0.2535 3.3915 0.51573 5.0786 0.82167 3.1818 0.56817 6.2411 1.5035 9.3093 2.2814z" opacity=".1"/>
   <path d="m688.82 537.95c-0.87411-0.58565-3.3828-0.51573-4.458-0.76922-1.5734-0.37586-3.1206-0.87411-4.6678-1.3549-3.138-1.0227-6.2499-2.1853-9.4754-2.937-0.59439-0.13111-2.6223-0.16608-2.5262-0.91781 0.0962-0.75174 2.0279-1.014 2.5087-1.0489 2.8583-0.20979 6.4247 1.1276 9.082 2.0804a40.025 40.025 0 0 1 9.5365 4.9475z" opacity=".1"/>
   <path d="m682.4 521c-3.208-0.87411-6.1188-2.8671-9.4229-3.2517a3.8286 3.8286 0 0 1-2.4038-0.73425 2.8321 2.8321 0 0 1-0.77796-1.3986c2.2115-0.11363 4.7814 0.82167 6.7918 1.7045a21.372 21.372 0 0 1 3.1818 1.6958c0.73425 0.4458 1.8356 1.7307 2.6311 1.9842z" opacity=".1"/>
   <path d="m743.55 442.74a15.288 15.288 0 0 0 10.717 16.897c-0.42832 2.0716-2.5699 3.2167-4.0821 4.694-2.1328 2.0716-3.2342 5.1747-5.7516 6.7481-2.8059 1.7482-6.416 1.0664-9.6152 0.33216a1.1713 1.1713 0 0 1-0.75174-0.39335 1.0752 1.0752 0 0 1-0.13986-0.3409c-1.0577-3.8723-1.7482-8.0068-0.66432-11.888 0.87411-3.3041 2.972-6.1188 4.6503-9.0383 1.6783-2.9195 1.8356-6.0488 5.638-7.0104z" fill="#3f3d56"/>
   <path d="m665.4 392.62a22.727 22.727 0 0 0-9.6152 2.9283c-1.958 1.1189-3.9685 2.6223-6.2062 2.3514-1.3199-0.1486-2.6223-0.87411-3.9073-0.52447a7.6659 7.6659 0 0 0-2.0017 1.1888 2.2639 2.2639 0 0 1-2.2028 0.34964l-0.87411 12.098c-0.33216 4.5978-0.65558 9.2918 0.4458 13.776 0.56817 2.2902 1.8181 4.3706 1.958 6.6957 0.13986 2.3251-0.0699 4.7114 0.0961 7.0628 0.15734 2.1765 0.6381 4.3181 0.76048 6.4946 0.24475 4.1083-0.76922 8.1817-1.7482 12.176-1.4772 5.8915-2.3688 11.914-5.2447 17.246-0.80418 1.4772-1.7482 2.9807-1.7482 4.659 0 0.20979 0 0.41083 0.0525 0.61188-0.87411 0.48076-1.687 0.93529-2.43 1.4073-1.6608 1.0752-3.4352 2.2727-4.117 4.1345-0.55069 1.5122-0.2972 3.243-0.96152 4.7027-0.66433 1.4598-2.1853 2.5-2.5174 4.0734-0.23601 1.1451 0.21853 2.3514 0 3.4964a14.939 14.939 0 0 0-0.48076 1.8094c-0.0874 1.3112 1.0227 2.3688 2.1241 3.0856a17.106 17.106 0 0 0 5.2446 2.3076l5.2184-20.716a167.03 167.03 0 0 0 11.827-27.508 59.142 59.142 0 0 1 3.4178-9.0558 42.552 42.552 0 0 0 2.6223-5.1398c0.79544-2.2028 0.87411-4.5891 1.2587-6.9142a48.399 48.399 0 0 1 2.0542-7.9806c0.94404-2.8059 2.0367-5.603 2.229-8.5488 0.28846-4.2132-1.2412-8.6624 0.38461-12.561a16.704 16.704 0 0 1 2.666-4.0122c2.2552-2.7622 4.3094-5.6555 6.5646-8.4177-1.1713-1.25-3.1206-1.3811-4.8688-1.2762z" fill="#3f3d56"/>
  </g>
  <g transform="matrix(.87411 0 0 .87411 .017783 214.84)" opacity=".1">
   <path transform="translate(-28,-123.74)" d="m817.39 271.81-1.25 0.09-0.14 0.1a7.38 7.38 0 0 0 1.39-0.19z"/>
   <path transform="translate(-28,-123.74)" d="m840.27 292.57a26.94 26.94 0 0 1-1.28 5.84 26.74 26.74 0 0 0-1 3.52c-0.2 1.16-0.22 2.34-0.4 3.5a11.4 11.4 0 0 1-4.59 7.57 2 2 0 0 1-1.24 0.45c-0.78-0.09-1.26-1-1.55-1.82-1.59-4.59-1.21-10.2-4.14-13.86a15.15 15.15 0 0 0-4.74-3.53 6.11 6.11 0 0 0-2.42-0.91 6.37 6.37 0 0 0-3.5 1.28 21.79 21.79 0 0 1-6.92 3.06 8.5 8.5 0 0 1-7.15-1.54c-1.38-1.14-2.39-2.85-3.92-3.74s-3.13-0.84-4.64-1.45a6.83 6.83 0 0 1-3.9-4.46 2.87 2.87 0 0 1-0.08-0.38 7 7 0 0 0 0.08 3.38 6.83 6.83 0 0 0 3.9 4.46c1.51 0.61 3.21 0.62 4.64 1.45s2.54 2.6 3.92 3.74a8.5 8.5 0 0 0 7.15 1.54 21.79 21.79 0 0 0 6.92-3.06 6.37 6.37 0 0 1 3.5-1.28 6.11 6.11 0 0 1 2.42 0.91 15.15 15.15 0 0 1 4.67 3.56c2.93 3.66 2.55 9.27 4.14 13.86 0.29 0.83 0.77 1.73 1.55 1.82a2 2 0 0 0 1.31-0.48 11.4 11.4 0 0 0 4.6-7.6c0.18-1.16 0.2-2.34 0.4-3.5a26.74 26.74 0 0 1 1-3.52 22.51 22.51 0 0 0 1.33-8.41c-0.02-0.12-0.04-0.26-0.06-0.4z"/>
  </g>
  <g stroke-width=".87411">
   <path d="m654.73 432.55-0.5944 7.9806c-0.0874 1.0839-2.159 26.888-17.438 57.044-13.112 25.865-38.627 59.553-86.799 78.486q-5.638 2.229-11.704 4.1608l-4.5104-14.161a165.58 165.58 0 0 0 32.534-14.231c24.554-14.178 43.644-34.414 56.957-60.453a162.38 162.38 0 0 0 14.947-43.968h-54.807v-14.86z" fill="#ffc107"/>
   <path d="m543.99 576.07c48.163-18.933 73.687-52.613 86.79-78.478 15.279-30.157 17.36-55.943 17.438-57.044l0.59439-7.9806h6.1188l-0.59439 7.9806c-0.0787 1.0839-2.159 26.888-17.438 57.044-13.112 25.865-38.627 59.544-86.79 78.478q-5.638 2.229-11.713 4.1695l-0.59439-1.8618q3.1643-1.1276 6.1887-2.3076z" fill="#fff" opacity=".1"/>
   <path d="m447.56 566.07-4.5104 14.161q-6.0751-1.9405-11.713-4.1695c-48.163-18.933-73.687-52.613-86.79-78.478-15.279-30.157-17.36-55.943-17.438-57.044l-0.5944-7.9806h71.38v14.86h-54.815a162.48 162.48 0 0 0 14.991 43.968c13.313 26.04 32.394 46.275 56.948 60.445a165.21 165.21 0 0 0 32.543 14.239z" fill="#ffc107"/>
   <path d="m437.23 576.07c-48.163-18.933-73.687-52.613-86.79-78.478-15.279-30.157-17.36-55.943-17.438-57.044l-0.5944-7.9806h-6.1188l0.5944 7.9806c0.0787 1.0839 2.159 26.888 17.438 57.044 13.112 25.865 38.627 59.544 86.79 78.478q5.638 2.229 11.713 4.1695l0.5944-1.8618q-3.1555-1.1276-6.1887-2.3076z" fill="#fff" opacity=".1"/>
   <path d="m573.08 702.95v80.13h-164.92v-80.13l5.2447-6.9929c53.443-18.968 64.273-68.434 66.432-88.005a80.462 80.462 0 0 0 0.55069-8.1467h20.393a80.462 80.462 0 0 0 0.55069 8.1467c2.194 19.571 13.024 69.055 66.432 88.005z" fill="#ffc107"/>
   <rect x="408.16" y="702.95" width="164.92" height="10.052" opacity=".1"/>
   <path d="m422.14 695.96c53.443-18.968 64.273-68.434 66.432-88.005a80.462 80.462 0 0 0 0.55069-8.1467h-8.7411a80.462 80.462 0 0 1-0.55069 8.1467c-2.194 19.571-13.024 69.055-66.432 88.005l-5.2447 6.9929v80.13h8.7411v-80.13z" fill="#fff" opacity=".1"/>
   <path d="m383.11 432.55h14.79v14.86h-13.479q-0.79544-7.3425-1.3112-14.86z" opacity=".1"/>
   <path d="m447.56 566.07-4.5104 14.161q-6.0751-1.9405-11.713-4.1695a156.6 156.6 0 0 1-16.32-24.23 165.21 165.21 0 0 0 32.543 14.239z" opacity=".1"/>
   <path d="m533.67 566.07a165.58 165.58 0 0 0 32.534-14.231 157.22 157.22 0 0 1-16.32 24.239q-5.638 2.229-11.704 4.1608z" opacity=".1"/>
   <path d="m598.12 432.55q-0.51573 7.5174-1.3112 14.86h-13.47v-14.86z" opacity=".1"/>
   <path d="m501.36 607.95a56.502 56.502 0 0 1-21.494 0 80.462 80.462 0 0 0 0.55069-8.1467h20.393a80.462 80.462 0 0 0 0.55069 8.1467z" opacity=".1"/>
   <path d="m384.85 407.94c0.37587 110.19 47.578 199.3 105.77 199.3 58.189 0 105.38-89.107 105.77-199.3z" fill="#ffc107"/>
   <path d="m403.65 407.94h-18.793c0.37587 110.19 47.578 199.3 105.77 199.3a57.123 57.123 0 0 0 9.3967-0.79544c-53.793-8.9858-96.012-94.308-96.371-198.5z" fill="#fff" opacity=".1"/>
   <rect x="434.53" y="733.62" width="112.17" height="28.846" fill="#3f3d56"/>
  </g>
  <polygon transform="matrix(.87411 0 0 .87411 .017783 214.84)" points="625.42 598 625.42 593.5 497.09 593.5 497.09 626.5 503.09 626.5 503.09 598" fill="#fff" opacity=".1"/>
  <path d="m325.03 514.33c-2.0192-0.67306-13.907-10.078-14.807-14.335-0.90034-4.2569 6.2848-43.915 6.2848-43.915s-0.66432 0-1.7482-0.13112v-0.6381l1.4772-52.097s6.0576-34.964-5.3845-32.928c-11.442 2.0367-4.2656 32.928-4.2656 32.928s-1.3024 15.682-2.2202 20.384c-0.87411 4.5366-4.8775 23.015-2.1503 28.758a6.2586 6.2586 0 0 0 0.33216 0.59439s0.45454 19.711-4.4842 22.403c-4.7114 2.5611-6.6695 15.454-6.8355 16.608l-0.25349-0.10489a13.697 13.697 0 0 1-3.645-3.3304c-0.10489-0.13112-0.18356-0.27097-0.27972-0.41083a19.23 19.23 0 0 0-0.51572-26.11 19.388 19.388 0 0 0-5.4107-3.951 12.412 12.412 0 0 0-1.1626-4.8251c-2.2727-4.86-14.86-11.215-23.802-11.363-4.1258-0.12238-7.5086 1.0489-8.7411 4.2744-0.62936 1.6346-0.43706 3.4964-0.69929 5.1922-0.52447 3.4964-2.7709 6.2324-5.6555 8.4089a35.454 35.454 0 0 0-3.7674-3.6276c-2.9195-2.2377-8.7411-9.6152-8.7411-9.6152s-18.173-18.82-19.519-23.977-19.501-36.127-23.54-30.734 13.907 28.898 13.907 28.898 3.409 8.54 6.0314 11.425c2.6223 2.8846 22.727 32.08 22.727 32.08l0.96152 1.993c-4.2482 2.2377-8.1292 5.0873-9.5016 9.5278-2.0105 6.5383 2.3863 13.112 5.4282 19.23 5.9265 11.94 6.7744 27.167-0.87411 38.076-6.853 9.6327-18.741 14.213-29.868 18.216a29.396 29.396 0 0 0 18.881 6.2674c-2.5699 7.4474-11.678 9.9124-19.44 11.294 4.0734 3.916 9.9037 5.3408 15.498 6.2062a46.433 46.433 0 0 0 8.2953 0.65558h0.68181l0.68181-0.0524a23.741 23.741 0 0 0 2.8234-0.35839c4.0384-0.82166 7.9631-3.0244 10.026-6.5908 1.7482-3.0506 2.3601-7.2114 5.5331-8.7411a7.0715 7.0715 0 0 1 2.6223-0.62062h-0.0961 1.8007l13.225 0.13112h1.687c3.7324-0.0874 7.7184-0.73426 9.6152-3.8199a10.594 10.594 0 0 0 1.1975-4.8513c0.27971-4.187 0-8.4964 0.11363-12.718 1.1276 7.6834 2.3076 19.659-0.49824 24.082a41.083 41.083 0 0 1-8.1992 8.8897 15.734 15.734 0 0 0-2.1678 2.2202c-0.42832 0.30594-0.68181 0.47202-0.68181 0.47202l-0.27097 0.81292a15.393 15.393 0 0 0-2.1328 4.9475 3.4353 3.4353 0 0 0-0.16608 1.4073c0.30594 0.62062-2.1853 3.1818-1.4598 4.2569-6.2237 7.2988-7.4037 18.356-7.4037 18.356l-11.363 17.255c-5.839 15.341-14.58 16.914-14.58 16.914s-20.533-13.776-21.092-14.449c-0.55943-0.67307-8.4089-4.0384-8.4089-4.0384a8.8984 8.8984 0 0 0-4.0384-3.6887c-2.6923-1.1189-2.9195-5.2447-2.9195-5.2447-0.33216-9.7463-6.0576-10.489-6.0576-10.489-4.6153-0.39335-8.138 0.42831-10.848 1.9318l-0.82167 0.0612c-3.9685 0.32342-8.7411 0.68181-13.986 1.0314-14.589 0.96152-18.059 10.411-18.059 10.411s-1.7919 2.0192 0.55943 4.2045c2.3514 2.1853 17.404 0 18.042-0.0524a9.7725 9.7725 0 0 1-3.4265-0.23601c2.3688-0.0874 5.6293-0.17482 8.4089-0.17482h0.67306a36.38 36.38 0 0 0-0.25349 4.4405c0 2.7972 7.7359 4.5891 7.7359 4.5891l23.557 20.979s14.807 6.617 24.23 16.136c9.4229 9.5191 17.753 1.3024 17.753 1.3024 9.9736-2.465 38.671-37.158 38.697-37.193 0 1.014 0.60313 34.755 1.7482 41.529a4.5017 4.5017 0 0 0 0.25349 1.0052c1.3461 2.9108-0.45454 10.865-1.2325 14.222a39.51 39.51 0 0 0-0.56817 8.5138s-10.76 41.083-9.8687 44.693c0.89159 3.6101-5.8303 20.384-5.8303 20.384v13.986l1.1713-0.0612a7.5523 7.5523 0 0 0-0.41958 0.69928l-0.0787 0.1486s7.1764 1.5647 12.002 1.1189c4.8251-0.44579 13.112 3.715 13.112 3.715s2.8059 1.3286 11.442 1.8881c8.6362 0.55943 8.6362-3.8111 8.6362-3.8111-0.98774-5.9527-14.633-7.9457-15.052-8.0068-1.1014-0.69055-2.1328-1.4423-2.9807-2.0891l-0.17483-0.13986a3.7412 3.7412 0 0 0 0.1486-0.40209c1.4598-5.944-6.617-8.5226-6.617-8.5226v-1.451c5.2447-2.6923 6.2848-21.171 6.2848-21.171s7.867-22.849 8.9684-26.66 0-9.519 0-9.519l0.7867-4.93s1.687-3.3566 1.687-4.0296a9.9561 9.9561 0 0 1 1.9056-4.7027c1.2325-1.4598-1.3461-4.93-1.3461-4.93l2.2465-5.8216v-6.3897l5.2447-23.181s5.4982-27.001 3.5926-35.838 2.2465-13.33 2.2465-13.33a11.049 11.049 0 0 1-1.1538 0.52446 33.4 33.4 0 0 0 1.3549-3.7237l11.8 1.4598v0.17482h4.2569s-1.3461-16.608-1.3461-23.304c0-6.6957 4.5366-30.725 4.5366-30.725s2.0192-23.487 0-24.16zm-52.385-19.388c0 0.65558-0.0612 1.3374-0.1049 2.0367l-0.23601 0.35839-0.43705-0.36713-0.53321 0.83041-0.15734 0.0787c-1.1538-0.5944-1.7482-3.9947-2.5786-3.2604l-0.11364 0.0962c-0.18356-0.20979-0.36712-0.27098-0.55943-0.0962l-0.17482 0.14859v-0.77795a19.667 19.667 0 0 0 4.895 0.62061c9e-3 0.11364 0 0.22727 0 0.33217zm39.248 77.341h0.25349l-0.41958 1.1014c0.0525-0.36713 0.1049-0.72551 0.16609-1.1014zm-43.085 198.22-1.6084-0.40209 0.87411-0.1486 0.81292 0.53321 0.0962 0.0699zm16.433-2.3514c-0.53321-0.27971-1.0752-0.60313-1.5996-0.93529 0.17482 0.0961 0.86537 0.45453 1.5996 0.93529z" fill="url(#e2a6fc7a-3d7b-4d78-8350-c6ea621e07cc)" stroke-width=".87411"/>
  <polygon transform="matrix(.87411 0 0 .87411 .017783 214.84)" points="342.87 430.67 363.43 433.23 363.43 390.03 351.32 421.59 354.26 421.59" fill="#f86d70"/>
  <polygon transform="matrix(.87411 0 0 .87411 .017783 214.84)" points="342.87 430.67 363.43 433.23 363.43 390.03 351.32 421.59 348.27 420.77" opacity=".1"/>
  <polygon transform="matrix(.87411 0 0 .87411 .017783 214.84)" points="363.43 410.22 370.4 352.87 344.44 352.87 344.44 410.22" fill="#f86d70"/>
  <polygon transform="matrix(.87411 0 0 .87411 .017783 214.84)" points="363.43 410.22 370.4 352.87 344.44 352.87 344.44 410.22" opacity=".1"/>
  <g stroke-width=".87411">
   <path d="m268.68 535.16 3.5838-0.60314 8.2341-1.3986s24.729-5.5768 29.833-6.0314a31.879 31.879 0 0 0 8.9509-2.5524c1.3374-0.57691 2.1853-1.014 2.1853-1.014l-8.9072-16.267-13.82-10.245s-8.7411-1.8618-12.439-6.9492a8.1904 8.1904 0 0 1-1.1451-7.7621c2.2552-6.9929-13.47 6.6869-13.47 6.6869s0.1486 3.2779 0 7.4562c0 0.82166-0.0787 1.6783-0.13985 2.5524 0 0.57691-0.0787 1.1538-0.13986 1.7482-0.38461 4.152-1.1713 8.4264-2.7272 10.979-3.8024 6.2411 0 23.4 0 23.4z" fill="#fbbebe"/>
   <path d="m271.68 496.83h0.34965c0.62936 0 1.1363-1.3374 1.7482-1.3986 4.9212-0.47202 9.4142-1.5035 12.535-4.9912a8.1991 8.1991 0 0 1-1.1451-7.7534c2.2552-6.9929-13.47 6.6782-13.47 6.6782s0.16608 3.2866-0.0175 7.4649z" opacity=".1"/>
   <path d="m252.54 477a19.152 19.152 0 0 0 19.16 19.16c0.62936 0 1.25 0 1.8706-0.0874a19.16 19.16 0 1 0-21.031-19.073z" fill="#fbbebe"/>
   <path d="m246.66 447.92c-0.62936 1.6258-0.43705 3.444-0.69055 5.166-0.93529 6.2149-7.2551 9.9386-12.972 12.543-5.7167 2.6048-12.168 5.6904-13.986 11.696-1.993 6.4946 2.3601 13.007 5.3845 19.099 5.8915 11.87 6.7306 27.01-0.87411 37.866-6.7569 9.6152-18.531 14.178-29.615 18.181a29.195 29.195 0 0 0 18.75 6.2412c-2.5437 7.4037-11.591 9.86-19.3 11.224 4.0471 3.8985 9.8425 5.3146 15.393 6.1712 4.0471 0.62936 8.1992 1.0402 12.238 0.22727 4.0384-0.81292 7.867-3.0069 9.9474-6.5558 1.7482-3.0332 2.3426-7.1677 5.4982-8.6974a9.9474 9.9474 0 0 1 4.4842-0.65558l13.112 0.13986c4.0821 0 8.9159-0.31468 11.023-3.8024a10.489 10.489 0 0 0 1.1888-4.8251c0.56817-8.6012-1.0839-17.692 2.4562-25.541 1.0664-2.3688-5.7779-6.1188-5.0611-8.6275 2.465-8.6275 3.0856-15.419 3.0594-24.396 0-6.9492 4.5192-12.937 8.2516-18.802 3.7324-5.8653 6.853-13.269 3.9073-19.563-3.3216-7.0191-28.269-17.22-32.193-7.089z" fill="#3f3d56"/>
   <path d="m264.11 767.98 3.3391 2.2115 0.51573 0.3409 0.0962 0.0612 3.9597 2.6223 9.2481 1.5559 8.1292-0.55943s2.3426-4.895-1.3374-4.7814a7.6572 7.6572 0 0 1-3.3566-0.97026l-0.50698-0.25349c-0.53321-0.27971-1.0664-0.59439-1.5909-0.92656-1.0926-0.69054-2.1241-1.4423-2.9545-2.0804-1.2238-0.94404-2.0367-1.6608-2.0367-1.6608z" fill="#fbbebe"/>
   <path d="m267.5 770.2 0.51572 0.3409 0.0962 0.0612 3.9597 2.6223 9.2481 1.5559 8.1292-0.55943s2.3426-4.895-1.3374-4.7814a7.6572 7.6572 0 0 1-3.3566-0.97026c0.64684 0.50699 1.1888 1.0577 1.2412 1.521 0.1486 1.25-6.0139 3.4964-6.0139 3.4964l-8.6886-2.2989s-1.4772-0.41957-3.4964-0.94404l-0.19231-0.0524z" opacity=".1"/>
   <path d="m252.64 772.33s7.124 1.5559 11.914 1.1101c4.7901-0.4458 13.042 3.68 13.042 3.68s2.7884 1.3112 11.363 1.8706c8.575 0.55943 8.575-3.7936 8.575-3.7936-0.979-5.9177-14.528-7.867-14.947-7.9544 0.16608 0.0874 0.87411 0.44579 1.5909 0.92655 0.96152 0.62936 2.0017 1.451 2.0804 2.1154 0.1486 1.2412-6.0139 3.4964-6.0139 3.4964l-8.6886-2.2902s-1.4772-0.42831-3.4964-0.95278h-0.19231a74.527 74.527 0 0 0-9.1082-1.8793c-3.7412-0.40209-5.6555 2.7797-6.0488 3.4964a1.0402 1.0402 0 0 0-0.0699 0.17482z" fill="#3f3d56"/>
   <path d="m140.35 615.14 3.7849 2.902s1.1014-0.0525 2.7447-0.10489h0.52446c2.3514-0.0874 5.5943-0.17483 8.3478-0.17483a26.503 26.503 0 0 1 5.3233 0.2972c1.8881 0.66432 5.2447-10.804 5.2447-10.804l-3.7936-0.87411-1.2587-0.29719-0.87411-0.20979-3.0856-0.72551-9.353 1.0664-6.5733 4.2307z" fill="#fbbebe"/>
   <path d="m140.35 615.14 3.7849 2.902s1.1014-0.0525 2.7447-0.10489a3.3129 3.3129 0 0 1-1.7482-1.5647c-2.4475-6.7918 9.6939-9.6939 9.6939-9.6939l5.6555-0.24475 1.1014-0.0524h0.87411l-1.2587-0.29719-0.87411-0.20979-3.0856-0.72551-9.353 1.0664-6.5733 4.2307z" opacity=".1"/>
   <path d="m132.88 618.21c2.2902 2.1153 17.29 0 17.919-0.0525a9.4404 9.4404 0 0 1-3.4003-0.23601 3.7499 3.7499 0 0 1-2.6223-1.8793c-2.4475-6.8006 9.6939-9.6939 9.6939-9.6939l5.6555-0.24475 1.0926-0.0525 13.75-0.59439 0.66432-3.7849s-4.4667 0.41957-11.477 0.979c-3.9422 0.32343-8.7411 0.68181-13.925 1.0227-14.484 0.96152-17.928 10.358-17.928 10.358s-1.757 2.0105 0.57691 4.1782z" fill="#3f3d56"/>
   <path d="m301.1 454.14a3.8723 3.8723 0 0 0 0.33216 0.5944l3.3391 4.895 8.6886 0.87411 0.0962-3.444 1.4598-51.817s6.0139-34.755-5.3496-32.753c-11.363 2.0017-4.2307 32.753-4.2307 32.753s-1.2937 15.594-2.2028 20.279c-0.88285 4.5279-4.8426 22.937-2.1328 28.618z" fill="#fbbebe"/>
   <path d="m281.6 582.84 2.4737 4.2307 5.5331 9.4666s10.035 3.68 12.605 0.87411c1.4073-1.5297 2.9283-6.8705 3.9947-11.363 0.87411-3.6363 1.4598-6.7044 1.4598-6.7044z" fill="#fbbebe"/>
   <path d="m281.6 582.84 2.4737 4.2307a2.9108 2.9108 0 0 0 0.41957-0.4458c2.7972-3.5664 15.113-0.76047 21.713-0.5332 0.87411-3.6363 1.4598-6.7044 1.4598-6.7044z" opacity=".1"/>
   <path d="m155.75 617.74a26.503 26.503 0 0 1 5.3233 0.2972c1.8881 0.66432 5.2447-10.804 5.2447-10.804l-5.0524-1.1888 13.75-0.59439 0.66433-3.7849s-4.4667 0.41957-11.477 0.979a14.423 14.423 0 0 0-3.8198 3.1905l-0.20979 0.26223c-2.9283 3.5926-4.0122 8.2254-4.423 11.643z" opacity=".1"/>
   <path d="m264.11 767.98 3.8548 2.5524c5.7516-1.0402 11.005-2.6748 11.626-5.2447a0.87411 0.87411 0 0 0 0-0.12237c-1.2238-0.94404-2.0367-1.6608-2.0367-1.6608z" opacity=".1"/>
   <path d="m252.71 772.18a133.41 133.41 0 0 0 15.157-1.6258 74.527 74.527 0 0 0-9.117-1.8968c-3.7324-0.40209-5.6468 2.7797-6.0401 3.5227z" opacity=".1"/>
   <path d="m156.17 622.16c0 2.7884 7.6834 4.5716 7.6834 4.5716l23.4 20.83s14.703 6.5733 24.056 16.04c9.353 9.4666 17.605 1.3374 17.605 1.3374 9.9124-2.4475 38.461-36.984 38.461-36.984s0.66433 39.44 2.0017 42.333c1.3374 2.8933-0.44579 10.804-1.2238 14.152a39.335 39.335 0 0 0-0.55943 8.4614s-10.69 40.882-9.7988 44.448c0.89159 3.5664-5.7954 20.279-5.7954 20.279v13.925s26.18-1.0052 27.622-6.9055-6.5646-8.4701-6.5646-8.4701v-1.451c5.2447-2.6748 6.2324-21.049 6.2324-21.049s7.8058-22.727 8.9159-26.512c1.1101-3.7849 0-9.4754 0-9.4754l0.77796-4.895s1.6696-3.3478 1.6696-4.0122a9.9124 9.9124 0 0 1 1.8968-4.6765c1.2238-1.451-1.3374-4.9038-1.3374-4.9038l2.229-5.7954v-6.346l5.2447-23.059s5.4632-26.853 3.5664-35.655c-1.8968-8.8023 2.229-13.252 2.229-13.252-8.9421 4.6852-13.453-5.7429-14.93-10.227-0.37587-1.1538-0.55943-1.923-0.55943-1.923s-12.281-4.5279-23.715-3.444a27.298 27.298 0 0 0-6.8093 1.4423c-12.701 4.5716-14.703 23.505-14.703 23.505l-11.25 17.159c-5.7954 15.262-14.484 16.818-14.484 16.818s-20.384-13.697-20.979-14.37c-0.59439-0.67306-8.3565-4.0122-8.3565-4.0122a8.8285 8.8285 0 0 0-4.0122-3.6713c-2.6748-1.1189-2.8933-5.2447-2.8933-5.2447-0.33216-9.6939-6.0139-10.489-6.0139-10.489-19.72-1.6433-19.606 18.741-19.606 21.521z" fill="#3f3d56"/>
   <rect transform="scale(-1)" x="-281.6" y="-567.69" width="12.028" height="37.316" fill="#f86d70"/>
   <rect transform="scale(-1)" x="-281.6" y="-567.69" width="12.028" height="37.316" opacity=".1"/>
   <path d="m301.1 454.06a0.54195 0.54195 0 0 0 0 0.0787 3.8723 3.8723 0 0 0 0.33216 0.5944l3.3391 4.895 8.6886 0.87411 0.0961-3.444c-2.7097-0.20979-8.881-0.95278-12.456-2.9982z" opacity=".1"/>
   <path d="m301.44 454.73s0.4458 19.598-4.458 22.272c-4.9038 2.6748-6.8093 16.608-6.8093 16.608s14.86 9.7726 18.173 14.073 10.918 14.545 9.353 16.993c-1.5646 2.4475 3.7936 13.592 3.7936 13.592s-9.8075 20.052-7.5785 27.631 2.4475 27.622 2.4475 27.622h4.2394s-1.3374-16.486-1.3374-23.173 4.4492-30.524 4.4492-30.524 2.0104-23.391 0-24.056c-2.0104-0.66432-13.811-10.026-14.703-14.265s6.2412-43.705 6.2412-43.705-9.1344-0.39335-13.811-3.0681z" fill="#f86d70"/>
   <path d="m269.35 526.91a19.073 19.073 0 0 0 2.9108 7.6397l8.2341-1.3986s24.729-5.5768 29.833-6.0314a31.879 31.879 0 0 0 8.9509-2.5524 39.475 39.475 0 0 0-11.057-18.138l-3.138-2.9108a52.578 52.578 0 0 0-15.821-10.113c0.36713 0.30594 26.311 22.456 20.629 26.8-5.6817 4.3443-20.979-6.2324-20.979-6.2324l-17.395-14.947-0.62936-0.54195-1.0052 1.5647a14.589 14.589 0 0 1 1.4947 0.71677 25.594 25.594 0 0 1 12.238 15.21c3.5751 12.019-14.265 10.935-14.265 10.935z" opacity=".1"/>
   <path d="m264 582.61s16.486 9.1344 20.489 4.0122c0.87411-1.1276 2.7185-1.6171 5.0174-1.7482-0.37586-1.1538-0.55943-1.923-0.55943-1.923s-12.281-4.5279-23.715-3.444c-0.75173 1.8881-1.2325 3.1031-1.2325 3.1031z" fill="#444053"/>
   <path d="m271.59 498.51 18.024 15.507s15.236 10.612 20.979 6.2324-20.638-26.809-20.638-26.809a53.321 53.321 0 0 1 15.813 10.087l3.138 2.9108c8.2516 7.6485 10.113 7.6485 10.393 18.89 0.0699 2.7709-0.87411 6.7481-1.5996 7.4649-2.6748 2.6223-4.5454 21.669-4.1345 23.898 0.41084 2.229-4.9824 21.468-3.2342 26.818s-21.853-2.6748-25.847 2.4562c-3.9947 5.131-20.48-4.0122-20.48-4.0122s9.1344-23.4 11.363-24.956c2.229-1.5559 4.9038-13.592 0-19.16-4.9038-5.5681-5.3408-10.918-5.3408-10.918s17.832 1.1014 14.257-10.918a25.227 25.227 0 0 0-13.706-15.926z" fill="#e8e8f0"/>
   <path d="m295.64 537.94s-6.9142 13.033-15.856 16.416c-0.28845 0.10489-0.56817 0.20105-0.87411 0.28846-9.3355 2.8408 17.43-12.666 16.73-16.704z" opacity=".1"/>
   <path d="m198.95 422.64s3.3391 8.4701 6.0139 11.363c2.6748 2.8933 22.5 31.861 22.5 31.861l1.6783 3.4964 1.4423 2.9807 12.701-1.3374 0.87411-5.1223-0.4895-0.5944c-1.2762-1.5297-4.7552-5.638-7.089-7.4299-2.8933-2.2202-8.6887-9.5715-8.6887-9.5715s-18.042-18.723-19.379-23.846c-1.3374-5.1223-19.388-35.838-23.391-30.524-4.0034 5.3146 13.828 28.723 13.828 28.723z" fill="#fbbebe"/>
  </g>
  <g transform="matrix(.87411 0 0 .87411 .017783 214.84)" opacity=".1">
   <path transform="translate(-28,-123.74)" d="m297.74 519.1a11.39 11.39 0 0 0-5.13 0.74c-3.6 1.75-4.28 6.48-6.28 9.95-2.34 4.06-6.8 6.57-11.39 7.5a25.44 25.44 0 0 1-2.76 0.38 31.34 31.34 0 0 0 8.76-0.38c4.59-0.93 9.05-3.44 11.39-7.5 2-3.47 2.68-8.2 6.28-9.95a8 8 0 0 1 3-0.7z"/>
   <path transform="translate(-28,-123.74)" d="m333.26 442.39c0-7.95 5.17-14.8 9.43-21.51s7.84-15.18 4.47-22.38c-2.88-6.15-20.24-14.4-30.26-12.77 9.81 1.27 21.9 7.73 24.26 12.77 3.37 7.2-0.21 15.67-4.47 22.38s-9.45 13.56-9.43 21.51c0 10.26-0.69 18-3.51 27.91-0.81 2.85 7 7.16 5.8 9.86-4.06 9-2.16 19.38-2.81 29.22a12.15 12.15 0 0 1-1.37 5.52c-2 3.29-6.1 4.14-10.09 4.32h3.49c4.66 0 10.19-0.36 12.6-4.35a12.15 12.15 0 0 0 1.37-5.52c0.65-9.84-1.25-20.23 2.81-29.22 1.22-2.7-6.61-7-5.8-9.86 2.82-9.84 3.53-17.62 3.51-27.88z"/>
  </g>
  <g stroke-width=".87411">
   <path d="m229.14 469.34 1.4423 2.9807 12.701-1.3374 0.87411-5.1223-0.4895-0.59439c-1.3549 0.66432-11.503 5.5506-14.528 4.0734z" opacity=".1"/>
   <path d="m276.04 502.85s-3.1206-4.895-4.9038-3.5664c-1.7832 1.3286-2.4737-4.0122-3.4964-3.1206-1.0227 0.89159-4.0034 3.3741-5.2447-0.0961-0.97026-2.7622-11.53-20.236-15.813-27.263-1.1014-1.8181-1.7919-2.937-1.7919-2.937s-12.028 6.0139-14.921 4.0122v4.2307l2.4475 0.22727 13.112 24.475s4.1258 6.5646 3.8461 8.8547c-0.27972 2.2902 5.2884 12.316 6.18 12.981 0.89159 0.66432 10.489 11.809 10.489 11.809s4.9038 24.064 0.66433 30.751c-4.2394 6.6869-11.582 11.582-11.582 11.582s-2.2115 6.4597-1.8881 7.1327c0.32342 0.67307-2.5699 3.5664-1.2325 4.458s3.1206 7.124 3.1206 7.124 6.2412-10.026 9.6152-11.582c3.3741-1.5559 7.6922-22.063 7.6922-22.063s1.2325-12.08 1.3286-19.877c0.0962-7.7971-0.29719-37.132 2.3776-37.132z" opacity=".1"/>
   <path d="m275.36 502.85s-3.1118-4.895-4.895-3.5664c-1.7832 1.3286-2.4825-4.0122-3.4964-3.1206-1.014 0.89159-3.9947 3.3741-5.2447-0.0961-0.979-2.7622-11.538-20.236-15.813-27.263l-1.7919-2.937s-12.028 6.0139-14.93 4.0122v4.2307l2.4562 0.22727 13.112 24.475s4.1345 6.5646 3.8461 8.8547c-0.28846 2.2902 5.2447 12.316 6.18 12.981 0.9353 0.66432 10.489 11.809 10.489 11.809s4.9038 24.064 0.67306 30.751a40.978 40.978 0 0 1-8.068 8.9334 15.594 15.594 0 0 0-5.2447 8.4089 3.3216 3.3216 0 0 0-0.15734 1.3986c0.32342 0.66432-2.5699 3.5664-1.2325 4.458 1.3374 0.8916 3.138 7.1502 3.138 7.1502s6.2412-10.026 9.6152-11.582c3.3741-1.5559 7.7009-22.063 7.7009-22.063s1.2238-12.08 1.3286-19.877c0.1049-7.7971-0.28845-37.185 2.3339-37.185z" fill="#f86d70"/>
   <path d="m244.84 604.23s9.3617 1.7482 13.112 4.4492-14.257-4.2307-14.257-4.2307z" opacity=".1"/>
   <path d="m267.35 627.95s9.7638 8.138 8.0156 15.489-6.2586 25.847-6.2586 25.847z" opacity=".1"/>
   <path d="m181.95 612.31s-13.758 1.5035-12.867 3.2866 12.867-1.6433 12.867-1.6433z" opacity=".1"/>
   <path d="m287.6 679.98s0.87411 1.1101-4.2307 0-1.3374-4.5366-1.3374-4.5366z" opacity=".1"/>
   <path d="m285.85 695.35s-6.9929 1.1101-10.743 0c-3.7499-1.1101 10.743 0 10.743 0z" opacity=".1"/>
   <path d="m271.46 755.51s-1.2238-1.3374-7.3513 1.1101c-6.1275 2.4475-8.575 2.5612-10.358 1.7482-1.7832-0.81292 17.709-2.8583 17.709-2.8583z" opacity=".1"/>
   <path d="m278.26 610.41-8.6886 12.089s4.6765-10.585 8.6886-12.089z" opacity=".1"/>
   <path d="m261.38 499.28s-0.37587 4.0122-5.9789 5.5768c-5.603 1.5647-6.6695 2.8321-6.6695 2.8321" opacity=".1"/>
   <path d="m246.81 470.2s-7.395 5.2447-15.113 4.1345" opacity=".1"/>
   <path d="m252.44 582.5s2.159 1.3549 7.3425-4.5716" opacity=".1"/>
   <path d="m306.28 519.66c0.20979-1.0839-0.54195-2.0891-1.25-2.937l-1.451-1.7482a6.7306 6.7306 0 0 0-0.95278-0.979c-0.87411-0.67306-1.993-0.87411-2.902-1.4772" opacity=".1"/>
   <path d="m775.61 214.94s-73.591-4.4405-64.938 47.132c0 0-1.7482 9.117 6.5383 13.252 0 0 0.13112-3.8199 7.5523-2.5174a34.527 34.527 0 0 0 7.9981 0.3846 16.661 16.661 0 0 0 9.7725-4.0384s20.69-8.5488 28.732-42.359c0 0 5.9527-7.3775 5.7167-9.2743l-12.421 5.3058s4.2482 8.9596 0.87411 16.407c0 0-0.40209-16.084-2.7884-15.734-0.48076 0.0787-6.4509 3.1031-6.4509 3.1031s7.2988 15.603 1.7919 26.949c0 0 2.0891-19.23-4.0734-25.821l-8.7411 5.1048s8.5313 16.119 2.7447 29.274c0 0 1.486-20.174-4.5891-28.033l-7.9194 6.18s8.0156 15.891 3.1293 26.8c0 0-0.6381-23.487-4.8426-25.262 0 0-6.9317 6.1188-7.9894 8.6187 0 0 5.4894 11.538 2.0804 17.622 0 0-2.0891-15.647-3.8024-15.734 0 0-6.9055 10.367-7.6222 17.482 0 0 0.29719-10.568 5.9527-18.461 0 0-6.6782 1.1451-10.577 5.4719 0 0 1.0752-7.325 12.281-7.9631 0 0 5.7079-7.867 7.2289-8.3477 0 0-11.136-0.92656-17.893 2.0629 0 0 5.944-6.9142 19.938-3.7674l7.8233-6.3897s-14.668-2.0017-20.891 0.20979c0 0 7.159-6.1188 22.998-1.6608l8.5138-5.0873s-12.509-2.6923-19.956-1.7482c0 0 7.867-4.2394 22.456 0.35838l6.1188-2.736s-9.1607-1.8007-11.844-2.0891c-2.6835-0.28846-2.8234-1.0227-2.8234-1.0227a31.774 31.774 0 0 1 17.211 1.9143s12.937-4.7726 12.71-5.5856z" fill="#ffc107" opacity=".1"/>
   <path d="m684.84 228.06s-33.216-2.0105-29.326 21.293c0 0-0.77795 4.1258 2.9458 5.9964 0 0 0.0612-1.7482 3.4178-1.1451a15.306 15.306 0 0 0 3.6101 0.17482 7.4911 7.4911 0 0 0 4.4142-1.8269s9.353-3.8548 12.989-19.134c0 0 2.6835-3.3391 2.5786-4.1957l-5.6118 2.3951s1.923 4.0559 0.41083 7.4212c0 0-0.18356-7.2726-1.2587-7.0978-0.21853 0-2.9195 1.3986-2.9195 1.3986s3.3041 7.0541 0.81292 12.185c0 0 0.94404-8.6886-1.8444-11.669l-3.951 2.3076s3.8636 7.2813 1.2412 13.225c0 0 0.67306-9.117-2.0716-12.666l-3.5751 2.8234s3.6188 7.1852 1.4161 12.106c0 0-0.28846-10.612-2.194-11.407 0 0-3.1293 2.7622-3.6101 3.8985 0 0 2.4825 5.2446 0.94404 7.9544 0 0-0.94404-7.0715-1.7482-7.0978 0 0-3.1118 4.6852-3.444 7.867a17.089 17.089 0 0 1 2.6922-8.3478 9.4054 9.4054 0 0 0-4.7814 2.4737s0.4895-3.3041 5.5506-3.6013c0 0 2.6223-3.5489 3.2692-3.7674 0 0-5.0349-0.41957-8.0855 0.9353 0 0 2.6835-3.1293 9.0121-1.7482l3.4964-2.8846s-6.6258-0.87411-9.4404 0.0962c0 0 3.2342-2.7622 10.393-0.75174l3.8461-2.2989s-5.6468-1.2238-9.0208-0.77796c0 0 3.5576-1.923 10.148 0.15734l2.7534-1.2325s-4.1433-0.82166-5.3583-0.94404c-1.215-0.12237-1.2762-0.46328-1.2762-0.46328a14.327 14.327 0 0 1 7.7796 0.87411s5.9002-2.159 5.7954-2.5262z" fill="#ffc107" opacity=".1"/>
  </g>
  <g transform="translate(1.639 10.858)" fill="#ffc107" stroke-width=".87411">
   <ellipse cx="777.92" cy="806.41" rx="35.148" ry="5.9439"/>
   <path d="m792.46 796.69a10.175 10.175 0 0 0 3.3478-5.0611c0.43705-2.0017-0.41957-4.3706-2.3426-5.1485-2.1503-0.82166-4.4492 0.67307-6.1887 2.1765-1.7395 1.5035-3.7412 3.2255-6.0139 2.902a9.1782 9.1782 0 0 0 2.8321-8.575 3.6013 3.6013 0 0 0-0.7867-1.7482c-1.1975-1.2762-3.3566-0.73425-4.7901 0.27098-4.5454 3.1992-5.8128 9.3792-5.8391 14.93-0.45453-2.0017-0.0699-4.0908-0.0787-6.1188-9e-3 -2.0279-0.57691-4.3705-2.3164-5.4457a6.9142 6.9142 0 0 0-3.4964-0.82166c-2.0367-0.0787-4.3181 0.13111-5.7079 1.6258-1.7482 1.8531-1.285 4.965 0.21852 6.9929s3.8024 3.3304 5.9177 4.7377a13.112 13.112 0 0 1 4.222 4.0296 3.6363 3.6363 0 0 1 0.31468 0.72551h12.814a35.637 35.637 0 0 0 7.8932-5.4719z"/>
  </g>
 </g>
</svg>
